<svg width="258" height="251" viewBox="0 0 258 251" fill="none" xmlns="http://www.w3.org/2000/svg">
<g clip-path="url(#clip0_659_1196)">
<path d="M214.842 0H43.158C19.592 0 0.488037 19.104 0.488037 42.67V207.928C0.488037 231.494 19.592 250.598 43.158 250.598H214.842C238.408 250.598 257.512 231.494 257.512 207.928V42.67C257.512 19.104 238.408 0 214.842 0Z" fill="#00005B"/>
<path d="M103.742 149.93H63.9126L55.8083 175.152C55.7044 175.584 55.4613 175.97 55.1165 176.251C54.7716 176.532 54.3441 176.691 53.8997 176.705L33.5667 176.704C32.4161 176.704 32.0135 176.071 32.3599 174.806L66.8443 75.9034L67.1887 74.8642L67.3031 74.5088L67.534 73.7659C67.6485 73.3823 67.7629 72.9757 67.8784 72.535C68.3302 70.2348 68.5611 67.8965 68.5682 65.5521C68.5449 65.3882 68.56 65.2212 68.6124 65.0641C68.6648 64.9071 68.7531 64.7644 68.8701 64.6473C68.9872 64.5302 69.1299 64.442 69.2869 64.3896C69.444 64.3372 69.6111 64.322 69.775 64.3453H97.1902C97.9934 64.3453 98.4522 64.6325 98.5697 65.2078L137.709 174.98C138.053 176.13 137.709 176.705 136.674 176.704H114.259C113.874 176.747 113.487 176.648 113.17 176.426C112.852 176.204 112.627 175.873 112.535 175.497L103.742 149.93ZM70.1203 128.665H97.3629L96.9743 127.382L96.3508 125.352L95.4382 122.445L93.6862 116.956L92.0176 111.681L88.9132 101.853C88.0555 99.1398 87.2321 96.4161 86.4434 93.6822L85.5619 90.5738L84.6101 87.1673L83.7406 84.0077H83.5679C82.7056 88.1464 81.655 92.2436 80.4194 96.2866L79.2547 100.024L76.4536 109.06L75.0339 113.664C74.7769 114.495 74.5219 115.317 74.2659 116.13L73.5028 118.537L72.7438 120.889L71.9888 123.182L71.2378 125.418C70.8643 126.522 70.4908 127.603 70.1203 128.665ZM201.16 140.114H167.194C167.61 143.475 168.726 146.711 170.47 149.613C172.398 152.487 175.125 154.735 178.314 156.079C182.637 157.949 187.313 158.866 192.022 158.766C195.758 158.694 199.48 158.285 203.143 157.545C206.419 157.103 209.63 156.266 212.704 155.053C213.279 154.595 213.568 154.88 213.568 155.914V172.294C213.596 172.741 213.507 173.187 213.308 173.588C213.111 173.901 212.846 174.166 212.533 174.364C209.122 175.875 205.532 176.944 201.85 177.546C196.849 178.485 191.765 178.918 186.677 178.838C178.769 178.838 172.104 177.652 166.68 175.279L166.158 175.045C160.944 172.748 156.339 169.265 152.71 164.873C149.32 160.734 146.799 155.955 145.296 150.821C143.808 145.753 143.054 140.498 143.056 135.217C143.04 129.45 143.942 123.717 145.729 118.233C147.449 112.884 150.169 107.911 153.746 103.578C157.273 99.2946 161.684 95.8242 166.677 93.4041C171.734 90.9343 177.712 90.0477 184.608 90.0477C190.328 89.9031 196.01 91.0217 201.248 93.3238C205.652 95.2022 209.529 98.1305 212.541 101.853C215.365 105.498 217.525 109.613 218.92 114.008C220.279 118.244 220.977 122.664 220.989 127.112C220.989 129.642 220.903 131.942 220.731 134.01L220.578 135.781L220.417 137.462L220.322 138.313C220.315 138.373 220.307 138.433 220.3 138.493C220.255 138.873 220.072 139.223 219.786 139.477C219.5 139.732 219.131 139.872 218.748 139.872L218.276 139.882L217.686 139.912L217.227 139.946L216.155 140.037L215.213 140.13C214.957 140.157 214.691 140.182 214.415 140.206L213.561 140.273L212.648 140.333L211.679 140.383L210.653 140.426L210.118 140.445L209.007 140.475C207.907 140.502 206.781 140.433 205.625 140.349L203.872 140.221C202.97 140.155 202.065 140.119 201.16 140.114ZM167.194 124.407H190.674L192.674 124.394L194.033 124.374L194.914 124.354L195.901 124.32C196.786 124.232 197.639 123.949 198.401 123.492V122.458C198.367 121.109 198.135 119.773 197.713 118.492C196.783 115.55 194.912 112.995 192.389 111.22C189.866 109.444 186.83 108.546 183.747 108.663C180.845 108.487 177.955 109.16 175.429 110.599C172.903 112.038 170.85 114.181 169.521 116.767C168.34 119.172 167.554 121.751 167.194 124.407Z" fill="#9999FF"/>
</g>
<defs>
<clipPath id="clip0_659_1196">
<rect width="257.024" height="251" fill="white" transform="translate(0.488037)"/>
</clipPath>
</defs>
</svg>
