<svg width="259" height="251" viewBox="0 0 259 251" fill="none" xmlns="http://www.w3.org/2000/svg">
<g clip-path="url(#clip0_659_1190)">
<path d="M215.342 0H43.658C20.092 0 0.988037 19.104 0.988037 42.67V207.928C0.988037 231.494 20.092 250.598 43.658 250.598H215.342C238.908 250.598 258.012 231.494 258.012 207.928V42.67C258.012 19.104 238.908 0 215.342 0Z" fill="#330000"/>
<path d="M125.538 150.389H85.7097L77.6054 175.562C77.4952 176.021 77.2281 176.428 76.8504 176.711C76.4726 176.994 76.0078 177.137 75.5362 177.115H55.3628C54.2132 177.115 53.8106 176.482 54.156 175.217L88.6404 75.9033C88.9848 74.8692 89.3301 73.6915 89.6745 72.3692C90.1263 70.068 90.3572 67.7307 90.3642 65.3864C90.3408 65.2224 90.3558 65.0552 90.4081 64.898C90.4605 64.7408 90.5487 64.598 90.6658 64.4808C90.7829 64.3636 90.9256 64.2753 91.0827 64.2229C91.2399 64.1704 91.4071 64.1552 91.5711 64.1786H118.986C119.789 64.1786 120.249 64.4667 120.366 65.042L159.505 175.39C159.85 176.54 159.505 177.116 158.471 177.115H136.055C135.67 177.157 135.283 177.058 134.966 176.836C134.649 176.614 134.423 176.284 134.331 175.908L125.538 150.389ZM91.9164 128.664H119.159L118.77 127.382L118.147 125.352L117.702 123.927L116.992 121.682L115.483 116.956L114.156 112.766L110.709 101.853C109.851 99.1397 109.028 96.416 108.239 93.6821L107.609 91.4633L106.872 88.8398L105.748 84.7736L105.537 84.0076H105.365C104.502 88.1462 103.452 92.2434 102.216 96.2865L99.6583 104.515L98.2507 109.061L96.83 113.664C96.573 114.495 96.318 115.317 96.062 116.13L95.2989 118.537L94.5399 120.888L93.7849 123.182L93.0339 125.418C92.7849 126.153 92.5359 126.879 92.2879 127.596L91.9164 128.664ZM182.779 82.4554C181.021 82.526 179.267 82.2246 177.633 81.571C175.999 80.9174 174.521 79.9262 173.297 78.6623C172.075 77.3435 171.126 75.7963 170.505 74.1096C169.883 72.423 169.602 70.6301 169.675 68.8341C169.613 67.0561 169.926 65.285 170.594 63.6363C171.263 61.9875 172.272 60.4984 173.555 59.266C176.03 56.8901 179.326 55.5606 182.756 55.5542L183.124 55.5582C187.262 55.5582 190.51 56.7931 192.867 59.265C194.056 60.5493 194.98 62.0556 195.587 63.6976C196.193 65.3396 196.47 67.0851 196.401 68.8341C196.473 70.6373 196.182 72.4365 195.545 74.1251C194.909 75.8136 193.939 77.3569 192.694 78.6633C191.437 79.9022 189.945 80.8771 188.305 81.5306C186.666 82.1841 184.912 82.503 183.148 82.4684L182.779 82.4554ZM170.882 175.39V92.9733C170.882 91.9392 171.34 91.4211 172.262 91.4211H193.47C194.389 91.4211 194.849 91.9382 194.85 92.9733V175.39C194.85 176.54 194.39 177.116 193.47 177.115H172.434C171.454 177.115 170.938 176.598 170.887 175.566L170.882 175.39Z" fill="#FF9A00"/>
</g>
<defs>
<clipPath id="clip0_659_1190">
<rect width="257.024" height="251" fill="white" transform="translate(0.988037)"/>
</clipPath>
</defs>
</svg>
