<svg width="60" height="60" viewBox="0 0 60 60" fill="none" xmlns="http://www.w3.org/2000/svg">
<path d="M30.6 28.5H19.5V31.5H30.6H34.2213L31.6607 34.0607L27.9213 37.8L30 39.8787L39.8787 30L30 20.1213L27.9213 22.2L31.6607 25.9393L34.2213 28.5H30.6ZM56.2586 41.106L56.2589 41.1054C57.7503 37.6514 58.5 33.9546 58.5 30C58.5 26.0454 57.7503 22.3486 56.2589 18.8946L56.2586 18.894C54.7566 15.4109 52.7247 12.396 50.1643 9.83566C47.604 7.27529 44.5891 5.2424 41.106 3.73839C37.6519 2.24883 33.9549 1.5 30 1.5C26.0453 1.5 22.3486 2.24874 18.8946 3.73811C15.4113 5.24215 12.3962 7.27513 9.83566 9.83566C7.27528 12.396 5.2434 15.4109 3.74139 18.894L3.74111 18.8946C2.24973 22.3486 1.5 26.0454 1.5 30C1.5 33.9546 2.24973 37.6514 3.74111 41.1054L3.74139 41.106C5.2434 44.5891 7.27528 47.604 9.83566 50.1643C12.396 52.7247 15.4109 54.7566 18.894 56.2586L18.8946 56.2589C22.3486 57.7503 26.0454 58.5 30 58.5C33.9546 58.5 37.6514 57.7503 41.1054 56.2589L41.106 56.2586C44.5891 54.7566 47.604 52.7247 50.1643 50.1643C52.7247 47.604 54.7566 44.5891 56.2586 41.106ZM30 55.5C22.9106 55.5 16.8515 53.0229 11.9143 48.0857C6.97715 43.1485 4.5 37.0894 4.5 30C4.5 22.9106 6.97715 16.8515 11.9143 11.9143C16.8515 6.97714 22.9106 4.5 30 4.5C37.0894 4.5 43.1485 6.97714 48.0857 11.9143C53.0229 16.8515 55.5 22.9106 55.5 30C55.5 37.0894 53.0229 43.1485 48.0857 48.0857C43.1485 53.0229 37.0894 55.5 30 55.5Z" stroke="white" stroke-width="3"/>
</svg>
