<svg width="27" height="19" viewBox="0 0 27 19" fill="none" xmlns="http://www.w3.org/2000/svg">
<path d="M13.2628 0.777222C7.37713 0.777222 2.35073 4.43814 0.31427 9.60579C2.35073 14.7735 7.37713 18.4344 13.2628 18.4344C19.1486 18.4344 24.175 14.7735 26.2114 9.60579C24.175 4.43814 19.1486 0.777222 13.2628 0.777222ZM13.2628 15.4915C10.0139 15.4915 7.37713 12.8547 7.37713 9.60579C7.37713 6.35688 10.0139 3.72008 13.2628 3.72008C16.5118 3.72008 19.1486 6.35688 19.1486 9.60579C19.1486 12.8547 16.5118 15.4915 13.2628 15.4915ZM13.2628 6.07436C11.3088 6.07436 9.73141 7.65174 9.73141 9.60579C9.73141 11.5599 11.3088 13.1372 13.2628 13.1372C15.2169 13.1372 16.7943 11.5599 16.7943 9.60579C16.7943 7.65174 15.2169 6.07436 13.2628 6.07436Z" fill="#FFF8E8"/>
</svg>
