<svg width="253" height="253" viewBox="0 0 253 253" fill="none" xmlns="http://www.w3.org/2000/svg">
<g clip-path="url(#clip0_659_1165)">
<path d="M193.703 0H59.2969C26.5481 0 0 26.5481 0 59.2969V193.703C0 226.452 26.5481 253 59.2969 253H193.703C226.452 253 253 226.452 253 193.703V59.2969C253 26.5481 226.452 0 193.703 0Z" fill="#242938"/>
<mask id="mask0_659_1165" style="mask-type:luminance" maskUnits="userSpaceOnUse" x="60" y="27" width="133" height="199">
<path d="M60.2852 27.6719H192.082V225.328H60.2852V27.6719Z" fill="white"/>
</mask>
<g mask="url(#mask0_659_1165)">
<path d="M93.2412 225.328C111.426 225.328 126.184 210.57 126.184 192.386V159.442H93.2412C75.0568 159.442 60.2979 174.201 60.2979 192.386C60.2979 210.57 75.0568 225.328 93.2412 225.328Z" fill="#0ACF83"/>
<path d="M60.2979 126.5C60.2979 108.316 75.0568 93.5576 93.2412 93.5576H126.184V159.442H93.2412C75.0568 159.442 60.2979 144.684 60.2979 126.5Z" fill="#A259FF"/>
<path d="M60.2979 60.6143C60.2979 42.4299 75.0568 27.6719 93.2412 27.6719H126.184V93.5576H93.2412C75.0568 93.5576 60.2979 78.7986 60.2979 60.6143Z" fill="#F24E1E"/>
<path d="M126.184 27.6719H159.126C177.31 27.6719 192.069 42.4299 192.069 60.6143C192.069 78.7986 177.31 93.5576 159.126 93.5576H126.184V27.6719Z" fill="#FF7262"/>
<path d="M192.069 126.5C192.069 144.684 177.31 159.442 159.126 159.442C140.942 159.442 126.184 144.684 126.184 126.5C126.184 108.316 140.942 93.5576 159.126 93.5576C177.31 93.5576 192.069 108.316 192.069 126.5Z" fill="#1ABCFE"/>
</g>
</g>
<defs>
<clipPath id="clip0_659_1165">
<rect width="253" height="253" fill="white"/>
</clipPath>
</defs>
</svg>
