<svg width="236" height="236" viewBox="0 0 236 236" fill="none" xmlns="http://www.w3.org/2000/svg">
<g clip-path="url(#clip0_690_206)">
<path d="M180.688 0H55.3125C24.7642 0 0 24.7642 0 55.3125V180.688C0 211.236 24.7642 236 55.3125 236H180.688C211.236 236 236 211.236 236 180.688V55.3125C236 24.7642 211.236 0 180.688 0Z" fill="#F4F2ED"/>
<path d="M133.611 35.0884L185.029 35.0312L98.7642 121.251L76.2824 143.607L50.7031 117.996L133.611 35.0884ZM133.133 112.071C133.8 111.19 135.028 111.625 135.96 111.512L184.984 111.524L140.304 156.161L114.592 130.607L133.133 112.071Z" fill="#44D1FD"/>
<path d="M88.9619 156.204L114.592 130.607L140.304 156.161L140.411 156.274L114.598 181.847L88.9619 156.204Z" fill="#1FBCFD"/>
<path d="M114.598 181.847L140.411 156.275L185.003 200.911C168.206 200.949 151.415 200.898 134.625 200.936C133.668 201.15 133.076 200.275 132.465 199.734L114.598 181.847Z" fill="#08589C"/>
</g>
<defs>
<clipPath id="clip0_690_206">
<rect width="236" height="236" fill="white"/>
</clipPath>
</defs>
</svg>
