<svg width="42" height="43" viewBox="0 0 42 43" fill="none" xmlns="http://www.w3.org/2000/svg">
<path fill-rule="evenodd" clip-rule="evenodd" d="M20.7938 0.859863C32.214 0.859863 41.472 10.1178 41.472 21.538C41.472 32.9581 32.214 42.2161 20.7938 42.2161C9.3737 42.2161 0.115723 32.9581 0.115723 21.538C0.115723 10.1178 9.3737 0.859863 20.7938 0.859863Z" fill="white"/>
<path d="M16.1992 23.174H12.7135V20.9754H16.1992C16.7378 20.9754 17.1763 20.8877 17.5145 20.7124C17.8528 20.5307 18.1002 20.2802 18.2568 19.9607C18.4133 19.6413 18.4916 19.2811 18.4916 18.8803C18.4916 18.4731 18.4133 18.0942 18.2568 17.7434C18.1002 17.3927 17.8528 17.1108 17.5145 16.8978C17.1763 16.6849 16.7378 16.5784 16.1992 16.5784H13.6906V28.0502H10.872V14.3705H16.1992C17.2702 14.3705 18.1879 14.5646 18.952 14.953C19.7224 15.3351 20.3112 15.8643 20.7183 16.5408C21.1255 17.2173 21.329 17.9908 21.329 18.8615C21.329 19.7446 21.1255 20.5088 20.7183 21.1539C20.3112 21.7991 19.7224 22.297 18.952 22.6478C18.1879 22.9986 17.2702 23.174 16.1992 23.174ZM28.6011 25.2409C28.6011 25.0468 28.5447 24.8714 28.432 24.7148C28.3192 24.5582 28.1094 24.4141 27.8025 24.2826C27.5018 24.1448 27.0665 24.0195 26.4965 23.9068C25.9829 23.794 25.5037 23.6531 25.059 23.484C24.6206 23.3086 24.2385 23.0988 23.9128 22.8545C23.5933 22.6102 23.3428 22.3221 23.1611 21.9901C22.9795 21.6519 22.8887 21.2667 22.8887 20.8345C22.8887 20.4086 22.9795 20.0077 23.1611 19.6319C23.3491 19.2561 23.6153 18.9241 23.9598 18.636C24.3105 18.3416 24.7364 18.113 25.2375 17.9501C25.7449 17.781 26.3149 17.6964 26.9475 17.6964C27.8307 17.6964 28.5885 17.8374 29.2212 18.1192C29.8601 18.4011 30.3486 18.7894 30.6868 19.2843C31.0313 19.7728 31.2036 20.3303 31.2036 20.9566H28.4977C28.4977 20.6936 28.4414 20.4587 28.3286 20.252C28.2221 20.039 28.053 19.873 27.8213 19.754C27.5958 19.6288 27.3014 19.5661 26.9381 19.5661C26.6374 19.5661 26.3775 19.6194 26.1583 19.7258C25.939 19.8261 25.7699 19.9639 25.6509 20.1392C25.5382 20.3084 25.4818 20.4963 25.4818 20.703C25.4818 20.8596 25.5131 21.0005 25.5758 21.1258C25.6447 21.2448 25.7543 21.3544 25.9046 21.4546C26.0549 21.5548 26.2491 21.6488 26.4871 21.7365C26.7314 21.8179 27.032 21.893 27.3891 21.9619C28.1219 22.1123 28.7765 22.3096 29.3527 22.5539C29.929 22.7919 30.3862 23.1176 30.7244 23.531C31.0627 23.9381 31.2318 24.4736 31.2318 25.1376C31.2318 25.5886 31.1316 26.002 30.9311 26.3778C30.7307 26.7536 30.4426 27.0824 30.0668 27.3643C29.6909 27.6399 29.24 27.856 28.7138 28.0126C28.1939 28.1629 27.6083 28.2381 26.9569 28.2381C26.0111 28.2381 25.2093 28.0689 24.5517 27.7307C23.9002 27.3925 23.4054 26.9634 23.0672 26.4435C22.7352 25.9174 22.5692 25.3787 22.5692 24.8275H25.1342C25.1467 25.1971 25.2407 25.4946 25.416 25.7201C25.5977 25.9456 25.8263 26.1084 26.1019 26.2087C26.3838 26.3089 26.6875 26.359 27.0133 26.359C27.364 26.359 27.6553 26.312 27.887 26.2181C28.1188 26.1178 28.2942 25.9863 28.4132 25.8234C28.5384 25.6543 28.6011 25.4602 28.6011 25.2409Z" fill="#2A2420"/>
</svg>
