<svg width="42" height="42" viewBox="0 0 42 42" fill="none" xmlns="http://www.w3.org/2000/svg">
<path fill-rule="evenodd" clip-rule="evenodd" d="M20.7938 0.196053C32.214 0.196053 41.472 9.45403 41.472 20.8742C41.472 32.2943 32.214 41.5523 20.7938 41.5523C9.3737 41.5523 0.115723 32.2943 0.115723 20.8742C0.115723 9.45403 9.3737 0.196053 20.7938 0.196053Z" fill="white"/>
<path d="M13.8327 16.5533C10.6009 13.8768 11.3117 10.0287 13.5273 8.26286C14.6267 7.38551 15.8872 7.09121 17.2532 7.09121C19.8409 7.09121 22.423 7.08565 25.0106 7.09121C27.7481 7.10231 29.6361 8.2462 30.4524 10.3785C31.2797 12.5386 30.68 14.582 28.5755 16.5588C29.9582 17.736 30.9799 19.1853 30.7245 21.0622C30.5801 22.1339 30.1803 23.2944 29.5473 24.1551C27.9591 26.3152 25.3993 26.5095 22.0343 24.8825C22.0343 26.2985 22.0343 27.6479 22.0343 28.9972C22.0287 31.7903 20.5739 33.8615 18.1695 34.489C15.8539 35.0942 13.394 34.0503 12.2446 31.968C11.0396 29.7913 11.5505 27.3702 13.6272 25.4156C13.6828 25.3601 13.7272 25.299 13.7772 25.2379C10.873 21.8951 10.8675 19.4574 13.8327 16.5533ZM20.3184 17.4084C18.9413 17.4084 17.6142 17.3085 16.3093 17.4306C14.5768 17.5972 13.344 19.0798 13.3107 20.7845C13.2774 22.5837 14.4546 24.1218 16.226 24.3273C17.5642 24.4772 18.9302 24.355 20.3184 24.355C20.3184 22.0006 20.3184 19.7517 20.3184 17.4084ZM20.324 8.87367C18.8303 8.87367 17.3754 8.72374 15.965 8.91254C14.3324 9.13465 13.2996 10.6228 13.3107 12.2998C13.3274 13.8768 14.4213 15.4316 15.9317 15.6148C17.381 15.7925 18.8691 15.6537 20.324 15.6537C20.324 13.3104 20.324 11.0893 20.324 8.87367ZM22.1231 8.76817C22.1231 11.1614 22.1231 13.4104 22.1231 15.7092C23.3059 15.7092 24.3998 15.7148 25.4992 15.7092C27.4816 15.6981 28.9809 14.3932 29.0919 12.5941C29.2196 10.5562 27.9758 8.98473 25.9379 8.79038C24.7052 8.67377 23.4502 8.76817 22.1231 8.76817ZM20.3628 26.0653C19.0579 26.0653 17.9251 26.0542 16.7924 26.0653C14.86 26.0875 13.394 27.4535 13.3218 29.2915C13.2385 31.2794 14.599 32.8398 16.5702 33.0175C18.3527 33.1841 20.1852 31.7237 20.3406 29.8968C20.4461 28.6696 20.3628 27.4202 20.3628 26.0653ZM29.103 20.8456C29.0864 18.8966 27.5371 17.3751 25.5714 17.3806C23.6224 17.3862 22.0454 18.9465 22.0343 20.8734C22.0287 22.8446 23.6612 24.4328 25.6547 24.3994C27.6204 24.355 29.1197 22.8113 29.103 20.8456Z" fill="#2A2420"/>
</svg>
