<svg width="42" height="42" viewBox="0 0 42 42" fill="none" xmlns="http://www.w3.org/2000/svg">
<path fill-rule="evenodd" clip-rule="evenodd" d="M20.7938 0.191864C32.214 0.191864 41.472 9.44985 41.472 20.87C41.472 32.2901 32.214 41.5481 20.7938 41.5481C9.3737 41.5481 0.115723 32.2901 0.115723 20.87C0.115723 9.44985 9.3737 0.191864 20.7938 0.191864Z" fill="white"/>
<path d="M17.2867 16.3731L13.3467 28.3821H10.1728L15.5555 13.8957H17.5752L17.2867 16.3731ZM20.5601 28.3821L16.6101 16.3731L16.2917 13.8957H18.3314L23.7439 28.3821H20.5601ZM20.381 22.9895V25.3276H12.7298V22.9895H20.381ZM27.9327 17.6168V28.3821H25.0572V17.6168H27.9327ZM24.8782 14.811C24.8782 14.3932 25.0241 14.0482 25.3159 13.7763C25.6078 13.5043 25.9991 13.3684 26.49 13.3684C26.9742 13.3684 27.3622 13.5043 27.6541 13.7763C27.9525 14.0482 28.1018 14.3932 28.1018 14.811C28.1018 15.2289 27.9525 15.5738 27.6541 15.8458C27.3622 16.1177 26.9742 16.2537 26.49 16.2537C25.9991 16.2537 25.6078 16.1177 25.3159 15.8458C25.0241 15.5738 24.8782 15.2289 24.8782 14.811Z" fill="#2A2420"/>
</svg>
