<svg width="42" height="42" viewBox="0 0 42 42" fill="none" xmlns="http://www.w3.org/2000/svg">
<path fill-rule="evenodd" clip-rule="evenodd" d="M20.7938 0.523682C32.214 0.523682 41.472 9.78166 41.472 21.2018C41.472 32.6219 32.214 41.8799 20.7938 41.8799C9.3737 41.8799 0.115723 32.6219 0.115723 21.2018C0.115723 9.78166 9.3737 0.523682 20.7938 0.523682Z" fill="white"/>
<path d="M15.3863 14.2275V28.714H12.4114V14.2275H15.3863ZM24.3608 26.3659V13.4316H27.2461V28.714H24.6493L24.3608 26.3659ZM17.5553 23.4607V23.2517C17.5553 22.4292 17.6482 21.683 17.8339 21.0131C18.0196 20.3365 18.2916 19.7561 18.6498 19.2719C19.008 18.7877 19.4491 18.4129 19.9731 18.1476C20.4971 17.8823 21.094 17.7496 21.764 17.7496C22.3941 17.7496 22.9446 17.8823 23.4156 18.1476C23.8932 18.4129 24.2978 18.791 24.6294 19.2819C24.9677 19.7661 25.2397 20.3398 25.4453 21.0031C25.6509 21.6598 25.8001 22.3795 25.893 23.1622V23.6198C25.8001 24.3694 25.6509 25.0658 25.4453 25.7092C25.2397 26.3526 24.9677 26.9164 24.6294 27.4007C24.2978 27.8782 23.8932 28.2497 23.4156 28.515C22.938 28.7803 22.3808 28.913 21.7441 28.913C21.0741 28.913 20.4772 28.777 19.9532 28.505C19.4358 28.2331 18.998 27.8517 18.6398 27.3609C18.2883 26.87 18.0196 26.2929 17.8339 25.6296C17.6482 24.9663 17.5553 24.2434 17.5553 23.4607ZM20.4208 23.2517V23.4607C20.4208 23.9051 20.4539 24.3196 20.5203 24.7043C20.5932 25.0891 20.7093 25.4307 20.8685 25.7291C21.0343 26.021 21.2466 26.2498 21.5053 26.4157C21.7706 26.5748 22.0923 26.6544 22.4704 26.6544C22.9612 26.6544 23.3658 26.545 23.6842 26.3261C24.0026 26.1006 24.2447 25.7922 24.4105 25.4008C24.583 25.0095 24.6825 24.5584 24.709 24.0477V22.7443C24.6891 22.3264 24.6294 21.9517 24.5299 21.62C24.4371 21.2817 24.2978 20.9932 24.112 20.7544C23.933 20.5156 23.7074 20.3299 23.4355 20.1972C23.1702 20.0646 22.8551 19.9982 22.4903 19.9982C22.1188 19.9982 21.8004 20.0845 21.5351 20.2569C21.2698 20.4227 21.0542 20.6516 20.8884 20.9434C20.7292 21.2353 20.6098 21.5802 20.5302 21.9782C20.4573 22.3695 20.4208 22.794 20.4208 23.2517Z" fill="#2A2420"/>
</svg>
