<svg width="42" height="43" viewBox="0 0 42 43" fill="none" xmlns="http://www.w3.org/2000/svg">
<path fill-rule="evenodd" clip-rule="evenodd" d="M20.7938 0.855621C32.214 0.855621 41.472 10.1136 41.472 21.5337C41.472 32.9539 32.214 42.2119 20.7938 42.2119C9.3737 42.2119 0.115723 32.9539 0.115723 21.5337C0.115723 10.1136 9.3737 0.855621 20.7938 0.855621Z" fill="white"/>
<path d="M15.7939 16.4177L11.9789 28.0459H8.90564L14.1176 14.0189H16.0733L15.7939 16.4177ZM18.9635 28.0459L15.1388 16.4177L14.8305 14.0189H16.8055L22.0464 28.0459H18.9635ZM18.7901 22.8243V25.0883H11.3816V22.8243H18.7901ZM27.9713 28.2386C27.162 28.2386 26.4363 28.1102 25.794 27.8532C25.1517 27.5899 24.6058 27.227 24.1562 26.7646C23.713 26.3022 23.3726 25.7659 23.135 25.1557C22.8974 24.5392 22.7786 23.8841 22.7786 23.1904V22.805C22.7786 22.0151 22.8909 21.2925 23.1157 20.6374C23.3405 19.9823 23.6617 19.4139 24.0791 18.9322C24.503 18.4505 25.0168 18.0812 25.6206 17.8243C26.2243 17.561 26.9051 17.4293 27.663 17.4293C28.4016 17.4293 29.0567 17.5513 29.6283 17.7954C30.1999 18.0394 30.6784 18.3863 31.0638 18.8359C31.4555 19.2854 31.751 19.8249 31.9501 20.4544C32.1492 21.0774 32.2487 21.771 32.2487 22.5353V23.6914H23.9635V21.8417H29.5223V21.6297C29.5223 21.2443 29.4517 20.9007 29.3104 20.5989C29.1755 20.2906 28.97 20.0465 28.6938 19.8667C28.4176 19.6869 28.0644 19.5969 27.6341 19.5969C27.268 19.5969 26.9533 19.6772 26.6899 19.8378C26.4266 19.9984 26.2115 20.2231 26.0445 20.5122C25.8839 20.8012 25.7619 21.1416 25.6784 21.5334C25.6013 21.9187 25.5628 22.3426 25.5628 22.805V23.1904C25.5628 23.6079 25.6206 23.9932 25.7362 24.3465C25.8582 24.6997 26.0284 25.0048 26.2468 25.2617C26.4716 25.5186 26.7413 25.7177 27.056 25.859C27.3772 26.0003 27.74 26.071 28.1447 26.071C28.6456 26.071 29.1113 25.9746 29.5416 25.7819C29.9783 25.5828 30.3541 25.2842 30.6688 24.886L32.0175 26.3504C31.7992 26.6651 31.5005 26.9669 31.1216 27.2559C30.7491 27.545 30.2995 27.7826 29.7728 27.9689C29.2462 28.1487 28.6456 28.2386 27.9713 28.2386Z" fill="#2A2420"/>
</svg>
