<svg width="42" height="42" viewBox="0 0 42 42" fill="none" xmlns="http://www.w3.org/2000/svg">
<path fill-rule="evenodd" clip-rule="evenodd" d="M20.7938 0.527985C32.214 0.527985 41.472 9.78597 41.472 21.2061C41.472 32.6262 32.214 41.8842 20.7938 41.8842C9.3737 41.8842 0.115723 32.6262 0.115723 21.2061C0.115723 9.78597 9.3737 0.527985 20.7938 0.527985Z" fill="white"/>
<path d="M13.2227 15.8463L15.7011 20.4412L18.1794 15.8463H21.2818L17.4558 22.3768L21.3813 29.0158H18.2518L15.7011 24.3305L13.1504 29.0158H10.0027L13.9373 22.3768L10.1022 15.8463H13.2227ZM28.1289 26.8812V15.1227H30.7519V29.0158H28.3912L28.1289 26.8812ZM21.9421 24.2401V24.0501C21.9421 23.3024 22.0265 22.624 22.1954 22.015C22.3642 21.3999 22.6114 20.8723 22.9371 20.4321C23.2627 19.9919 23.6637 19.6512 24.14 19.41C24.6164 19.1688 25.1591 19.0482 25.7681 19.0482C26.341 19.0482 26.8415 19.1688 27.2696 19.41C27.7038 19.6512 28.0716 19.9949 28.3731 20.4412C28.6806 20.8813 28.9279 21.4029 29.1148 22.0059C29.3017 22.6029 29.4374 23.2572 29.5218 23.9687V24.3848C29.4374 25.0662 29.3017 25.6993 29.1148 26.2842C28.9279 26.8691 28.6806 27.3817 28.3731 27.8219C28.0716 28.256 27.7038 28.5937 27.2696 28.8349C26.8355 29.0761 26.3289 29.1967 25.7501 29.1967C25.141 29.1967 24.5983 29.0731 24.122 28.8259C23.6516 28.5786 23.2536 28.2319 22.928 27.7857C22.6084 27.3395 22.3642 26.8149 22.1954 26.2119C22.0265 25.6089 21.9421 24.9516 21.9421 24.2401ZM24.5471 24.0501V24.2401C24.5471 24.6441 24.5772 25.0209 24.6375 25.3707C24.7039 25.7204 24.8094 26.031 24.9541 26.3023C25.1048 26.5676 25.2978 26.7757 25.533 26.9264C25.7742 27.0711 26.0666 27.1435 26.4103 27.1435C26.8566 27.1435 27.2244 27.044 27.5138 26.845C27.8033 26.64 28.0234 26.3596 28.1741 26.0038C28.3309 25.6481 28.4213 25.238 28.4455 24.7737V23.5888C28.4274 23.2089 28.3731 22.8682 28.2827 22.5667C28.1982 22.2592 28.0716 21.9969 27.9028 21.7798C27.74 21.5627 27.5349 21.3939 27.2877 21.2733C27.0465 21.1527 26.7601 21.0924 26.4284 21.0924C26.0907 21.0924 25.8013 21.1708 25.5601 21.3276C25.3189 21.4783 25.1229 21.6863 24.9722 21.9517C24.8275 22.217 24.7189 22.5305 24.6466 22.8923C24.5802 23.2481 24.5471 23.634 24.5471 24.0501Z" fill="#2A2420"/>
</svg>
