<svg width="42" height="43" viewBox="0 0 42 43" fill="none" xmlns="http://www.w3.org/2000/svg">
<path fill-rule="evenodd" clip-rule="evenodd" d="M20.7938 0.85144C32.214 0.85144 41.472 10.1094 41.472 21.5296C41.472 32.9497 32.214 42.2077 20.7938 42.2077C9.3737 42.2077 0.115723 32.9497 0.115723 21.5296C0.115723 10.1094 9.3737 0.85144 20.7938 0.85144Z" fill="white"/>
<path d="M9.40773 22.6601L15.71 24.9393V27.6247L7.14843 23.9979V22.0953L9.40773 22.6601ZM15.71 20.7972L9.39783 23.116L7.14843 23.6511V21.7485L15.71 18.1217V20.7972ZM24.2319 14.6139L18.9404 30.2803H16.8198L22.1114 14.6139H24.2319ZM32.0206 23.0565L25.6688 20.7873V18.1217L34.2997 21.7485V23.661L32.0206 23.0565ZM25.6688 24.9591L32.0305 22.6403L34.2997 22.0953V23.9979L25.6688 27.6247V24.9591Z" fill="#2A2420"/>
</svg>
