<svg width="42" height="42" viewBox="0 0 42 42" fill="none" xmlns="http://www.w3.org/2000/svg">
<path fill-rule="evenodd" clip-rule="evenodd" d="M20.7938 0.187531C32.214 0.187531 41.472 9.44551 41.472 20.8657C41.472 32.2858 32.214 41.5438 20.7938 41.5438C9.3737 41.5438 0.115723 32.2858 0.115723 20.8657C0.115723 9.44551 9.3737 0.187531 20.7938 0.187531Z" fill="white"/>
<path d="M17.4441 23.2349H13.7678V20.9162H17.4441C18.0122 20.9162 18.4747 20.8237 18.8314 20.6387C19.1881 20.4471 19.4491 20.1829 19.6142 19.846C19.7794 19.509 19.862 19.1292 19.862 18.7064C19.862 18.277 19.7794 17.8773 19.6142 17.5074C19.4491 17.1374 19.1881 16.8402 18.8314 16.6156C18.4747 16.3909 18.0122 16.2786 17.4441 16.2786H14.7984V28.3778H11.8256V13.95H17.4441C18.5738 13.95 19.5416 14.1548 20.3475 14.5643C21.1601 14.9673 21.7811 15.5255 22.2105 16.239C22.6399 16.9525 22.8546 17.7683 22.8546 18.6866C22.8546 19.6181 22.6399 20.424 22.2105 21.1044C21.7811 21.7849 21.1601 22.3101 20.3475 22.68C19.5416 23.0499 18.5738 23.2349 17.4441 23.2349ZM27.5813 19.9946V28.3778H24.7274V17.656H27.4128L27.5813 19.9946ZM30.8117 17.5867L30.7621 20.2324C30.6234 20.2126 30.4549 20.1961 30.2567 20.1829C30.0652 20.1631 29.8901 20.1531 29.7316 20.1531C29.3286 20.1531 28.9785 20.206 28.6812 20.3117C28.3905 20.4108 28.1461 20.5594 27.9479 20.7576C27.7563 20.9558 27.611 21.1969 27.5119 21.481C27.4194 21.7651 27.3666 22.0888 27.3533 22.4521L26.7786 22.2737C26.7786 21.5801 26.848 20.9426 26.9867 20.3612C27.1254 19.7733 27.3269 19.2613 27.5912 18.8253C27.862 18.3893 28.1923 18.0524 28.5821 17.8146C28.9719 17.5768 29.4178 17.4578 29.9198 17.4578C30.0784 17.4578 30.2402 17.4711 30.4054 17.4975C30.5705 17.5173 30.706 17.547 30.8117 17.5867Z" fill="#2A2420"/>
</svg>
