<svg width="259" height="251" viewBox="0 0 259 251" fill="none" xmlns="http://www.w3.org/2000/svg">
<g clip-path="url(#clip0_659_1193)">
<path d="M215.342 0H43.658C20.092 0 0.988037 19.104 0.988037 42.67V207.928C0.988037 231.494 20.092 250.598 43.658 250.598H215.342C238.908 250.598 258.012 231.494 258.012 207.928V42.67C258.012 19.104 238.908 0 215.342 0Z" fill="#49021F"/>
<path d="M94.329 65.5582V175.39C94.329 176.54 93.8119 177.115 92.7768 177.115H71.9137C70.993 177.115 70.5332 176.539 70.5352 175.39V65.5582C70.5352 64.6396 71.0522 64.1797 72.0863 64.1787H92.9495C93.1249 64.1539 93.3037 64.1675 93.4733 64.2188C93.6429 64.27 93.7993 64.3576 93.9316 64.4754C94.064 64.5932 94.1691 64.7385 94.2396 64.901C94.3101 65.0636 94.3444 65.2395 94.34 65.4167L94.329 65.5582ZM157.165 178.827L156.055 178.839C148.119 178.959 140.256 177.31 133.037 174.011C126.312 170.899 120.691 165.818 116.916 159.441C113.102 153.107 111.149 145.212 111.057 135.757L111.054 135.044C110.989 127.131 113.011 119.34 116.917 112.457C120.832 105.634 126.541 100.015 133.426 96.2093L133.986 95.9041C141.456 91.7666 150.48 89.6974 161.056 89.6974L161.279 89.6984L161.774 89.7094L162.334 89.7315L162.959 89.7637L163.649 89.8068L164.403 89.862L166.107 90.0016L166.573 90.0418V56.0764C166.573 55.2732 166.918 54.8686 167.607 54.8686H189.332C189.473 54.8485 189.616 54.8613 189.751 54.9062C189.886 54.951 190.008 55.0266 190.108 55.127C190.209 55.2273 190.284 55.3497 190.329 55.4843C190.374 55.619 190.387 55.7623 190.367 55.9028V157.804C190.374 159.933 190.46 162.061 190.626 164.183L190.788 166.406L190.932 168.475L191.056 170.39C191.078 170.748 190.99 171.104 190.806 171.412C190.621 171.72 190.348 171.965 190.022 172.115C184.417 174.452 178.58 176.186 172.608 177.286C167.512 178.227 162.347 178.743 157.166 178.827H157.165ZM166.573 157.458V110.388C165.641 110.135 164.689 109.963 163.728 109.871C162.554 109.753 161.374 109.695 160.193 109.698C156.009 109.657 151.874 110.602 148.124 112.457C144.471 114.273 141.352 117.006 139.072 120.389C136.715 123.836 135.536 128.377 135.537 134.01C135.453 137.768 136.067 141.509 137.347 145.044C138.389 147.892 140.037 150.481 142.176 152.631C144.223 154.609 146.702 156.085 149.417 156.941C152.285 157.87 155.283 158.336 158.297 158.322C159.905 158.322 161.399 158.264 162.78 158.148C163.881 158.065 164.972 157.884 166.041 157.606L166.573 157.458Z" fill="#FF3366"/>
</g>
<defs>
<clipPath id="clip0_659_1193">
<rect width="257.024" height="251" fill="white" transform="translate(0.988037)"/>
</clipPath>
</defs>
</svg>
