<svg width="251" height="250" viewBox="0 0 251 250" fill="none" xmlns="http://www.w3.org/2000/svg">
<g clip-path="url(#clip0_659_1180)">
<path d="M0.5 0H250.5V250H0.5V0Z" fill="#FF0066"/>
<path d="M85.5703 80.4494C93.4775 80.3342 99.8057 73.8508 99.7295 65.9426C99.6523 58.0334 93.2002 51.674 85.291 51.7121C77.3818 51.7502 70.9912 58.1711 70.9902 66.0803C70.9967 67.9833 71.3798 69.8662 72.1174 71.6204C72.855 73.3747 73.9325 74.9656 75.2879 76.3014C76.6432 77.6373 78.2496 78.6916 80.0144 79.4037C81.7791 80.1158 83.6674 80.4705 85.5703 80.4494ZM55.3398 157.38C54.5123 160.918 54.0799 164.537 54.0508 168.171C54.0508 180.82 60.9102 189.22 75.4902 189.22C87.5801 189.22 97.3896 182.04 104.44 170.441L100.13 187.74H124.13L137.86 132.74C141.29 118.8 147.93 111.57 158.01 111.57C165.939 111.57 170.87 116.5 170.87 124.651C170.909 127.263 170.548 129.866 169.8 132.37L162.729 157.66C161.718 161.143 161.213 164.753 161.23 168.38C161.23 180.38 168.301 189.181 183.09 189.181C195.74 189.181 205.82 181.04 211.391 161.53L201.96 157.88C197.24 170.96 193.171 173.32 189.96 173.32C186.75 173.32 185.02 171.181 185.02 166.89C185.112 164.639 185.472 162.406 186.09 160.239L192.96 135.591C194.502 130.523 195.298 125.257 195.32 119.96C195.32 101.52 184.17 91.9006 170.66 91.9006C158.01 91.9006 145.15 103.31 138.72 115.32L143.43 93.7599H106.779L101.63 112.76H118.79L108.23 155C99.9297 173.441 84.6904 173.74 82.7803 173.311C79.6396 172.6 77.6396 171.41 77.6396 167.31C77.7314 163.99 78.2353 160.695 79.1396 157.5L95.2197 93.7101H54.5L49.3604 112.71H66.29L55.3398 157.38Z" fill="white"/>
</g>
<defs>
<clipPath id="clip0_659_1180">
<rect width="250" height="250" fill="white" transform="translate(0.5)"/>
</clipPath>
</defs>
</svg>
