<svg width="256" height="265" viewBox="0 0 256 265" fill="none" xmlns="http://www.w3.org/2000/svg">
<g clip-path="url(#clip0_690_204)">
<path d="M255.856 59.8389C255.951 60.1899 256 60.5519 256 60.9159V117.484C256 118.962 255.21 120.327 253.927 121.062L206.45 148.399V202.579C206.45 203.304 206.26 204.016 205.898 204.644C205.536 205.272 205.015 205.794 204.388 206.158L105.28 263.211C105.053 263.339 104.806 263.421 104.558 263.51C104.465 263.54 104.378 263.597 104.28 263.623C103.587 263.805 102.859 263.805 102.166 263.623C102.052 263.593 101.949 263.53 101.841 263.489C101.614 263.406 101.377 263.334 101.161 263.211L2.073 206.157C1.44334 205.795 0.920141 205.274 0.556181 204.646C0.19222 204.018 0.000375363 203.305 0 202.579L0 32.8749C0 32.5029 0.052 32.1419 0.144 31.7919C0.175 31.6729 0.247 31.5649 0.289 31.4459C0.366 31.2299 0.439 31.0079 0.552 30.8069C0.629 30.6729 0.742 30.5649 0.835 30.4409C0.954 30.2759 1.062 30.1059 1.201 29.9609C1.32 29.8429 1.475 29.7549 1.609 29.6519C1.759 29.5279 1.892 29.3939 2.062 29.2959H2.067L51.613 0.769853C52.2404 0.408785 52.9516 0.21875 53.6755 0.21875C54.3994 0.21875 55.1106 0.408785 55.738 0.769853L105.284 29.2959H105.294C105.459 29.3999 105.599 29.5279 105.748 29.6469C105.882 29.7499 106.032 29.8429 106.15 29.9569C106.295 30.1059 106.398 30.2769 106.521 30.4409C106.609 30.5649 106.728 30.6729 106.8 30.8069C106.918 31.0129 106.985 31.2299 107.068 31.4469C107.109 31.5649 107.181 31.6729 107.212 31.7969C107.307 32.1479 107.356 32.5109 107.357 32.8749V138.869L148.643 115.096V60.9109C148.643 60.5509 148.695 60.1839 148.788 59.8389C148.824 59.7149 148.891 59.6069 148.932 59.4889C149.015 59.2719 149.087 59.0489 149.2 58.8489C149.277 58.7149 149.39 58.6069 149.479 58.4829C149.602 58.3179 149.705 58.1479 149.849 58.0029C149.969 57.8849 150.118 57.7969 150.252 57.6939C150.407 57.5699 150.541 57.4359 150.706 57.3379H150.711L200.262 28.8119C200.889 28.4503 201.601 28.26 202.324 28.26C203.048 28.26 203.76 28.4503 204.387 28.8119L253.933 57.3379C254.108 57.4409 254.242 57.5699 254.397 57.6879C254.525 57.7919 254.675 57.8849 254.794 57.9979C254.938 58.1479 255.041 58.3179 255.164 58.4829C255.258 58.6069 255.371 58.7149 255.444 58.8489C255.562 59.0489 255.629 59.2719 255.711 59.4889C255.758 59.6069 255.825 59.7149 255.856 59.8389ZM247.741 115.097V68.0568L230.402 78.0378L206.449 91.8298V138.87L247.746 115.097H247.741ZM198.195 200.192V153.119L174.633 166.576L107.352 204.976V252.49L198.195 200.19V200.192ZM8.259 40.0149V200.192L99.092 252.486V204.981L51.64 178.125L51.625 178.115L51.605 178.105C51.445 178.012 51.31 177.878 51.161 177.765C51.031 177.661 50.882 177.579 50.769 177.465L50.759 177.45C50.625 177.321 50.532 177.161 50.419 177.017C50.315 176.877 50.192 176.759 50.109 176.615L50.104 176.599C50.011 176.445 49.954 176.259 49.887 176.084C49.82 175.929 49.733 175.784 49.691 175.62V175.615C49.64 175.419 49.63 175.212 49.609 175.011C49.589 174.857 49.547 174.702 49.547 174.547V63.7889L25.598 49.9909L8.259 40.0209V40.0149ZM53.681 9.11185L12.399 32.8749L53.671 56.6369L94.947 32.8689L53.671 9.11185H53.681ZM75.149 157.41L99.097 143.624V40.0149L81.76 49.9969L57.805 63.7879V167.396L75.149 157.41ZM202.324 37.1539L161.048 60.9159L202.324 84.6788L243.595 60.9109L202.324 37.1539ZM198.194 91.8298L174.241 78.0378L156.903 68.0568V115.097L180.851 128.884L198.195 138.87V91.8298H198.194ZM103.217 197.836L163.76 163.272L194.024 146L152.778 122.253L105.289 149.593L62.007 174.511L103.217 197.836Z" fill="#FF2D20"/>
</g>
<defs>
<clipPath id="clip0_690_204">
<rect width="256" height="264" fill="white" transform="translate(0 0.21875)"/>
</clipPath>
</defs>
</svg>
