<svg width="236" height="236" viewBox="0 0 236 236" fill="none" xmlns="http://www.w3.org/2000/svg">
<path d="M51.259 49.0413C57.867 54.4063 60.3371 53.9973 72.7507 53.1634L189.697 46.1463C192.182 46.1463 190.121 43.6762 189.288 43.2671L169.857 29.2173C166.144 26.3223 161.188 23.0183 151.685 23.8522L38.4363 32.1122C34.3142 32.5213 33.4803 34.5823 35.1323 36.2343L51.259 49.0413ZM58.2761 76.2914V199.342C58.2761 205.95 61.5801 208.436 69.0219 208.027L197.563 200.585C204.989 200.176 205.823 195.629 205.823 190.264V68.0314C205.823 62.6821 203.762 59.7714 199.215 60.1805L64.8841 68.0314C59.9281 68.4405 58.2761 70.9263 58.2761 76.2914ZM185.165 82.8994C185.984 86.6125 185.165 90.3255 181.437 90.7503L175.238 91.9775V182.822C169.873 185.717 164.901 187.384 160.763 187.384C154.155 187.384 152.503 185.308 147.547 179.109L107.034 115.515V177.048L119.856 179.943C119.856 179.943 119.856 187.369 109.52 187.369L81.0107 189.021C80.1769 187.369 81.0107 183.247 83.9057 182.413L91.3318 180.367V98.9946L81.0265 98.1765C80.1926 94.4634 82.2537 89.0983 88.0435 88.6735L118.629 86.6282L160.794 151.04V94.0543L150.049 92.8114C149.215 88.2645 152.519 84.9605 156.657 84.5514L185.181 82.8994H185.165ZM28.9334 20.9573L146.729 12.2882C161.188 11.0295 164.901 11.8791 173.995 18.4871L211.597 44.9191C217.812 49.4503 219.873 50.6933 219.873 55.6493V200.585C219.873 209.679 216.569 215.059 204.989 215.862L68.2038 224.122C59.519 224.547 55.3811 223.304 50.8342 217.514L23.1435 181.595C18.1875 174.987 16.1265 170.031 16.1265 164.241V35.4005C16.1265 27.9743 19.4305 21.7754 28.9334 20.9573Z" fill="black"/>
</svg>
