<svg width="258" height="251" viewBox="0 0 258 251" fill="none" xmlns="http://www.w3.org/2000/svg">
<g clip-path="url(#clip0_659_1199)">
<path d="M46.0024 0H211.998C237.164 0 257.512 20.3481 257.512 45.5143V205.084C257.512 230.25 237.164 250.598 211.998 250.598H46.0024C20.8361 250.598 0.488037 230.25 0.488037 205.084V45.5143C0.488037 20.3481 20.8361 0 46.0024 0Z" fill="#00005B"/>
<path d="M61.5312 175.74V65.5412C61.5312 64.7912 61.8525 64.3635 62.6025 64.3635L64.1567 64.3605L65.3595 64.3505L66.2079 64.3344L67.1115 64.3113L68.0823 64.2772L68.5994 64.2561C69.5632 64.2159 70.5421 64.1908 71.5411 64.1697L74.6083 64.1055C74.9567 64.0974 75.3091 64.0884 75.6636 64.0774L76.7378 64.0422C77.7017 64.0061 78.6896 63.982 79.7016 63.9619L82.807 63.9067L84.9566 63.8595L86.056 63.8274C88.2688 63.7571 90.4344 63.733 92.584 63.725L95.8008 63.7209C104.583 63.7209 111.865 64.7912 117.863 67.0402C123.239 68.866 128.141 71.8659 132.213 75.8222C135.664 79.2843 138.33 83.4479 140.031 88.0308C141.637 92.5287 142.494 97.1341 142.494 101.953C142.494 111.163 140.352 118.766 136.068 124.764C131.784 130.761 125.787 135.259 118.827 137.829C111.786 140.418 104.047 141.403 95.606 141.467H92.5448L91.3531 141.455L90.589 141.437L90.1392 141.418L89.7356 141.393L89.3752 141.363C89.144 141.341 88.9124 141.323 88.6804 141.311L88.1583 141.288L87.5861 141.273L86.6313 141.26L84.7708 141.256V175.633C84.8773 176.383 84.3421 177.025 83.5921 177.133H62.8164C61.96 177.133 61.5312 176.704 61.5312 175.74ZM84.8773 85.0319V121.015L86.1363 121.106C87.1071 121.18 88.0802 121.221 89.0539 121.23H94.7305C98.9072 121.23 103.084 120.588 107.046 119.302C110.473 118.339 113.471 116.303 115.828 113.626C118.077 110.949 119.148 107.308 119.148 102.596C119.249 99.249 118.394 95.9427 116.684 93.0639C114.94 90.3962 112.506 88.3179 109.574 87.1121L109.188 86.9595C105.225 85.3531 100.941 84.7106 96.5508 84.818L94.0749 84.821L92.9113 84.828L91.7998 84.8431L90.7446 84.8672C90.2306 84.8813 89.7376 84.9003 89.2688 84.9254C89.0386 84.9139 88.8083 84.9045 88.578 84.8973L87.9365 84.8833C87.8361 84.8821 87.7357 84.8814 87.6353 84.8813L87.067 84.8843L86.5509 84.8983L86.312 84.9084L85.8732 84.9335L85.4877 84.9636L85.314 84.9796L85.0098 85.0148L84.8773 85.0319ZM157.487 91.2436H176.228C177.239 91.2436 178.061 91.9123 178.419 92.7988L178.477 92.9574C178.798 93.8138 179.012 94.6703 179.12 95.6341C179.334 96.7054 179.548 97.8831 179.655 98.9543L179.745 99.9905C179.816 100.875 179.87 101.816 179.87 102.81C182.937 99.2287 186.615 96.2206 190.733 93.9253L191.328 93.6C196.255 90.8149 201.931 89.4234 207.606 89.4234C208.356 89.3159 208.999 89.8511 209.106 90.601V111.913C209.106 112.769 208.57 113.091 207.392 113.091C203.794 112.99 200.103 113.264 196.579 113.997L195.826 114.162C192.721 114.804 189.722 115.768 186.83 117.053C184.795 118.017 182.868 119.302 181.369 121.015V175.633C181.369 176.704 180.94 177.133 179.976 177.133H158.879C158.023 177.239 157.273 176.704 157.165 175.848V116.09C157.165 113.519 157.165 110.842 157.059 108.058L156.995 105.969L156.908 101.793C156.891 101.096 156.871 100.4 156.844 99.7043C156.844 97.2405 156.63 94.8851 156.416 92.4213C156.309 91.8862 156.63 91.351 157.165 91.2436C157.165 91.1522 157.323 91.1392 157.435 91.2034L157.487 91.2436Z" fill="#9999FF"/>
</g>
<defs>
<clipPath id="clip0_659_1199">
<rect width="257.024" height="251" fill="white" transform="translate(0.488037)"/>
</clipPath>
</defs>
</svg>
