<svg width="23" height="23" viewBox="0 0 23 23" fill="none" xmlns="http://www.w3.org/2000/svg">
<path d="M9.28681 10.2868C9.49526 10.1358 9.59589 9.88662 9.59589 9.54399C9.60308 9.38106 9.56954 9.22053 9.49765 9.07437C9.43296 8.95697 9.33712 8.85873 9.21972 8.78924C9.09798 8.71542 8.96278 8.66655 8.82198 8.64548C8.66863 8.61673 8.51289 8.60236 8.35955 8.60475H6.67515V10.5144H8.49852C8.8124 10.5168 9.07835 10.4401 9.28681 10.2868ZM9.56954 12.0119C9.33473 11.8322 9.02085 11.7435 8.6303 11.7435H6.67036V13.9958H8.59196C8.77166 13.9958 8.93699 13.979 9.09752 13.9455C9.24941 13.9158 9.39419 13.8572 9.52401 13.7729C9.64621 13.6939 9.74444 13.5861 9.81872 13.4471C9.8906 13.3081 9.92654 13.1308 9.92654 12.9176C9.92654 12.4935 9.80674 12.194 9.56954 12.0119ZM11.4839 0.551758C5.55622 0.551758 0.749817 5.35816 0.749817 11.2859C0.749817 17.2136 5.55622 22.02 11.4839 22.02C17.4117 22.02 22.2181 17.2136 22.2181 11.2859C22.2181 5.35816 17.4117 0.551758 11.4839 0.551758ZM13.5565 7.42591H16.8726V8.23337H13.5565V7.42591ZM11.4839 14.0844C11.3288 14.3788 11.1074 14.6331 10.837 14.8272C10.5543 15.0237 10.2404 15.1674 9.90737 15.2513C9.55893 15.3447 9.19948 15.3906 8.83875 15.3879H4.87096V7.21507H8.72853C9.11908 7.21507 9.47369 7.25101 9.79716 7.31809C10.1182 7.38518 10.3914 7.50019 10.6214 7.65593C10.849 7.81167 11.0287 8.02013 11.1557 8.27889C11.2803 8.53527 11.345 8.85633 11.345 9.2373C11.345 9.64941 11.2515 9.98965 11.0646 10.2652C10.8754 10.5407 10.6022 10.7636 10.2308 10.9385C10.7364 11.0822 11.1078 11.3386 11.3522 11.698C11.6014 12.0622 11.7235 12.4983 11.7235 13.011C11.7235 13.4279 11.6445 13.7849 11.4839 14.0844ZM18.164 12.8193H13.8895C13.8895 13.2842 14.0501 13.7298 14.2921 13.9694C14.5365 14.2066 14.8863 14.3264 15.3439 14.3264C15.6746 14.3264 15.9549 14.2426 16.1945 14.0772C16.4317 13.9119 16.5755 13.737 16.6282 13.5549H18.061C17.831 14.2665 17.4812 14.7745 17.0068 15.0812C16.5371 15.3879 15.9621 15.5412 15.2936 15.5412C14.8264 15.5412 14.4071 15.4645 14.0309 15.3184C13.6691 15.177 13.3433 14.9614 13.0749 14.6834C12.8103 14.398 12.6058 14.0623 12.4735 13.6963C12.3273 13.2913 12.2555 12.8649 12.2603 12.436C12.2603 11.9927 12.3345 11.5806 12.4783 11.1972C12.7538 10.4521 13.3265 9.85547 14.0573 9.54638C14.4478 9.38346 14.8671 9.30199 15.2912 9.30678C15.7944 9.30678 16.2304 9.40262 16.609 9.5991C16.9735 9.78671 17.2899 10.0556 17.5339 10.385C17.7759 10.7132 17.946 11.087 18.0538 11.5087C18.1568 11.9232 18.1928 12.3593 18.164 12.8193ZM15.2409 10.5287C14.9821 10.5287 14.7641 10.5743 14.5964 10.6629C14.4286 10.7516 14.2897 10.8618 14.1843 10.9888C14.0839 11.1114 14.0096 11.2533 13.9662 11.4057C13.9279 11.5327 13.9015 11.6621 13.8919 11.7938H16.5395C16.5012 11.3793 16.3574 11.0726 16.1658 10.857C15.9645 10.6438 15.641 10.5287 15.2409 10.5287Z" fill="white"/>
</svg>
