<svg width="21" height="21" viewBox="0 0 21 21" fill="none" xmlns="http://www.w3.org/2000/svg">
<path d="M0.767807 20.2859L2.11981 15.3179C1.22895 13.7907 0.760903 12.0539 0.763807 10.2859C0.763807 4.76289 5.24081 0.285889 10.7638 0.285889C16.2868 0.285889 20.7638 4.76289 20.7638 10.2859C20.7638 15.8089 16.2868 20.2859 10.7638 20.2859C8.99659 20.2887 7.26046 19.8211 5.73381 18.9309L0.767807 20.2859ZM7.15481 5.59389C7.02567 5.60191 6.89948 5.63592 6.78381 5.69389C6.67533 5.75532 6.5763 5.83211 6.48981 5.92189C6.36981 6.03489 6.30181 6.13289 6.22881 6.22789C5.85922 6.70888 5.66042 7.29931 5.66381 7.90589C5.66581 8.39589 5.79381 8.87289 5.99381 9.31889C6.40281 10.2209 7.07581 11.1759 7.96481 12.0609C8.17881 12.2739 8.38781 12.4879 8.61281 12.6869C9.7162 13.6584 11.0311 14.3589 12.4528 14.7329L13.0218 14.8199C13.2068 14.8299 13.3918 14.8159 13.5778 14.8069C13.869 14.7919 14.1534 14.713 14.4108 14.5759C14.5418 14.5084 14.6696 14.435 14.7938 14.3559C14.7938 14.3559 14.8368 14.3279 14.9188 14.2659C15.0538 14.1659 15.1368 14.0949 15.2488 13.9779C15.3318 13.8919 15.4038 13.7909 15.4588 13.6759C15.5368 13.5129 15.6148 13.2019 15.6468 12.9429C15.6708 12.7449 15.6638 12.6369 15.6608 12.5699C15.6568 12.4629 15.5678 12.3519 15.4708 12.3049L14.8888 12.0439C14.8888 12.0439 14.0188 11.6649 13.4878 11.4229C13.4318 11.3985 13.3718 11.3846 13.3108 11.3819C13.2424 11.3749 13.1733 11.3826 13.1081 11.4045C13.0429 11.4264 12.9831 11.462 12.9328 11.5089V11.5069C12.9278 11.5069 12.8608 11.5639 12.1378 12.4399C12.0963 12.4957 12.0391 12.5378 11.9736 12.5609C11.9081 12.5841 11.8371 12.5872 11.7698 12.5699C11.7046 12.5525 11.6408 12.5304 11.5788 12.5039C11.4548 12.4519 11.4118 12.4319 11.3268 12.3949L11.3218 12.3929C10.7497 12.1431 10.22 11.8057 9.75181 11.3929C9.62581 11.2829 9.50881 11.1629 9.38881 11.0469C8.99539 10.6701 8.65252 10.2439 8.36881 9.77889L8.30981 9.68389C8.26743 9.62005 8.23317 9.55119 8.20781 9.47889C8.16981 9.33189 8.26881 9.21389 8.26881 9.21389C8.26881 9.21389 8.51181 8.94789 8.62481 8.80389C8.7189 8.68421 8.80668 8.55971 8.88781 8.43089C9.00581 8.24089 9.04281 8.04589 8.98081 7.89489C8.70081 7.21089 8.41081 6.52989 8.11281 5.85389C8.05381 5.71989 7.87881 5.62389 7.71981 5.60489C7.66581 5.59889 7.61181 5.59289 7.55781 5.58889C7.42351 5.58222 7.28894 5.58355 7.15481 5.59289V5.59389Z" fill="white"/>
</svg>
