<svg width="25" height="25" viewBox="0 0 25 25" fill="none" xmlns="http://www.w3.org/2000/svg">
<path d="M12.1616 0.285921C8.98871 0.300728 5.95083 1.57154 3.71249 3.82038C1.47415 6.06921 0.217556 9.113 0.21759 12.2859C0.21759 15.4685 1.48187 18.5208 3.73231 20.7712C5.98275 23.0216 9.03499 24.2859 12.2176 24.2859C15.4002 24.2859 18.4524 23.0216 20.7029 20.7712C22.9533 18.5208 24.2176 15.4685 24.2176 12.2859C24.2176 9.10332 22.9533 6.05108 20.7029 3.80064C18.4524 1.5502 15.4002 0.285921 12.2176 0.285921C12.1989 0.285878 12.1803 0.285878 12.1616 0.285921ZM17.1236 7.50992C17.2236 7.50792 17.4446 7.53292 17.5886 7.64992C17.6843 7.73302 17.7453 7.849 17.7596 7.97492C17.7756 8.06792 17.7956 8.28092 17.7796 8.44692C17.5996 10.3449 16.8176 14.9489 16.4196 17.0739C16.2516 17.9739 15.9206 18.2749 15.5996 18.3039C14.9036 18.3689 14.3746 17.8439 13.6996 17.4019C12.6436 16.7089 12.0466 16.2779 11.0216 15.6019C9.83659 14.8219 10.6046 14.3919 11.2796 13.6919C11.4566 13.5079 14.5266 10.7149 14.5866 10.4619C14.5936 10.4299 14.6006 10.3119 14.5306 10.2499C14.4606 10.1879 14.3566 10.2089 14.2816 10.2259C14.1756 10.2499 12.4886 11.3659 9.22059 13.5709C8.74059 13.9009 8.30759 14.0609 7.91859 14.0509C7.49059 14.0429 6.66659 13.8099 6.05359 13.6109C5.30159 13.3659 4.70459 13.2369 4.75659 12.8219C4.78359 12.6059 5.08159 12.3849 5.64959 12.1589C9.14759 10.6349 11.4796 9.62992 12.6476 9.14492C15.9796 7.75892 16.6726 7.51792 17.1236 7.50992Z" fill="white"/>
</svg>
