<svg width="25" height="25" viewBox="0 0 25 25" fill="none" xmlns="http://www.w3.org/2000/svg">
<path d="M0.218581 11.9249C0.218581 5.23489 5.45858 0.285889 12.2186 0.285889C18.9786 0.285889 24.2176 5.23589 24.2176 11.9249C24.2176 18.6139 18.9776 23.5629 12.2176 23.5629C11.0076 23.5629 9.83758 23.4029 8.74758 23.1029C8.53483 23.0456 8.30886 23.0633 8.10758 23.1529L5.71758 24.2029C5.57351 24.267 5.41585 24.2947 5.25855 24.2834C5.10125 24.2721 4.94915 24.2223 4.8157 24.1382C4.68225 24.0542 4.57155 23.9386 4.49339 23.8016C4.41523 23.6646 4.37202 23.5105 4.36758 23.3529L4.29758 21.2129C4.29216 21.084 4.26106 20.9574 4.20611 20.8406C4.15116 20.7239 4.07347 20.6192 3.97758 20.5329C2.7752 19.4479 1.81806 18.1189 1.17002 16.6347C0.521991 15.1505 0.19797 13.5452 0.219581 11.9259L0.218581 11.9249ZM8.53858 9.73489L5.01858 15.3349C4.66858 15.8649 5.33858 16.4739 5.83858 16.0849L9.62858 13.2149C9.88858 13.0149 10.2286 13.0149 10.4986 13.2149L13.2986 15.3149C14.1386 15.9449 15.3386 15.7149 15.8986 14.8349L19.4186 9.23489C19.7686 8.70489 19.0986 8.10489 18.5986 8.48489L14.8086 11.3549C14.5586 11.5549 14.2086 11.5549 13.9486 11.3549L11.1486 9.25489C10.9495 9.10446 10.7212 8.99709 10.4784 8.93958C10.2356 8.88206 9.98344 8.87567 9.738 8.92081C9.49257 8.96595 9.2592 9.06163 9.05272 9.20177C8.84624 9.34192 8.67115 9.52346 8.53858 9.73489Z" fill="white"/>
</svg>
