<svg width="22" height="23" viewBox="0 0 22 23" fill="none" xmlns="http://www.w3.org/2000/svg">
<path d="M10.9127 0.44873C4.92803 0.44873 0.0755005 5.30126 0.0755005 11.2859C0.0755005 17.2705 4.92803 22.123 10.9127 22.123C16.8973 22.123 21.7498 17.2705 21.7498 11.2859C21.7498 5.30126 16.8973 0.44873 10.9127 0.44873ZM16.1208 8.61772C16.128 8.73142 16.128 8.84995 16.128 8.96606C16.128 12.5172 13.4236 16.6077 8.48155 16.6077C6.95758 16.6077 5.54488 16.165 4.35473 15.403C4.57244 15.4272 4.78047 15.4369 5.00302 15.4369C6.26091 15.4369 7.41719 15.0112 8.33883 14.2903C7.15836 14.2661 6.16656 13.492 5.8279 12.4277C6.24155 12.4881 6.61408 12.4881 7.03983 12.3793C6.43199 12.2558 5.88566 11.9257 5.49364 11.445C5.10161 10.9644 4.88809 10.3628 4.88933 9.74256V9.70869C5.24492 9.90947 5.66341 10.0328 6.10125 10.0498C5.73318 9.80447 5.43133 9.47214 5.22245 9.08224C5.01358 8.69235 4.90414 8.25693 4.90384 7.81461C4.90384 7.31388 5.03447 6.85668 5.26911 6.45997C5.94378 7.2905 6.78566 7.96977 7.74004 8.45363C8.69442 8.93749 9.73994 9.21511 10.8086 9.26844C10.4289 7.44208 11.7932 5.96407 13.4333 5.96407C14.2073 5.96407 14.904 6.28822 15.3951 6.81072C16.0023 6.69703 16.5828 6.46964 17.1005 6.16485C16.8997 6.78653 16.4788 7.31146 15.92 7.64286C16.4619 7.58481 16.9844 7.43483 17.4682 7.22437C17.1029 7.76139 16.6457 8.23794 16.1208 8.61772Z" fill="white"/>
</svg>
