<svg width="21" height="21" viewBox="0 0 21 21" fill="none" xmlns="http://www.w3.org/2000/svg">
<path d="M13.9638 10.2859C13.9638 10.9188 13.7761 11.5375 13.4245 12.0637C13.0729 12.59 12.5731 13.0001 11.9884 13.2423C11.4037 13.4845 10.7602 13.5479 10.1395 13.4244C9.51877 13.3009 8.94858 12.9962 8.50105 12.5486C8.05352 12.1011 7.74875 11.5309 7.62528 10.9102C7.50181 10.2894 7.56518 9.64602 7.80738 9.0613C8.04958 8.47658 8.45973 7.97681 8.98597 7.62519C9.51221 7.27357 10.1309 7.08589 10.7638 7.08589C11.6117 7.08853 12.4241 7.42652 13.0236 8.02606C13.6232 8.62561 13.9612 9.43801 13.9638 10.2859ZM20.7638 5.88589V14.6859C20.7638 16.1711 20.1738 17.5955 19.1236 18.6457C18.0734 19.6959 16.649 20.2859 15.1638 20.2859H6.36379C4.87858 20.2859 3.4542 19.6959 2.404 18.6457C1.35379 17.5955 0.763794 16.1711 0.763794 14.6859V5.88589C0.763794 4.40068 1.35379 2.97629 2.404 1.92609C3.4542 0.875887 4.87858 0.285889 6.36379 0.285889H15.1638C16.649 0.285889 18.0734 0.875887 19.1236 1.92609C20.1738 2.97629 20.7638 4.40068 20.7638 5.88589ZM15.5638 10.2859C15.5638 9.33654 15.2823 8.40851 14.7548 7.61915C14.2274 6.8298 13.4778 6.21457 12.6007 5.85127C11.7236 5.48797 10.7585 5.39291 9.82736 5.57812C8.89625 5.76333 8.04097 6.22048 7.36968 6.89178C6.69839 7.56307 6.24123 8.41835 6.05603 9.34946C5.87082 10.2806 5.96587 11.2457 6.32917 12.1228C6.69247 12.9999 7.3077 13.7495 8.09706 14.2769C8.88641 14.8044 9.81444 15.0859 10.7638 15.0859C12.0368 15.0859 13.2577 14.5802 14.1579 13.68C15.0581 12.7798 15.5638 11.5589 15.5638 10.2859ZM17.1638 5.08589C17.1638 4.84855 17.0934 4.61654 16.9616 4.4192C16.8297 4.22187 16.6423 4.06806 16.423 3.97723C16.2037 3.88641 15.9625 3.86264 15.7297 3.90895C15.4969 3.95525 15.2831 4.06954 15.1153 4.23736C14.9474 4.40518 14.8332 4.619 14.7869 4.85178C14.7405 5.08456 14.7643 5.32584 14.8551 5.54511C14.946 5.76438 15.0998 5.9518 15.2971 6.08365C15.4944 6.21551 15.7265 6.28589 15.9638 6.28589C16.2821 6.28589 16.5873 6.15946 16.8123 5.93442C17.0374 5.70937 17.1638 5.40415 17.1638 5.08589Z" fill="white"/>
</svg>
