<svg width="261" height="253" viewBox="0 0 261 253" fill="none" xmlns="http://www.w3.org/2000/svg">
<g clip-path="url(#clip0_659_1187)">
<path d="M217.026 0H43.9741C20.2203 0 0.964111 19.2562 0.964111 43.01V209.585C0.964111 233.339 20.2203 252.595 43.9741 252.595H217.026C240.78 252.595 260.036 233.339 260.036 209.585V43.01C260.036 19.2562 240.78 0 217.026 0Z" fill="#001E36"/>
<path d="M59.2998 177.135V66.0806C59.2998 65.271 59.6479 64.8642 60.3432 64.8642L61.4432 64.8612L63.3235 64.8409L65.9365 64.7893L74.6903 64.6041L84.0766 64.43C87.3777 64.3734 90.6506 64.343 93.895 64.343C102.699 64.343 110.114 65.4441 116.141 67.6452C121.577 69.484 126.535 72.5118 130.653 76.5083C134.144 79.9726 136.842 84.1532 138.561 88.7616C140.186 93.246 141.01 97.9815 140.995 102.751C140.995 112.022 138.85 119.669 134.563 125.692C130.37 131.569 124.522 136.063 117.764 138.602L117.184 138.814C110.128 141.446 102.313 142.398 93.7422 142.457L92.4104 142.461L90.434 142.451L89.4372 142.437L88.326 142.411L87.656 142.384L87.2492 142.363L86.2484 142.327L85.0248 142.301L83.183 142.288L82.7731 142.287V176.961C82.8036 177.174 82.7841 177.391 82.7163 177.594C82.6484 177.798 82.5341 177.983 82.3822 178.135C82.2304 178.287 82.0453 178.401 81.8416 178.469C81.6379 178.537 81.4211 178.556 81.2086 178.526H60.5172C59.7046 178.526 59.2998 178.064 59.2998 177.135ZM82.7742 85.7195V121.941C84.1612 122.053 85.5521 122.111 86.9436 122.115H92.6796C96.6343 122.102 100.566 121.513 104.351 120.367L105.106 120.132C108.549 119.109 111.626 117.118 113.97 114.396C116.148 111.827 117.276 108.288 117.354 103.778L117.359 103.273C117.45 99.9108 116.576 96.5934 114.838 93.7143C113.012 90.9298 110.373 88.7754 107.279 87.5441C103.239 85.974 98.9235 85.2353 94.5913 85.3724L92.3871 85.3784L90.9967 85.3906L89.6699 85.4078L87.7977 85.4442L86.4315 85.4827L85.7221 85.509L84.7739 85.5535L83.9663 85.6031L83.5058 85.6395L83.1081 85.678L82.933 85.6982L82.7742 85.7195ZM208.191 115.355C205.16 113.797 201.944 112.627 198.62 111.872L197.851 111.706C194.194 110.866 190.461 110.404 186.71 110.326L185.772 110.315C183.573 110.256 181.378 110.519 179.255 111.097C177.904 111.398 176.703 112.167 175.865 113.269C175.299 114.151 174.997 115.176 174.997 116.224C175.028 117.24 175.395 118.218 176.039 119.004C176.961 120.083 178.07 120.987 179.313 121.673L179.689 121.872C182.167 123.206 184.72 124.396 187.336 125.434C193.169 127.387 198.742 130.042 203.933 133.342C207.47 135.574 210.396 138.65 212.45 142.293C214.176 145.743 215.041 149.559 214.97 153.415C215.074 158.508 213.618 163.512 210.798 167.754C207.779 172.06 203.587 175.408 198.719 177.399C193.622 179.639 187.361 180.796 179.939 180.872L179.168 180.876C174.567 180.922 169.972 180.52 165.449 179.674L164.482 179.485C160.674 178.787 156.967 177.619 153.446 176.009C153.092 175.826 152.793 175.553 152.58 175.217C152.366 174.881 152.245 174.494 152.23 174.096V155.154C152.209 154.97 152.238 154.784 152.315 154.615C152.392 154.447 152.513 154.303 152.665 154.197C152.814 154.113 152.985 154.076 153.156 154.092C153.327 154.107 153.489 154.175 153.62 154.285C157.778 156.736 162.293 158.525 167.002 159.585C171.153 160.626 175.41 161.18 179.689 161.237C183.743 161.237 186.727 160.715 188.639 159.672C189.503 159.277 190.234 158.64 190.743 157.838C191.252 157.036 191.517 156.104 191.507 155.154C191.507 153.65 190.638 152.201 188.901 150.809C188.172 150.226 187.127 149.592 185.766 148.907L185.116 148.587L184.421 148.26L184.057 148.094L183.294 147.756C183.162 147.698 183.029 147.641 182.896 147.584L182.067 147.236L181.634 147.059L180.738 146.7L180.272 146.517L179.308 146.146L178.299 145.769C172.842 143.869 167.667 141.238 162.917 137.948C159.52 135.585 156.723 132.46 154.75 128.824C153.04 125.399 152.176 121.615 152.23 117.788C152.22 113.189 153.483 108.678 155.879 104.753C158.611 100.432 162.534 96.9911 167.176 94.8477C172.273 92.3005 178.645 91.0254 186.293 91.0234C190.772 90.9874 195.247 91.3072 199.675 91.9797C202.882 92.3864 206.017 93.2344 208.992 94.4996C209.47 94.6372 209.856 94.9904 210.034 95.4559C210.153 95.88 210.21 96.3182 210.208 96.7594V114.313C210.234 114.727 210.034 115.125 209.687 115.355C209.455 115.47 209.199 115.531 208.939 115.531C208.68 115.531 208.424 115.47 208.191 115.355Z" fill="#31A8FF"/>
</g>
<defs>
<clipPath id="clip0_659_1187">
<rect width="259.072" height="253" fill="white" transform="translate(0.964111)"/>
</clipPath>
</defs>
</svg>
