<svg xmlns="http://www.w3.org/2000/svg" viewBox="0 0 739 739"><defs><style>.cls-1{fill:#3c4fff;}.cls-2{fill:#fff;}</style></defs><g id="Calque_2" data-name="Calque 2"><g id="Calque_1-2" data-name="Calque 1"><circle class="cls-1" cx="369.5" cy="369.5" r="369.5"/><path class="cls-2" d="M430,233h5c1,6.53,2.09,13,2.94,19.59,2.16,16.57,4.15,33.17,6.32,49.75,2.18,16.74,4.55,33.45,6.71,50.19,1.85,14.28,3.47,28.59,5.29,42.88,2.19,17.25,4.48,34.49,6.75,51.73q1.46,11.06,3,22.09c11.17-32.84,21.52-65.74,32.08-98.57,7.43-23.09,13.75-46.57,26-67.86C541.19,273,564.12,250,597.72,239.49c12.64-4,25.58-6.2,39.25-5.38-.61,1.63-1.05,2.86-1.54,4.07q-40.89,100.54-81.85,201.05c-8.78,21.41-17.2,43.1-27.88,63.57-17.14,32.85-42.94,56.73-79.24,67.6-13.35,4-27,6.18-41.19,5.31-10.31-72-20.57-143.58-30.9-215.66a10.2,10.2,0,0,0-1.26,1.75C358.39,400,343.81,438.32,329,476.5c-11.84,30.4-28.85,57.22-55.78,76.62C251.22,568.94,226.46,576,199,576c-18.82-114.09-37.58-227.88-56.58-343.09,9.22,1.54,17.34,2.19,25.07,4.3,46.59,12.68,83.9,53.41,83.62,106.5,0,7.64.69,15.28,1.12,22.92Q254.07,400,256,433.33c.69,11.87,1.44,23.72,2.25,37,1-2.43,1.5-3.59,1.95-4.76q22.44-58,44.84-116c9.75-25.39,19.52-50.75,37.28-72C360.24,256.25,382.11,241.2,410,236,416.61,234.76,423.32,234,430,233Z"/></g></g></svg>