<svg width="257" height="250" viewBox="0 0 257 250" fill="none" xmlns="http://www.w3.org/2000/svg">
<g clip-path="url(#clip0_659_1177)">
<path d="M214 0H43C19.5279 0 0.5 19.0279 0.5 42.5V207.1C0.5 230.572 19.5279 249.6 43 249.6H214C237.472 249.6 256.5 230.572 256.5 207.1V42.5C256.5 19.0279 237.472 0 214 0Z" fill="#470137"/>
<path d="M135.078 73.9992L103.135 126.722L137.31 182.707C137.53 183.099 137.591 183.559 137.482 183.995C137.429 184.181 137.315 184.227 137.14 184.234L136.946 184.231L136.71 184.225C136.582 184.225 136.439 184.231 136.28 184.257H111.64L111.156 184.249C109.828 184.214 108.871 184.024 108.288 183.05C106.008 178.609 103.718 174.172 101.418 169.741C99.3607 165.789 97.2471 161.866 95.0781 157.974L94.1201 156.26C91.5259 151.649 88.9784 147.013 86.4781 142.35H86.3061C83.9971 146.964 81.6212 151.544 79.1791 156.088C76.7161 160.668 74.2831 165.22 71.8801 169.741C69.4757 174.266 67.0142 178.76 64.4961 183.222C64.0911 184.132 63.4181 184.322 62.4811 184.353L62.0911 184.359H38.5641L38.4621 184.362L38.1261 184.392C37.9391 184.403 37.8271 184.363 37.7911 184.081C37.7266 183.662 37.8184 183.235 38.0491 182.879L71.1931 128.439L38.9071 73.8292C38.5641 73.3732 38.5071 73.0012 38.7351 72.7132C38.8619 72.5665 39.021 72.4513 39.1999 72.3766C39.3789 72.302 39.5727 72.27 39.7661 72.2832H63.9801C64.5082 72.2543 65.0361 72.3424 65.5261 72.5412C65.9361 72.7742 66.2891 73.0972 66.5561 73.4862C68.6171 78.0662 70.9071 82.6462 73.4261 87.2242C75.9256 91.7734 78.4731 96.2959 81.0681 100.791C83.6234 105.217 86.001 109.743 88.1951 114.358H88.3671C90.6157 109.744 92.9343 105.164 95.3221 100.62C97.6671 96.1552 100.072 91.6602 102.534 87.1382C104.965 82.6742 107.341 78.1806 109.661 73.6582C109.793 73.2342 110.029 72.8502 110.348 72.5412C110.772 72.3265 111.249 72.237 111.722 72.2832H134.219C134.426 72.2317 134.644 72.2487 134.84 72.3316C135.037 72.4146 135.201 72.5591 135.308 72.7434C135.415 72.9277 135.459 73.1418 135.434 73.3535C135.409 73.5652 135.316 73.763 135.169 73.9172L135.079 74.0012L135.078 73.9992ZM185.548 186.472L184.364 186.485C176.46 186.606 168.627 184.963 161.437 181.677C154.739 178.577 149.14 173.517 145.38 167.165C141.589 160.869 139.643 153.023 139.545 143.63L139.541 142.865C139.477 134.983 141.491 127.224 145.381 120.368C149.274 113.583 154.95 107.992 161.793 104.202L162.382 103.882C169.822 99.7602 178.81 97.6992 189.344 97.6992L189.804 97.7042L190.33 97.7212L190.92 97.7472L191.576 97.7852L192.678 97.8632L193.926 97.9632L194.839 98.0432V64.2112C194.839 63.4112 195.183 63.0092 195.869 63.0092H217.508C217.648 62.9891 217.791 63.0019 217.925 63.0466C218.059 63.0913 218.181 63.1666 218.281 63.2665C218.381 63.3665 218.456 63.4884 218.501 63.6225C218.545 63.7566 218.558 63.8993 218.538 64.0392V165.534C218.538 167.238 218.604 169.074 218.736 171.038L219.056 175.493L219.226 178.07C219.247 178.427 219.16 178.782 218.976 179.089C218.792 179.395 218.52 179.639 218.195 179.788C212.613 182.116 206.798 183.843 200.85 184.939C195.8 185.871 190.682 186.384 185.548 186.472ZM194.839 165.19V118.307C193.911 118.056 192.963 117.884 192.006 117.792C190.836 117.674 189.661 117.617 188.485 117.62C184.318 117.579 180.2 118.52 176.464 120.368C172.826 122.177 169.719 124.899 167.448 128.268C165.181 131.584 164.008 135.914 163.931 141.258L163.927 141.835C163.844 145.579 164.455 149.305 165.73 152.825C166.768 155.662 168.409 158.241 170.54 160.382C172.579 162.352 175.048 163.822 177.752 164.675C180.608 165.6 183.594 166.064 186.596 166.05C188.198 166.05 189.686 165.992 191.061 165.877C192.158 165.795 193.245 165.614 194.309 165.337L194.839 165.19Z" fill="#FF61F6"/>
</g>
<defs>
<clipPath id="clip0_659_1177">
<rect width="256" height="250" fill="white" transform="translate(0.5)"/>
</clipPath>
</defs>
</svg>
