<svg width="430" height="488" viewBox="0 0 430 488" fill="none" xmlns="http://www.w3.org/2000/svg">
<circle opacity="0.97" cx="219.366" cy="243.18" r="157.17" fill="#D9D9D9"/>
<path opacity="0.88" d="M230.557 103.532C294.169 107.433 312.659 151.202 312.659 200.316C312.659 274.666 361.634 269.283 353.843 334.793C346.053 400.303 267.637 432.84 186.975 361.056C119.902 301.366 89.7769 339.477 54.8438 304.955C19.9106 270.433 16.095 219.778 61.9956 188.347C89.2438 169.688 97.4353 187.152 129.112 151.202C161.938 113.949 186.095 100.805 230.557 103.532Z" fill="#F07E19"/>
<g clip-path="url(#clip0_658_695)">
<path d="M118.73 191.178C121.259 191.178 123.308 189.128 123.308 186.6C123.308 184.071 121.259 182.022 118.73 182.022C116.202 182.022 114.152 184.071 114.152 186.6C114.152 189.128 116.202 191.178 118.73 191.178Z" stroke="white" stroke-width="1.31928" stroke-miterlimit="10"/>
<path d="M138.638 77.0729C141.167 77.0729 143.216 75.0233 143.216 72.495C143.216 69.9667 141.167 67.9171 138.638 67.9171C136.11 67.9171 134.06 69.9667 134.06 72.495C134.06 75.0233 136.11 77.0729 138.638 77.0729Z" stroke="white" stroke-width="1.31928" stroke-miterlimit="10"/>
<path d="M263.865 15.6997C266.393 15.6997 268.443 13.6501 268.443 11.1217C268.443 8.59343 266.393 6.54382 263.865 6.54382C261.337 6.54382 259.287 8.59343 259.287 11.1217C259.287 13.6501 261.337 15.6997 263.865 15.6997Z" fill="white"/>
<path d="M357.534 119.923C360.063 119.923 362.112 117.873 362.112 115.345C362.112 112.816 360.063 110.767 357.534 110.767C355.006 110.767 352.956 112.816 352.956 115.345C352.956 117.873 355.006 119.923 357.534 119.923Z" fill="white"/>
<path d="M279.234 444.177C279.234 450.575 253.35 455.747 221.436 455.747C189.51 455.747 163.639 450.562 163.639 444.177C163.639 437.778 189.523 432.606 221.436 432.606C253.363 432.593 279.234 437.778 279.234 444.177Z" fill="white"/>
<path d="M183.494 431.024C185.134 431.024 186.463 401.172 186.463 364.347C186.463 327.523 185.134 297.67 183.494 297.67C181.855 297.67 180.526 327.523 180.526 364.347C180.526 401.172 181.855 431.024 183.494 431.024Z" fill="white"/>
<path d="M164.932 335.481C164.932 355.837 166.079 374.057 167.9 386.63C169.721 374.057 170.868 355.824 170.868 335.481C170.868 315.137 169.721 296.905 167.9 284.332C166.079 296.892 164.932 315.124 164.932 335.481Z" fill="white"/>
<path d="M152.834 356.405C154.473 356.405 155.802 339.122 155.802 317.803C155.802 296.483 154.473 279.2 152.834 279.2C151.194 279.2 149.865 296.483 149.865 317.803C149.865 339.122 151.194 356.405 152.834 356.405Z" fill="white"/>
<path d="M259.379 431.024C261.019 431.024 262.348 401.172 262.348 364.347C262.348 327.523 261.019 297.67 259.379 297.67C257.74 297.67 256.411 327.523 256.411 364.347C256.411 401.172 257.74 431.024 259.379 431.024Z" fill="white"/>
<path d="M277.942 335.481C277.942 355.837 276.794 374.057 274.973 386.63C273.153 374.057 272.005 355.824 272.005 335.481C272.005 315.137 273.153 296.905 274.973 284.332C276.794 296.892 277.942 315.124 277.942 335.481Z" fill="white"/>
<path d="M290.026 356.405C291.666 356.405 292.995 339.122 292.995 317.803C292.995 296.483 291.666 279.2 290.026 279.2C288.387 279.2 287.058 296.483 287.058 317.803C287.058 339.122 288.387 356.405 290.026 356.405Z" fill="white"/>
<path d="M209.721 94.6586V110.754C209.721 110.754 211.278 115.833 219.603 116.018C227.928 116.203 231.397 115.978 231.397 115.978C231.397 115.978 235.276 115.543 234.827 113.102C234.379 110.662 234.867 92.8908 234.867 92.8908C234.867 92.8908 215.5 86.8749 209.721 94.6586Z" fill="#250F59"/>
<path opacity="0.54" d="M218.759 96.9806C218.759 96.9806 227.202 117.641 225.355 121.704C223.508 125.781 235.54 121.704 235.54 121.704L234.854 92.8909C234.854 92.8909 219.194 86.3868 218.759 96.9806Z" fill="black"/>
<path d="M198.634 97.2642L191.272 100.644L197.167 113.485L204.529 110.105L198.634 97.2642Z" fill="#250F59"/>
<path d="M199.088 97.3632L191.014 101.031L177.623 71.4788C177.003 70.1068 177.61 68.4972 178.969 67.8772L182.082 66.4655C183.454 65.8455 185.064 66.4523 185.684 67.8112L199.088 97.3632Z" fill="#170B3F"/>
<path d="M182.531 71.6773L179.391 71.7697L181.528 69.4741L184.668 69.3686L182.531 71.6773Z" fill="#F16316"/>
<path d="M183.956 74.804L180.816 74.8963L182.953 72.5876L186.093 72.4952L183.956 74.804Z" fill="#F16316"/>
<path d="M185.381 77.917L182.228 78.0226L184.378 75.7138L187.518 75.6215L185.381 77.917Z" fill="#F16316"/>
<path d="M186.792 81.0442L183.652 81.1365L185.789 78.841L188.929 78.7354L186.792 81.0442Z" fill="#F16316"/>
<path d="M188.217 84.1704L185.077 84.2627L187.214 81.954L190.354 81.8616L188.217 84.1704Z" fill="#F16316"/>
<path d="M189.642 87.2845L186.489 87.39L188.626 85.0812L191.779 84.9889L189.642 87.2845Z" fill="#F16316"/>
<path d="M191.053 90.411L187.913 90.5034L190.051 88.2078L193.191 88.1023L191.053 90.411Z" fill="#F16316"/>
<path d="M192.478 93.5379L189.338 93.6302L191.475 91.3215L194.615 91.2291L192.478 93.5379Z" fill="#F16316"/>
<path d="M193.89 96.6513L190.75 96.7568L192.887 94.4481L196.04 94.3557L193.89 96.6513Z" fill="#F16316"/>
<path d="M200.582 96.0174L189.12 101.279L189.676 102.49L201.138 97.2283L200.582 96.0174Z" fill="#170B3F"/>
<path d="M240.693 110.107L248.055 113.487L253.949 100.646L246.588 97.2663L240.693 110.107Z" fill="#250F59"/>
<path d="M246.133 97.3632L254.207 101.031L267.598 71.4921C268.218 70.12 267.611 68.5105 266.252 67.8904L263.139 66.4788C261.767 65.8587 260.157 66.4656 259.537 67.8245L246.133 97.3632Z" fill="#170B3F"/>
<path d="M262.69 71.6772L265.83 71.7696L263.693 69.474L260.553 69.3685L262.69 71.6772Z" fill="#F16316"/>
<path d="M261.265 74.8038L264.418 74.8962L262.268 72.5874L259.128 72.4951L261.265 74.8038Z" fill="#F16316"/>
<path d="M259.854 77.9174L262.994 78.023L260.856 75.7142L257.703 75.6219L259.854 77.9174Z" fill="#F16316"/>
<path d="M258.429 81.0441L261.569 81.1364L259.432 78.8409L256.292 78.7354L258.429 81.0441Z" fill="#F16316"/>
<path d="M257.004 84.1714L260.157 84.2638L258.007 81.955L254.867 81.8627L257.004 84.1714Z" fill="#F16316"/>
<path d="M255.592 87.2849L258.732 87.3904L256.595 85.0817L253.442 84.9893L255.592 87.2849Z" fill="#F16316"/>
<path d="M254.168 90.4109L257.308 90.5033L255.17 88.2077L252.03 88.1022L254.168 90.4109Z" fill="#F16316"/>
<path d="M252.743 93.5383L255.896 93.6306L253.746 91.3219L250.606 91.2296L252.743 93.5383Z" fill="#F16316"/>
<path d="M251.331 96.6512L254.471 96.7567L252.334 94.448L249.181 94.3557L251.331 96.6512Z" fill="#F16316"/>
<path d="M244.08 97.2345L255.542 102.496L256.098 101.285L244.636 96.0235L244.08 97.2345Z" fill="#170B3F"/>
<path d="M200.816 259.899C200.816 259.899 206.304 255.137 212.109 256.443C217.927 257.749 218.877 261.746 217.558 266.377C216.239 271.008 214.814 274.029 215.592 279.675C216.371 285.322 211.925 300.401 196.159 302.169L200.816 259.899Z" fill="#170B3F"/>
<path d="M160.552 245.954L206.199 259.305C206.199 259.305 209.563 268.91 202.162 272.485C202.162 272.485 149.839 276.509 133.704 268.712C117.569 260.915 160.552 245.954 160.552 245.954Z" fill="#0B0623" fill-opacity="0.98"/>
<path d="M242.057 259.899C242.057 259.899 236.569 255.137 230.764 256.443C224.946 257.749 223.996 261.746 225.315 266.377C226.634 271.008 228.059 274.029 227.281 279.675C226.502 285.322 230.948 300.401 246.714 302.169L242.057 259.899Z" fill="#170B3F"/>
<path d="M282.308 245.954L236.661 259.305C236.661 259.305 233.297 268.91 240.698 272.485C240.698 272.485 293.021 276.509 309.156 268.712C325.304 260.915 282.308 245.954 282.308 245.954Z" fill="#0B0623" fill-opacity="0.98"/>
<path d="M334.737 221.508C316.227 203.975 261.107 208.474 252.545 198.685L221.436 200.334L190.328 198.685C181.766 208.474 126.646 203.975 108.136 221.508C97.8195 231.284 96.7641 256.073 115.735 266.219C134.707 276.351 161.858 264.015 178.89 254.134C195.908 244.253 221.45 235.295 221.45 235.295C221.45 235.295 246.978 244.266 264.01 254.134C281.029 264.015 308.193 276.351 327.164 266.219C346.109 256.087 345.053 231.284 334.737 221.508Z" fill="#250F59"/>
<path opacity="0.2" d="M252.545 198.685L221.437 200.334L190.328 198.685C187.373 202.062 178.837 203.737 168.19 205.215C177.478 217.207 190.038 229.16 198.56 230.994C210.803 233.619 221.437 211.086 221.437 211.086C221.437 211.086 232.07 233.619 244.313 230.994C252.835 229.16 265.395 217.194 274.683 205.215C264.023 203.751 255.5 202.075 252.545 198.685Z" fill="black"/>
<path d="M254.273 194.687L221.436 192.932L188.599 194.687L167.847 191.244C173.982 203.592 191.528 223.632 201.95 225.875C212.373 228.118 221.436 208.922 221.436 208.922C221.436 208.922 230.5 228.118 240.922 225.875C251.344 223.632 268.891 203.592 275.026 191.244L254.273 194.687Z" fill="#250F59"/>
<path d="M253.851 179.423L221.885 183.843L189.919 179.423L185.235 196.97C185.235 196.97 199.787 203.078 221.872 203.078C243.957 203.078 258.508 196.97 258.508 196.97L253.851 179.423Z" fill="#0B0623"/>
<path d="M183.256 134.461C182.399 134.95 181.555 135.57 180.737 136.322C179.971 137.008 179.206 137.799 178.481 138.67C177.768 139.488 177.082 140.372 176.396 141.322C174.035 144.58 171.752 148.499 169.43 152.522C166.158 158.182 162.807 164.027 159.113 168.367C150.433 178.578 138.137 176.599 131.263 166.56C131.184 166.454 131.105 166.335 131.026 166.217C127.028 160.161 127.86 153.037 132.002 146.493C134.944 141.876 139.535 137.535 145.261 134.066C154.839 128.248 160.96 122.1 165.947 114.883C166.224 114.487 166.488 114.092 166.739 113.696C167.992 111.862 169.153 109.975 170.275 107.997C170.908 106.902 171.528 105.793 172.148 104.646L180.367 126.691L183.256 134.461Z" fill="#250F59"/>
<path opacity="0.2" d="M183.256 134.461C180.842 135.833 178.599 138.287 176.396 141.321C176.396 141.321 170.182 108.273 172.161 104.632L183.256 134.461Z" fill="black"/>
<path d="M260.527 134.461C262.941 135.833 265.184 138.287 267.387 141.321C273.06 149.145 278.337 160.926 284.67 168.367C293.443 178.697 305.923 176.546 312.757 166.216C319.565 155.886 312.375 142.456 298.522 134.065C288.944 128.247 282.823 122.099 277.836 114.87C275.593 111.677 273.601 108.273 271.622 104.632L260.527 134.461Z" fill="#250F59"/>
<path opacity="0.2" d="M260.527 134.461C262.941 135.833 265.184 138.287 267.387 141.321L277.836 114.87C275.593 111.677 273.601 108.273 271.622 104.632L260.527 134.461Z" fill="black"/>
<path d="M276.464 96.9806L222.294 112.311L167.319 96.9806L186.805 169.805L185.249 180.584C191.739 184.344 207.597 187.734 221.885 187.734C236.173 187.734 252.031 184.344 258.522 180.584L256.965 169.805L276.464 96.9806Z" fill="#250F59"/>
<path d="M204.391 107.561H239.392L221.885 151.533L204.391 107.561Z" fill="#0B0623"/>
<path opacity="0.2" d="M264.406 100.899L222.294 112.311L179.378 100.899C183.56 117.707 198.402 131.058 221.885 131.058C245.368 131.058 260.223 117.707 264.406 100.899Z" fill="black"/>
<path d="M208.231 152.588C208.231 159.541 208.231 168.564 208.231 168.564C208.231 168.564 171.37 181.23 147.464 177.984C123.559 174.739 130.445 154.593 139.153 152.588C155.38 148.828 187.096 156.678 208.231 152.588Z" fill="#170B3F"/>
<path d="M235.553 152.588C235.553 159.541 235.553 168.564 235.553 168.564C235.553 168.564 272.414 181.23 296.319 177.984C320.225 174.739 313.338 154.593 304.631 152.588C288.403 148.828 256.688 156.678 235.553 152.588Z" fill="#170B3F"/>
<path d="M179.378 100.899L181.212 148.881L167.319 96.9806L179.378 100.899Z" fill="#0B0623"/>
<path d="M264.406 100.899L262.572 148.881L276.464 96.9806L264.406 100.899Z" fill="#0B0623"/>
<path d="M215.803 120.042C218.336 119.844 221.45 125.108 221.45 142.364C221.45 142.364 231.384 144.211 231.384 148.499C231.384 152.786 226.305 148.881 220.249 149.251C214.273 149.607 211.12 152.786 213.059 155.122C215.012 157.457 221.977 155.122 221.977 155.122C221.977 155.122 224.563 167.602 219.497 170.135C214.431 172.668 207.808 168.578 207.808 168.578V152.602L215.803 120.042Z" fill="#493022"/>
<path d="M207.465 97.0595C207.465 97.0595 213.099 101.492 221.265 101.492C229.418 101.492 234.827 97.0595 234.827 97.0595L230.328 90.7402L210.869 91.1887L207.465 97.0595Z" fill="url(#paint0_radial_658_695)"/>
<path d="M192.505 61.0302C191.304 55.0934 191.225 48.906 192.294 42.9428C210.539 40.9375 229.194 40.6473 247.466 42.3491C249.748 48.1672 250.685 54.79 249.973 61.0566C231.45 66.0699 211.12 65.6609 192.505 61.0302Z" fill="#0B0623"/>
<path d="M241.951 51.3202C237.136 50.4627 231.964 52.5604 228.864 56.6106C231.318 57.4549 234.194 57.9299 236.569 56.848C238.403 56.0037 239.946 54.6448 241.081 52.9166L241.951 51.3202Z" fill="#F16316"/>
<path d="M200.658 51.3202C205.473 50.4627 210.645 52.5604 213.745 56.6106C211.291 57.4549 208.415 57.9299 206.041 56.848C204.207 56.0037 202.663 54.6448 201.529 52.9166L200.658 51.3202Z" fill="#F16316"/>
<path d="M248.785 49.2226C248.785 49.2226 246.331 44.3016 241.753 43.3254C240.962 43.1539 240.223 43.1143 239.511 43.1802C234.326 43.6684 230.645 49.6183 222.716 50.3308C222.215 50.3835 221.687 50.3967 221.146 50.3967C210.935 50.3967 207.386 41.8478 200.526 43.3254C195.948 44.3016 193.494 49.2226 193.494 49.2226C193.494 49.2226 195.895 21.8474 221.133 21.8474C221.582 21.8474 222.017 21.8606 222.439 21.8738C224.867 21.9661 227.07 22.3224 229.075 22.8896C246.912 27.8765 248.785 49.2226 248.785 49.2226Z" fill="url(#paint1_radial_658_695)"/>
<path d="M247.981 44.8029C248.244 42.5338 247.901 40.3306 246.74 38.2725C245.975 36.9004 244.999 35.6867 243.891 34.6181C240.975 29.6971 236.358 24.9345 229.075 22.9028C227.07 22.3487 224.867 21.9925 222.439 21.887C224.431 23.2194 226.146 25.0532 227.426 27.1641C224.247 26.7947 221.001 26.9002 217.848 27.4939C210.117 28.9451 202.953 33.1273 197.228 38.9189C201.172 36.874 205.895 37.1907 210.025 38.7474C214.154 40.3042 217.769 42.9955 221.371 45.6737C223.64 43.3385 226.397 41.5971 229.379 40.5416C228.323 44.5259 225.922 48.1143 222.69 50.3439C230.619 49.6315 234.3 43.6815 239.484 43.1934C240.197 43.1274 240.949 43.167 241.727 43.3385C246.305 44.3148 248.759 49.2357 248.759 49.2357C248.759 49.2357 248.627 47.4547 247.981 44.8029Z" fill="url(#paint2_radial_658_695)"/>
<path d="M248.785 58.2071C248.785 58.2203 248.785 58.2467 248.772 58.2599C244.92 96.8885 224.867 98.3397 221.595 98.3133C221.291 98.3133 221.133 98.3001 221.133 98.3001C221.133 98.3001 197.676 100.371 193.481 58.2071C193.481 58.2071 193.547 58.3654 193.745 58.6425C193.745 58.6557 193.758 58.6688 193.771 58.6688C194.642 59.8562 197.808 62.9433 207.307 63.3919C213.705 63.6821 215.922 60.2256 218.758 58.8008C219.484 58.4314 220.249 58.2071 221.133 58.2071C221.252 58.2071 221.37 58.2071 221.489 58.2203C225.566 58.5105 227.149 63.7481 234.946 63.3919C245.83 62.8906 248.389 58.9063 248.732 58.2863C248.772 58.2335 248.785 58.2071 248.785 58.2071Z" fill="#250F59"/>
<path d="M248.574 58.2599C244.722 96.8885 224.669 98.3397 221.397 98.3133C221.833 91.2552 221.753 84.1574 221.173 77.0992C221.015 75.1995 220.856 73.1414 221.806 71.5319C222.743 69.9487 224.616 69.078 225.184 67.297C225.83 65.3048 224.524 63.2336 223.297 61.5977C222.585 60.661 221.753 59.4472 221.292 58.2071C225.368 58.4973 226.951 63.7349 234.748 63.3787C245.632 62.8774 248.192 58.8931 248.535 58.2731C248.561 58.2862 248.574 58.2731 248.574 58.2599Z" fill="#0B0623"/>
<path opacity="0.7" d="M220.183 66.8486C220.157 67.5874 220.13 68.379 219.748 68.9463C219.339 69.5796 218.626 69.7775 217.967 69.9358C217.558 70.0281 217.136 70.1337 216.727 70.0545C216.318 69.9753 215.896 69.6983 215.724 69.2365C215.46 68.5505 215.803 67.759 216.133 67.1125C217.017 65.371 217.888 63.6296 218.772 61.9013C218.93 61.5847 219.128 61.1625 219.352 60.7799C219.695 60.2126 220.421 60.5029 220.434 61.2021C220.473 63.0623 220.236 65.0676 220.183 66.8486Z" fill="white"/>
<path opacity="0.7" d="M218.758 58.8004C216.951 60.0802 215.724 62.3361 213.785 63.4443C211.753 64.6053 209.062 65.1066 206.726 65.0275C204.035 64.9219 201.172 64.3546 198.692 63.3124C196.621 62.4417 194.972 60.5551 193.771 58.6685C194.642 59.8559 197.808 62.943 207.307 63.3916C213.719 63.6818 215.935 60.2253 218.758 58.8004Z" fill="white"/>
<path d="M253.878 66.6898C251.727 81.347 234.814 97.0597 234.814 97.0597L232.545 94.6586C232.545 94.6586 250.223 74.9221 248.416 50.3966C246.622 25.9899 221.133 41.4914 221.133 41.4914C221.133 41.4914 195.658 25.9899 193.85 50.3966C192.043 74.9089 209.721 94.6586 209.721 94.6586L207.452 97.0597C207.452 97.0597 190.552 81.3338 188.388 66.6898C188.177 65.2254 188.045 63.7214 187.993 62.2174C187.953 61.162 187.953 60.0802 187.993 59.0115C188.415 46.4783 193.573 33.7868 197.584 28.3514C202.347 21.9001 220.539 16.7812 221.107 16.6097C221.12 16.6097 221.12 16.6097 221.12 16.6097C221.12 16.6097 221.12 16.6097 221.133 16.6097C221.7 16.7681 239.893 21.9001 244.656 28.3514C248.31 33.2987 252.928 44.2883 254.036 55.6869C254.419 59.3809 254.405 63.1145 253.878 66.6898Z" fill="#3A1B9B"/>
<path d="M254.062 55.7002C252.624 49.4864 249.524 43.8663 245.381 38.9321C242.664 35.6999 238.02 34.6181 233.824 35.1458C229.629 35.6735 225.553 37.692 221.753 39.5654C222.703 37.3622 224.26 35.4756 225.539 33.4439C226.819 31.4122 227.848 29.0639 227.545 26.676C227.294 24.7498 225.144 18.4041 221.133 16.6362H221.159C221.727 16.7945 239.92 21.9266 244.682 28.3779C248.337 33.312 252.954 44.3016 254.062 55.7002Z" fill="#0B0623"/>
<path d="M233.376 95.5297C233.376 95.5297 255.593 77.6007 249.669 48.5104C249.669 48.5104 253.442 73.9067 232.558 94.659L233.376 95.5297Z" fill="url(#paint3_radial_658_695)"/>
<path d="M208.903 95.5297C208.903 95.5297 186.686 77.6007 192.61 48.5104C192.61 48.5104 188.837 73.9067 209.721 94.659L208.903 95.5297Z" fill="url(#paint4_radial_658_695)"/>
<path d="M193.494 45.9114C193.494 45.9114 196.133 29.328 208.257 25.8451C208.257 25.8583 197.571 30.8188 193.494 45.9114Z" fill="url(#paint5_radial_658_695)"/>
<path opacity="0.7" d="M221.12 16.6234C220.592 16.8345 205.315 23.1143 200.657 28.8004C195.908 34.5921 190.314 42.112 188.005 62.2179V59.012C188.428 46.4788 193.586 33.7873 197.597 28.365C202.359 21.9137 220.565 16.7817 221.12 16.6234Z" fill="white"/>
<path opacity="0.2" d="M216.964 154.831C216.964 154.831 219.708 157.114 219.603 163.618C219.51 170.122 219.51 170.122 219.51 170.122C219.51 170.122 220.341 170.504 222.294 165.676C224.247 160.847 223.917 152.813 223.917 152.813C223.917 152.813 218.468 148.802 216.964 154.831Z" fill="black"/>
<path d="M227.98 120.042C225.447 119.844 221.714 125.108 221.714 142.364C221.714 142.364 230.672 144.778 230.526 148.406C230.355 152.694 225.962 148.829 221.898 147.945C216.146 146.705 211.621 151.771 211.872 155.082C212.109 158.116 221.687 155.742 221.687 155.742C221.687 155.742 219.22 167.602 224.286 170.135C229.352 172.668 235.975 168.578 235.975 168.578V152.602L227.98 120.042Z" fill="#493022"/>
<path opacity="0.2" d="M224.906 122.417L225.882 143.894L221.7 142.364C221.7 142.351 220.051 122.456 224.906 122.417Z" fill="black"/>
<path d="M135.828 76.1622C135.828 76.1622 0.113691 181.652 233.297 236.205" stroke="white" stroke-width="1.31928" stroke-miterlimit="10"/>
<path d="M322.903 160.689C322.903 160.689 458.618 55.199 225.434 0.646606" stroke="white" stroke-width="1.31928" stroke-miterlimit="10"/>
<path opacity="0.7" d="M167.319 119.369C167.319 119.369 152.214 132.681 143.216 138.459C138.44 141.52 133.651 150.834 131.079 151.507C132.002 146.494 139.535 137.536 145.261 134.066C154.839 128.248 160.961 122.1 165.947 114.884C166.224 114.488 166.488 114.092 166.739 113.696C167.544 114.62 168.137 116.309 167.319 119.369Z" fill="white"/>
<path opacity="0.7" d="M216.964 121.638L209.735 148.895L208.969 147.931L215.817 120.055C215.803 120.042 216.727 119.158 216.964 121.638Z" fill="white"/>
<path opacity="0.7" d="M213.759 142.351C213.759 142.351 219.049 140.055 221.714 142.351C221.701 142.351 218.548 136.797 213.759 142.351Z" fill="white"/>
<path opacity="0.7" d="M143.203 210.228C143.203 210.228 107.965 213.329 104.944 231.205C104.957 231.218 118.229 215.255 143.203 210.228Z" fill="white"/>
<path d="M344.539 203.856C353.013 203.856 359.882 196.987 359.882 188.513C359.882 180.039 353.013 173.169 344.539 173.169C336.065 173.169 329.196 180.039 329.196 188.513C329.196 196.987 336.065 203.856 344.539 203.856Z" stroke="white" stroke-width="1.31928" stroke-miterlimit="20" stroke-dasharray="5.28 5.28"/>
<path d="M365.358 164.897C370.589 164.897 374.83 160.656 374.83 155.425C374.83 150.193 370.589 145.953 365.358 145.953C360.126 145.953 355.885 150.193 355.885 155.425C355.885 160.656 360.126 164.897 365.358 164.897Z" stroke="white" stroke-width="1.31928" stroke-miterlimit="20" stroke-dasharray="5.28 5.28"/>
<path d="M158.507 58.7348C166.981 58.7348 173.85 51.8653 173.85 43.3915C173.85 34.9176 166.981 28.0482 158.507 28.0482C150.033 28.0482 143.164 34.9176 143.164 43.3915C143.164 51.8653 150.033 58.7348 158.507 58.7348Z" stroke="white" stroke-width="1.31928" stroke-miterlimit="20" stroke-dasharray="5.28 5.28"/>
<path d="M179.325 19.7762C184.556 19.7762 188.797 15.5353 188.797 10.3038C188.797 5.07226 184.556 0.831299 179.325 0.831299C174.094 0.831299 169.853 5.07226 169.853 10.3038C169.853 15.5353 174.094 19.7762 179.325 19.7762Z" stroke="white" stroke-width="1.31928" stroke-miterlimit="20" stroke-dasharray="5.28 5.28"/>
<path d="M117.807 292.722L94.8381 281.759C94.3764 281.534 93.8487 281.429 93.3341 281.468C91.7114 281.6 90.4977 283.025 90.6164 284.648L92.5953 310.018C92.7273 311.64 94.1521 312.867 95.7748 312.735C96.2893 312.696 96.7907 312.524 97.2128 312.221L118.203 297.814C119.087 297.207 119.562 296.218 119.482 295.149C119.39 294.094 118.77 293.184 117.807 292.722Z" fill="white"/>
<path d="M102.319 322.683C116.854 322.683 128.638 310.9 128.638 296.364C128.638 281.828 116.854 270.044 102.319 270.044C87.7825 270.044 75.9988 281.828 75.9988 296.364C75.9988 310.9 87.7825 322.683 102.319 322.683Z" stroke="white" stroke-width="1.31928" stroke-miterlimit="10"/>
</g>
<defs>
<radialGradient id="paint0_radial_658_695" cx="0" cy="0" r="1" gradientUnits="userSpaceOnUse" gradientTransform="translate(214.186 94.0149) scale(15.3588 15.3588)">
<stop stop-color="#1D0056"/>
<stop offset="1" stop-color="#07001E"/>
</radialGradient>
<radialGradient id="paint1_radial_658_695" cx="0" cy="0" r="1" gradientUnits="userSpaceOnUse" gradientTransform="translate(205.628 27.7008) scale(33.0787 33.0787)">
<stop stop-color="#4816B5"/>
<stop offset="1" stop-color="#1D0056"/>
</radialGradient>
<radialGradient id="paint2_radial_658_695" cx="0" cy="0" r="1" gradientUnits="userSpaceOnUse" gradientTransform="translate(223.017 36.1077) scale(20.4828 22.0237)">
<stop stop-color="#1D0056"/>
<stop offset="1" stop-color="#0F0035"/>
</radialGradient>
<radialGradient id="paint3_radial_658_695" cx="0" cy="0" r="1" gradientUnits="userSpaceOnUse" gradientTransform="translate(241.616 72.0273) rotate(180) scale(16.7344 17.9933)">
<stop stop-color="#0F0033"/>
<stop offset="1" stop-color="#060019"/>
</radialGradient>
<radialGradient id="paint4_radial_658_695" cx="0" cy="0" r="1" gradientUnits="userSpaceOnUse" gradientTransform="translate(200.665 72.0273) scale(16.7344 17.9933)">
<stop stop-color="#0F0033"/>
<stop offset="1" stop-color="#060019"/>
</radialGradient>
<radialGradient id="paint5_radial_658_695" cx="0" cy="0" r="1" gradientUnits="userSpaceOnUse" gradientTransform="translate(200.875 35.8866) scale(8.4112 9.04397)">
<stop stop-color="#0F0033"/>
<stop offset="1" stop-color="#060019"/>
</radialGradient>
<clipPath id="clip0_658_695">
<rect width="300.15" height="455.747" fill="white" transform="translate(75.3392)"/>
</clipPath>
</defs>
</svg>
