<svg width="190" height="289" viewBox="0 0 190 289" fill="none" xmlns="http://www.w3.org/2000/svg">
<g clip-path="url(#clip0_487_329)">
<path d="M27.7362 120.838C29.334 120.838 30.6293 119.543 30.6293 117.945C30.6293 116.347 29.334 115.052 27.7362 115.052C26.1384 115.052 24.8431 116.347 24.8431 117.945C24.8431 119.543 26.1384 120.838 27.7362 120.838Z" stroke="white" stroke-width="0.833746" stroke-miterlimit="10"/>
<path d="M40.3177 48.7276C41.9155 48.7276 43.2108 47.4323 43.2108 45.8345C43.2108 44.2367 41.9155 42.9414 40.3177 42.9414C38.7198 42.9414 37.4246 44.2367 37.4246 45.8345C37.4246 47.4323 38.7198 48.7276 40.3177 48.7276Z" stroke="white" stroke-width="0.833746" stroke-miterlimit="10"/>
<path d="M119.457 9.94171C121.055 9.94171 122.35 8.64643 122.35 7.04861C122.35 5.4508 121.055 4.15552 119.457 4.15552C117.859 4.15552 116.564 5.4508 116.564 7.04861C116.564 8.64643 117.859 9.94171 119.457 9.94171Z" fill="white"/>
<path d="M178.653 75.8074C180.25 75.8074 181.546 74.5122 181.546 72.9143C181.546 71.3165 180.25 70.0212 178.653 70.0212C177.055 70.0212 175.76 71.3165 175.76 72.9143C175.76 74.5122 177.055 75.8074 178.653 75.8074Z" fill="white"/>
<path d="M129.17 280.726C129.17 284.769 112.812 288.037 92.6433 288.037C72.4667 288.037 56.1169 284.761 56.1169 280.726C56.1169 276.682 72.475 273.414 92.6433 273.414C112.82 273.405 129.17 276.682 129.17 280.726Z" fill="white"/>
<path d="M68.6647 272.413C69.7008 272.413 70.5407 253.548 70.5407 230.276C70.5407 207.004 69.7008 188.138 68.6647 188.138C67.6287 188.138 66.7888 207.004 66.7888 230.276C66.7888 253.548 67.6287 272.413 68.6647 272.413Z" fill="white"/>
<path d="M56.934 212.033C56.934 224.898 57.6593 236.412 58.8099 244.358C59.9605 236.412 60.6858 224.89 60.6858 212.033C60.6858 199.177 59.9605 187.655 58.8099 179.709C57.6593 187.646 56.934 199.169 56.934 212.033Z" fill="white"/>
<path d="M49.2886 225.256C50.3247 225.256 51.1646 214.334 51.1646 200.861C51.1646 187.388 50.3247 176.466 49.2886 176.466C48.2526 176.466 47.4127 187.388 47.4127 200.861C47.4127 214.334 48.2526 225.256 49.2886 225.256Z" fill="white"/>
<path d="M116.622 272.413C117.658 272.413 118.498 253.548 118.498 230.276C118.498 207.004 117.658 188.138 116.622 188.138C115.586 188.138 114.746 207.004 114.746 230.276C114.746 253.548 115.586 272.413 116.622 272.413Z" fill="white"/>
<path d="M128.353 212.033C128.353 224.898 127.627 236.412 126.477 244.358C125.326 236.412 124.601 224.89 124.601 212.033C124.601 199.177 125.326 187.655 126.477 179.709C127.627 187.646 128.353 199.169 128.353 212.033Z" fill="white"/>
<path d="M135.99 225.256C137.026 225.256 137.866 214.334 137.866 200.861C137.866 187.388 137.026 176.466 135.99 176.466C134.954 176.466 134.114 187.388 134.114 200.861C134.114 214.334 134.954 225.256 135.99 225.256Z" fill="white"/>
<path d="M85.2397 59.8414V70.0131C85.2397 70.0131 86.2236 73.223 91.4845 73.3397C96.7454 73.4565 98.9382 73.3147 98.9382 73.3147C98.9382 73.3147 101.389 73.0396 101.106 71.4972C100.822 69.9547 101.131 58.7242 101.131 58.7242C101.131 58.7242 88.8916 54.9223 85.2397 59.8414Z" fill="#250F59"/>
<path opacity="0.54" d="M90.9508 61.309C90.9508 61.309 96.2868 74.3655 95.1195 76.9334C93.9523 79.5097 101.556 76.9334 101.556 76.9334L101.123 58.7244C101.123 58.7244 91.2259 54.614 90.9508 61.309Z" fill="black"/>
<path d="M78.2326 61.4878L73.5803 63.6235L77.3057 71.7386L81.958 69.6029L78.2326 61.4878Z" fill="#250F59"/>
<path d="M78.5197 61.5506L73.4172 63.8684L64.9547 45.1925C64.5628 44.3254 64.9463 43.3082 65.8051 42.9164L67.7727 42.0242C68.6398 41.6324 69.657 42.0159 70.0489 42.8747L78.5197 61.5506Z" fill="#170B3F"/>
<path d="M68.0563 45.3177L66.072 45.3761L67.4227 43.9253L69.407 43.8586L68.0563 45.3177Z" fill="#F16316"/>
<path d="M68.9566 47.2936L66.9723 47.352L68.323 45.893L70.3073 45.8346L68.9566 47.2936Z" fill="#F16316"/>
<path d="M69.8572 49.2611L67.8645 49.3278L69.2235 47.8688L71.2078 47.8104L69.8572 49.2611Z" fill="#F16316"/>
<path d="M70.7492 51.2373L68.7649 51.2956L70.1156 49.8449L72.0999 49.7782L70.7492 51.2373Z" fill="#F16316"/>
<path d="M71.6497 53.2131L69.6654 53.2714L71.0161 51.8124L73.0004 51.754L71.6497 53.2131Z" fill="#F16316"/>
<path d="M72.5501 55.1809L70.5575 55.2476L71.9082 53.7886L73.9008 53.7302L72.5501 55.1809Z" fill="#F16316"/>
<path d="M73.4423 57.1568L71.458 57.2152L72.8087 55.7645L74.793 55.6978L73.4423 57.1568Z" fill="#F16316"/>
<path d="M74.3426 59.1329L72.3583 59.1912L73.7089 57.7322L75.6933 57.6738L74.3426 59.1329Z" fill="#F16316"/>
<path d="M75.2348 61.1005L73.2505 61.1672L74.6012 59.7081L76.5938 59.6498L75.2348 61.1005Z" fill="#F16316"/>
<path d="M79.4637 60.6999L72.22 64.0253L72.5713 64.7905L79.815 61.4652L79.4637 60.6999Z" fill="#170B3F"/>
<path d="M104.813 69.6045L109.465 71.7402L113.191 63.6252L108.538 61.4895L104.813 69.6045Z" fill="#250F59"/>
<path d="M108.251 61.5505L113.354 63.8683L121.816 45.2008C122.208 44.3337 121.825 43.3165 120.966 42.9247L118.998 42.0325C118.131 41.6407 117.114 42.0242 116.722 42.883L108.251 61.5505Z" fill="#170B3F"/>
<path d="M118.715 45.3177L120.699 45.3761L119.348 43.9253L117.364 43.8586L118.715 45.3177Z" fill="#F16316"/>
<path d="M117.814 47.2936L119.807 47.352L118.448 45.893L116.464 45.8346L117.814 47.2936Z" fill="#F16316"/>
<path d="M116.922 49.2611L118.906 49.3278L117.556 47.8688L115.563 47.8104L116.922 49.2611Z" fill="#F16316"/>
<path d="M116.022 51.2373L118.006 51.2956L116.655 49.8449L114.671 49.7782L116.022 51.2373Z" fill="#F16316"/>
<path d="M115.121 53.2134L117.114 53.2718L115.755 51.8128L113.771 51.7544L115.121 53.2134Z" fill="#F16316"/>
<path d="M114.229 55.1809L116.213 55.2476L114.863 53.7886L112.87 53.7302L114.229 55.1809Z" fill="#F16316"/>
<path d="M113.329 57.1568L115.313 57.2152L113.962 55.7645L111.978 55.6978L113.329 57.1568Z" fill="#F16316"/>
<path d="M112.428 59.1329L114.421 59.1912L113.062 57.7322L111.078 57.6738L112.428 59.1329Z" fill="#F16316"/>
<path d="M111.536 61.1005L113.52 61.1672L112.17 59.7081L110.177 59.6498L111.536 61.1005Z" fill="#F16316"/>
<path d="M106.954 61.4692L114.197 64.7946L114.549 64.0293L107.305 60.7039L106.954 61.4692Z" fill="#170B3F"/>
<path d="M79.6121 164.268C79.6121 164.268 83.0804 161.258 86.7489 162.084C90.4257 162.909 91.026 165.435 90.1923 168.362C89.3586 171.288 88.4581 173.198 88.95 176.766C89.4419 180.334 86.6322 189.864 76.6689 190.981L79.6121 164.268Z" fill="#170B3F"/>
<path d="M54.1662 155.455L83.0138 163.893C83.0138 163.893 85.1398 169.962 80.4625 172.222C80.4625 172.222 47.3961 174.765 37.1994 169.837C27.0027 164.91 54.1662 155.455 54.1662 155.455Z" fill="#0B0623" fill-opacity="0.98"/>
<path d="M105.675 164.268C105.675 164.268 102.206 161.258 98.538 162.084C94.8612 162.909 94.2609 165.435 95.0946 168.362C95.9284 171.288 96.8288 173.198 96.3369 176.766C95.845 180.334 98.6547 189.864 108.618 190.981L105.675 164.268Z" fill="#170B3F"/>
<path d="M131.112 155.455L102.265 163.893C102.265 163.893 100.139 169.962 104.816 172.222C104.816 172.222 137.882 174.765 148.079 169.837C158.284 164.91 131.112 155.455 131.112 155.455Z" fill="#0B0623" fill-opacity="0.98"/>
<path d="M164.246 140.006C152.548 128.926 117.714 131.769 112.303 125.582L92.6435 126.625L72.9838 125.582C67.5728 131.769 32.7389 128.926 21.0414 140.006C14.5215 146.184 13.8545 161.85 25.8438 168.262C37.833 174.665 54.9915 166.869 65.7552 160.625C76.5105 154.38 92.6518 148.719 92.6518 148.719C92.6518 148.719 108.785 154.388 119.548 160.625C130.304 166.869 147.471 174.665 159.46 168.262C171.432 161.859 170.765 146.184 164.246 140.006Z" fill="#250F59"/>
<path opacity="0.2" d="M112.303 125.582L92.6434 126.625L72.9837 125.582C71.1161 127.717 65.7217 128.776 58.9934 129.709C64.863 137.288 72.8002 144.842 78.1862 146.001C85.9234 147.66 92.6434 133.42 92.6434 133.42C92.6434 133.42 99.3634 147.66 107.101 146.001C112.487 144.842 120.424 137.28 126.293 129.709C119.557 128.784 114.171 127.725 112.303 125.582Z" fill="black"/>
<path d="M113.395 123.056L92.6434 121.947L71.8914 123.056L58.7766 120.88C62.6535 128.684 73.7423 141.348 80.3289 142.766C86.9155 144.183 92.6434 132.052 92.6434 132.052C92.6434 132.052 98.3712 144.183 104.958 142.766C111.544 141.348 122.633 128.684 126.51 120.88L113.395 123.056Z" fill="#250F59"/>
<path d="M113.128 113.41L92.9268 116.203L72.7252 113.41L69.7654 124.499C69.7654 124.499 78.9616 128.359 92.9185 128.359C106.875 128.359 116.072 124.499 116.072 124.499L113.128 113.41Z" fill="#0B0623"/>
<path d="M68.5149 84.9955C67.9729 85.304 67.4393 85.6958 66.9224 86.1711C66.4388 86.6046 65.9553 87.1049 65.4967 87.6551C65.0465 88.1721 64.6129 88.7307 64.1794 89.331C62.687 91.3903 61.2446 93.8665 59.7772 96.4095C57.7095 99.9862 55.5918 103.68 53.2573 106.423C47.7713 112.876 40.0008 111.625 35.657 105.281C35.6069 105.214 35.5569 105.139 35.5069 105.064C32.9806 101.237 33.5059 96.7346 36.1239 92.5992C37.9831 89.6811 40.8845 86.9381 44.503 84.7454C50.556 81.0685 54.4246 77.1833 57.5761 72.6227C57.7512 72.3726 57.918 72.1225 58.0764 71.8723C58.8684 70.7134 59.6021 69.5212 60.3108 68.2705C60.711 67.5785 61.1029 66.8782 61.4947 66.1528L66.689 80.0847L68.5149 84.9955Z" fill="#250F59"/>
<path opacity="0.2" d="M68.5149 84.9955C66.9891 85.8626 65.5718 87.4134 64.1794 89.331C64.1794 89.331 60.2525 68.4457 61.5031 66.1445L68.5149 84.9955Z" fill="black"/>
<path d="M117.347 84.9955C118.873 85.8626 120.29 87.4134 121.683 89.331C125.268 94.2751 128.603 101.72 132.605 106.423C138.149 112.951 146.036 111.592 150.355 105.064C154.657 98.5355 150.113 90.048 141.359 84.7454C135.306 81.0686 131.438 77.1833 128.286 72.6144C126.869 70.5967 125.61 68.4457 124.359 66.1445L117.347 84.9955Z" fill="#250F59"/>
<path opacity="0.2" d="M117.347 84.9955C118.873 85.8626 120.29 87.4134 121.683 89.331L128.286 72.6144C126.869 70.5967 125.61 68.4457 124.359 66.1445L117.347 84.9955Z" fill="black"/>
<path d="M127.419 61.3087L93.1854 70.9968L58.4432 61.3087L70.7577 107.331L69.7738 114.143C73.8759 116.519 83.8975 118.662 92.927 118.662C101.956 118.662 111.978 116.519 116.08 114.143L115.096 107.331L127.419 61.3087Z" fill="#250F59"/>
<path d="M81.8715 67.9956H103.991L92.9269 95.7843L81.8715 67.9956Z" fill="#0B0623"/>
<path opacity="0.2" d="M119.798 63.7853L93.1853 70.9972L66.0636 63.7853C68.7066 74.4072 78.0862 82.8447 92.9269 82.8447C107.768 82.8447 117.156 74.4072 119.798 63.7853Z" fill="black"/>
<path d="M84.2975 96.4511C84.2975 100.845 84.2975 106.548 84.2975 106.548C84.2975 106.548 61.0027 114.552 45.8952 112.501C30.7877 110.45 35.1399 97.7184 40.6426 96.4511C50.8977 94.0749 70.9409 99.0357 84.2975 96.4511Z" fill="#170B3F"/>
<path d="M101.564 96.4511C101.564 100.845 101.564 106.548 101.564 106.548C101.564 106.548 124.859 114.552 139.967 112.501C155.074 110.45 150.722 97.7184 145.219 96.4511C134.964 94.0749 114.921 99.0357 101.564 96.4511Z" fill="#170B3F"/>
<path d="M66.0637 63.7849L67.2226 94.1083L58.4432 61.3087L66.0637 63.7849Z" fill="#0B0623"/>
<path d="M119.798 63.7849L118.64 94.1083L127.419 61.3087L119.798 63.7849Z" fill="#0B0623"/>
<path d="M89.0834 75.8828C90.6842 75.7577 92.6518 79.0844 92.6518 89.9897C92.6518 89.9897 98.9299 91.157 98.9299 93.8667C98.9299 96.5763 95.72 94.1084 91.8931 94.3419C88.1162 94.567 86.1236 96.5763 87.3492 98.0521C88.5831 99.5278 92.9853 98.0521 92.9853 98.0521C92.9853 98.0521 94.6194 105.939 91.4179 107.54C88.2163 109.141 84.0309 106.556 84.0309 106.556V96.4596L89.0834 75.8828Z" fill="#493022"/>
<path d="M83.8141 61.3589C83.8141 61.3589 87.3742 64.1603 92.5351 64.1603C97.6876 64.1603 101.106 61.3589 101.106 61.3589L98.2629 57.3652L85.9652 57.6487L83.8141 61.3589Z" fill="url(#paint0_radial_487_329)"/>
<path d="M74.3593 38.5893C73.6006 34.8375 73.5506 30.9272 74.226 27.1587C85.7567 25.8914 97.5458 25.708 109.093 26.7835C110.536 30.4603 111.128 34.6457 110.677 38.606C98.9715 41.7742 86.1235 41.5158 74.3593 38.5893Z" fill="#0B0623"/>
<path d="M105.608 32.4531C102.565 31.9111 99.2968 33.2368 97.3375 35.7964C98.8883 36.33 100.706 36.6301 102.207 35.9465C103.366 35.4129 104.341 34.5541 105.058 33.4619L105.608 32.4531Z" fill="#F16316"/>
<path d="M79.512 32.4531C82.5551 31.9111 85.8234 33.2368 87.7827 35.7964C86.232 36.33 84.4144 36.6301 82.9136 35.9465C81.7547 35.4129 80.7793 34.5541 80.0622 33.4619L79.512 32.4531Z" fill="#F16316"/>
<path d="M109.927 31.1272C109.927 31.1272 108.376 28.0174 105.483 27.4004C104.983 27.292 104.516 27.267 104.066 27.3087C100.789 27.6172 98.4629 31.3774 93.4521 31.8276C93.1353 31.8609 92.8018 31.8693 92.4599 31.8693C86.0067 31.8693 83.764 26.4666 79.4285 27.4004C76.5354 28.0174 74.9846 31.1272 74.9846 31.1272C74.9846 31.1272 76.502 13.827 92.4516 13.827C92.7351 13.827 93.0102 13.8354 93.277 13.8437C94.8111 13.9021 96.2034 14.1272 97.4707 14.4857C108.743 17.6372 109.927 31.1272 109.927 31.1272Z" fill="url(#paint1_radial_487_329)"/>
<path d="M109.418 28.3342C109.585 26.9002 109.368 25.5078 108.635 24.2072C108.151 23.3401 107.534 22.573 106.834 21.8977C104.991 18.7878 102.073 15.778 97.4709 14.494C96.2036 14.1439 94.8112 13.9188 93.2771 13.8521C94.5361 14.6941 95.6199 15.853 96.4287 17.187C94.4193 16.9536 92.3683 17.0203 90.3757 17.3955C85.4899 18.3126 80.9627 20.9556 77.3442 24.6157C79.8371 23.3234 82.8219 23.5235 85.4316 24.5073C88.0412 25.4911 90.3257 27.192 92.6018 28.8845C94.0358 27.4088 95.7784 26.3082 97.6626 25.6412C96.9956 28.1591 95.4782 30.4269 93.4355 31.8359C98.4463 31.3857 100.772 27.6255 104.049 27.317C104.499 27.2754 104.975 27.3004 105.466 27.4087C108.36 28.0257 109.91 31.1356 109.91 31.1356C109.91 31.1356 109.827 30.01 109.418 28.3342Z" fill="url(#paint2_radial_487_329)"/>
<path d="M109.927 36.8051C109.927 36.8134 109.927 36.8301 109.919 36.8384C107.484 61.2505 94.8111 62.1676 92.7434 62.1509C92.5517 62.1509 92.4516 62.1426 92.4516 62.1426C92.4516 62.1426 77.6276 63.4516 74.9763 36.8051C74.9763 36.8051 75.018 36.9051 75.1431 37.0802C75.1431 37.0885 75.1514 37.0969 75.1597 37.0969C75.71 37.8472 77.711 39.7982 83.714 40.0817C87.7576 40.2651 89.1583 38.0807 90.9509 37.1802C91.4094 36.9468 91.893 36.8051 92.4516 36.8051C92.5267 36.8051 92.6017 36.8051 92.6767 36.8134C95.253 36.9968 96.2535 40.3068 101.181 40.0817C108.059 39.7649 109.677 37.2469 109.894 36.8551C109.919 36.8217 109.927 36.8051 109.927 36.8051Z" fill="#250F59"/>
<path d="M109.794 36.8384C107.359 61.2505 94.6862 62.1676 92.6185 62.1509C92.8936 57.6904 92.8436 53.2048 92.4768 48.7443C92.3767 47.5437 92.2767 46.2431 92.8769 45.2259C93.4689 44.2254 94.6528 43.6751 95.0113 42.5496C95.4199 41.2906 94.5945 39.9816 93.8191 38.9478C93.3689 38.3558 92.8436 37.5888 92.5518 36.8051C95.1281 36.9885 96.1286 40.2984 101.056 40.0733C107.934 39.7565 109.552 37.2386 109.769 36.8467C109.785 36.8551 109.794 36.8467 109.794 36.8384Z" fill="#0B0623"/>
<path opacity="0.7" d="M91.8513 42.2662C91.8347 42.7331 91.818 43.2333 91.5762 43.5919C91.3177 43.992 90.8675 44.1171 90.4506 44.2172C90.1922 44.2755 89.9254 44.3422 89.6669 44.2922C89.4085 44.2422 89.1417 44.0671 89.0333 43.7753C88.8665 43.3417 89.0833 42.8415 89.2917 42.4329C89.8503 41.3324 90.4006 40.2319 90.9592 39.1396C91.0593 38.9396 91.1843 38.6728 91.3261 38.431C91.5428 38.0725 92.0014 38.2559 92.0097 38.6978C92.0348 39.8733 91.8847 41.1406 91.8513 42.2662Z" fill="white"/>
<path opacity="0.7" d="M90.9509 37.1802C89.8087 37.9889 89.0333 39.4146 87.8077 40.115C86.5237 40.8487 84.8229 41.1655 83.3472 41.1155C81.6463 41.0488 79.8371 40.6902 78.2697 40.0316C76.9607 39.4813 75.9185 38.2891 75.1598 37.0968C75.7101 37.8472 77.7111 39.7981 83.714 40.0816C87.766 40.265 89.1667 38.0806 90.9509 37.1802Z" fill="white"/>
<path d="M113.145 42.1661C111.786 51.429 101.098 61.3589 101.098 61.3589L99.6636 59.8415C99.6636 59.8415 110.836 47.3686 109.694 31.8693C108.56 16.445 92.4517 26.2415 92.4517 26.2415C92.4517 26.2415 76.3521 16.445 75.2098 31.8693C74.0676 47.3603 85.2398 59.8415 85.2398 59.8415L83.8058 61.3589C83.8058 61.3589 73.1255 51.4206 71.7581 42.1661C71.6247 41.2406 71.5414 40.2901 71.508 39.3397C71.483 38.6727 71.483 37.989 71.508 37.3137C71.7748 29.3931 75.0348 21.3725 77.5694 17.9374C80.5792 13.8604 92.0765 10.6255 92.435 10.5171C92.4434 10.5171 92.4434 10.5171 92.4434 10.5171C92.4434 10.5171 92.4434 10.5171 92.4517 10.5171C92.8102 10.6171 104.308 13.8604 107.317 17.9374C109.627 21.064 112.545 28.0091 113.245 35.2126C113.487 37.5471 113.479 39.9066 113.145 42.1661Z" fill="#3A1B9B"/>
<path d="M113.262 35.221C112.353 31.2941 110.394 27.7423 107.776 24.6241C106.059 22.5814 103.124 21.8978 100.472 22.2313C97.8211 22.5648 95.2448 23.8404 92.8436 25.0243C93.4439 23.632 94.4278 22.4397 95.2365 21.1557C96.0452 19.8718 96.6955 18.3877 96.5038 16.8786C96.3454 15.6613 94.9864 11.651 92.4518 10.5338H92.4685C92.827 10.6339 104.324 13.8771 107.334 17.9541C109.644 21.0724 112.562 28.0175 113.262 35.221Z" fill="#0B0623"/>
<path d="M100.189 60.3918C100.189 60.3918 114.229 49.0612 110.486 30.6771C110.486 30.6771 112.87 46.7267 99.672 59.8415L100.189 60.3918Z" fill="url(#paint3_radial_487_329)"/>
<path d="M84.7229 60.3918C84.7229 60.3918 70.6826 49.0612 74.4261 30.6771C74.4261 30.6771 72.0416 46.7267 85.2398 59.8415L84.7229 60.3918Z" fill="url(#paint4_radial_487_329)"/>
<path d="M74.9846 29.0347C74.9846 29.0347 76.6521 18.5545 84.3142 16.3534C84.3142 16.3617 77.5609 19.4966 74.9846 29.0347Z" fill="url(#paint5_radial_487_329)"/>
<path opacity="0.7" d="M92.4436 10.5255C92.1101 10.6589 82.4553 14.6275 79.5122 18.221C76.5107 21.8811 72.9757 26.6335 71.5166 39.3398V37.3138C71.7834 29.3932 75.0433 21.3725 77.5779 17.9458C80.5878 13.8688 92.0934 10.6256 92.4436 10.5255Z" fill="white"/>
<path opacity="0.2" d="M89.8171 97.8688C89.8171 97.8688 91.5513 99.3112 91.4846 103.422C91.4263 107.532 91.4263 107.532 91.4263 107.532C91.4263 107.532 91.9515 107.774 93.1855 104.722C94.4194 101.671 94.211 96.5932 94.211 96.5932C94.211 96.5932 90.7676 94.0586 89.8171 97.8688Z" fill="black"/>
<path d="M96.7788 75.8828C95.178 75.7577 92.8185 79.0844 92.8185 89.9897C92.8185 89.9897 98.4797 91.5155 98.388 93.8083C98.2796 96.518 95.5032 94.0751 92.9353 93.5165C89.3001 92.7328 86.4404 95.9344 86.5988 98.0271C86.7489 99.9447 92.8019 98.4439 92.8019 98.4439C92.8019 98.4439 91.2428 105.939 94.4444 107.54C97.6459 109.141 101.831 106.556 101.831 106.556V96.4596L96.7788 75.8828Z" fill="#493022"/>
<path opacity="0.2" d="M94.8361 77.3835L95.453 90.9569L92.8101 89.9898C92.8101 89.9814 91.7679 77.4086 94.8361 77.3835Z" fill="black"/>
<path d="M38.5417 48.1523C38.5417 48.1523 -47.2257 114.819 100.139 149.294" stroke="white" stroke-width="0.833746" stroke-miterlimit="10"/>
<path d="M156.767 101.57C156.767 101.57 242.534 34.9041 95.1697 0.428711" stroke="white" stroke-width="0.833746" stroke-miterlimit="10"/>
<path opacity="0.7" d="M58.4432 75.4574C58.4432 75.4574 48.8968 83.8699 43.2106 87.5217C40.1925 89.456 37.166 95.3422 35.5402 95.7675C36.1238 92.5992 40.8845 86.9381 44.5029 84.7453C50.5559 81.0685 54.4245 77.1833 57.5761 72.6227C57.7511 72.3726 57.9179 72.1224 58.0763 71.8723C58.5849 72.4559 58.9601 73.5231 58.4432 75.4574Z" fill="white"/>
<path opacity="0.7" d="M89.817 76.8915L85.2481 94.1167L84.7645 93.5081L89.0917 75.891C89.0833 75.8827 89.6669 75.3241 89.817 76.8915Z" fill="white"/>
<path opacity="0.7" d="M87.791 89.9814C87.791 89.9814 91.1343 88.5307 92.8185 89.9814C92.8102 89.9814 90.8175 86.4713 87.791 89.9814Z" fill="white"/>
<path opacity="0.7" d="M43.2023 132.878C43.2023 132.878 20.933 134.837 19.0237 146.134C19.032 146.143 27.4195 136.054 43.2023 132.878Z" fill="white"/>
<path d="M170.44 128.851C175.795 128.851 180.137 124.509 180.137 119.154C180.137 113.799 175.795 109.458 170.44 109.458C165.085 109.458 160.744 113.799 160.744 119.154C160.744 124.509 165.085 128.851 170.44 128.851Z" stroke="white" stroke-width="0.833746" stroke-miterlimit="20" stroke-dasharray="3.33 3.33"/>
<path d="M183.597 104.23C186.903 104.23 189.583 101.55 189.583 98.2439C189.583 94.9377 186.903 92.2576 183.597 92.2576C180.291 92.2576 177.61 94.9377 177.61 98.2439C177.61 101.55 180.291 104.23 183.597 104.23Z" stroke="white" stroke-width="0.833746" stroke-miterlimit="20" stroke-dasharray="3.33 3.33"/>
<path d="M52.8738 37.1385C58.229 37.1385 62.5703 32.7973 62.5703 27.4421C62.5703 22.0869 58.229 17.7456 52.8738 17.7456C47.5186 17.7456 43.1774 22.0869 43.1774 27.4421C43.1774 32.7973 47.5186 37.1385 52.8738 37.1385Z" stroke="white" stroke-width="0.833746" stroke-miterlimit="20" stroke-dasharray="3.33 3.33"/>
<path d="M66.0304 12.5181C69.3365 12.5181 72.0167 9.83796 72.0167 6.53183C72.0167 3.22569 69.3365 0.545532 66.0304 0.545532C62.7242 0.545532 60.0441 3.22569 60.0441 6.53183C60.0441 9.83796 62.7242 12.5181 66.0304 12.5181Z" stroke="white" stroke-width="0.833746" stroke-miterlimit="20" stroke-dasharray="3.33 3.33"/>
<path d="M27.1528 185.012L12.6373 178.083C12.3455 177.942 12.012 177.875 11.6868 177.9C10.6613 177.983 9.89426 178.884 9.9693 179.909L11.2199 195.942C11.3033 196.968 12.2037 197.743 13.2292 197.66C13.5544 197.635 13.8712 197.526 14.138 197.335L27.4029 188.23C27.9615 187.847 28.2617 187.221 28.2117 186.546C28.1533 185.879 27.7614 185.304 27.1528 185.012Z" fill="white"/>
<path d="M17.3645 203.946C26.5508 203.946 33.9978 196.499 33.9978 187.313C33.9978 178.127 26.5508 170.68 17.3645 170.68C8.17827 170.68 0.731323 178.127 0.731323 187.313C0.731323 196.499 8.17827 203.946 17.3645 203.946Z" stroke="white" stroke-width="0.833746" stroke-miterlimit="10"/>
</g>
<defs>
<radialGradient id="paint0_radial_487_329" cx="0" cy="0" r="1" gradientUnits="userSpaceOnUse" gradientTransform="translate(88.0616 59.4348) scale(9.7063 9.7063)">
<stop stop-color="#1D0056"/>
<stop offset="1" stop-color="#07001E"/>
</radialGradient>
<radialGradient id="paint1_radial_487_329" cx="0" cy="0" r="1" gradientUnits="userSpaceOnUse" gradientTransform="translate(82.6528 17.5262) scale(20.9047)">
<stop stop-color="#4816B5"/>
<stop offset="1" stop-color="#1D0056"/>
</radialGradient>
<radialGradient id="paint2_radial_487_329" cx="0" cy="0" r="1" gradientUnits="userSpaceOnUse" gradientTransform="translate(93.6423 22.8391) scale(12.9445 13.9183)">
<stop stop-color="#1D0056"/>
<stop offset="1" stop-color="#0F0035"/>
</radialGradient>
<radialGradient id="paint3_radial_487_329" cx="0" cy="0" r="1" gradientUnits="userSpaceOnUse" gradientTransform="translate(105.396 45.539) rotate(180) scale(10.5756 11.3712)">
<stop stop-color="#0F0033"/>
<stop offset="1" stop-color="#060019"/>
</radialGradient>
<radialGradient id="paint4_radial_487_329" cx="0" cy="0" r="1" gradientUnits="userSpaceOnUse" gradientTransform="translate(79.5167 45.539) scale(10.5756 11.3712)">
<stop stop-color="#0F0033"/>
<stop offset="1" stop-color="#060019"/>
</radialGradient>
<radialGradient id="paint5_radial_487_329" cx="0" cy="0" r="1" gradientUnits="userSpaceOnUse" gradientTransform="translate(79.6493 22.6993) scale(5.31561 5.7155)">
<stop stop-color="#0F0033"/>
<stop offset="1" stop-color="#060019"/>
</radialGradient>
<clipPath id="clip0_487_329">
<rect width="189.685" height="288.017" fill="white" transform="translate(0.314575 0.0202637)"/>
</clipPath>
</defs>
</svg>
