<svg width="135" height="135" viewBox="0 0 135 135" fill="none" xmlns="http://www.w3.org/2000/svg">
<path d="M101.118 101.118C119.733 82.5024 119.733 52.3212 101.118 33.7059C82.5025 15.0906 52.3212 15.0906 33.7059 33.7059C15.0907 52.3211 15.0907 82.5025 33.7059 101.118C52.3212 119.733 82.5025 119.733 101.118 101.118Z" fill="#3E1F95"/>
<path d="M45.7783 89.2769L38.4355 92.6472L32.5535 79.8324L39.8995 76.4622L45.7783 89.2769Z" fill="url(#paint0_linear_661_1216)"/>
<path d="M40.3448 76.552L32.2939 80.2138L18.9377 50.7398C18.3162 49.375 18.9185 47.7635 20.2865 47.142L23.3908 45.7292C24.7556 45.1077 26.3671 45.71 26.9886 47.078L40.3448 76.552Z" fill="url(#paint1_linear_661_1216)"/>
<path d="M23.833 50.9319L20.6965 51.0313L22.8302 48.7342L25.9666 48.6349L23.833 50.9319Z" fill="white"/>
<path d="M25.249 54.0491L22.1125 54.1452L24.2494 51.8482L27.3826 51.7488L25.249 54.0491Z" fill="white"/>
<path d="M26.665 57.1632L23.5286 57.2625L25.6654 54.9622L28.8019 54.8629L26.665 57.1632Z" fill="white"/>
<path d="M28.081 60.2771L24.9478 60.3764L27.0814 58.0762L30.2178 57.9769L28.081 60.2771Z" fill="white"/>
<path d="M29.5002 63.3912L26.3638 63.4905L28.4974 61.1902L31.6339 61.0941L29.5002 63.3912Z" fill="white"/>
<path d="M30.9165 66.5051L27.78 66.6044L29.9169 64.3074L33.0501 64.2081L30.9165 66.5051Z" fill="white"/>
<path d="M32.3325 69.6223L29.196 69.7184L31.3329 67.4213L34.4693 67.322L32.3325 69.6223Z" fill="white"/>
<path d="M33.7517 72.7363L30.6152 72.8357L32.7489 70.5354L35.8853 70.4361L33.7517 72.7363Z" fill="white"/>
<path d="M35.1677 75.8503L32.0312 75.9496L34.1649 73.6494L37.3013 73.55L35.1677 75.8503Z" fill="white"/>
<path d="M42.3984 76.4302L30.9644 81.6779L30.407 80.4701L41.8442 75.2224L42.3984 76.4302Z" fill="url(#paint2_radial_661_1216)"/>
<path d="M89.0441 89.2769L96.3901 92.6472L102.272 79.8324L94.9261 76.4622L89.0441 89.2769Z" fill="url(#paint3_linear_661_1216)"/>
<path d="M94.4808 76.5519L102.532 80.2137L115.888 50.7397C116.509 49.3749 115.907 47.7635 114.539 47.142L111.435 45.7291C110.07 45.1076 108.459 45.7099 107.837 47.0779L94.4808 76.5519Z" fill="url(#paint4_linear_661_1216)"/>
<path d="M110.993 50.9319L114.129 51.0313L111.995 48.7342L108.859 48.6349L110.993 50.9319Z" fill="white"/>
<path d="M109.577 54.0491L112.713 54.1452L110.576 51.8482L107.44 51.7488L109.577 54.0491Z" fill="white"/>
<path d="M108.161 57.1631L111.294 57.2624L109.16 54.9622L106.024 54.8629L108.161 57.1631Z" fill="white"/>
<path d="M106.741 60.2771L109.878 60.3764L107.744 58.0762L104.608 57.9769L106.741 60.2771Z" fill="white"/>
<path d="M105.325 63.3912L108.462 63.4905L106.328 61.1902L103.192 61.0941L105.325 63.3912Z" fill="white"/>
<path d="M103.909 66.5051L107.046 66.6044L104.909 64.3074L101.772 64.2081L103.909 66.5051Z" fill="white"/>
<path d="M102.493 69.6223L105.626 69.7184L103.493 67.4214L100.356 67.3221L102.493 69.6223Z" fill="white"/>
<path d="M101.074 72.7363L104.211 72.8356L102.077 70.5353L98.9404 70.436L101.074 72.7363Z" fill="white"/>
<path d="M99.658 75.8502L102.794 75.9496L100.661 73.6493L97.5243 73.55L99.658 75.8502Z" fill="white"/>
<path d="M92.4271 76.4302L103.861 81.6779L104.415 80.4701L92.9814 75.2224L92.4271 76.4302Z" fill="url(#paint5_radial_661_1216)"/>
<path d="M114.331 94.3389C114.331 94.3389 108.119 109.105 84.4436 119.696C79.5484 121.884 73.9066 123.893 67.4128 125.562C60.9669 123.909 55.3572 121.91 50.4876 119.744C26.7258 109.15 20.4978 94.3389 20.4978 94.3389C38.5731 87.3772 52.1632 79.8101 52.1632 79.8101L52.1664 79.7845L53.797 69.8338L54.598 64.9449L67.4128 71.7528L80.2275 64.9449L82.6656 79.8069C82.6656 79.8069 85.3278 81.2902 89.8707 83.552C95.5829 86.3937 104.258 90.4624 114.331 94.3389Z" fill="url(#paint6_radial_661_1216)"/>
<path d="M89.8705 83.5553C85.7473 95.0598 78.68 104.35 70.3215 109.227C66.413 111.504 62.1617 112.719 58.0482 114.035C62.5301 111.392 66.3233 106.744 69.4469 101.432C72.5737 96.1266 75.0406 90.251 77.533 84.2985C75.4731 86.3393 72.9582 87.4157 70.4561 87.3324C67.954 87.2459 65.6089 85.8812 63.6194 83.7027C67.4991 85.6954 71.9522 84.9329 75.2937 81.4825C71.2154 83.4079 66.6597 83.1869 62.6807 80.8642C58.9868 78.7113 55.8152 74.7675 53.8 69.8338L54.601 64.945L67.4158 71.7529L80.2306 64.945L82.6686 79.807C82.6622 79.8134 85.3276 81.2935 89.8705 83.5553Z" fill="url(#paint7_radial_661_1216)"/>
<path d="M84.4436 119.699C79.5484 121.888 73.9067 123.896 67.4128 125.565C60.9669 123.912 55.3572 121.913 50.4876 119.747C40.6587 115.365 33.8252 110.255 29.1958 105.776C22.6347 99.4328 20.4978 94.3421 20.4978 94.3421C38.2911 87.4862 51.7403 80.0504 52.1535 79.8198C52.1567 79.8198 52.16 79.8133 52.1632 79.8133L52.1664 79.7877L52.3265 79.8133C52.3265 79.8133 52.5668 80.5406 53.0666 81.8061C55.6712 88.4377 65.3207 109.899 84.4436 119.699Z" fill="#170B3F"/>
<path d="M114.331 94.3389C114.331 94.3389 105.284 115.845 67.4127 125.565C67.0219 125.466 66.6374 125.363 66.253 125.261C60.2909 123.669 55.0625 121.782 50.4876 119.744L50.4812 119.735C69.6489 109.95 79.3177 88.4473 81.9223 81.806C82.4221 80.5373 82.6623 79.8133 82.6623 79.8133C82.6623 79.8133 96.2524 87.3772 114.331 94.3389Z" fill="#250F59"/>
<path opacity="0.7" d="M28.254 97.2511C27.1711 99.5 27.578 102.704 28.7025 104.908C28.8563 105.212 29.0196 105.501 29.1958 105.773C22.6347 99.4296 20.4978 94.3389 20.4978 94.3389C38.2911 87.483 51.7403 80.0472 52.1535 79.8165C45.1246 84.5484 38.2463 89.5205 31.2174 94.2556C30.1089 94.9988 28.9492 95.8062 28.254 97.2511Z" fill="white"/>
<path opacity="0.7" d="M60.2717 119.981C60.339 120.978 61.1079 121.772 61.8735 122.416C63.2127 123.537 64.6864 124.495 66.253 125.261C60.2909 123.669 55.0625 121.782 50.4876 119.744L50.4812 119.735C69.6489 109.95 79.3177 88.4473 81.9223 81.806C82.4221 80.5373 82.6623 79.8133 82.6623 79.8133C81.0349 94.073 73.4709 107.66 62.3797 116.771C61.3513 117.617 60.1852 118.652 60.2717 119.981Z" fill="white"/>
<path d="M57.7183 76.7507C57.7183 76.7507 61.7133 79.8903 67.4959 79.8903C73.2786 79.8903 77.107 76.7507 77.107 76.7507L73.9194 72.2719L60.1274 72.5923L57.7183 76.7507Z" fill="url(#paint8_radial_661_1216)"/>
<path d="M47.1171 51.2205C46.2649 47.014 46.2136 42.625 46.9697 38.3993C59.8966 36.9801 73.1215 36.775 86.0676 37.9732C87.6887 42.0932 88.3454 46.7866 87.8425 51.2269C74.7169 54.7862 60.3099 54.4979 47.1171 51.2205Z" fill="url(#paint9_radial_661_1216)"/>
<path d="M85.2314 41.7536C85.3883 41.8753 85.3627 42.1541 85.2314 42.3078C85.1 42.4616 84.9046 42.5257 84.7188 42.5866C84.533 42.6474 84.3375 42.7243 84.2222 42.8909C84.0332 43.16 84.1261 43.5509 84.0204 43.8712C83.905 44.2204 83.559 44.4319 83.2162 44.4735C82.8734 44.5152 82.5531 44.3967 82.159 44.3294C78.7439 43.7271 75.0788 45.2104 72.8811 48.0809C74.6207 48.68 76.6583 49.0164 78.3402 48.2443C79.6409 47.6452 80.7366 46.6809 81.5375 45.4539C81.8675 45.22 82.2679 45.1079 82.6652 45.079C82.9151 45.063 83.165 45.0758 83.4117 45.0502C83.6583 45.0246 83.9114 44.9573 84.1101 44.7939C84.4593 44.5088 84.5714 43.9866 84.5394 43.5156C84.5265 43.3298 84.4977 43.1216 84.6002 42.9678C84.738 42.7596 85.0295 42.7724 85.2282 42.6378C85.3691 42.5417 85.4588 42.3719 85.462 42.1925C85.462 42.0259 85.3659 41.8561 85.2314 41.7536Z" fill="url(#paint10_radial_661_1216)"/>
<path d="M49.5935 41.7536C49.4365 41.8753 49.4621 42.1541 49.5935 42.3078C49.7248 42.4616 49.9202 42.5257 50.1061 42.5866C50.2919 42.6474 50.4873 42.7243 50.6026 42.8909C50.7916 43.16 50.6987 43.5509 50.8045 43.8712C50.9198 44.2204 51.2658 44.4319 51.6086 44.4735C51.9514 44.5152 52.2717 44.3967 52.6658 44.3294C56.0809 43.7271 59.746 45.2104 61.9437 48.0809C60.2041 48.68 58.1666 49.0164 56.4846 48.2443C55.1839 47.6452 54.0882 46.6809 53.2873 45.4539C52.9573 45.22 52.5569 45.1079 52.1596 45.079C51.9097 45.063 51.6598 45.0758 51.4132 45.0502C51.1665 45.0246 50.9134 44.9573 50.7148 44.7939C50.3655 44.5088 50.2534 43.9866 50.2855 43.5156C50.2983 43.3298 50.3271 43.1216 50.2246 42.9678C50.0868 42.7596 49.7953 42.7724 49.5967 42.6378C49.4557 42.5417 49.366 42.3719 49.3628 42.1925C49.3628 42.0259 49.4557 41.8561 49.5935 41.7536Z" fill="url(#paint11_radial_661_1216)"/>
<path d="M87.0062 42.8492C87.0062 42.8492 85.2698 39.3604 82.0244 38.6684C81.467 38.5499 80.9416 38.521 80.4322 38.5691C76.7608 38.9151 74.1466 43.128 68.5305 43.6341C68.1717 43.6662 67.8 43.6854 67.4156 43.6854C60.1816 43.6854 57.6667 37.6304 52.8035 38.6716C49.5582 39.3636 47.8218 42.8524 47.8218 42.8524C47.8218 42.8524 49.5229 23.454 67.4156 23.454C67.7328 23.454 68.0403 23.4604 68.3447 23.4701C70.065 23.5405 71.6285 23.7904 73.0477 24.1877C85.6767 27.7182 87.0062 42.8492 87.0062 42.8492Z" fill="url(#paint12_radial_661_1216)"/>
<path d="M86.4326 39.7128C86.6249 38.1013 86.3814 36.5476 85.558 35.0867C85.0102 34.1159 84.3214 33.2574 83.5429 32.4917C81.4733 29.0028 78.2023 25.6294 73.0444 24.1845C71.6251 23.7872 70.0617 23.5373 68.3414 23.4669C69.7574 24.4087 70.9684 25.7062 71.8782 27.212C69.6196 26.9493 67.3258 27.0262 65.0896 27.4458C59.6081 28.4774 54.5302 31.4377 50.4775 35.5384C53.2744 34.0903 56.6222 34.3146 59.5504 35.4199C62.4818 36.5219 65.0351 38.4345 67.5949 40.3247C69.1999 38.6684 71.1606 37.435 73.2686 36.6853C72.5254 39.5078 70.821 42.0515 68.5272 43.6309C74.1465 43.1247 76.7575 38.9119 80.4289 38.5659C80.9383 38.5178 81.4637 38.5467 82.0211 38.6652C85.2665 39.3572 87.0029 42.846 87.0029 42.846C87.0029 42.846 86.894 41.5902 86.4326 39.7128Z" fill="url(#paint13_radial_661_1216)"/>
<path d="M87.0062 49.215C87.003 49.2278 87.003 49.2406 86.9998 49.2566C84.2671 76.6322 70.0619 77.6606 67.736 77.6446C67.5245 77.6414 67.4124 77.6318 67.4124 77.6318C67.4124 77.6318 50.7884 79.0991 47.8186 49.215C47.8186 49.215 47.8699 49.3303 48.0076 49.5225C48.0108 49.5321 48.0172 49.5385 48.0236 49.5449C48.642 50.3875 50.8813 52.5788 57.6155 52.8896C62.1487 53.0978 63.7186 50.6438 65.7273 49.6379C66.2399 49.3784 66.7845 49.215 67.4124 49.215C67.4989 49.215 67.5854 49.2182 67.6687 49.2246C70.5584 49.4328 71.6765 53.1427 77.2093 52.8896C84.927 52.5372 86.7403 49.7115 86.9774 49.2726V49.2694C86.9966 49.2342 87.0062 49.215 87.0062 49.215Z" fill="url(#paint14_radial_661_1216)"/>
<path d="M86.8586 49.2566C84.1259 76.6354 69.9207 77.6606 67.5948 77.6446C67.8991 72.6372 67.8479 67.6106 67.4378 62.6128C67.3289 61.2705 67.2135 59.8096 67.8895 58.6691C68.5527 57.5446 69.8822 56.9263 70.2859 55.6736C70.7408 54.2576 69.8181 52.7967 68.9467 51.6338C68.4438 50.9674 67.8575 50.1088 67.5275 49.2278C70.4172 49.436 71.5353 53.1459 77.0681 52.8928C84.7858 52.5404 86.5991 49.7147 86.8362 49.2758V49.2726C86.8426 49.2662 86.849 49.2598 86.8586 49.2566Z" fill="url(#paint15_radial_661_1216)"/>
<path opacity="0.7" d="M66.7332 55.3437C66.7172 55.8659 66.6915 56.4233 66.4288 56.8334C66.1341 57.2851 65.6311 57.4229 65.1698 57.5318C64.8782 57.5991 64.5835 57.6696 64.2888 57.6151C63.9972 57.5638 63.7025 57.3684 63.5807 57.0352C63.3981 56.5451 63.6352 55.9844 63.8691 55.5295C64.4906 54.2961 65.1153 53.0659 65.7368 51.8324C65.8522 51.605 65.9899 51.3102 66.1501 51.0411C66.3872 50.6407 66.9062 50.8425 66.9158 51.3391C66.935 52.6558 66.7684 54.0718 66.7332 55.3437Z" fill="white"/>
<path opacity="0.7" d="M65.7273 49.6378C64.449 50.5445 63.5808 52.1431 62.2032 52.9312C60.7648 53.7578 58.8586 54.1102 57.2023 54.0493C55.2961 53.9756 53.2713 53.5752 51.5125 52.8319C50.042 52.2136 48.8727 50.8809 48.0237 49.5449C48.642 50.3875 50.8814 52.5788 57.6156 52.8896C62.1488 53.0978 63.7186 50.6438 65.7273 49.6378Z" fill="white"/>
<path d="M90.6137 55.225C89.0855 65.6082 77.1069 76.7506 77.1069 76.7506L75.5018 75.0495C75.5018 75.0495 88.0315 61.0589 86.7468 43.6853C85.4717 26.3853 67.4093 37.3708 67.4093 37.3708C67.4093 37.3708 49.35 26.3821 48.075 43.6821C46.7935 61.0557 59.3199 75.0463 59.3199 75.0463L57.7149 76.7474C57.7149 76.7474 45.7363 65.605 44.2081 55.2218C44.0575 54.1806 43.9646 53.1202 43.9294 52.0533C43.9005 51.3005 43.9037 50.5412 43.9294 49.7851C44.2305 40.9045 47.8859 31.9117 50.7308 28.0608C54.1043 23.4892 67.0024 19.8562 67.4029 19.744C67.4093 19.7408 67.4125 19.7408 67.4125 19.7408C67.4125 19.7408 67.4157 19.7408 67.4221 19.744C67.8226 19.8562 80.7174 23.4924 84.0941 28.0608C86.6859 31.5721 89.9569 39.3603 90.7418 47.4336C90.9917 50.0446 90.9853 52.6877 90.6137 55.225Z" fill="url(#paint16_radial_661_1216)"/>
<path d="M90.7418 47.4335C89.7262 43.0317 87.5253 39.0431 84.5907 35.551C82.6621 33.2572 79.3751 32.4915 76.3988 32.8631C73.4258 33.2348 70.5329 34.6732 67.845 35.9931C68.5177 34.4297 69.623 33.097 70.5233 31.6553C71.4299 30.2137 72.1572 28.5477 71.9425 26.8594C71.7695 25.4946 70.2413 20.9934 67.3997 19.7408H67.4221C67.8225 19.8529 80.7174 23.4891 84.0941 28.0576C86.6859 31.572 89.9569 39.3602 90.7418 47.4335Z" fill="url(#paint17_radial_661_1216)"/>
<path d="M76.0849 75.6678C76.0849 75.6678 91.8311 62.9587 87.631 42.3461C87.631 42.3461 90.3093 60.3445 75.5018 75.0463L76.0849 75.6678Z" fill="url(#paint18_radial_661_1216)"/>
<path d="M58.7403 75.6678C58.7403 75.6678 42.9942 62.9587 47.1942 42.3461C47.1942 42.3461 44.5159 60.3445 59.3234 75.0463L58.7403 75.6678Z" fill="url(#paint19_radial_661_1216)"/>
<path d="M47.8188 40.5041C47.8188 40.5041 49.6898 28.7529 58.2789 26.2861C58.2789 26.2861 50.7118 29.8069 47.8188 40.5041Z" fill="url(#paint20_radial_661_1216)"/>
<path opacity="0.7" d="M67.4031 19.7441C67.0347 19.8947 56.2062 24.3447 52.9032 28.3749C49.5393 32.4756 45.5764 37.813 43.9329 52.0566V49.7852C44.2308 40.9046 47.8862 31.9118 50.7311 28.0609C54.1046 23.4893 67.0027 19.8563 67.4031 19.7441Z" fill="white"/>
<defs>
<linearGradient id="paint0_linear_661_1216" x1="33.3315" y1="85.3735" x2="45.0022" y2="83.7353" gradientUnits="userSpaceOnUse">
<stop stop-color="#4816B5"/>
<stop offset="1" stop-color="#1D0056"/>
</linearGradient>
<linearGradient id="paint1_linear_661_1216" x1="24.986" y1="64.2957" x2="33.1682" y2="60.5396" gradientUnits="userSpaceOnUse">
<stop stop-color="#4816B5"/>
<stop offset="1" stop-color="#1D0056"/>
</linearGradient>
<radialGradient id="paint2_radial_661_1216" cx="0" cy="0" r="1" gradientUnits="userSpaceOnUse" gradientTransform="translate(36.4036 78.4508) rotate(-7.98993) scale(4.72337 4.72338)">
<stop stop-color="#4816B5"/>
<stop offset="1" stop-color="#1D0056"/>
</radialGradient>
<linearGradient id="paint3_linear_661_1216" x1="101.494" y1="85.3735" x2="89.8231" y2="83.7353" gradientUnits="userSpaceOnUse">
<stop stop-color="#1D0056"/>
<stop offset="1" stop-color="#4816B5"/>
</linearGradient>
<linearGradient id="paint4_linear_661_1216" x1="109.839" y1="64.2957" x2="101.657" y2="60.5395" gradientUnits="userSpaceOnUse">
<stop stop-color="#1D0056"/>
<stop offset="1" stop-color="#4816B5"/>
</linearGradient>
<radialGradient id="paint5_radial_661_1216" cx="0" cy="0" r="1" gradientUnits="userSpaceOnUse" gradientTransform="translate(98.4216 78.4508) rotate(-172.01) scale(4.72338)">
<stop stop-color="#4816B5"/>
<stop offset="1" stop-color="#1D0056"/>
</radialGradient>
<radialGradient id="paint6_radial_661_1216" cx="0" cy="0" r="1" gradientUnits="userSpaceOnUse" gradientTransform="translate(43.5603 83.4221) scale(53.6373 76.8515)">
<stop stop-color="#4816B5"/>
<stop offset="1" stop-color="#1D0056"/>
</radialGradient>
<radialGradient id="paint7_radial_661_1216" cx="0" cy="0" r="1" gradientUnits="userSpaceOnUse" gradientTransform="translate(71.8337 89.4939) scale(17.5893 25.2019)">
<stop stop-color="#0F0033"/>
<stop offset="1" stop-color="#060019"/>
</radialGradient>
<radialGradient id="paint8_radial_661_1216" cx="0" cy="0" r="1" gradientUnits="userSpaceOnUse" gradientTransform="translate(62.4838 74.5916) scale(10.8849 10.8849)">
<stop stop-color="#1D0056"/>
<stop offset="1" stop-color="#07001E"/>
</radialGradient>
<radialGradient id="paint9_radial_661_1216" cx="0" cy="0" r="1" gradientUnits="userSpaceOnUse" gradientTransform="translate(56.6559 42.2468) scale(23.1939 24.9388)">
<stop stop-color="#0F0033"/>
<stop offset="1" stop-color="#060019"/>
</radialGradient>
<radialGradient id="paint10_radial_661_1216" cx="0" cy="0" r="1" gradientUnits="userSpaceOnUse" gradientTransform="translate(77.817 46.2869) scale(5.43152)">
<stop stop-color="#FFAD4A"/>
<stop offset="1" stop-color="#EA6C18"/>
</radialGradient>
<radialGradient id="paint11_radial_661_1216" cx="0" cy="0" r="1" gradientUnits="userSpaceOnUse" gradientTransform="translate(57.0343 46.3856) scale(4.65026)">
<stop stop-color="#FFAD4A"/>
<stop offset="1" stop-color="#EA6C18"/>
</radialGradient>
<radialGradient id="paint12_radial_661_1216" cx="0" cy="0" r="1" gradientUnits="userSpaceOnUse" gradientTransform="translate(56.4182 27.5941) scale(23.4432 23.4432)">
<stop stop-color="#4816B5"/>
<stop offset="1" stop-color="#1D0056"/>
</radialGradient>
<radialGradient id="paint13_radial_661_1216" cx="0" cy="0" r="1" gradientUnits="userSpaceOnUse" gradientTransform="translate(68.7419 33.5521) scale(14.5164 15.6084)">
<stop stop-color="#1D0056"/>
<stop offset="1" stop-color="#0F0035"/>
</radialGradient>
<radialGradient id="paint14_radial_661_1216" cx="0" cy="0" r="1" gradientUnits="userSpaceOnUse" gradientTransform="translate(51.1161 55.7481) scale(41.3424 41.3424)">
<stop stop-color="#4816B5"/>
<stop offset="1" stop-color="#1D0056"/>
</radialGradient>
<radialGradient id="paint15_radial_661_1216" cx="0" cy="0" r="1" gradientUnits="userSpaceOnUse" gradientTransform="translate(68.019 56.8325) scale(20.2835 21.8094)">
<stop stop-color="#0F0033"/>
<stop offset="1" stop-color="#060019"/>
</radialGradient>
<radialGradient id="paint16_radial_661_1216" cx="0" cy="0" r="1" gradientUnits="userSpaceOnUse" gradientTransform="translate(53.9244 27.3821) scale(43.7597 43.7598)">
<stop stop-color="#4816B5"/>
<stop offset="1" stop-color="#1D0056"/>
</radialGradient>
<radialGradient id="paint17_radial_661_1216" cx="0" cy="0" r="1" gradientUnits="userSpaceOnUse" gradientTransform="translate(72.5229 25.4109) scale(19.3875 19.3875)">
<stop stop-color="#0F0033"/>
<stop offset="1" stop-color="#060019"/>
</radialGradient>
<radialGradient id="paint18_radial_661_1216" cx="0" cy="0" r="1" gradientUnits="userSpaceOnUse" gradientTransform="translate(81.9236 59.0083) rotate(180) scale(11.8598 12.7521)">
<stop stop-color="#0F0033"/>
<stop offset="1" stop-color="#060019"/>
</radialGradient>
<radialGradient id="paint19_radial_661_1216" cx="0" cy="0" r="1" gradientUnits="userSpaceOnUse" gradientTransform="translate(52.9013 59.0083) scale(11.8598 12.752)">
<stop stop-color="#0F0033"/>
<stop offset="1" stop-color="#060019"/>
</radialGradient>
<radialGradient id="paint20_radial_661_1216" cx="0" cy="0" r="1" gradientUnits="userSpaceOnUse" gradientTransform="translate(53.0501 33.3953) scale(5.96112 6.40957)">
<stop stop-color="#0F0033"/>
<stop offset="1" stop-color="#060019"/>
</radialGradient>
</defs>
</svg>
