<svg width="135" height="136" viewBox="0 0 135 136" fill="none" xmlns="http://www.w3.org/2000/svg">
<path d="M101.159 102.085C119.774 83.4694 119.774 53.2881 101.159 34.6728C82.5435 16.0576 52.3622 16.0575 33.7469 34.6728C15.1317 53.2881 15.1317 83.4694 33.7469 102.085C52.3622 120.7 82.5435 120.7 101.159 102.085Z" fill="#F16316"/>
<path d="M45.8193 90.2439L38.4765 93.6142L32.5945 80.7994L39.9406 77.4291L45.8193 90.2439Z" fill="url(#paint0_linear_494_1460)"/>
<path d="M40.3858 77.5189L32.3349 81.1807L18.9787 51.7067C18.3572 50.342 18.9595 48.7305 20.3275 48.109L23.4318 46.6961C24.7966 46.0746 26.4081 46.6769 27.0296 48.0449L40.3858 77.5189Z" fill="url(#paint1_linear_494_1460)"/>
<path d="M23.874 51.8989L20.7375 51.9982L22.8712 49.7012L26.0076 49.6018L23.874 51.8989Z" fill="white"/>
<path d="M25.29 55.016L22.1536 55.1122L24.2904 52.8151L27.4236 52.7158L25.29 55.016Z" fill="white"/>
<path d="M26.7058 58.1301L23.5693 58.2294L25.7062 55.9292L28.8426 55.8298L26.7058 58.1301Z" fill="white"/>
<path d="M28.122 61.2441L24.9888 61.3434L27.1224 59.0432L30.2589 58.9438L28.122 61.2441Z" fill="white"/>
<path d="M29.5412 64.3581L26.4048 64.4574L28.5384 62.1572L31.6749 62.0611L29.5412 64.3581Z" fill="white"/>
<path d="M30.9572 67.4721L27.8208 67.5714L29.9577 65.2744L33.0909 65.175L30.9572 67.4721Z" fill="white"/>
<path d="M32.3735 70.5892L29.2371 70.6853L31.3739 68.3883L34.5103 68.289L32.3735 70.5892Z" fill="white"/>
<path d="M33.7924 73.7033L30.656 73.8026L32.7897 71.5024L35.9261 71.403L33.7924 73.7033Z" fill="white"/>
<path d="M35.2087 76.8172L32.0723 76.9165L34.2059 74.6163L37.3423 74.517L35.2087 76.8172Z" fill="white"/>
<path d="M42.4392 77.3972L31.0052 82.6448L30.4478 81.437L41.885 76.1894L42.4392 77.3972Z" fill="url(#paint2_radial_494_1460)"/>
<path d="M89.0852 90.2439L96.4313 93.6142L102.313 80.7994L94.9672 77.4291L89.0852 90.2439Z" fill="url(#paint3_linear_494_1460)"/>
<path d="M94.522 77.5189L102.573 81.1807L115.929 51.7067C116.551 50.3419 115.948 48.7304 114.58 48.1089L111.476 46.6961C110.111 46.0746 108.5 46.6769 107.878 48.0448L94.522 77.5189Z" fill="url(#paint4_linear_494_1460)"/>
<path d="M111.034 51.8989L114.17 51.9982L112.037 49.7012L108.9 49.6018L111.034 51.8989Z" fill="white"/>
<path d="M109.618 55.016L112.754 55.1122L110.617 52.8151L107.481 52.7158L109.618 55.016Z" fill="white"/>
<path d="M108.202 58.13L111.335 58.2293L109.201 55.9291L106.065 55.8298L108.202 58.13Z" fill="white"/>
<path d="M106.783 61.2441L109.919 61.3434L107.785 59.0431L104.649 58.9438L106.783 61.2441Z" fill="white"/>
<path d="M105.367 64.3581L108.503 64.4574L106.369 62.1571L103.233 62.061L105.367 64.3581Z" fill="white"/>
<path d="M103.95 67.4721L107.087 67.5714L104.95 65.2743L101.813 65.175L103.95 67.4721Z" fill="white"/>
<path d="M102.534 70.5893L105.668 70.6854L103.534 68.3883L100.397 68.289L102.534 70.5893Z" fill="white"/>
<path d="M101.115 73.7033L104.252 73.8026L102.118 71.5023L98.9814 71.403L101.115 73.7033Z" fill="white"/>
<path d="M99.6993 76.8172L102.836 76.9165L100.702 74.6162L97.5657 74.5169L99.6993 76.8172Z" fill="white"/>
<path d="M92.468 77.3972L103.902 82.6448L104.456 81.437L93.0223 76.1894L92.468 77.3972Z" fill="url(#paint5_radial_494_1460)"/>
<path d="M114.372 95.3058C114.372 95.3058 108.16 110.072 84.4846 120.663C79.5894 122.851 73.9477 124.86 67.4538 126.529C61.0079 124.876 55.3983 122.877 50.5286 120.711C26.7668 110.116 20.5388 95.3058 20.5388 95.3058C38.6141 88.3442 52.2042 80.777 52.2042 80.777L52.2074 80.7514L53.8381 70.8007L54.639 65.9119L67.4538 72.7197L80.2686 65.9119L82.7066 80.7738C82.7066 80.7738 85.3688 82.2571 89.9117 84.5189C95.6239 87.3606 104.299 91.4293 114.372 95.3058Z" fill="url(#paint6_radial_494_1460)"/>
<path d="M89.9115 84.5222C85.7883 96.0267 78.721 105.317 70.3625 110.193C66.454 112.471 62.2027 113.685 58.0892 115.002C62.5711 112.359 66.3643 107.711 69.4879 102.399C72.6147 97.0935 75.0816 91.2179 77.5741 85.2655C75.5141 87.3062 72.9992 88.3827 70.4971 88.2994C67.995 88.2129 65.6499 86.8481 63.6604 84.6696C67.5401 86.6623 71.9932 85.8998 75.3347 82.4494C71.2564 84.3748 66.7007 84.1538 62.7217 81.8311C59.0279 79.6782 55.8562 75.7345 53.8411 70.8008L54.642 65.9119L67.4568 72.7198L80.2716 65.9119L82.7096 80.7739C82.7032 80.7803 85.3687 82.2604 89.9115 84.5222Z" fill="url(#paint7_radial_494_1460)"/>
<path d="M84.4846 120.666C79.5894 122.854 73.9477 124.863 67.4538 126.532C61.0079 124.879 55.3983 122.88 50.5286 120.714C40.6997 116.332 33.8662 111.222 29.2369 106.743C22.6757 100.4 20.5388 95.309 20.5388 95.309C38.3322 88.4531 51.7813 81.0173 52.1946 80.7867C52.1978 80.7867 52.201 80.7803 52.2042 80.7803L52.2074 80.7546L52.3676 80.7803C52.3676 80.7803 52.6078 81.5075 53.1076 82.773C55.7122 89.4046 65.3618 110.866 84.4846 120.666Z" fill="#170B3F"/>
<path d="M114.372 95.3058C114.372 95.3058 105.325 116.812 67.4538 126.532C67.0629 126.433 66.6785 126.33 66.294 126.228C60.3319 124.636 55.1035 122.749 50.5286 120.711L50.5222 120.701C69.6899 110.917 79.3587 89.4142 81.9633 82.7729C82.4631 81.5042 82.7034 80.7802 82.7034 80.7802C82.7034 80.7802 96.2934 88.3441 114.372 95.3058Z" fill="#250F59"/>
<path opacity="0.7" d="M28.295 98.218C27.2121 100.467 27.619 103.671 28.7435 105.875C28.8973 106.179 29.0607 106.467 29.2369 106.74C22.6757 100.396 20.5388 95.3058 20.5388 95.3058C38.3322 88.4499 51.7813 81.0141 52.1946 80.7834C45.1656 85.5153 38.2873 90.4874 31.2584 95.2225C30.1499 95.9658 28.9902 96.7731 28.295 98.218Z" fill="white"/>
<path opacity="0.7" d="M60.3127 120.948C60.38 121.945 61.1489 122.739 61.9146 123.383C63.2537 124.504 64.7274 125.462 66.294 126.228C60.3319 124.636 55.1035 122.749 50.5286 120.711L50.5222 120.701C69.6899 110.917 79.3587 89.4142 81.9633 82.7729C82.4631 81.5042 82.7034 80.7802 82.7034 80.7802C81.0759 95.0399 73.5119 108.627 62.4207 117.738C61.3924 118.584 60.2262 119.619 60.3127 120.948Z" fill="white"/>
<path d="M57.7593 77.7176C57.7593 77.7176 61.7543 80.8572 67.537 80.8572C73.3196 80.8572 77.1481 77.7176 77.1481 77.7176L73.9604 73.2388L60.1685 73.5592L57.7593 77.7176Z" fill="url(#paint8_radial_494_1460)"/>
<path d="M47.1581 52.1874C46.3059 47.9809 46.2546 43.5919 47.0107 39.3662C59.9376 37.9469 73.1625 37.7419 86.1086 38.9401C87.7297 43.06 88.3865 47.7535 87.8835 52.1938C74.7579 55.7531 60.3509 55.4648 47.1581 52.1874Z" fill="url(#paint9_radial_494_1460)"/>
<path d="M85.2726 42.7205C85.4296 42.8422 85.404 43.1209 85.2726 43.2747C85.1413 43.4285 84.9458 43.4925 84.76 43.5534C84.5742 43.6143 84.3788 43.6912 84.2635 43.8578C84.0744 44.1269 84.1673 44.5177 84.0616 44.8381C83.9463 45.1873 83.6003 45.3987 83.2575 45.4404C82.9147 45.482 82.5943 45.3635 82.2003 45.2962C78.7851 44.6939 75.1201 46.1772 72.9224 49.0478C74.662 49.6469 76.6995 49.9832 78.3815 49.2112C79.6822 48.6121 80.7778 47.6477 81.5788 46.4207C81.9087 46.1869 82.3092 46.0747 82.7065 46.0459C82.9563 46.0299 83.2062 46.0427 83.4529 46.0171C83.6996 45.9914 83.9527 45.9242 84.1513 45.7608C84.5005 45.4756 84.6127 44.9534 84.5806 44.4825C84.5678 44.2967 84.539 44.0884 84.6415 43.9347C84.7792 43.7264 85.0708 43.7392 85.2694 43.6047C85.4104 43.5086 85.5001 43.3388 85.5033 43.1594C85.5033 42.9928 85.4072 42.823 85.2726 42.7205Z" fill="url(#paint10_radial_494_1460)"/>
<path d="M49.6345 42.7205C49.4775 42.8422 49.5031 43.1209 49.6345 43.2747C49.7658 43.4285 49.9613 43.4925 50.1471 43.5534C50.3329 43.6143 50.5283 43.6912 50.6436 43.8578C50.8327 44.1269 50.7398 44.5177 50.8455 44.8381C50.9608 45.1873 51.3068 45.3987 51.6496 45.4404C51.9924 45.482 52.3128 45.3635 52.7068 45.2962C56.122 44.6939 59.787 46.1772 61.9847 49.0478C60.2451 49.6469 58.2076 49.9832 56.5256 49.2112C55.2249 48.6121 54.1293 47.6477 53.3283 46.4207C52.9984 46.1869 52.5979 46.0747 52.2006 46.0459C51.9507 46.0299 51.7009 46.0427 51.4542 46.0171C51.2075 45.9914 50.9544 45.9242 50.7558 45.7608C50.4066 45.4756 50.2944 44.9534 50.3265 44.4825C50.3393 44.2967 50.3681 44.0884 50.2656 43.9347C50.1278 43.7264 49.8363 43.7392 49.6377 43.6047C49.4967 43.5086 49.407 43.3388 49.4038 43.1594C49.4038 42.9928 49.4967 42.823 49.6345 42.7205Z" fill="url(#paint11_radial_494_1460)"/>
<path d="M87.0475 43.8161C87.0475 43.8161 85.3111 40.3273 82.0657 39.6353C81.5083 39.5168 80.9829 39.4879 80.4735 39.536C76.802 39.882 74.1878 44.0948 68.5717 44.601C68.2129 44.6331 67.8413 44.6523 67.4569 44.6523C60.2229 44.6523 57.708 38.5973 52.8448 39.6385C49.5994 40.3305 47.863 43.8193 47.863 43.8193C47.863 43.8193 49.5642 24.4209 67.4569 24.4209C67.774 24.4209 68.0816 24.4273 68.3859 24.4369C70.1063 24.5074 71.6697 24.7573 73.089 25.1546C85.7179 28.6851 87.0475 43.8161 87.0475 43.8161Z" fill="url(#paint12_radial_494_1460)"/>
<path d="M86.4741 40.6797C86.6664 39.0682 86.4229 37.5144 85.5995 36.0536C85.0517 35.0828 84.3629 34.2242 83.5844 33.4586C81.5148 29.9697 78.2438 26.5962 73.0859 25.1514C71.6666 24.7541 70.1032 24.5042 68.3829 24.4337C69.7989 25.3756 71.0099 26.6731 71.9197 28.1789C69.6611 27.9162 67.3673 27.9931 65.1311 28.4127C59.6496 29.4443 54.5717 32.4045 50.519 36.5053C53.3159 35.0572 56.6637 35.2815 59.5919 36.3867C62.5233 37.4888 65.0766 39.4014 67.6364 41.2916C69.2415 39.6353 71.2021 38.4019 73.3102 37.6522C72.5669 40.4747 70.8625 43.0184 68.5687 44.5978C74.188 44.0916 76.799 39.8788 80.4704 39.5328C80.9798 39.4847 81.5052 39.5135 82.0626 39.6321C85.308 40.3241 87.0444 43.8129 87.0444 43.8129C87.0444 43.8129 86.9355 42.5571 86.4741 40.6797Z" fill="url(#paint13_radial_494_1460)"/>
<path d="M87.0475 50.1819C87.0443 50.1947 87.0443 50.2075 87.0411 50.2235C84.3083 77.5991 70.1031 78.6275 67.7773 78.6115C67.5658 78.6083 67.4537 78.5987 67.4537 78.5987C67.4537 78.5987 50.8297 80.066 47.8599 50.1819C47.8599 50.1819 47.9111 50.2972 48.0489 50.4894C48.0521 50.4991 48.0585 50.5055 48.0649 50.5119C48.6832 51.3544 50.9226 53.5458 57.6568 53.8565C62.19 54.0648 63.7598 51.6107 65.7685 50.6048C66.2811 50.3453 66.8258 50.1819 67.4537 50.1819C67.5402 50.1819 67.6267 50.1851 67.71 50.1915C70.5997 50.3997 71.7178 54.1096 77.2506 53.8565C84.9683 53.5041 86.7816 50.6785 87.0187 50.2396V50.2363C87.0379 50.2011 87.0475 50.1819 87.0475 50.1819Z" fill="url(#paint14_radial_494_1460)"/>
<path d="M86.9 50.2235C84.1672 77.6023 69.962 78.6275 67.6362 78.6115C67.9405 73.6041 67.8893 68.5775 67.4792 63.5797C67.3703 62.2374 67.2549 60.7765 67.9309 59.636C68.5941 58.5115 69.9236 57.8932 70.3273 56.6405C70.7822 55.2245 69.8595 53.7636 68.9881 52.6006C68.4851 51.9343 67.8989 51.0757 67.5689 50.1947C70.4586 50.4029 71.5767 54.1128 77.1095 53.8597C84.8272 53.5073 86.6405 50.6816 86.8776 50.2427V50.2395C86.884 50.2331 86.8904 50.2267 86.9 50.2235Z" fill="url(#paint15_radial_494_1460)"/>
<path opacity="0.7" d="M66.7744 56.3106C66.7584 56.8328 66.7328 57.3902 66.4701 57.8003C66.1754 58.252 65.6724 58.3898 65.211 58.4987C64.9195 58.566 64.6248 58.6365 64.33 58.582C64.0385 58.5307 63.7437 58.3353 63.622 58.0021C63.4394 57.512 63.6765 56.9513 63.9103 56.4964C64.5319 55.263 65.1566 54.0327 65.7781 52.7993C65.8934 52.5719 66.0312 52.2771 66.1914 52.008C66.4284 51.6075 66.9474 51.8094 66.9571 52.3059C66.9763 53.6227 66.8097 55.0387 66.7744 56.3106Z" fill="white"/>
<path opacity="0.7" d="M65.7683 50.6047C64.4901 51.5114 63.6219 53.11 62.2443 53.8981C60.8058 54.7247 58.8996 55.0771 57.2433 55.0162C55.3371 54.9426 53.3124 54.5421 51.5535 53.7988C50.083 53.1805 48.9137 51.8478 48.0647 50.5118C48.683 51.3544 50.9224 53.5457 57.6566 53.8565C62.1898 54.0647 63.7596 51.6107 65.7683 50.6047Z" fill="white"/>
<path d="M90.6549 56.1919C89.1268 66.5751 77.1481 77.7176 77.1481 77.7176L75.5431 76.0164C75.5431 76.0164 88.0727 62.0259 86.7881 44.6522C85.513 27.3522 67.4505 38.3377 67.4505 38.3377C67.4505 38.3377 49.3913 27.349 48.1162 44.649C46.8347 62.0227 59.3612 76.0132 59.3612 76.0132L57.7561 77.7144C57.7561 77.7144 45.7775 66.5719 44.2494 56.1887C44.0988 55.1475 44.0059 54.0871 43.9706 53.0203C43.9418 52.2674 43.945 51.5081 43.9706 50.752C44.2718 41.8714 47.9272 32.8786 50.7721 29.0278C54.1456 24.4561 67.0437 20.8231 67.4441 20.711C67.4505 20.7078 67.4537 20.7078 67.4537 20.7078C67.4537 20.7078 67.4569 20.7078 67.4634 20.711C67.8638 20.8231 80.7587 24.4593 84.1354 29.0278C86.7272 32.539 89.9982 40.3272 90.7831 48.4005C91.0329 51.0115 91.0265 53.6546 90.6549 56.1919Z" fill="url(#paint16_radial_494_1460)"/>
<path d="M90.7831 48.4005C89.7675 43.9986 87.5665 40.01 84.632 36.518C82.7033 34.2241 79.4163 33.4584 76.4401 33.8301C73.4671 34.2017 70.5741 35.6402 67.8862 36.9601C68.559 35.3967 69.6643 34.0639 70.5645 32.6223C71.4712 31.1806 72.1984 29.5147 71.9838 27.8263C71.8108 26.4616 70.2826 21.9604 67.4409 20.7077H67.4633C67.8638 20.8199 80.7587 24.4561 84.1354 29.0245C86.7272 32.539 89.9982 40.3272 90.7831 48.4005Z" fill="url(#paint17_radial_494_1460)"/>
<path d="M76.126 76.6347C76.126 76.6347 91.8722 63.9256 87.6722 43.313C87.6722 43.313 90.3505 61.3114 75.543 76.0132L76.126 76.6347Z" fill="url(#paint18_radial_494_1460)"/>
<path d="M58.7813 76.6347C58.7813 76.6347 43.0352 63.9256 47.2352 43.313C47.2352 43.313 44.5569 61.3114 59.3644 76.0132L58.7813 76.6347Z" fill="url(#paint19_radial_494_1460)"/>
<path d="M47.8599 41.471C47.8599 41.471 49.7308 29.7198 58.3199 27.253C58.3199 27.253 50.7528 30.7739 47.8599 41.471Z" fill="url(#paint20_radial_494_1460)"/>
<path opacity="0.7" d="M67.4442 20.711C67.0757 20.8616 56.2472 25.3115 52.9442 29.3418C49.5803 33.4425 45.6174 38.7799 43.9739 53.0235V50.7521C44.2718 41.8714 47.9272 32.8786 50.7721 29.0278C54.1456 24.4561 67.0437 20.8231 67.4442 20.711Z" fill="white"/>
<defs>
<linearGradient id="paint0_linear_494_1460" x1="33.3725" y1="86.3404" x2="45.0432" y2="84.7023" gradientUnits="userSpaceOnUse">
<stop stop-color="#4816B5"/>
<stop offset="1" stop-color="#1D0056"/>
</linearGradient>
<linearGradient id="paint1_linear_494_1460" x1="25.027" y1="65.2627" x2="33.2092" y2="61.5065" gradientUnits="userSpaceOnUse">
<stop stop-color="#4816B5"/>
<stop offset="1" stop-color="#1D0056"/>
</linearGradient>
<radialGradient id="paint2_radial_494_1460" cx="0" cy="0" r="1" gradientUnits="userSpaceOnUse" gradientTransform="translate(36.4444 79.4177) rotate(-7.98993) scale(4.72337 4.72338)">
<stop stop-color="#4816B5"/>
<stop offset="1" stop-color="#1D0056"/>
</radialGradient>
<linearGradient id="paint3_linear_494_1460" x1="101.535" y1="86.3404" x2="89.8642" y2="84.7023" gradientUnits="userSpaceOnUse">
<stop stop-color="#1D0056"/>
<stop offset="1" stop-color="#4816B5"/>
</linearGradient>
<linearGradient id="paint4_linear_494_1460" x1="109.88" y1="65.2626" x2="101.698" y2="61.5064" gradientUnits="userSpaceOnUse">
<stop stop-color="#1D0056"/>
<stop offset="1" stop-color="#4816B5"/>
</linearGradient>
<radialGradient id="paint5_radial_494_1460" cx="0" cy="0" r="1" gradientUnits="userSpaceOnUse" gradientTransform="translate(98.4625 79.4177) rotate(-172.01) scale(4.72338)">
<stop stop-color="#4816B5"/>
<stop offset="1" stop-color="#1D0056"/>
</radialGradient>
<radialGradient id="paint6_radial_494_1460" cx="0" cy="0" r="1" gradientUnits="userSpaceOnUse" gradientTransform="translate(43.6013 84.389) scale(53.6373 76.8515)">
<stop stop-color="#4816B5"/>
<stop offset="1" stop-color="#1D0056"/>
</radialGradient>
<radialGradient id="paint7_radial_494_1460" cx="0" cy="0" r="1" gradientUnits="userSpaceOnUse" gradientTransform="translate(71.8747 90.4608) scale(17.5893 25.2019)">
<stop stop-color="#0F0033"/>
<stop offset="1" stop-color="#060019"/>
</radialGradient>
<radialGradient id="paint8_radial_494_1460" cx="0" cy="0" r="1" gradientUnits="userSpaceOnUse" gradientTransform="translate(62.5248 75.5586) scale(10.8849 10.8849)">
<stop stop-color="#1D0056"/>
<stop offset="1" stop-color="#07001E"/>
</radialGradient>
<radialGradient id="paint9_radial_494_1460" cx="0" cy="0" r="1" gradientUnits="userSpaceOnUse" gradientTransform="translate(56.6969 43.2137) scale(23.1939 24.9388)">
<stop stop-color="#0F0033"/>
<stop offset="1" stop-color="#060019"/>
</radialGradient>
<radialGradient id="paint10_radial_494_1460" cx="0" cy="0" r="1" gradientUnits="userSpaceOnUse" gradientTransform="translate(77.8582 47.2538) scale(5.43152)">
<stop stop-color="#FFAD4A"/>
<stop offset="1" stop-color="#EA6C18"/>
</radialGradient>
<radialGradient id="paint11_radial_494_1460" cx="0" cy="0" r="1" gradientUnits="userSpaceOnUse" gradientTransform="translate(57.0753 47.3525) scale(4.65026)">
<stop stop-color="#FFAD4A"/>
<stop offset="1" stop-color="#EA6C18"/>
</radialGradient>
<radialGradient id="paint12_radial_494_1460" cx="0" cy="0" r="1" gradientUnits="userSpaceOnUse" gradientTransform="translate(56.4594 28.561) scale(23.4432 23.4432)">
<stop stop-color="#4816B5"/>
<stop offset="1" stop-color="#1D0056"/>
</radialGradient>
<radialGradient id="paint13_radial_494_1460" cx="0" cy="0" r="1" gradientUnits="userSpaceOnUse" gradientTransform="translate(68.7834 34.519) scale(14.5164 15.6084)">
<stop stop-color="#1D0056"/>
<stop offset="1" stop-color="#0F0035"/>
</radialGradient>
<radialGradient id="paint14_radial_494_1460" cx="0" cy="0" r="1" gradientUnits="userSpaceOnUse" gradientTransform="translate(51.1573 56.715) scale(41.3424 41.3424)">
<stop stop-color="#4816B5"/>
<stop offset="1" stop-color="#1D0056"/>
</radialGradient>
<radialGradient id="paint15_radial_494_1460" cx="0" cy="0" r="1" gradientUnits="userSpaceOnUse" gradientTransform="translate(68.0604 57.7994) scale(20.2835 21.8094)">
<stop stop-color="#0F0033"/>
<stop offset="1" stop-color="#060019"/>
</radialGradient>
<radialGradient id="paint16_radial_494_1460" cx="0" cy="0" r="1" gradientUnits="userSpaceOnUse" gradientTransform="translate(53.9656 28.349) scale(43.7597 43.7598)">
<stop stop-color="#4816B5"/>
<stop offset="1" stop-color="#1D0056"/>
</radialGradient>
<radialGradient id="paint17_radial_494_1460" cx="0" cy="0" r="1" gradientUnits="userSpaceOnUse" gradientTransform="translate(72.5641 26.3779) scale(19.3875 19.3875)">
<stop stop-color="#0F0033"/>
<stop offset="1" stop-color="#060019"/>
</radialGradient>
<radialGradient id="paint18_radial_494_1460" cx="0" cy="0" r="1" gradientUnits="userSpaceOnUse" gradientTransform="translate(81.9647 59.9752) rotate(180) scale(11.8598 12.7521)">
<stop stop-color="#0F0033"/>
<stop offset="1" stop-color="#060019"/>
</radialGradient>
<radialGradient id="paint19_radial_494_1460" cx="0" cy="0" r="1" gradientUnits="userSpaceOnUse" gradientTransform="translate(52.9423 59.9752) scale(11.8598 12.752)">
<stop stop-color="#0F0033"/>
<stop offset="1" stop-color="#060019"/>
</radialGradient>
<radialGradient id="paint20_radial_494_1460" cx="0" cy="0" r="1" gradientUnits="userSpaceOnUse" gradientTransform="translate(53.0911 34.3622) scale(5.96112 6.40957)">
<stop stop-color="#0F0033"/>
<stop offset="1" stop-color="#060019"/>
</radialGradient>
</defs>
</svg>
