<svg width="263" height="259" viewBox="0 0 263 259" fill="none" xmlns="http://www.w3.org/2000/svg">
<g clip-path="url(#clip0_487_621)">
<path d="M78.3999 146.993C84.0584 146.993 88.6456 142.406 88.6456 136.747C88.6456 131.089 84.0584 126.502 78.3999 126.502C72.7414 126.502 68.1543 131.089 68.1543 136.747C68.1543 142.406 72.7414 146.993 78.3999 146.993Z" stroke="white" stroke-width="0.834335" stroke-miterlimit="20" stroke-dasharray="3.22 3.22"/>
<path d="M76.4225 108.096C76.4225 112.018 73.2436 115.188 69.3306 115.188C65.4092 115.188 62.2388 112.009 62.2388 108.096C62.2388 104.175 65.4176 101.004 69.3306 101.004C73.2436 101.004 76.4225 104.175 76.4225 108.096Z" stroke="white" stroke-width="0.834335" stroke-miterlimit="20" stroke-dasharray="3.18 3.18"/>
<path d="M156.252 53.5725C156.252 56.4927 153.882 58.8538 150.97 58.8538C148.05 58.8538 145.689 56.4843 145.689 53.5725C145.689 50.6523 148.058 48.2912 150.97 48.2912C153.882 48.2828 156.252 50.6523 156.252 53.5725Z" stroke="white" stroke-width="0.834335" stroke-miterlimit="20" stroke-dasharray="3.32 3.32"/>
<path d="M159.314 76.3748C162.23 76.3748 164.595 74.0103 164.595 71.0935C164.595 68.1767 162.23 65.8121 159.314 65.8121C156.397 65.8121 154.032 68.1767 154.032 71.0935C154.032 74.0103 156.397 76.3748 159.314 76.3748Z" fill="white"/>
<path d="M57.5164 129.772C60.4333 129.772 62.7978 127.408 62.7978 124.491C62.7978 121.574 60.4333 119.21 57.5164 119.21C54.5996 119.21 52.2351 121.574 52.2351 124.491C52.2351 127.408 54.5996 129.772 57.5164 129.772Z" stroke="white" stroke-width="0.834335" stroke-miterlimit="10"/>
<path d="M98.2022 51.4572L93.5466 53.5945L97.2746 61.7153L101.93 59.578L98.2022 51.4572Z" fill="#250F59"/>
<path d="M98.4907 51.52L93.3846 53.8395L84.9161 35.1587C84.5239 34.291 84.9077 33.2731 85.7671 32.881L87.7361 31.9882C88.6038 31.5961 89.6217 31.9799 90.0139 32.8392L98.4907 51.52Z" fill="#170B3F"/>
<path d="M88.0197 35.2755L86.0339 35.3423L87.3856 33.8822L89.3713 33.8154L88.0197 35.2755Z" fill="#F16316"/>
<path d="M88.9208 37.2529L86.9351 37.3113L88.2867 35.8596L90.2724 35.7928L88.9208 37.2529Z" fill="#F16316"/>
<path d="M89.8218 39.222L87.8278 39.2888L89.1794 37.8287L91.1734 37.7703L89.8218 39.222Z" fill="#F16316"/>
<path d="M90.7145 41.1993L88.7288 41.2577L90.0804 39.806L92.0661 39.7393L90.7145 41.1993Z" fill="#F16316"/>
<path d="M91.6157 43.1768L89.63 43.2352L90.9816 41.7751L92.9673 41.7167L91.6157 43.1768Z" fill="#F16316"/>
<path d="M92.5168 45.1456L90.5227 45.2123L91.8743 43.7523L93.8684 43.6938L92.5168 45.1456Z" fill="#F16316"/>
<path d="M93.4094 47.1231L91.4237 47.1815L92.7753 45.7297L94.761 45.663L93.4094 47.1231Z" fill="#F16316"/>
<path d="M94.3106 49.1005L92.3248 49.1589L93.6765 47.6988L95.6622 47.6404L94.3106 49.1005Z" fill="#F16316"/>
<path d="M95.2033 51.0695L93.2175 51.1363L94.5692 49.6762L96.5632 49.6178L95.2033 51.0695Z" fill="#F16316"/>
<path d="M99.4341 50.6683L92.1853 53.996L92.5369 54.7618L99.7857 51.4341L99.4341 50.6683Z" fill="#170B3F"/>
<path d="M126.471 59.5796L131.127 61.7168L134.855 53.596L130.199 51.4588L126.471 59.5796Z" fill="#250F59"/>
<path d="M129.912 51.52L135.018 53.8395L143.486 35.1587C143.878 34.291 143.495 33.2731 142.635 32.881L140.666 31.9882C139.798 31.5961 138.781 31.9799 138.388 32.8392L129.912 51.52Z" fill="#170B3F"/>
<path d="M140.383 35.2755L142.368 35.3423L141.017 33.8822L139.031 33.8154L140.383 35.2755Z" fill="#F16316"/>
<path d="M139.481 37.2529L141.475 37.3113L140.115 35.8596L138.13 35.7928L139.481 37.2529Z" fill="#F16316"/>
<path d="M138.589 39.222L140.574 39.2888L139.223 37.8287L137.229 37.7703L138.589 39.222Z" fill="#F16316"/>
<path d="M137.688 41.1993L139.673 41.2577L138.322 39.806L136.336 39.7393L137.688 41.1993Z" fill="#F16316"/>
<path d="M136.787 43.1768L138.781 43.2352L137.421 41.7751L135.435 41.7167L136.787 43.1768Z" fill="#F16316"/>
<path d="M135.894 45.1456L137.88 45.2123L136.528 43.7523L134.534 43.6938L135.894 45.1456Z" fill="#F16316"/>
<path d="M134.993 47.1231L136.979 47.1815L135.627 45.7297L133.641 45.663L134.993 47.1231Z" fill="#F16316"/>
<path d="M134.092 49.1005L136.086 49.1589L134.726 47.6988L132.74 47.6404L134.092 49.1005Z" fill="#F16316"/>
<path d="M133.199 51.0695L135.185 51.1363L133.833 49.6762L131.839 49.6178L133.199 51.0695Z" fill="#F16316"/>
<path d="M128.613 51.4387L135.862 54.7664L136.214 54.0005L128.965 50.6728L128.613 51.4387Z" fill="#170B3F"/>
<path d="M48.5974 254.497C48.5974 254.497 54.6213 260.521 66.3437 257.092C78.0745 253.663 86.7933 252.528 86.7933 252.528L84.9911 239.487L71.7085 240.731C71.7085 240.722 55.756 251.176 48.5974 254.497Z" fill="#170B3F"/>
<path d="M162.226 229.242L167.482 233.672L189.35 251.802C189.35 251.802 180.631 257.476 172.329 254.155C164.028 250.834 152.138 246.062 152.138 246.062L155.309 233.672L162.226 229.242Z" fill="#170B3F"/>
<path d="M76.9731 194.225L71.7168 240.731L84.9994 239.487C84.9994 239.487 87.0769 232.429 89.4297 225.095C91.7826 217.761 95.6455 205.58 95.0281 198.104L76.9731 194.225Z" fill="#0B0623" fill-opacity="0.98"/>
<path d="M141.876 198.513C144.504 210.695 154.883 226.889 155.3 233.664C155.3 233.664 160.148 238.228 167.482 233.664L159.589 194.216L141.876 198.513Z" fill="#0B0623" fill-opacity="0.98"/>
<path d="M90.531 113.536L120.283 117.967C120.283 117.967 111.423 155.336 110.455 166.542C109.487 177.755 112.115 206.815 84.991 201.834C57.8668 196.853 74.2615 166.617 79.0422 155.328C85.9672 139 90.531 113.536 90.531 113.536Z" fill="#250F59"/>
<path opacity="0.2" d="M116.287 135.546L109.571 131.741C109.571 131.741 97.114 181.535 96.2296 187.583C95.3452 193.632 85.9089 196.211 85.9089 196.211C85.9089 196.211 96.1546 195.827 95.0949 199.923C94.8029 201.041 84.9995 201.842 85.9089 201.992C98.5157 204.145 106.617 196.661 108.102 188.543C109.946 178.389 110.589 165.415 110.589 165.415C111.314 158.907 113.951 146.184 116.287 135.546Z" fill="black"/>
<path d="M99.2582 107.554C99.2582 107.554 119.04 153.25 123.471 171.94C127.901 190.62 132.99 209.151 154.057 201.558C174.398 194.225 157.795 165.156 153.223 154.777C148.659 144.398 137.654 114.504 137.654 114.504L99.2582 107.554Z" fill="#250F59"/>
<path d="M140.166 121.262C138.656 117.207 137.663 114.504 137.663 114.504L99.2666 107.554C99.2666 107.554 100.568 110.558 102.571 115.322L90.5395 113.528C90.5395 113.528 89.58 118.893 87.8696 126.268L100.535 129.572C103.038 130.223 105.624 128.846 106.475 126.393L107.318 123.974L109.621 127.92C110.372 129.205 111.898 129.797 113.317 129.372L140.166 121.262Z" fill="#0B0623" fill-opacity="0.55"/>
<path d="M105.582 108.972L109.17 120.403C110.263 123.89 113.784 126.026 117.388 125.375L147.316 119.977L133.716 106.069L105.582 108.972Z" fill="#250F59"/>
<path d="M95.412 107.554L107.143 109.381L105.099 120.678C104.69 122.947 102.462 124.408 100.218 123.874L83.6896 119.969L95.412 107.554Z" fill="#250F59"/>
<path d="M92.0996 60.1554C92.0996 60.1554 80.1519 84.4763 79.326 93.9209C78.4916 103.366 83.6895 104.509 89.9137 101.705C96.1378 98.9019 104.965 69.4249 104.965 69.4249L92.0996 60.1554Z" fill="#250F59"/>
<path opacity="0.2" d="M97.5896 69.3915C97.5896 69.3915 83.1639 96.8995 83.6812 96.791C84.1985 96.6909 95.6122 95.9567 95.6122 95.9567L97.5896 69.3915Z" fill="black"/>
<path d="M137.654 57.5941L134.651 103.266C118.456 106.586 94.0603 104.709 94.0603 104.709L89.0459 102.331L93.2343 82.9162L90.3308 59.2461L106.008 56.109V48.5499L123.229 46.4724L123.078 52.1042L123.028 54.0482L137.654 57.5941Z" fill="#250F59"/>
<path opacity="0.2" d="M134.651 103.265L136.645 72.9123L133.917 70.5594L120.609 104.942C125.465 104.659 130.346 104.141 134.651 103.265Z" fill="black"/>
<path opacity="0.2" d="M123.229 46.4806L123.079 52.1124C116.804 53.5391 108.828 52.3293 106.008 51.812V48.5581L123.229 46.4806Z" fill="black"/>
<path d="M90.3225 59.2543L93.2343 82.9161L95.6122 58.1947L90.3225 59.2543Z" fill="#0B0623"/>
<path d="M137.654 57.594L130.437 55.8502C129.011 63.8849 127.175 81.189 135.552 89.5323L137.654 57.594Z" fill="#0B0623"/>
<path d="M94.0602 104.709V109.239C94.0602 109.239 114.818 113.186 135.026 107.437L134.642 103.249L94.0602 104.709Z" fill="#0B0623"/>
<path d="M137.654 57.5857C142.677 57.5857 145.822 65.3867 146.048 74.8147C146.231 82.2903 155.3 102.732 152.08 106.061C148.859 109.381 135.368 108.03 133.499 100.354C131.63 92.6695 131.739 78.7611 132.356 72.3284C132.99 65.8957 132.99 57.5857 137.654 57.5857Z" fill="#250F59"/>
<path d="M106 56.1088C106 56.1088 115.728 59.7465 123.02 54.048L112.532 76.7169L106 56.1088Z" fill="#0B0623"/>
<path d="M115.144 85.8362L110.046 86.5621L109.437 71.0769L107.301 61.8992C107.301 61.8992 111.248 62.625 111.907 64.9695C112.566 67.314 113.726 70.1257 113.726 70.1257L115.227 70.0339C116.888 69.9338 118.406 70.9434 118.957 72.5036L120.325 76.3832L118.99 77.5847C118.99 77.5847 120.258 85.4441 115.144 85.8362Z" fill="#493022"/>
<path d="M116.412 86.8375C116.412 86.8375 85.6252 112.919 80.8862 99.5945C77.941 91.3095 109.863 81.7731 109.863 81.7731L116.412 86.8375Z" fill="#170B3F"/>
<path d="M118.298 73.5048C116.37 73.4631 115.077 74.6979 114.819 76.3332L115.603 83.0913L115.211 84.9018L118.339 84.3679L119.816 76.2498L119.057 74.2307L118.298 73.5048Z" fill="#332118"/>
<path d="M121.093 98.9019L126.057 97.5253L120.434 83.0829L118.723 73.8135C118.723 73.8135 115.394 76.0578 115.728 78.4691C116.062 80.8803 116.12 83.9256 116.12 83.9256L112.065 85.394L112.566 92.294L114.276 92.8613C114.268 92.8697 116.245 100.587 121.093 98.9019Z" fill="#493022"/>
<path d="M113.726 70.1257L109.437 71.0769L107.827 64.1436C107.827 64.1436 109.554 68.9827 111.206 69.6502C112.849 70.3176 113.726 70.1257 113.726 70.1257Z" fill="#332118"/>
<path d="M114.268 92.8697C114.268 92.8697 114.818 91.3512 113.659 91.2678C113.458 91.2511 114.518 91.4597 114.51 90.8673C114.51 90.1915 114.91 89.6242 115.311 89.524C115.319 89.524 114.526 92.1355 114.268 92.8697Z" fill="#332118"/>
<path d="M132.415 70.5511C132.415 70.5511 135.21 78.3271 135.026 82.3904C134.843 86.4619 145.172 97.9507 145.172 97.9507L131.956 93.7957C131.956 93.8041 130.663 76.7252 132.415 70.5511Z" fill="url(#paint0_radial_487_621)"/>
<path opacity="0.34" d="M148.092 84.4179C148.092 84.4179 136.286 73.096 139.365 74.2223C141.192 74.8898 143.987 76.158 146.048 74.8147L148.092 84.4179Z" fill="url(#paint1_radial_487_621)"/>
<path d="M114.251 57.2185L113.3 47.6403L123.437 44.4531L123.028 54.0563L121.477 55.8418L114.76 59.0707L114.251 57.2185Z" fill="#0B0623"/>
<path d="M105.824 51.5618C105.824 51.5618 109.387 54.3651 114.551 54.3651C119.708 54.3651 123.128 51.5618 123.128 51.5618L120.283 47.5653L107.977 47.849L105.824 51.5618Z" fill="url(#paint2_radial_487_621)"/>
<path d="M96.3631 28.7845C95.6038 25.0299 95.5538 21.1169 96.2296 17.3457C107.768 16.0775 119.566 15.894 131.121 16.9703C132.565 20.6497 133.157 24.838 132.707 28.8011C120.993 31.9633 108.136 31.7046 96.3631 28.7845Z" fill="#0B0623"/>
<path d="M127.634 22.6354C124.589 22.0931 121.318 23.4197 119.357 25.9811C120.909 26.5151 122.728 26.8154 124.23 26.1313C125.39 25.5973 126.366 24.7379 127.083 23.645" fill="#F16316"/>
<path d="M101.519 22.6354C104.565 22.0931 107.835 23.4197 109.796 25.9811C108.244 26.5151 106.425 26.8154 104.923 26.1313C103.764 25.5973 102.787 24.7379 102.07 23.645" fill="#F16316"/>
<path d="M131.956 21.3172C131.956 21.3172 130.404 18.2051 127.509 17.5877C127.008 17.4793 126.541 17.4542 126.09 17.496C122.811 17.8047 120.484 21.5675 115.469 22.0181C115.152 22.0514 114.819 22.0598 114.476 22.0598C108.019 22.0598 105.774 16.6533 101.436 17.5877C98.5406 18.2051 96.9888 21.3172 96.9888 21.3172C96.9888 21.3172 98.5073 4.00476 114.468 4.00476C114.752 4.00476 115.027 4.0131 115.294 4.02145C116.829 4.07985 118.223 4.30512 119.491 4.66389C130.771 7.80933 131.956 21.3172 131.956 21.3172Z" fill="url(#paint3_radial_487_621)"/>
<path d="M131.447 18.5138C131.614 17.0787 131.397 15.6854 130.663 14.3838C130.179 13.5161 129.561 12.7485 128.86 12.0727C127.017 8.96063 124.096 5.94868 119.491 4.6638C118.223 4.30504 116.829 4.08811 115.294 4.02136C116.554 4.86404 117.639 6.02377 118.448 7.3587C116.437 7.12509 114.385 7.19184 112.391 7.56729C107.501 8.48505 102.971 11.1299 99.35 14.7926C101.845 13.4994 104.832 13.6996 107.443 14.6842C110.054 15.6687 112.341 17.3707 114.618 19.0644C116.053 17.5876 117.797 16.4863 119.683 15.8189C119.015 18.3385 117.497 20.6079 115.453 22.018C120.467 21.5674 122.795 17.8046 126.074 17.4959C126.524 17.4542 127 17.4792 127.492 17.5876C130.387 18.2051 131.939 21.3171 131.939 21.3171C131.939 21.3171 131.856 20.1908 131.447 18.5138Z" fill="url(#paint4_radial_487_621)"/>
<path d="M131.956 26.9905C131.956 26.9988 131.956 27.0155 131.947 27.0239C129.511 51.4532 116.829 52.3709 114.76 52.3543C114.568 52.3543 114.468 52.3459 114.468 52.3459C114.468 52.3459 99.6335 53.6558 96.9803 26.9905C96.9803 26.9905 97.0221 27.0906 97.1472 27.2658C97.1472 27.2742 97.1556 27.2825 97.1639 27.2825C97.7146 28.0334 99.717 29.9857 105.724 30.2694C109.771 30.453 111.172 28.267 112.966 27.3659C113.425 27.1323 113.909 26.9905 114.468 26.9905C114.543 26.9905 114.618 26.9905 114.693 26.9988C117.271 27.1824 118.273 30.4947 123.203 30.2694C130.087 29.9524 131.705 27.4327 131.922 27.0405C131.947 27.0072 131.956 26.9905 131.956 26.9905Z" fill="#250F59"/>
<path d="M131.831 27.0323C129.394 51.4616 116.712 52.3794 114.643 52.3627C114.919 47.899 114.869 43.4103 114.501 38.9466C114.401 37.7451 114.301 36.4436 114.902 35.4257C115.494 34.4245 116.679 33.8738 117.038 32.7475C117.447 31.4876 116.621 30.1777 115.845 29.1431C115.394 28.5508 114.869 27.7832 114.577 26.9989C117.155 27.1825 118.156 30.4948 123.087 30.2695C129.97 29.9524 131.589 27.4328 131.806 27.0406C131.814 27.0406 131.822 27.0323 131.831 27.0323Z" fill="#0B0623"/>
<path opacity="0.7" d="M113.867 32.4637C113.851 32.931 113.834 33.4316 113.592 33.7903C113.333 34.1908 112.883 34.316 112.466 34.4161C112.207 34.4745 111.94 34.5412 111.681 34.4912C111.423 34.4411 111.156 34.2659 111.047 33.9739C110.88 33.54 111.097 33.0394 111.306 32.6306C111.865 31.5293 112.416 30.428 112.975 29.335C113.075 29.1348 113.2 28.8678 113.342 28.6258C113.559 28.267 114.018 28.4506 114.026 28.8928C114.051 30.0609 113.901 31.3291 113.867 32.4637Z" fill="white"/>
<path opacity="0.7" d="M112.975 27.3743C111.832 28.1836 111.056 29.6103 109.829 30.3112C108.544 31.0454 106.842 31.3624 105.366 31.3124C103.663 31.2456 101.853 30.8869 100.284 30.2278C98.9745 29.6771 97.9316 28.484 97.1724 27.2909C97.723 28.0418 99.7254 29.9941 105.733 30.2778C109.779 30.4614 111.181 28.2671 112.975 27.3743Z" fill="white"/>
<path d="M135.176 32.3554C133.816 41.6249 123.12 51.5618 123.12 51.5618L121.694 50.0433C121.694 50.0433 132.874 37.5616 131.731 22.0514C130.596 6.61616 114.477 16.4196 114.477 16.4196C114.477 16.4196 98.3572 6.61616 97.2225 22.0597C96.0795 37.5616 107.26 50.0516 107.26 50.0516L105.824 51.5701C105.824 51.5701 95.1367 41.6249 93.7683 32.3637C93.6348 31.4376 93.5514 30.4865 93.518 29.5353C93.493 28.8679 93.493 28.1837 93.518 27.5079C93.785 19.5817 97.0473 11.5554 99.5837 8.11796C102.596 4.03807 114.101 0.800846 114.46 0.692383C114.468 0.692383 114.468 0.692383 114.468 0.692383C114.468 0.692383 114.468 0.692383 114.477 0.692383C114.835 0.792503 126.341 4.03807 129.353 8.11796C131.664 11.2467 134.584 18.1967 135.285 25.4054C135.518 27.7332 135.51 30.0943 135.176 32.3554Z" fill="#3A1B9B"/>
<path d="M135.293 25.4053C134.384 21.4756 132.423 17.9214 129.803 14.8009C128.084 12.7568 125.148 12.0727 122.494 12.4064C119.841 12.7401 117.263 14.0167 114.86 15.2014C115.461 13.8081 116.445 12.615 117.255 11.3301C118.064 10.0452 118.715 8.56012 118.523 7.04997C118.364 5.83184 117.004 1.81869 114.468 0.700684H114.485C114.843 0.800804 126.349 4.04637 129.361 8.12627C131.672 11.2467 134.592 18.1967 135.293 25.4053Z" fill="#0B0623"/>
<path d="M122.211 50.6023C122.211 50.6023 136.261 39.2637 132.515 20.8666C132.515 20.8666 134.901 36.9275 121.693 50.0516L122.211 50.6023Z" fill="url(#paint5_radial_487_621)"/>
<path d="M106.734 50.6023C106.734 50.6023 92.6837 39.2637 96.4299 20.8666C96.4299 20.8666 94.0437 36.9275 107.251 50.0516L106.734 50.6023Z" fill="url(#paint6_radial_487_621)"/>
<path d="M96.9886 19.223C96.9886 19.223 98.6573 8.73536 106.325 6.53271C106.325 6.53271 99.5667 9.67816 96.9886 19.223Z" fill="url(#paint7_radial_487_621)"/>
<path opacity="0.7" d="M114.468 0.692383C114.134 0.825876 104.473 4.79731 101.528 8.39329C98.524 12.056 94.9865 16.8117 93.5264 29.527V27.4996C93.7934 19.5734 97.0556 11.5471 99.592 8.11796C102.604 4.03807 114.109 0.792503 114.468 0.692383Z" fill="white"/>
<path d="M118.365 64.1184C118.365 64.1184 125.623 80.5381 124.872 86.5537C124.121 92.5692 121.685 107.762 121.685 107.762C121.685 107.762 121.752 118.909 127.626 123.523L147.299 119.969L134.551 106.928L130.429 55.8418L123.012 54.048L118.365 64.1184Z" fill="#0B0623"/>
<path d="M124.13 92.5776C124.13 92.5776 156.135 95.6063 152.789 109.173C150.678 117.708 119.825 99.1355 119.825 99.1355L124.13 92.5776Z" fill="#170B3F"/>
<path d="M103.563 104.325C103.563 104.325 102.487 97.8924 104.782 95.4895C105.14 95.1141 105.532 94.9639 105.95 94.6719C105.95 94.6719 103.497 99.6362 104.64 104.325H103.563Z" fill="#0B0623"/>
<path d="M104.606 110.341L106.1 115.121L106.617 112.268L106 110.307L104.606 110.341Z" fill="#0B0623"/>
<path opacity="0.2" d="M120.325 110.132C120.325 110.132 122.386 118.033 122.778 120.261C123.162 122.489 120.283 124.85 120.283 124.85L127.626 123.523C127.626 123.523 123.362 121.529 121.827 109.974L120.325 110.132Z" fill="black"/>
<path opacity="0.2" d="M124.213 80.655C125.531 84.9018 124.589 88.7898 124.589 88.7898L123.028 100.354L122.194 100.854L123.963 85.5359C124.046 79.537 117.513 65.9791 117.513 65.9791L118.373 64.1268C118.364 64.1185 123.446 78.1937 124.213 80.655Z" fill="black"/>
<path d="M128.627 55.4081L129.211 73.5048C129.211 73.5048 128.21 59.3128 130.437 55.8419L128.627 55.4081Z" fill="#170B3F"/>
<path opacity="0.7" d="M106.025 56.1757C106.025 56.1757 95.996 58.1113 90.3225 59.246C90.3225 59.246 102.654 58.8372 106.408 57.4021L106.025 56.1757Z" fill="white"/>
<path opacity="0.7" d="M91.0817 65.3867C91.0817 65.3867 80.9028 86.6122 79.2341 94.6635C79.2341 94.6635 79.3593 89.7994 85.5083 75.1067C90.6478 62.8337 90.7396 63.1674 90.7396 63.1674L91.0733 65.078" fill="white"/>
<path opacity="0.7" d="M110.322 82.9161C110.322 82.9161 84.4321 93.6957 83.214 94.6635C83.214 94.6635 91.6741 87.2463 109.746 82.0901L110.647 82.9161H110.322Z" fill="white"/>
<path opacity="0.7" d="M107.301 61.8907C107.301 61.8907 110.088 69.3914 110.171 70.1423C110.255 70.8932 111.79 70.5511 111.79 70.5511C111.79 70.5511 110.096 71.6024 110.246 72.687C110.522 74.7395 110.78 82.4821 110.78 82.4821L110.021 81.8981C110.021 81.8981 109.796 72.7788 109.696 71.0184C109.571 69.1077 107.276 62.8002 107.301 61.8907Z" fill="white"/>
<path opacity="0.7" d="M96.0543 109.565L87.3355 120.778L84.5071 120.119L94.0602 109.248L96.0543 109.565Z" fill="white"/>
<path opacity="0.7" d="M88.5036 126.443C88.5036 126.443 84.4988 145.316 81.9708 149.846C79.4427 154.377 72.0589 173.308 71.0243 180.792C69.9897 188.276 71.7168 193.616 71.7168 193.616C71.7168 193.616 70.6071 183.103 72.7096 177.63C74.8122 172.157 80.6025 153.943 82.8134 150.998C85.0244 148.053 89.9136 128.596 89.4714 126.694L88.5036 126.443Z" fill="white"/>
<path opacity="0.7" d="M77.5572 199.556L72.134 236.96L80.0435 200.716L77.5572 199.556Z" fill="white"/>
<path d="M50.4998 253.754C50.4998 253.754 53.4867 255.215 55.0636 254.756C55.0636 254.756 52.0349 254.439 52.644 253.688C53.2531 252.937 73.9696 240.714 73.9696 240.714L71.7086 241.006L61.8133 247.313L50.4998 253.754Z" fill="#0B0623"/>
<path d="M127.634 123.523C127.634 123.523 137.162 138.574 140.166 148.57C141.793 154.001 144.429 184.021 147.316 191.747C149.744 198.246 152.347 177.663 154.683 181.993C159.798 191.48 155.351 201.033 155.351 201.033C155.351 201.033 165.646 195.877 162.868 183.37C160.657 173.433 159.639 167.518 156.602 162.003C153.19 155.795 140.166 121.254 140.166 121.254L127.634 123.523Z" fill="#0B0623" fill-opacity="0.98"/>
<path opacity="0.2" d="M126.449 125.409L128.293 124.85C128.293 124.85 139.123 141.536 140.424 149.596C141.726 157.664 144.613 178.865 144.863 180.4C145.113 181.935 146.999 190.812 146.999 190.812C146.999 190.812 143.962 183.804 141.884 171.973C139.799 160.142 137.462 143.981 132.423 135.788C127.384 127.595 126.449 125.409 126.449 125.409Z" fill="black"/>
<path opacity="0.7" d="M93.8267 76.7253L93.1258 83.5585L92.0996 88.5896L93.8267 87.7469V76.7253Z" fill="white"/>
<path d="M242.973 76.3082C251.791 109.773 204.885 149.254 136.62 165.482C70.2818 181.242 9.94272 165.14 2.1834 130.99C-3.54848 105.76 20.9476 77.3845 60.9456 58.1864" stroke="white" stroke-width="0.834335" stroke-miterlimit="10"/>
<path d="M63.2817 59.488C64.8807 59.488 66.1769 58.1918 66.1769 56.5929C66.1769 54.994 64.8807 53.6978 63.2817 53.6978C61.6828 53.6978 60.3866 54.994 60.3866 56.5929C60.3866 58.1918 61.6828 59.488 63.2817 59.488Z" stroke="white" stroke-width="0.834335" stroke-miterlimit="10"/>
<path d="M137.337 168.277C138.936 168.277 140.232 166.981 140.232 165.382C140.232 163.783 138.936 162.487 137.337 162.487C135.738 162.487 134.442 163.783 134.442 165.382C134.442 166.981 135.738 168.277 137.337 168.277Z" fill="white"/>
<path d="M216.349 132.192C217.948 132.192 219.244 130.896 219.244 129.297C219.244 127.698 217.948 126.402 216.349 126.402C214.75 126.402 213.454 127.698 213.454 129.297C213.454 130.896 214.75 132.192 216.349 132.192Z" fill="white"/>
<path d="M242.121 69.6918C242.096 69.5416 242.071 69.4165 242.046 69.2996C241.337 65.47 240.628 61.6404 239.91 57.8108C239.869 57.5856 239.885 57.4187 240.102 57.2352C240.595 56.793 240.536 56.1338 240.011 55.7834C239.477 55.4246 238.767 55.5498 238.375 56.0671C237.991 56.576 238.142 57.2185 238.759 57.4604C239.059 57.5772 239.134 57.7358 239.176 57.9861C239.877 61.8073 240.586 65.6286 241.295 69.4415C241.312 69.5499 241.337 69.6667 241.371 69.8253C240.912 69.9087 240.469 70.0088 240.027 70.0589C239.935 70.0672 239.81 69.9337 239.744 69.842C238.45 68.0815 237.157 66.3127 235.872 64.5439C234.387 62.4998 232.902 60.464 231.409 58.4199C231.283 58.253 231.267 58.1112 231.35 57.9193C232.168 56.0003 232.969 54.073 233.786 52.1541C233.836 52.0373 234.012 51.8954 234.153 51.8704C236.915 51.3448 239.685 50.8358 242.447 50.3185C242.655 50.2768 242.772 50.3269 242.906 50.4604C244.341 51.9705 245.792 53.4723 247.228 54.9908C247.328 55.0993 247.394 55.2995 247.353 55.4413C246.135 59.9968 244.9 64.5439 243.682 69.0911C243.615 69.3497 243.49 69.4582 243.198 69.4915C242.847 69.5416 242.514 69.625 242.121 69.6918Z" fill="white"/>
<path d="M244.766 74.581C244.858 75.0816 244.941 75.5238 245.025 75.991C243.59 76.258 242.188 76.5167 240.736 76.7837C240.653 76.3248 240.569 75.8742 240.478 75.3987C240.302 75.4237 240.177 75.4404 240.052 75.4571C235.864 76.233 231.675 77.0089 227.487 77.7765C227.178 77.8349 227.037 77.935 226.961 78.2187C226.711 79.1281 225.777 79.7289 224.709 79.7122C223.741 79.7038 222.898 79.0531 222.731 78.1937C222.556 77.2759 223.099 76.3999 224.1 76.0161C225.034 75.649 226.102 75.8993 226.678 76.6251C226.753 76.7169 226.82 76.8087 226.895 76.9172C230.299 76.2831 233.703 75.6573 237.107 75.0232C237.107 75.0065 237.115 74.9982 237.115 74.9815C237.007 74.9648 236.907 74.9481 236.798 74.9398C229.915 74.0387 225.176 70.7681 222.656 65.0529C222.439 64.569 222.298 64.0601 222.147 63.5595C222.089 63.3676 221.997 63.3008 221.772 63.3509C221.396 63.4343 221.013 63.4927 220.612 63.5678C220.379 62.308 220.153 61.0898 219.92 59.83C221.321 59.5713 222.731 59.3127 224.175 59.0457C224.4 60.2722 224.634 61.507 224.867 62.7752C224.308 62.8753 223.749 62.9838 223.132 63.1006C224.008 66.2877 225.827 68.8825 228.63 70.8849C231.951 73.2544 235.822 74.2973 240.244 74.0554C240.211 73.8552 240.177 73.6966 240.152 73.5464C240.127 73.3879 240.094 73.2294 240.061 73.0542C241.496 72.7872 242.906 72.5286 244.357 72.2616C244.416 72.587 244.474 72.8957 244.541 73.2628C248.27 72.078 251.249 70.0756 253.493 67.2055C255.855 64.1936 257.331 59.1709 256.53 56.9348C256.046 57.0266 255.546 57.1184 255.037 57.2102C254.803 55.942 254.57 54.7072 254.344 53.4557C255.763 53.197 257.164 52.93 258.591 52.6714C258.816 53.9062 259.05 55.141 259.284 56.4176C258.75 56.5177 258.216 56.6178 257.723 56.7096C258.074 63.8264 254.77 69.2496 247.837 73.0458C251.282 72.4118 254.736 71.7693 258.199 71.1269C258.391 70.1841 258.983 69.55 260.06 69.3331C261.136 69.1245 262.137 69.6584 262.471 70.5846C262.788 71.469 262.304 72.4702 261.344 72.929C260.368 73.3879 259.175 73.171 258.599 72.3784C258.424 72.1364 258.249 72.1031 257.949 72.1531C253.735 72.9374 249.522 73.7133 245.309 74.4976C245.133 74.5059 244.983 74.5393 244.766 74.581Z" fill="white"/>
<path d="M242.505 49.3507C239.577 49.893 236.656 50.4353 233.72 50.9777C233.486 49.7262 233.261 48.483 233.027 47.2231C235.956 46.6808 238.867 46.1385 241.813 45.5962C242.038 46.831 242.272 48.0658 242.505 49.3507Z" fill="white"/>
<path d="M162.813 137.063L158.589 129.949L159.451 129.437L163.221 135.787L166.528 133.824L166.981 134.588L162.813 137.063ZM171.929 126.84C172.374 127.59 172.624 128.319 172.677 129.026C172.731 129.734 172.609 130.376 172.313 130.953C172.017 131.53 171.565 131.998 170.958 132.358C170.351 132.719 169.724 132.891 169.076 132.875C168.427 132.859 167.805 132.658 167.21 132.272C166.614 131.887 166.094 131.319 165.649 130.568C165.203 129.818 164.954 129.089 164.9 128.382C164.847 127.675 164.968 127.032 165.265 126.455C165.561 125.879 166.013 125.41 166.619 125.05C167.226 124.69 167.854 124.518 168.502 124.533C169.15 124.549 169.772 124.75 170.368 125.136C170.963 125.522 171.484 126.09 171.929 126.84ZM171.095 127.335C170.73 126.719 170.318 126.26 169.86 125.959C169.405 125.656 168.938 125.499 168.459 125.489C167.982 125.478 167.528 125.6 167.098 125.856C166.667 126.111 166.341 126.452 166.121 126.877C165.903 127.301 165.816 127.786 165.862 128.332C165.91 128.877 166.117 129.457 166.482 130.073C166.848 130.689 167.258 131.149 167.714 131.452C168.172 131.753 168.639 131.91 169.115 131.921C169.594 131.931 170.049 131.808 170.48 131.553C170.911 131.297 171.235 130.957 171.453 130.533C171.674 130.108 171.76 129.623 171.712 129.078C171.667 128.532 171.461 127.951 171.095 127.335ZM177.449 121.759C177.233 121.57 177.008 121.421 176.773 121.31C176.539 121.195 176.297 121.122 176.048 121.092C175.8 121.061 175.548 121.074 175.291 121.132C175.035 121.191 174.778 121.296 174.521 121.449C174.099 121.699 173.781 122.035 173.565 122.458C173.349 122.88 173.265 123.364 173.313 123.909C173.361 124.454 173.568 125.034 173.933 125.65C174.299 126.266 174.711 126.725 175.168 127.026C175.626 127.328 176.096 127.483 176.577 127.491C177.058 127.5 177.519 127.374 177.959 127.113C178.366 126.871 178.674 126.571 178.881 126.213C179.089 125.851 179.185 125.459 179.169 125.036C179.154 124.61 179.017 124.179 178.759 123.744L179.056 123.643L176.916 124.913L176.462 124.149L179.172 122.54L179.625 123.304C179.973 123.89 180.15 124.474 180.157 125.056C180.167 125.636 180.023 126.175 179.727 126.673C179.432 127.168 179.002 127.583 178.437 127.918C177.807 128.292 177.166 128.473 176.513 128.46C175.862 128.445 175.241 128.244 174.65 127.855C174.062 127.465 173.545 126.895 173.1 126.145C172.766 125.582 172.54 125.032 172.424 124.493C172.309 123.951 172.296 123.438 172.386 122.956C172.475 122.474 172.66 122.035 172.939 121.641C173.219 121.246 173.586 120.914 174.043 120.643C174.418 120.42 174.801 120.269 175.193 120.19C175.585 120.108 175.97 120.094 176.347 120.149C176.725 120.2 177.084 120.317 177.425 120.5C177.764 120.681 178.068 120.924 178.338 121.231L177.449 121.759ZM186.65 118.101C187.095 118.851 187.344 119.58 187.398 120.287C187.451 120.995 187.33 121.637 187.034 122.214C186.737 122.791 186.286 123.259 185.679 123.619C185.072 123.979 184.444 124.152 183.796 124.136C183.148 124.12 182.526 123.919 181.93 123.533C181.335 123.148 180.815 122.58 180.369 121.829C179.924 121.079 179.674 120.35 179.621 119.643C179.567 118.935 179.689 118.293 179.985 117.716C180.282 117.139 180.733 116.671 181.34 116.311C181.947 115.95 182.574 115.778 183.223 115.794C183.871 115.81 184.493 116.011 185.088 116.397C185.684 116.782 186.204 117.35 186.65 118.101ZM185.816 118.596C185.45 117.98 185.038 117.521 184.581 117.22C184.125 116.917 183.658 116.76 183.179 116.75C182.703 116.739 182.249 116.861 181.818 117.117C181.388 117.372 181.062 117.713 180.842 118.138C180.623 118.562 180.537 119.047 180.583 119.593C180.63 120.138 180.837 120.718 181.203 121.334C181.568 121.95 181.979 122.41 182.434 122.712C182.892 123.014 183.359 123.17 183.836 123.182C184.315 123.192 184.77 123.069 185.2 122.813C185.631 122.558 185.956 122.218 186.174 121.794C186.394 121.369 186.48 120.884 186.433 120.339C186.387 119.793 186.182 119.212 185.816 118.596Z" fill="white"/>
<path d="M160.14 113.57C160.14 113.57 197.91 72.4035 174.857 55.6584C165.83 49.1005 179.621 89.0234 160.14 113.57Z" fill="white"/>
<path d="M172.354 112.468C172.354 112.468 193.163 102.031 186.663 92.0938C184.127 88.1974 183.576 105.794 172.354 112.468Z" fill="white"/>
</g>
<defs>
<radialGradient id="paint0_radial_487_621" cx="0" cy="0" r="1" gradientUnits="userSpaceOnUse" gradientTransform="translate(138.335 84.2555) scale(10.8284 10.8284)">
<stop stop-color="#0F0033"/>
<stop offset="1" stop-color="#060019"/>
</radialGradient>
<radialGradient id="paint1_radial_487_621" cx="0" cy="0" r="1" gradientUnits="userSpaceOnUse" gradientTransform="translate(143.475 79.2841) scale(4.88411 4.88411)">
<stop stop-color="#0F0033"/>
<stop offset="1" stop-color="#060019"/>
</radialGradient>
<radialGradient id="paint2_radial_487_621" cx="0" cy="0" r="1" gradientUnits="userSpaceOnUse" gradientTransform="translate(110.076 49.6383) scale(9.71316 9.71316)">
<stop stop-color="#1D0056"/>
<stop offset="1" stop-color="#07001E"/>
</radialGradient>
<radialGradient id="paint3_radial_487_621" cx="0" cy="0" r="1" gradientUnits="userSpaceOnUse" gradientTransform="translate(104.664 7.7002) scale(20.9194)">
<stop stop-color="#4816B5"/>
<stop offset="1" stop-color="#1D0056"/>
</radialGradient>
<radialGradient id="paint4_radial_487_621" cx="0" cy="0" r="1" gradientUnits="userSpaceOnUse" gradientTransform="translate(115.661 13.0168) scale(12.9536 13.9281)">
<stop stop-color="#1D0056"/>
<stop offset="1" stop-color="#0F0035"/>
</radialGradient>
<radialGradient id="paint5_radial_487_621" cx="0" cy="0" r="1" gradientUnits="userSpaceOnUse" gradientTransform="translate(127.423 35.7326) rotate(180) scale(10.5831 11.3792)">
<stop stop-color="#0F0033"/>
<stop offset="1" stop-color="#060019"/>
</radialGradient>
<radialGradient id="paint6_radial_487_621" cx="0" cy="0" r="1" gradientUnits="userSpaceOnUse" gradientTransform="translate(101.525 35.7326) scale(10.5831 11.3792)">
<stop stop-color="#0F0033"/>
<stop offset="1" stop-color="#060019"/>
</radialGradient>
<radialGradient id="paint7_radial_487_621" cx="0" cy="0" r="1" gradientUnits="userSpaceOnUse" gradientTransform="translate(101.658 12.8768) scale(5.31937 5.71954)">
<stop stop-color="#0F0033"/>
<stop offset="1" stop-color="#060019"/>
</radialGradient>
<clipPath id="clip0_487_621">
<rect width="261.606" height="257.451" fill="white" transform="translate(0.940186 0.692383)"/>
</clipPath>
</defs>
</svg>
