<svg width="443" height="501" viewBox="0 0 443 501" fill="none" xmlns="http://www.w3.org/2000/svg">
<circle opacity="0.97" cx="232.366" cy="256.18" r="157.17" fill="#D9D9D9"/>
<path opacity="0.88" d="M243.557 116.532C307.169 120.434 325.659 164.202 325.659 213.316C325.659 287.666 374.634 282.283 366.843 347.793C359.053 413.303 280.637 445.84 199.975 374.056C132.902 314.366 102.777 352.477 67.8438 317.955C32.9106 283.433 29.095 232.778 74.9956 201.347C102.244 182.688 110.435 200.152 142.112 164.202C174.938 126.949 199.095 113.805 243.557 116.532Z" fill="#F07E19"/>
<g clip-path="url(#clip0_658_406)">
<path d="M130.053 350.985L114.55 359.021C114.55 359.021 26.9942 402.666 17.3396 406.931C11.1287 409.674 5.73958 407.922 2.6825 406.327C0.97875 405.445 0 404.599 0 404.599L109.934 350.139L124.313 342.684L125.449 342.092L130.053 350.985Z" fill="#939393"/>
<path d="M124.942 341.838L130.017 351.553L165.517 332.92C167.161 332.063 167.801 330.02 166.943 328.377L164.986 324.631C164.128 322.988 162.086 322.348 160.442 323.205L124.942 341.838Z" fill="#170B3F"/>
<path d="M160.588 329.367L163.584 331.857L163.246 327.978L160.261 325.501L160.588 329.367Z" fill="#F16316"/>
<path d="M156.83 331.337L159.826 333.826L159.488 329.947L156.503 327.458L156.83 331.337Z" fill="#F16316"/>
<path d="M153.072 333.307L156.069 335.784L155.73 331.918L152.746 329.428L153.072 333.307Z" fill="#F16316"/>
<path d="M149.326 335.264L152.31 337.754L151.972 333.875L148.988 331.398L149.326 335.264Z" fill="#F16316"/>
<path d="M145.568 337.234L148.553 339.711L148.214 335.845L145.23 333.355L145.568 337.234Z" fill="#F16316"/>
<path d="M141.81 339.191L144.795 341.681L144.456 337.814L141.472 335.325L141.81 339.191Z" fill="#F16316"/>
<path d="M138.052 341.161L141.037 343.651L140.698 339.772L137.714 337.295L138.052 341.161Z" fill="#F16316"/>
<path d="M134.294 343.131L137.279 345.608L136.953 341.741L133.956 339.252L134.294 343.131Z" fill="#F16316"/>
<path d="M130.536 345.089L133.521 347.578L133.195 343.699L130.198 341.222L130.536 345.089Z" fill="#F16316"/>
<path d="M123.042 340.145L130.22 353.982L131.679 353.225L124.501 339.388L123.042 340.145Z" fill="#170B3F"/>
<path d="M288.087 266.952L287.344 267.695L299.673 280.024L300.416 279.281L288.087 266.952Z" fill="#E4E4E4"/>
<path d="M291.764 274.128L291.021 274.872L310.459 294.31L311.202 293.566L291.764 274.128Z" fill="#E4E4E4"/>
<path d="M342.197 185.081L278.885 248.393L324.861 294.369L388.173 231.057L342.197 185.081Z" stroke="#F16316" stroke-width="1.20833" stroke-miterlimit="10"/>
<path d="M324.86 295.099L278.158 248.397L342.2 184.355L388.902 231.057L324.86 295.099ZM279.608 248.397L324.86 293.649L387.452 231.057L342.2 185.805L279.608 248.397Z" stroke="white" stroke-width="1.20833" stroke-miterlimit="10"/>
<path d="M342.179 185.815L337.07 190.924L382.328 236.182L387.437 231.073L342.179 185.815Z" fill="#F16316"/>
<path d="M342.49 192.584C343.251 192.584 343.867 191.967 343.867 191.206C343.867 190.445 343.251 189.829 342.49 189.829C341.729 189.829 341.112 190.445 341.112 191.206C341.112 191.967 341.729 192.584 342.49 192.584Z" fill="#E4E4E4"/>
<path d="M341.161 192.536C340.424 191.799 340.424 190.602 341.161 189.877C341.898 189.14 343.094 189.14 343.831 189.877C344.568 190.614 344.568 191.811 343.831 192.548C343.082 193.273 341.886 193.273 341.161 192.536ZM343.094 190.602C342.756 190.264 342.212 190.264 341.874 190.602C341.535 190.941 341.535 191.484 341.874 191.823C342.212 192.161 342.756 192.161 343.094 191.823C343.432 191.484 343.432 190.929 343.094 190.602Z" fill="#E4E4E4"/>
<path d="M346.151 196.246C346.912 196.246 347.529 195.629 347.529 194.868C347.529 194.107 346.912 193.491 346.151 193.491C345.39 193.491 344.774 194.107 344.774 194.868C344.774 195.629 345.39 196.246 346.151 196.246Z" fill="#E4E4E4"/>
<path d="M344.81 196.197C344.073 195.46 344.073 194.264 344.81 193.539C345.547 192.802 346.743 192.802 347.48 193.539C348.217 194.276 348.217 195.472 347.48 196.209C346.743 196.934 345.547 196.934 344.81 196.197ZM346.755 194.264C346.417 193.926 345.873 193.926 345.535 194.264C345.197 194.602 345.197 195.146 345.535 195.484C345.873 195.823 346.417 195.823 346.755 195.484C347.094 195.146 347.094 194.59 346.755 194.264Z" fill="#E4E4E4"/>
<path d="M349.812 199.907C350.573 199.907 351.19 199.29 351.19 198.529C351.19 197.768 350.573 197.152 349.812 197.152C349.052 197.152 348.435 197.768 348.435 198.529C348.435 199.29 349.052 199.907 349.812 199.907Z" fill="#E4E4E4"/>
<path d="M348.471 199.858C347.734 199.121 347.734 197.925 348.471 197.2C349.208 196.463 350.404 196.463 351.141 197.2C351.879 197.937 351.879 199.133 351.141 199.87C350.404 200.595 349.208 200.595 348.471 199.858ZM350.416 197.913C350.078 197.574 349.534 197.574 349.196 197.913C348.858 198.251 348.858 198.795 349.196 199.133C349.534 199.472 350.078 199.472 350.416 199.133C350.755 198.795 350.755 198.251 350.416 197.913Z" fill="#E4E4E4"/>
<path d="M298.774 232.98L287.658 244.096L329.319 285.757L340.435 274.641L298.774 232.98Z" fill="white"/>
<path d="M285.516 246.236L284.773 246.979L294.035 256.241L294.778 255.498L285.516 246.236Z" fill="#E4E4E4"/>
<path d="M297.094 257.811L296.35 258.555L319.385 281.59L320.129 280.846L297.094 257.811Z" fill="#E4E4E4"/>
<path d="M315.598 276.316L314.854 277.059L323.911 286.116L324.655 285.372L315.598 276.316Z" fill="#E4E4E4"/>
<path d="M337.73 194.472L334.996 197.206L376.435 238.645L379.169 235.911L337.73 194.472Z" fill="white"/>
<path d="M376.444 239.371L334.273 197.2L337.729 193.744L379.9 235.915L376.444 239.371ZM335.723 197.2L376.444 237.921L378.462 235.903L337.741 195.182L335.723 197.2Z" fill="white"/>
<path d="M362.717 252.36C362.125 252.952 361.147 252.952 360.554 252.36L321.284 213.089C320.692 212.497 320.692 211.518 321.284 210.926L331.941 200.269C332.533 199.677 333.512 199.677 334.104 200.269L373.375 239.54C373.967 240.132 373.967 241.11 373.375 241.702L362.717 252.36Z" fill="white"/>
<path d="M360.192 252.723L320.921 213.452C320.124 212.654 320.124 211.361 320.921 210.564L331.579 199.906C332.376 199.109 333.669 199.109 334.467 199.906L373.737 239.177C374.535 239.975 374.535 241.268 373.737 242.065L363.08 252.723C362.282 253.52 360.989 253.52 360.192 252.723ZM333.754 200.631C333.355 200.233 332.702 200.233 332.304 200.631L321.646 211.289C321.247 211.688 321.247 212.34 321.646 212.739L360.917 252.01C361.316 252.408 361.968 252.408 362.367 252.01L373.024 241.352C373.423 240.953 373.423 240.301 373.024 239.902L333.754 200.631Z" fill="white"/>
<path d="M339.916 264.287C339.324 264.879 338.478 265.024 338.043 264.589L309.696 236.241C309.261 235.806 309.406 234.972 309.998 234.368L320.655 223.711C321.247 223.119 322.093 222.974 322.528 223.409L350.876 251.756C351.311 252.191 351.166 253.025 350.574 253.629L339.916 264.287Z" fill="white"/>
<path d="M357.182 188.694L356.439 189.437L362.138 195.136L362.881 194.393L357.182 188.694Z" fill="#E4E4E4"/>
<path d="M358.366 193.221L357.623 193.964L375.924 212.266L376.667 211.522L358.366 193.221Z" fill="#E4E4E4"/>
<path d="M350.369 228.726L348.447 221.56C348.411 221.415 348.326 221.282 348.23 221.173C347.891 220.835 347.348 220.835 347.009 221.173L341.765 226.418C341.427 226.756 341.427 227.3 341.765 227.638C341.874 227.747 342.007 227.819 342.152 227.856L349.317 229.777C349.619 229.861 349.934 229.777 350.151 229.559C350.369 229.33 350.453 229.028 350.369 228.726Z" fill="#F16316"/>
<path d="M295.494 243.122L292.666 245.95L327.312 280.596L330.141 277.768L295.494 243.122Z" fill="#F16316"/>
<path d="M327.313 281.324L291.946 245.956L295.498 242.404L330.866 277.772L327.313 281.324ZM293.383 245.944L327.313 279.874L329.416 277.772L295.486 243.842L293.383 245.944Z" fill="white"/>
<path d="M295.484 243.123L292.656 245.951L323.474 276.77L326.302 273.942L295.484 243.123Z" fill="#F16316"/>
<path d="M323.483 277.494L291.933 245.944L295.486 242.391L327.035 273.941L323.483 277.494ZM293.383 245.944L323.483 276.044L325.585 273.941L295.486 243.841L293.383 245.944Z" fill="white"/>
<path d="M300.215 238.39L297.387 241.218L332.034 275.865L334.862 273.037L300.215 238.39Z" fill="white"/>
<path d="M332.038 276.587L296.67 241.219L300.222 237.667L335.59 273.035L332.038 276.587ZM298.12 241.219L332.05 275.149L334.152 273.047L300.222 239.117L298.12 241.219Z" fill="#F16316"/>
<path d="M300.21 238.391L297.382 241.219L311.591 255.428L314.419 252.6L300.21 238.391Z" fill="white"/>
<path d="M311.605 256.154L296.67 241.219L300.222 237.667L315.157 252.602L311.605 256.154ZM298.12 241.219L311.605 254.704L313.707 252.602L300.222 239.117L298.12 241.219Z" fill="#F16316"/>
<path d="M72.198 275.415C73.938 276.382 74.5663 278.605 73.5996 280.345L52.1879 318.807C51.2213 320.547 48.9979 321.175 47.2579 320.208L8.79669 298.797C7.05669 297.83 6.42836 295.607 7.39503 293.867L28.8067 255.405C29.7734 253.665 31.9967 253.037 33.7367 254.004L72.198 275.415Z" fill="#F16316"/>
<path d="M74.6508 280.925L53.2391 319.386C51.9462 321.718 48.9979 322.552 46.6658 321.259L8.20454 299.848C5.87246 298.555 5.03871 295.606 6.33163 293.274L27.7433 254.813C29.0362 252.481 31.9845 251.647 34.3166 252.94L72.7779 274.352C75.11 275.645 75.9558 278.593 74.6508 280.925ZM8.44621 294.458C7.79371 295.618 8.21663 297.093 9.37663 297.745L47.8379 319.157C48.9979 319.809 50.4721 319.386 51.1246 318.226L72.5362 279.765C73.1887 278.605 72.7658 277.131 71.6058 276.478L33.1445 255.067C31.9845 254.414 30.5104 254.837 29.8579 255.997L8.44621 294.458Z" fill="white"/>
<path d="M33.071 259.872L13.4465 295.123L43.6718 311.95L63.2962 276.699L33.071 259.872Z" fill="white"/>
<path d="M64.9479 276.249L44.1404 313.61L11.8054 295.606L32.6129 258.245L64.9479 276.249ZM43.21 310.324L61.6613 277.179L33.5433 261.519L15.0921 294.664L43.21 310.324Z" fill="#E4E4E4"/>
<path d="M43.307 280.901L45.917 286.931L32.1541 287.305L45.1799 308.403L50.8228 298.265L57.2995 286.616L61.2145 279.584L43.307 280.901Z" fill="#F16316"/>
<path d="M63.3653 278.218L45.2282 310.783L30.0273 286.157L44.1044 285.77L41.5307 279.813L63.3653 278.218ZM45.1194 306.01L59.0636 280.949L45.0832 281.976L47.7294 288.09L34.2807 288.453L45.1194 306.01Z" fill="#F16316"/>
<path d="M34.7759 278.774C36.7779 278.774 38.4009 277.151 38.4009 275.149C38.4009 273.147 36.7779 271.524 34.7759 271.524C32.7738 271.524 31.1509 273.147 31.1509 275.149C31.1509 277.151 32.7738 278.774 34.7759 278.774Z" stroke="#F16316" stroke-width="1.20833" stroke-miterlimit="10"/>
<path d="M38.9931 277.506C37.7002 279.826 34.7519 280.671 32.4198 279.366C30.0877 278.074 29.2419 275.125 30.5348 272.793C31.8277 270.461 34.776 269.627 37.1081 270.92C39.4523 272.225 40.286 275.174 38.9931 277.506ZM32.6494 273.977C31.9969 275.137 32.4319 276.611 33.5919 277.264C34.7519 277.916 36.226 277.494 36.8785 276.334C37.531 275.174 37.1081 273.699 35.936 273.047C34.776 272.394 33.3019 272.817 32.6494 273.977Z" stroke="#F16316" stroke-width="1.20833" stroke-miterlimit="10"/>
<path d="M201.55 97.8993L141.81 78.7109C138.741 77.7201 137.037 74.4214 138.028 71.3401L148.516 38.6909C149.507 35.6218 152.806 33.918 155.887 34.9088L215.627 54.0972C218.696 55.088 220.4 58.3868 219.409 61.468L208.921 94.1172C207.918 97.1864 204.619 98.8901 201.55 97.8993ZM155.138 37.2047C153.338 36.6247 151.392 37.6276 150.812 39.428L140.324 72.0772C139.744 73.8776 140.735 75.823 142.547 76.403L202.287 95.5914C204.088 96.1714 206.033 95.1684 206.613 93.368L217.101 60.7188C217.681 58.9184 216.69 56.973 214.878 56.393L155.138 37.2047Z" stroke="white" stroke-width="1.20833" stroke-miterlimit="10"/>
<path d="M187.026 74.9891C182.869 73.6599 180.573 69.1891 181.914 65.0324C183.256 60.8758 187.714 58.5799 191.871 59.9212C193.816 60.5495 195.436 61.8908 196.414 63.7154L197.006 64.827L195.883 65.3829C194.517 66.0474 193.514 67.1954 193.055 68.6333C192.596 70.0591 192.741 71.5816 193.454 72.9229L194.046 74.0345L192.91 74.5904C191.061 75.4604 188.971 75.6174 187.026 74.9891ZM191.122 62.217C188.234 61.2866 185.129 62.8816 184.198 65.7695C183.268 68.6574 184.863 71.7629 187.751 72.6933C188.729 73.0074 189.769 73.0316 190.759 72.7779C190.228 71.1949 190.216 69.4912 190.735 67.872C191.255 66.2529 192.258 64.8754 193.623 63.8966C192.971 63.1112 192.113 62.5312 191.122 62.217Z" stroke="white" stroke-width="1.20833" stroke-miterlimit="10"/>
<path d="M201.707 64.2114C199.991 63.6555 198.215 63.8489 196.704 64.5859C195.122 65.3593 193.841 66.7489 193.261 68.5493C192.681 70.3618 192.91 72.2226 193.744 73.7814C194.542 75.2555 195.871 76.4397 197.587 76.9955C201.115 78.1314 204.897 76.1859 206.033 72.6576C207.169 69.1293 205.235 65.3472 201.707 64.2114Z" fill="white"/>
<path d="M197.236 78.143C195.291 77.5147 193.684 76.1734 192.693 74.3488C191.654 72.4276 191.448 70.2405 192.113 68.1743C192.777 66.1201 194.215 64.4526 196.173 63.498C198.022 62.5918 200.124 62.4347 202.069 63.063C206.226 64.4043 208.522 68.863 207.181 73.0197C205.864 77.1763 201.393 79.4722 197.236 78.143ZM201.344 65.3588C199.991 64.9238 198.541 65.0326 197.248 65.6609C195.883 66.3255 194.88 67.4855 194.421 68.9113C193.962 70.3372 194.107 71.8597 194.819 73.2009C195.496 74.4697 196.62 75.4001 197.973 75.8351C200.861 76.7655 203.967 75.1705 204.897 72.2826C205.827 69.3947 204.232 66.2893 201.344 65.3588Z" fill="white"/>
<path d="M162.642 62.8941C162.4 63.6553 161.59 64.0662 160.841 63.8245L151.501 60.8278C150.752 60.5862 150.329 59.7766 150.57 59.0274L152.322 53.5537C152.564 52.7924 153.374 52.3816 154.123 52.6233L163.463 55.6199C164.212 55.8616 164.635 56.6712 164.394 57.4203L162.642 62.8941Z" fill="white"/>
<path d="M160.467 64.9724L151.126 61.9757C149.737 61.5286 148.976 60.0424 149.423 58.6528L151.175 53.179C151.622 51.7895 153.108 51.0282 154.498 51.4753L163.838 54.472C165.228 54.9191 165.989 56.4053 165.542 57.7949L163.79 63.2686C163.343 64.6582 161.856 65.4195 160.467 64.9724ZM153.761 53.7711C153.64 53.7349 153.519 53.7953 153.471 53.9161L151.719 59.3899C151.682 59.5107 151.743 59.6315 151.864 59.6799L161.204 62.6765C161.325 62.7128 161.446 62.6524 161.494 62.5316L163.246 57.0578C163.282 56.937 163.222 56.8161 163.101 56.7678L153.761 53.7711Z" fill="white"/>
<path d="M176.501 52.4781C176.392 52.8165 176.018 53.0098 175.679 52.9011L155.754 46.4969C155.415 46.3881 155.222 46.0256 155.331 45.6752L156.128 43.1861C156.237 42.8477 156.6 42.6544 156.95 42.7631L176.875 49.1673C177.214 49.2761 177.407 49.6386 177.298 49.989L176.501 52.4781Z" fill="white"/>
<path d="M175.305 54.0488L155.38 47.6446C154.401 47.3305 153.869 46.2792 154.183 45.3005L154.981 42.8113C155.295 41.8325 156.346 41.3009 157.325 41.615L177.25 48.0192C178.229 48.3334 178.761 49.3846 178.447 50.3634L177.649 52.8525C177.335 53.8192 176.284 54.363 175.305 54.0488ZM156.648 45.518L175.51 51.5717L175.97 50.1459L157.107 44.0921L156.648 45.518Z" fill="white"/>
<path d="M201.816 87.9792C201.707 88.3175 201.332 88.5108 200.97 88.39L147.803 71.3042C147.453 71.1954 147.247 70.8208 147.356 70.4825L148.154 67.9933C148.262 67.655 148.637 67.4617 148.999 67.5825L202.166 84.6683C202.517 84.7771 202.722 85.1517 202.613 85.49L201.816 87.9792Z" fill="#F16316"/>
<path d="M200.608 89.5378L147.441 72.4519C146.45 72.1378 145.906 71.0865 146.221 70.1078L147.018 67.6186C147.332 66.6398 148.396 66.1082 149.386 66.4223L202.553 83.5082C203.544 83.8223 204.088 84.8736 203.773 85.8524L202.976 88.3415C202.662 89.3203 201.599 89.8519 200.608 89.5378ZM148.686 70.3253L200.837 87.0848L201.296 85.659L149.145 68.8994L148.686 70.3253Z" fill="white"/>
<path d="M248.711 443.289C248.711 448.836 225.487 453.331 196.826 453.331C168.176 453.331 144.94 448.836 144.94 443.289C144.94 437.743 168.164 433.248 196.826 433.248C225.475 433.248 248.711 437.743 248.711 443.289Z" fill="white"/>
<path d="M254.632 35.0058C254.632 35.0058 229.704 11.407 220.388 8.22909C220.388 8.22909 228.859 -5.83591 245.642 2.81575C262.426 11.4795 262.946 14.5849 271.38 15.7449C279.814 16.8928 287.789 23.3212 283.608 30.3053C279.439 37.2774 276.117 41.132 276.117 41.132L254.632 35.0058Z" fill="#170B3F"/>
<path d="M244.627 102.563L255.744 31.187C255.744 31.187 271.102 29.9062 278.098 37.7725L280.793 108.847C280.781 108.847 253.025 119.178 244.627 102.563Z" fill="#0B0623" fill-opacity="0.98"/>
<path d="M202.988 410.918L199.049 417.02L161.977 438.891C161.977 438.891 173.287 447.276 193.527 441.174C213.778 435.072 226.925 435.834 226.925 435.834L222.454 418.542L202.988 410.918Z" fill="#170B3F"/>
<path d="M193.527 355.999C193.527 355.999 200.632 400.998 199.049 417.02C199.049 417.02 207.991 426.179 222.454 418.543L231.662 349.39L193.527 355.999Z" fill="#0B0623" fill-opacity="0.98"/>
<path d="M146.716 320.401C146.716 320.401 157.676 334.889 154.691 341.414C151.706 347.939 135.587 352.942 132.603 350.658C129.618 348.374 130.017 340.569 130.017 340.569L135.756 322.685L146.716 320.401Z" fill="#493022"/>
<path d="M142.16 322.698C142.16 322.698 148.118 329.223 140.928 338.805C140.928 338.805 147.586 336.098 148.903 338.805C148.903 338.805 140.227 345.414 129.533 344.568C118.84 343.723 136.191 323.725 136.191 323.725L142.16 322.698Z" fill="#664230"/>
<path d="M100.437 209.09C100.437 209.09 112.593 232.713 114.574 249.376C116.616 266.558 121.74 294.978 133.05 295.232C144.36 295.486 156.975 292.441 155.67 278.194C154.353 263.96 136.469 221.608 136.469 221.608L100.437 209.09Z" fill="#250F59"/>
<path opacity="0.2" d="M102.153 212.594L146.088 245.968L136.457 221.608L102.153 212.594Z" fill="black"/>
<path d="M196.934 250.995C197.986 272.866 196.934 292.187 192.198 309.986C187.461 327.785 174.628 341.004 184.066 355.758C193.515 370.499 233.414 364.651 245.413 347.879C257.411 331.096 250.222 300.646 250.306 287.874C250.633 239.19 263.719 214.818 276.6 179.389C289.481 143.961 292.381 104.05 272.661 92.3531C252.941 80.6564 237.22 93.8756 233.776 106.334C230.321 118.791 232.773 167.693 222.056 184.017C209.441 203.218 196.934 250.995 196.934 250.995Z" fill="#250F59"/>
<path opacity="0.2" d="M246.971 167.765C241.183 165.614 232.882 170.266 225.717 175.801C224.702 179.003 223.505 181.806 222.068 183.993C209.44 203.218 196.946 250.983 196.946 250.983C197.321 258.741 197.405 266.172 197.188 273.337C201.961 283.004 228.593 257.967 228.593 257.967L224.726 224.75L247.515 216.944C247.515 216.944 259.236 172.345 246.971 167.765Z" fill="black"/>
<path d="M190.542 229.547C190.542 229.547 191.859 249.738 194.119 264.311C196.378 278.883 226.127 250.898 226.127 250.898L222.273 217.681L245.062 209.875C245.062 209.875 256.783 165.276 244.518 160.696C232.242 156.117 208.607 182.253 208.607 182.253L190.542 229.547Z" fill="#250F59"/>
<path d="M184.077 233.51L198.082 234.985C198.082 234.985 222.454 220.581 215.264 179.389L204.921 180.066L184.077 233.51Z" fill="#0B0623" fill-opacity="0.98"/>
<path d="M108.327 174.194L118.139 184.162C118.139 184.162 104.11 202.312 93.5977 208.051C93.5977 208.051 137.267 234.018 184.078 233.511C184.078 233.511 206.323 204.982 206.927 182.604C207.012 179.474 206.396 173.251 201.937 171.064C197.466 168.877 192.995 175.378 185.105 172.127C177.214 168.877 151.441 139.647 151.441 139.647L132.24 167.185L124.084 158.244L108.327 174.194Z" fill="#250F59"/>
<path opacity="0.2" d="M174.169 163.488L147.054 178.06C151.658 181.456 157.518 184.646 163.125 179.861C167.632 177.758 177.673 173.517 183.328 171.148C180.924 169.614 177.685 166.811 174.169 163.488Z" fill="black"/>
<path d="M130.017 292.054C130.017 292.054 140.408 282.388 150.268 288.236L147.767 322.565C147.767 322.565 140.795 327.011 134.886 325.356L130.017 292.054Z" fill="#170B3F"/>
<path d="M132.252 167.173C132.252 167.173 134.101 178.797 118.139 184.162L159.101 192.548L132.252 167.173Z" fill="#0B0623" fill-opacity="0.98"/>
<path d="M137.859 228.073L103.071 200.704C99.9896 203.205 96.8358 205.404 93.9841 206.758C93.9841 206.758 112.145 219.022 137.859 228.073Z" fill="#0B0623" fill-opacity="0.98"/>
<path d="M151.452 139.635L145.713 147.876C149.06 153.507 159.089 166.968 178.809 167.68C168.176 158.618 151.452 139.635 151.452 139.635Z" fill="#0B0623" fill-opacity="0.98"/>
<path d="M151.452 139.635C153.845 134.222 165.65 134.79 186.869 120.386C208.075 105.983 223.336 112.424 225.088 125.981C226.84 139.539 217.609 148.287 201.647 154.232C190.639 158.328 178.628 164.624 171.789 165.3C164.95 165.989 147.066 149.568 151.452 139.635Z" fill="#250F59"/>
<path d="M154.075 166.448C154.075 166.448 173.13 150.679 180.694 142.547C188.258 134.415 197.599 118.924 210.214 125.268C222.841 131.612 217.319 146.233 210.214 150.679C203.109 155.126 161.433 176.743 161.433 176.743L154.075 166.448Z" fill="#170B3F"/>
<path d="M156.576 168.357L162.497 173.819C162.497 173.819 161.373 180.308 155.754 180.936C150.135 181.576 141.061 178.519 137.774 166.823L142.644 165.312C142.644 165.312 142.378 158.932 141.254 155.501C140.143 152.069 136.191 144.758 141.254 143.2L156.576 168.357Z" fill="#493022"/>
<path d="M162.497 173.831C162.497 173.831 159.742 178.785 155.005 177.142C150.268 175.487 148.456 159.621 145.93 155.404C143.405 151.187 138.572 144.855 143.175 141.544L150.776 153.495L157.24 164.177C157.228 164.164 161.965 168.49 162.497 173.831Z" fill="#664230"/>
<path opacity="0.2" d="M143.369 165.324C143.369 165.324 147.767 165.916 148.093 166.327C148.432 166.726 146.377 169.445 142.197 169.203C142.197 169.203 147.259 170.484 148.637 167.173C150.014 163.862 143.369 165.324 143.369 165.324Z" fill="black"/>
<path opacity="0.2" d="M131.068 165.88L124.096 158.243L108.315 174.205L116.435 182.458C124.917 178.241 129.34 169.952 131.068 165.88Z" fill="black"/>
<path opacity="0.7" d="M125.86 345.62L2.6825 406.326C0.97875 405.444 0 404.598 0 404.598L109.934 350.139L124.313 342.683L125.86 345.62Z" fill="white"/>
<path d="M110.756 181.153C110.756 181.153 117.305 180.694 122.839 175.679C128.373 170.665 129.328 164.333 129.328 164.333L122.392 162.81L109.463 175.087L110.756 181.153Z" fill="url(#paint0_radial_658_406)"/>
<path d="M78.457 165.892C73.9861 162.605 70.1316 158.437 67.1953 153.736C78.3482 141.158 90.8424 129.497 104.279 119.408C109.402 121.945 114.103 125.872 117.474 130.56C107.989 145.363 93.9357 157.591 78.457 165.892Z" fill="#0B0623"/>
<path d="M106.056 128.893C102.261 131.273 100.038 135.877 100.425 140.541C102.612 139.611 104.859 138.161 105.79 135.962C106.515 134.258 106.732 132.385 106.43 130.512" fill="#F16316"/>
<path d="M78.0222 154.28C80.7651 150.739 85.5743 148.975 90.166 149.821C89.0181 151.899 87.3626 153.99 85.0789 154.715C83.3147 155.271 81.4297 155.295 79.5931 154.812" fill="#F16316"/>
<path d="M109.415 123.274C109.415 123.274 104.726 121.437 101.017 123.588C100.376 123.963 99.8567 124.386 99.4097 124.869C96.1955 128.385 97.3434 134.693 92.4013 140.046C92.0872 140.384 91.7488 140.722 91.3743 141.061C84.4384 147.332 76.7776 143.719 73.0317 148.927C70.5184 152.407 71.8838 157.252 71.8838 157.252C71.8838 157.252 56.683 137.194 73.8292 121.679C74.1313 121.401 74.4334 121.135 74.7355 120.894C76.4392 119.468 78.1551 118.356 79.8588 117.498C95.0113 109.934 109.415 123.274 109.415 123.274Z" fill="url(#paint1_radial_658_406)"/>
<path d="M106.14 120.761C104.919 119.045 103.349 117.776 101.282 117.087C99.917 116.628 98.5153 116.411 97.1016 116.35C92.0991 114.804 86.0332 114.405 79.8345 117.498C78.1307 118.344 76.4149 119.468 74.7111 120.894C76.8861 120.567 79.1699 120.761 81.3449 121.413C78.9524 123.117 76.8257 125.183 75.0495 127.527C70.6995 133.267 68.3916 140.517 68.0774 147.96C69.5032 144.142 72.8986 141.459 76.6686 139.973C80.4386 138.487 84.5349 138.1 88.6311 137.689C88.7278 134.717 89.5374 131.829 90.9149 129.279C92.6549 132.627 93.2228 136.542 92.4011 140.046C97.3432 134.693 96.1953 128.385 99.4095 124.869C99.8566 124.386 100.388 123.951 101.017 123.588C104.726 121.437 109.414 123.274 109.414 123.274C109.414 123.274 108.206 122.162 106.14 120.761Z" fill="url(#paint2_radial_658_406)"/>
<path d="M114.937 129.364C114.949 129.376 114.961 129.388 114.961 129.412C136.095 158.002 123.371 171.317 121.135 173.323C120.93 173.504 120.809 173.589 120.809 173.589C120.809 173.589 106.152 189.418 77.3938 163.367C77.3938 163.367 77.5388 163.427 77.8409 163.499C77.853 163.512 77.865 163.512 77.8771 163.512C79.2063 163.777 83.2421 163.934 89.9725 158.4C94.4917 154.667 93.8755 150.957 94.9267 148.25C95.1925 147.562 95.5671 146.933 96.1713 146.377C96.2559 146.305 96.3405 146.232 96.425 146.16C99.3734 143.852 103.663 146.438 108.738 141.399C115.831 134.367 115.106 130.089 114.961 129.461C114.937 129.4 114.937 129.364 114.937 129.364Z" fill="#250F59"/>
<path d="M114.828 129.533C135.962 158.134 123.238 171.438 121.003 173.444C116.955 168.381 112.544 163.608 107.808 159.185C106.539 157.989 105.161 156.696 104.823 155.017C104.485 153.361 105.222 151.621 104.521 150.062C103.723 148.31 101.585 147.718 99.736 147.356C98.6727 147.15 97.3677 146.836 96.2922 146.28C99.2406 143.972 103.53 146.558 108.605 141.52C115.686 134.487 114.973 130.21 114.828 129.581C114.816 129.557 114.828 129.545 114.828 129.533Z" fill="#0B0623"/>
<path opacity="0.7" d="M100.823 152.829C101.258 153.337 101.717 153.905 101.826 154.521C101.935 155.21 101.572 155.778 101.222 156.285C101.005 156.599 100.775 156.926 100.449 157.131C100.122 157.336 99.6754 157.397 99.2646 157.191C98.6604 156.877 98.4067 156.14 98.2375 155.5C97.7663 153.784 97.295 152.056 96.8237 150.34C96.7392 150.026 96.6063 149.615 96.5338 149.229C96.4129 148.636 97.0896 148.383 97.5246 148.854C98.6846 150.074 99.76 151.573 100.823 152.829Z" fill="white"/>
<path opacity="0.7" d="M94.9146 148.238C94.4796 150.22 95.0354 152.504 94.395 154.449C93.7304 156.491 92.22 158.485 90.5767 159.862C88.6917 161.445 86.3958 162.823 84.0637 163.632C82.1183 164.321 79.8467 164.055 77.865 163.512C79.1942 163.777 83.23 163.934 89.9604 158.4C94.4917 154.654 93.8633 150.945 94.9146 148.238Z" fill="white"/>
<path d="M123.6 131.998C131.14 143.272 129.328 164.333 129.328 164.333L126.319 164.092C126.319 164.092 126.186 139.816 109.886 124.289C93.6579 108.822 85.8884 135.019 85.8884 135.019C85.8884 135.019 59.0513 140.167 72.8384 157.845C86.6859 175.595 110.816 178.132 110.816 178.132L110.756 181.153C110.756 181.153 89.61 180.875 79.1459 172.248C78.0946 171.378 77.0917 170.447 76.125 169.457C75.4484 168.768 74.7838 168.031 74.1554 167.282C66.7363 158.521 62.4346 146.728 61.8184 140.577C61.0813 133.267 70.2888 118.598 70.5788 118.151C70.5788 118.139 70.5909 118.139 70.5909 118.139C70.5909 118.139 70.5909 118.139 70.6029 118.127C71.0863 117.885 86.5892 110.188 93.7909 111.638C99.325 112.75 109.209 117.377 116.967 124.434C119.468 126.706 121.752 129.243 123.6 131.998Z" fill="#3A1B9B"/>
<path d="M116.967 124.422C112.17 121.087 106.611 119.178 100.763 118.38C96.9325 117.86 93.1142 119.975 90.5887 122.911C88.0633 125.848 86.5408 129.726 85.115 133.327C84.4021 131.249 84.3054 129.013 83.9187 126.85C83.5321 124.688 82.7829 122.452 81.1154 121.026C79.7621 119.866 74.3971 116.882 70.5908 118.15L70.615 118.126C71.0983 117.885 86.6012 110.188 93.8029 111.638C99.325 112.749 109.209 117.365 116.967 124.422Z" fill="#0B0623"/>
<path d="M127.419 164.188C127.419 164.188 131.479 138.354 109.572 122.247C109.572 122.247 127.745 137.17 126.319 164.091L127.419 164.188Z" fill="url(#paint3_radial_658_406)"/>
<path d="M110.804 179.232C110.804 179.232 84.6922 180.718 70.8447 157.325C70.8447 157.325 83.8947 176.888 110.828 178.132L110.804 179.232Z" fill="url(#paint4_radial_658_406)"/>
<path d="M69.8415 155.017C69.8415 155.017 61.4436 142.136 67.5336 132.324C67.5215 132.324 63.3286 142.257 69.8415 155.017Z" fill="url(#paint5_radial_658_406)"/>
<path opacity="0.7" d="M70.591 118.139C70.3735 118.61 63.8606 132.264 64.1868 138.982C64.5251 145.834 65.3589 154.377 76.1372 169.445L74.1676 167.27C66.7485 158.509 62.4468 146.716 61.8306 140.565C61.0935 133.267 70.301 118.598 70.591 118.139Z" fill="white"/>
<path d="M174.991 295.244C174.991 295.244 312.608 253.484 334.273 87.0725" stroke="white" stroke-width="1.20833" stroke-miterlimit="10"/>
<path d="M171.994 300.15C174.016 300.15 175.655 298.511 175.655 296.489C175.655 294.467 174.016 292.827 171.994 292.827C169.972 292.827 168.333 294.467 168.333 296.489C168.333 298.511 169.972 300.15 171.994 300.15Z" stroke="white" stroke-width="1.20833" stroke-miterlimit="10"/>
<path d="M275.428 229.028C277.45 229.028 279.089 227.388 279.089 225.366C279.089 223.344 277.45 221.705 275.428 221.705C273.406 221.705 271.766 223.344 271.766 225.366C271.766 227.388 273.406 229.028 275.428 229.028Z" fill="white"/>
<path d="M330.141 115.674C332.163 115.674 333.802 114.035 333.802 112.013C333.802 109.991 332.163 108.351 330.141 108.351C328.119 108.351 326.48 109.991 326.48 112.013C326.48 114.035 328.119 115.674 330.141 115.674Z" fill="white"/>
<path d="M303.835 115.178C311.597 115.178 317.888 108.887 317.888 101.125C317.888 93.3642 311.597 87.0725 303.835 87.0725C296.074 87.0725 289.782 93.3642 289.782 101.125C289.782 108.887 296.074 115.178 303.835 115.178Z" stroke="white" stroke-width="1.20833" stroke-miterlimit="20" stroke-dasharray="4.83 4.83"/>
<path d="M84.0878 266.038C91.849 266.038 98.1408 259.747 98.1408 251.986C98.1408 244.224 91.849 237.933 84.0878 237.933C76.3266 237.933 70.0349 244.224 70.0349 251.986C70.0349 259.747 76.3266 266.038 84.0878 266.038Z" stroke="white" stroke-width="1.20833" stroke-miterlimit="20" stroke-dasharray="4.83 4.83"/>
<path d="M102.455 291.402C107.246 291.402 111.13 287.518 111.13 282.726C111.13 277.934 107.246 274.05 102.455 274.05C97.6631 274.05 93.7788 277.934 93.7788 282.726C93.7788 287.518 97.6631 291.402 102.455 291.402Z" stroke="white" stroke-width="1.20833" stroke-miterlimit="20" stroke-dasharray="4.83 4.83"/>
<path d="M333.536 168.841C338.328 168.841 342.212 164.956 342.212 160.165C342.212 155.373 338.328 151.489 333.536 151.489C328.745 151.489 324.86 155.373 324.86 160.165C324.86 164.956 328.745 168.841 333.536 168.841Z" stroke="white" stroke-width="1.20833" stroke-miterlimit="10"/>
</g>
<defs>
<radialGradient id="paint0_radial_658_406" cx="0" cy="0" r="1" gradientUnits="userSpaceOnUse" gradientTransform="translate(113.45 174.957) rotate(-42.1588) scale(14.0674)">
<stop stop-color="#1D0056"/>
<stop offset="1" stop-color="#07001E"/>
</radialGradient>
<radialGradient id="paint1_radial_658_406" cx="0" cy="0" r="1" gradientUnits="userSpaceOnUse" gradientTransform="translate(66.8721 135.194) rotate(-42.1588) scale(30.2973)">
<stop stop-color="#4816B5"/>
<stop offset="1" stop-color="#1D0056"/>
</radialGradient>
<radialGradient id="paint2_radial_658_406" cx="0" cy="0" r="1" gradientUnits="userSpaceOnUse" gradientTransform="translate(83.8493 130.207) rotate(-42.1645) scale(18.7604 20.171)">
<stop stop-color="#1D0056"/>
<stop offset="1" stop-color="#0F0035"/>
</radialGradient>
<radialGradient id="paint3_radial_658_406" cx="0" cy="0" r="1" gradientUnits="userSpaceOnUse" gradientTransform="translate(118.582 143.195) rotate(137.836) scale(15.3272 16.4796)">
<stop stop-color="#0F0033"/>
<stop offset="1" stop-color="#060019"/>
</radialGradient>
<radialGradient id="paint4_radial_658_406" cx="0" cy="0" r="1" gradientUnits="userSpaceOnUse" gradientTransform="translate(90.7577 168.333) rotate(-42.1645) scale(15.3272 16.4796)">
<stop stop-color="#0F0033"/>
<stop offset="1" stop-color="#060019"/>
</radialGradient>
<radialGradient id="paint5_radial_658_406" cx="0" cy="0" r="1" gradientUnits="userSpaceOnUse" gradientTransform="translate(68.6812 143.669) rotate(-42.1644) scale(7.7039 8.28316)">
<stop stop-color="#0F0033"/>
<stop offset="1" stop-color="#060019"/>
</radialGradient>
<clipPath id="clip0_658_406">
<rect width="389.76" height="453.343" fill="white"/>
</clipPath>
</defs>
</svg>
