<svg width="135" height="135" viewBox="0 0 135 135" fill="none" xmlns="http://www.w3.org/2000/svg">
<path d="M101.118 101.118C119.733 82.5024 119.733 52.3211 101.118 33.7058C82.5024 15.0906 52.3211 15.0906 33.7058 33.7058C15.0905 52.3211 15.0905 82.5024 33.7058 101.118C52.3211 119.733 82.5024 119.733 101.118 101.118Z" fill="#006FBF"/>
<path d="M45.7782 89.2769L38.4353 92.6472L32.5533 79.8324L39.8994 76.4622L45.7782 89.2769Z" fill="url(#paint0_linear_728_249)"/>
<path d="M40.3447 76.552L32.2938 80.2138L18.9376 50.7398C18.3161 49.375 18.9183 47.7635 20.2863 47.142L23.3907 45.7292C24.7555 45.1077 26.3669 45.71 26.9885 47.078L40.3447 76.552Z" fill="url(#paint1_linear_728_249)"/>
<path d="M23.833 50.9319L20.6965 51.0313L22.8302 48.7342L25.9666 48.6349L23.833 50.9319Z" fill="white"/>
<path d="M25.249 54.049L22.1125 54.1451L24.2494 51.8481L27.3826 51.7488L25.249 54.049Z" fill="white"/>
<path d="M26.6647 57.1632L23.5283 57.2625L25.6652 54.9622L28.8016 54.8629L26.6647 57.1632Z" fill="white"/>
<path d="M28.0808 60.2772L24.9476 60.3765L27.0813 58.0762L30.2177 57.9769L28.0808 60.2772Z" fill="white"/>
<path d="M29.5002 63.3912L26.3638 63.4905L28.4974 61.1902L31.6339 61.0941L29.5002 63.3912Z" fill="white"/>
<path d="M30.9165 66.5052L27.78 66.6045L29.9169 64.3074L33.0501 64.2081L30.9165 66.5052Z" fill="white"/>
<path d="M32.3323 69.6223L29.1959 69.7184L31.3328 67.4213L34.4692 67.322L32.3323 69.6223Z" fill="white"/>
<path d="M33.7514 72.7363L30.615 72.8356L32.7487 70.5353L35.8851 70.436L33.7514 72.7363Z" fill="white"/>
<path d="M35.1675 75.8503L32.0311 75.9496L34.1648 73.6494L37.3012 73.55L35.1675 75.8503Z" fill="white"/>
<path d="M42.3983 76.4302L30.9643 81.6779L30.4069 80.4701L41.8441 75.2224L42.3983 76.4302Z" fill="url(#paint2_radial_728_249)"/>
<path d="M89.0441 89.2769L96.3901 92.6472L102.272 79.8324L94.9261 76.4622L89.0441 89.2769Z" fill="url(#paint3_linear_728_249)"/>
<path d="M94.4808 76.5518L102.532 80.2137L115.888 50.7397C116.509 49.3749 115.907 47.7634 114.539 47.1419L111.435 45.7291C110.07 45.1076 108.459 45.7099 107.837 47.0778L94.4808 76.5518Z" fill="url(#paint4_linear_728_249)"/>
<path d="M110.993 50.9319L114.129 51.0313L111.995 48.7342L108.859 48.6349L110.993 50.9319Z" fill="white"/>
<path d="M109.577 54.049L112.713 54.1451L110.576 51.8481L107.44 51.7488L109.577 54.049Z" fill="white"/>
<path d="M108.161 57.163L111.294 57.2624L109.16 54.9621L106.024 54.8628L108.161 57.163Z" fill="white"/>
<path d="M106.741 60.2771L109.878 60.3764L107.744 58.0761L104.608 57.9768L106.741 60.2771Z" fill="white"/>
<path d="M105.325 63.391L108.462 63.4904L106.328 61.1901L103.192 61.094L105.325 63.391Z" fill="white"/>
<path d="M103.909 66.5051L107.046 66.6044L104.909 64.3073L101.772 64.208L103.909 66.5051Z" fill="white"/>
<path d="M102.493 69.6223L105.626 69.7184L103.493 67.4213L100.356 67.322L102.493 69.6223Z" fill="white"/>
<path d="M101.074 72.7363L104.211 72.8356L102.077 70.5353L98.9404 70.436L101.074 72.7363Z" fill="white"/>
<path d="M99.658 75.8502L102.794 75.9495L100.661 73.6492L97.5243 73.5499L99.658 75.8502Z" fill="white"/>
<path d="M92.4271 76.4302L103.861 81.6779L104.415 80.4701L92.9814 75.2224L92.4271 76.4302Z" fill="url(#paint5_radial_728_249)"/>
<path d="M114.331 94.3389C114.331 94.3389 108.119 109.105 84.4436 119.696C79.5484 121.884 73.9066 123.893 67.4128 125.562C60.9669 123.909 55.3572 121.91 50.4876 119.744C26.7258 109.15 20.4978 94.3389 20.4978 94.3389C38.5731 87.3772 52.1632 79.8101 52.1632 79.8101L52.1664 79.7845L53.797 69.8338L54.598 64.9449L67.4128 71.7528L80.2275 64.9449L82.6656 79.8069C82.6656 79.8069 85.3278 81.2902 89.8707 83.552C95.5829 86.3937 104.258 90.4624 114.331 94.3389Z" fill="url(#paint6_radial_728_249)"/>
<path d="M89.8705 83.5552C85.7473 95.0597 78.68 104.35 70.3215 109.226C66.413 111.504 62.1617 112.718 58.0482 114.035C62.5301 111.392 66.3233 106.744 69.4469 101.432C72.5737 96.1265 75.0406 90.251 77.533 84.2985C75.4731 86.3392 72.9582 87.4157 70.4561 87.3324C67.954 87.2459 65.6089 85.8811 63.6194 83.7026C67.4991 85.6953 71.9522 84.9328 75.2937 81.4824C71.2154 83.4079 66.6597 83.1868 62.6807 80.8641C58.9868 78.7112 55.8152 74.7675 53.8 69.8338L54.601 64.9449L67.4158 71.7528L80.2306 64.9449L82.6686 79.8069C82.6622 79.8133 85.3276 81.2934 89.8705 83.5552Z" fill="url(#paint7_radial_728_249)"/>
<path d="M84.4436 119.699C79.5484 121.888 73.9067 123.896 67.4128 125.565C60.9669 123.912 55.3572 121.913 50.4876 119.747C40.6587 115.365 33.8252 110.255 29.1958 105.776C22.6347 99.4328 20.4978 94.3421 20.4978 94.3421C38.2911 87.4862 51.7403 80.0504 52.1535 79.8198C52.1567 79.8198 52.16 79.8133 52.1632 79.8133L52.1664 79.7877L52.3265 79.8133C52.3265 79.8133 52.5668 80.5406 53.0666 81.8061C55.6712 88.4377 65.3207 109.899 84.4436 119.699Z" fill="#170B3F"/>
<path d="M114.331 94.3389C114.331 94.3389 105.284 115.845 67.4127 125.565C67.0219 125.466 66.6374 125.364 66.253 125.261C60.2909 123.669 55.0625 121.782 50.4876 119.744L50.4812 119.735C69.6489 109.951 79.3177 88.4473 81.9223 81.8061C82.4221 80.5374 82.6623 79.8134 82.6623 79.8134C82.6623 79.8134 96.2524 87.3773 114.331 94.3389Z" fill="#250F59"/>
<path opacity="0.7" d="M28.254 97.2511C27.1711 99.5 27.578 102.704 28.7025 104.908C28.8563 105.212 29.0196 105.501 29.1958 105.773C22.6347 99.4296 20.4978 94.3389 20.4978 94.3389C38.2911 87.483 51.7403 80.0472 52.1535 79.8165C45.1246 84.5484 38.2463 89.5205 31.2174 94.2556C30.1089 94.9988 28.9492 95.8062 28.254 97.2511Z" fill="white"/>
<path opacity="0.7" d="M60.2717 119.981C60.339 120.978 61.1079 121.772 61.8735 122.416C63.2127 123.537 64.6864 124.495 66.253 125.261C60.2909 123.669 55.0625 121.782 50.4876 119.744L50.4812 119.735C69.6489 109.951 79.3177 88.4473 81.9223 81.8061C82.4221 80.5374 82.6623 79.8134 82.6623 79.8134C81.0349 94.073 73.4709 107.66 62.3797 116.771C61.3513 117.617 60.1852 118.652 60.2717 119.981Z" fill="white"/>
<path d="M57.7184 76.7507C57.7184 76.7507 61.7134 79.8904 67.4961 79.8904C73.2787 79.8904 77.1072 76.7507 77.1072 76.7507L73.9195 72.272L60.1276 72.5923L57.7184 76.7507Z" fill="url(#paint8_radial_728_249)"/>
<path d="M47.1173 51.2206C46.2651 47.0141 46.2139 42.625 46.9699 38.3994C59.8969 36.9801 73.1217 36.7751 86.0679 37.9733C87.6889 42.0932 88.3457 46.7866 87.8427 51.227C74.7172 54.7863 60.3101 54.4979 47.1173 51.2206Z" fill="url(#paint9_radial_728_249)"/>
<path d="M85.2316 41.7537C85.3886 41.8754 85.363 42.1541 85.2316 42.3079C85.1003 42.4617 84.9048 42.5258 84.719 42.5866C84.5332 42.6475 84.3378 42.7244 84.2224 42.891C84.0334 43.1601 84.1263 43.5509 84.0206 43.8713C83.9053 44.2205 83.5593 44.432 83.2165 44.4736C82.8737 44.5152 82.5533 44.3967 82.1593 44.3294C78.7441 43.7271 75.0791 45.2105 72.8813 48.081C74.621 48.6801 76.6585 49.0164 78.3404 48.2444C79.6411 47.6453 80.7368 46.681 81.5377 45.4539C81.8677 45.2201 82.2682 45.1079 82.6654 45.0791C82.9153 45.0631 83.1652 45.0759 83.4119 45.0503C83.6586 45.0246 83.9117 44.9574 84.1103 44.794C84.4595 44.5088 84.5716 43.9866 84.5396 43.5157C84.5268 43.3299 84.498 43.1216 84.6005 42.9679C84.7382 42.7596 85.0298 42.7724 85.2284 42.6379C85.3694 42.5418 85.4591 42.372 85.4623 42.1926C85.4623 42.026 85.3662 41.8562 85.2316 41.7537Z" fill="url(#paint10_radial_728_249)"/>
<path d="M49.5937 41.7537C49.4367 41.8754 49.4623 42.1541 49.5937 42.3079C49.7251 42.4617 49.9205 42.5258 50.1063 42.5866C50.2921 42.6475 50.4875 42.7244 50.6029 42.891C50.7919 43.1601 50.699 43.5509 50.8047 43.8713C50.92 44.2205 51.266 44.432 51.6088 44.4736C51.9516 44.5152 52.272 44.3967 52.666 44.3294C56.0812 43.7271 59.7462 45.2105 61.944 48.081C60.2043 48.6801 58.1668 49.0164 56.4849 48.2444C55.1842 47.6453 54.0885 46.681 53.2876 45.4539C52.9576 45.2201 52.5571 45.1079 52.1599 45.0791C51.91 45.0631 51.6601 45.0759 51.4134 45.0503C51.1667 45.0246 50.9136 44.9574 50.715 44.794C50.3658 44.5088 50.2537 43.9866 50.2857 43.5157C50.2985 43.3299 50.3273 43.1216 50.2248 42.9679C50.0871 42.7596 49.7955 42.7724 49.5969 42.6379C49.4559 42.5418 49.3662 42.372 49.363 42.1926C49.363 42.026 49.4559 41.8562 49.5937 41.7537Z" fill="url(#paint11_radial_728_249)"/>
<path d="M87.0066 42.8493C87.0066 42.8493 85.2702 39.3605 82.0248 38.6685C81.4674 38.5499 80.942 38.5211 80.4326 38.5691C76.7611 38.9151 74.1469 43.128 68.5308 43.6342C68.172 43.6662 67.8004 43.6855 67.416 43.6855C60.182 43.6855 57.6671 37.6305 52.8039 38.6717C49.5585 39.3637 47.8221 42.8525 47.8221 42.8525C47.8221 42.8525 49.5233 23.4541 67.416 23.4541C67.7331 23.4541 68.0407 23.4605 68.345 23.4701C70.0654 23.5406 71.6288 23.7905 73.0481 24.1877C85.677 27.7182 87.0066 42.8493 87.0066 42.8493Z" fill="url(#paint12_radial_728_249)"/>
<path d="M86.433 39.7129C86.6252 38.1014 86.3817 36.5476 85.5584 35.0867C85.0106 34.116 84.3218 33.2574 83.5433 32.4917C81.4737 29.0029 78.2027 25.6294 73.0447 24.1845C71.6255 23.7873 70.0621 23.5374 68.3417 23.4669C69.7578 24.4088 70.9688 25.7063 71.8786 27.212C69.62 26.9493 67.3262 27.0262 65.09 27.4459C59.6084 28.4775 54.5306 31.4377 50.4779 35.5385C53.2747 34.0904 56.6226 34.3146 59.5508 35.4199C62.4822 36.522 65.0355 38.4346 67.5953 40.3248C69.2003 38.6685 71.161 37.435 73.269 36.6854C72.5258 39.5078 70.8214 42.0516 68.5275 43.631C74.1468 43.1248 76.7578 38.9119 80.4293 38.5659C80.9387 38.5179 81.4641 38.5467 82.0215 38.6653C85.2669 39.3573 87.0033 42.8461 87.0033 42.8461C87.0033 42.8461 86.8943 41.5902 86.433 39.7129Z" fill="url(#paint13_radial_728_249)"/>
<path d="M87.0066 49.215C87.0034 49.2278 87.0034 49.2406 87.0002 49.2566C84.2674 76.6322 70.0622 77.6606 67.7364 77.6446C67.5249 77.6414 67.4128 77.6318 67.4128 77.6318C67.4128 77.6318 50.7888 79.0991 47.819 49.215C47.819 49.215 47.8702 49.3303 48.008 49.5225C48.0112 49.5321 48.0176 49.5385 48.024 49.5449C48.6423 50.3875 50.8817 52.5788 57.6159 52.8896C62.1491 53.0978 63.7189 50.6438 65.7276 49.6379C66.2402 49.3784 66.7849 49.215 67.4128 49.215C67.4993 49.215 67.5858 49.2182 67.6691 49.2246C70.5588 49.4328 71.6769 53.1427 77.2097 52.8896C84.9274 52.5372 86.7407 49.7115 86.9778 49.2726V49.2694C86.997 49.2342 87.0066 49.215 87.0066 49.215Z" fill="url(#paint14_radial_728_249)"/>
<path d="M86.859 49.2566C84.1262 76.6354 69.921 77.6606 67.5951 77.6446C67.8995 72.6372 67.8482 67.6106 67.4382 62.6128C67.3292 61.2705 67.2139 59.8096 67.8899 58.6691C68.5531 57.5446 69.8826 56.9263 70.2863 55.6736C70.7412 54.2576 69.8185 52.7967 68.9471 51.6338C68.4441 50.9674 67.8578 50.1088 67.5279 49.2278C70.4176 49.436 71.5357 53.1459 77.0685 52.8928C84.7862 52.5404 86.5995 49.7147 86.8366 49.2758V49.2726C86.843 49.2662 86.8494 49.2598 86.859 49.2566Z" fill="url(#paint15_radial_728_249)"/>
<path opacity="0.7" d="M66.7335 55.3437C66.7175 55.8659 66.6919 56.4233 66.4292 56.8334C66.1345 57.2851 65.6315 57.4229 65.1701 57.5318C64.8786 57.5991 64.5839 57.6696 64.2891 57.6151C63.9976 57.5638 63.7029 57.3684 63.5811 57.0352C63.3985 56.5451 63.6356 55.9844 63.8694 55.5295C64.491 54.2961 65.1157 53.0659 65.7372 51.8324C65.8525 51.605 65.9903 51.3102 66.1505 51.0411C66.3876 50.6407 66.9066 50.8425 66.9162 51.3391C66.9354 52.6558 66.7688 54.0718 66.7335 55.3437Z" fill="white"/>
<path opacity="0.7" d="M65.7276 49.6378C64.4493 50.5445 63.5811 52.1431 62.2035 52.9312C60.765 53.7578 58.8588 54.1102 57.2025 54.0493C55.2963 53.9756 53.2716 53.5752 51.5128 52.8319C50.0423 52.2136 48.8729 50.8809 48.0239 49.5449C48.6422 50.3875 50.8816 52.5788 57.6158 52.8896C62.149 53.0978 63.7188 50.6438 65.7276 49.6378Z" fill="white"/>
<path d="M90.6138 55.225C89.0856 65.6082 77.107 76.7506 77.107 76.7506L75.5019 75.0495C75.5019 75.0495 88.0316 61.0589 86.7469 43.6853C85.4718 26.3853 67.4094 37.3708 67.4094 37.3708C67.4094 37.3708 49.3502 26.3821 48.0751 43.6821C46.7936 61.0557 59.3201 75.0463 59.3201 75.0463L57.715 76.7474C57.715 76.7474 45.7364 65.605 44.2082 55.2218C44.0576 54.1806 43.9647 53.1202 43.9295 52.0533C43.9007 51.3005 43.9039 50.5412 43.9295 49.7851C44.2306 40.9045 47.8861 31.9117 50.7309 28.0608C54.1044 23.4892 67.0025 19.8562 67.403 19.744C67.4094 19.7408 67.4126 19.7408 67.4126 19.7408C67.4126 19.7408 67.4158 19.7408 67.4222 19.744C67.8227 19.8562 80.7176 23.4924 84.0943 28.0608C86.686 31.5721 89.957 39.3603 90.7419 47.4336C90.9918 50.0446 90.9854 52.6877 90.6138 55.225Z" fill="url(#paint16_radial_728_249)"/>
<path d="M90.7419 47.4336C89.7263 43.0317 87.5254 39.0431 84.5908 35.5511C82.6622 33.2572 79.3752 32.4916 76.399 32.8632C73.4259 33.2348 70.533 34.6733 67.8451 35.9932C68.5179 34.4298 69.6231 33.0971 70.5234 31.6554C71.43 30.2137 72.1573 28.5478 71.9426 26.8595C71.7696 25.4947 70.2415 20.9935 67.3998 19.7408H67.4222C67.8227 19.853 80.7176 23.4892 84.0942 28.0576C86.686 31.5721 89.957 39.3603 90.7419 47.4336Z" fill="url(#paint17_radial_728_249)"/>
<path d="M76.085 75.6679C76.085 75.6679 91.8312 62.9588 87.6311 42.3462C87.6311 42.3462 90.3094 60.3446 75.502 75.0463L76.085 75.6679Z" fill="url(#paint18_radial_728_249)"/>
<path d="M58.7403 75.6679C58.7403 75.6679 42.9942 62.9588 47.1942 42.3462C47.1942 42.3462 44.5159 60.3446 59.3234 75.0463L58.7403 75.6679Z" fill="url(#paint19_radial_728_249)"/>
<path d="M47.819 40.504C47.819 40.504 49.6899 28.7529 58.279 26.286C58.279 26.286 50.7119 29.8069 47.819 40.504Z" fill="url(#paint20_radial_728_249)"/>
<path opacity="0.7" d="M67.4034 19.7441C67.035 19.8947 56.2065 24.3447 52.9035 28.3749C49.5396 32.4756 45.5766 37.813 43.9331 52.0566V49.7852C44.231 40.9046 47.8865 31.9118 50.7314 28.0609C54.1048 23.4893 67.0029 19.8563 67.4034 19.7441Z" fill="white"/>
<defs>
<linearGradient id="paint0_linear_728_249" x1="33.3314" y1="85.3735" x2="45.0021" y2="83.7353" gradientUnits="userSpaceOnUse">
<stop stop-color="#4816B5"/>
<stop offset="1" stop-color="#1D0056"/>
</linearGradient>
<linearGradient id="paint1_linear_728_249" x1="24.9859" y1="64.2957" x2="33.1681" y2="60.5396" gradientUnits="userSpaceOnUse">
<stop stop-color="#4816B5"/>
<stop offset="1" stop-color="#1D0056"/>
</linearGradient>
<radialGradient id="paint2_radial_728_249" cx="0" cy="0" r="1" gradientUnits="userSpaceOnUse" gradientTransform="translate(36.4035 78.4508) rotate(-7.98993) scale(4.72337 4.72338)">
<stop stop-color="#4816B5"/>
<stop offset="1" stop-color="#1D0056"/>
</radialGradient>
<linearGradient id="paint3_linear_728_249" x1="101.494" y1="85.3735" x2="89.8231" y2="83.7353" gradientUnits="userSpaceOnUse">
<stop stop-color="#1D0056"/>
<stop offset="1" stop-color="#4816B5"/>
</linearGradient>
<linearGradient id="paint4_linear_728_249" x1="109.839" y1="64.2956" x2="101.657" y2="60.5394" gradientUnits="userSpaceOnUse">
<stop stop-color="#1D0056"/>
<stop offset="1" stop-color="#4816B5"/>
</linearGradient>
<radialGradient id="paint5_radial_728_249" cx="0" cy="0" r="1" gradientUnits="userSpaceOnUse" gradientTransform="translate(98.4216 78.4508) rotate(-172.01) scale(4.72338)">
<stop stop-color="#4816B5"/>
<stop offset="1" stop-color="#1D0056"/>
</radialGradient>
<radialGradient id="paint6_radial_728_249" cx="0" cy="0" r="1" gradientUnits="userSpaceOnUse" gradientTransform="translate(43.5603 83.4221) scale(53.6373 76.8515)">
<stop stop-color="#4816B5"/>
<stop offset="1" stop-color="#1D0056"/>
</radialGradient>
<radialGradient id="paint7_radial_728_249" cx="0" cy="0" r="1" gradientUnits="userSpaceOnUse" gradientTransform="translate(71.8337 89.4938) scale(17.5893 25.2019)">
<stop stop-color="#0F0033"/>
<stop offset="1" stop-color="#060019"/>
</radialGradient>
<radialGradient id="paint8_radial_728_249" cx="0" cy="0" r="1" gradientUnits="userSpaceOnUse" gradientTransform="translate(62.4839 74.5917) scale(10.8849 10.8849)">
<stop stop-color="#1D0056"/>
<stop offset="1" stop-color="#07001E"/>
</radialGradient>
<radialGradient id="paint9_radial_728_249" cx="0" cy="0" r="1" gradientUnits="userSpaceOnUse" gradientTransform="translate(56.6561 42.2469) scale(23.1939 24.9388)">
<stop stop-color="#0F0033"/>
<stop offset="1" stop-color="#060019"/>
</radialGradient>
<radialGradient id="paint10_radial_728_249" cx="0" cy="0" r="1" gradientUnits="userSpaceOnUse" gradientTransform="translate(77.8172 46.287) scale(5.43152)">
<stop stop-color="#FFAD4A"/>
<stop offset="1" stop-color="#EA6C18"/>
</radialGradient>
<radialGradient id="paint11_radial_728_249" cx="0" cy="0" r="1" gradientUnits="userSpaceOnUse" gradientTransform="translate(57.0345 46.3857) scale(4.65026)">
<stop stop-color="#FFAD4A"/>
<stop offset="1" stop-color="#EA6C18"/>
</radialGradient>
<radialGradient id="paint12_radial_728_249" cx="0" cy="0" r="1" gradientUnits="userSpaceOnUse" gradientTransform="translate(56.4185 27.5941) scale(23.4432 23.4432)">
<stop stop-color="#4816B5"/>
<stop offset="1" stop-color="#1D0056"/>
</radialGradient>
<radialGradient id="paint13_radial_728_249" cx="0" cy="0" r="1" gradientUnits="userSpaceOnUse" gradientTransform="translate(68.7422 33.5522) scale(14.5164 15.6084)">
<stop stop-color="#1D0056"/>
<stop offset="1" stop-color="#0F0035"/>
</radialGradient>
<radialGradient id="paint14_radial_728_249" cx="0" cy="0" r="1" gradientUnits="userSpaceOnUse" gradientTransform="translate(51.1164 55.7481) scale(41.3424 41.3424)">
<stop stop-color="#4816B5"/>
<stop offset="1" stop-color="#1D0056"/>
</radialGradient>
<radialGradient id="paint15_radial_728_249" cx="0" cy="0" r="1" gradientUnits="userSpaceOnUse" gradientTransform="translate(68.0194 56.8325) scale(20.2835 21.8094)">
<stop stop-color="#0F0033"/>
<stop offset="1" stop-color="#060019"/>
</radialGradient>
<radialGradient id="paint16_radial_728_249" cx="0" cy="0" r="1" gradientUnits="userSpaceOnUse" gradientTransform="translate(53.9245 27.3821) scale(43.7597 43.7598)">
<stop stop-color="#4816B5"/>
<stop offset="1" stop-color="#1D0056"/>
</radialGradient>
<radialGradient id="paint17_radial_728_249" cx="0" cy="0" r="1" gradientUnits="userSpaceOnUse" gradientTransform="translate(72.523 25.411) scale(19.3875 19.3875)">
<stop stop-color="#0F0033"/>
<stop offset="1" stop-color="#060019"/>
</radialGradient>
<radialGradient id="paint18_radial_728_249" cx="0" cy="0" r="1" gradientUnits="userSpaceOnUse" gradientTransform="translate(81.9237 59.0084) rotate(180) scale(11.8598 12.7521)">
<stop stop-color="#0F0033"/>
<stop offset="1" stop-color="#060019"/>
</radialGradient>
<radialGradient id="paint19_radial_728_249" cx="0" cy="0" r="1" gradientUnits="userSpaceOnUse" gradientTransform="translate(52.9013 59.0084) scale(11.8598 12.752)">
<stop stop-color="#0F0033"/>
<stop offset="1" stop-color="#060019"/>
</radialGradient>
<radialGradient id="paint20_radial_728_249" cx="0" cy="0" r="1" gradientUnits="userSpaceOnUse" gradientTransform="translate(53.0502 33.3952) scale(5.96112 6.40957)">
<stop stop-color="#0F0033"/>
<stop offset="1" stop-color="#060019"/>
</radialGradient>
</defs>
</svg>
