<svg width="136" height="136" viewBox="0 0 136 136" fill="none" xmlns="http://www.w3.org/2000/svg">
<path d="M101.853 102.085C120.468 83.4693 120.468 53.288 101.853 34.6728C83.2373 16.0575 53.056 16.0575 34.4408 34.6727C15.8255 53.288 15.8255 83.4693 34.4408 102.085C53.056 120.7 83.2373 120.7 101.853 102.085Z" fill="#F1296A"/>
<path d="M46.5132 90.2438L39.1703 93.6141L33.2883 80.7993L40.6344 77.429L46.5132 90.2438Z" fill="url(#paint0_linear_494_1594)"/>
<path d="M41.0797 77.5188L33.0288 81.1806L19.6726 51.7066C19.051 50.3418 19.6533 48.7304 21.0213 48.1089L24.1257 46.696C25.4905 46.0745 27.1019 46.6768 27.7234 48.0448L41.0797 77.5188Z" fill="url(#paint1_linear_494_1594)"/>
<path d="M24.5678 51.8989L21.4314 51.9982L23.5651 49.7011L26.7015 49.6018L24.5678 51.8989Z" fill="white"/>
<path d="M25.9838 55.016L22.8474 55.1121L24.9843 52.8151L28.1175 52.7158L25.9838 55.016Z" fill="white"/>
<path d="M27.3997 58.13L24.2633 58.2293L26.4002 55.929L29.5366 55.8297L27.3997 58.13Z" fill="white"/>
<path d="M28.816 61.2439L25.6827 61.3432L27.8164 59.043L30.9528 58.9437L28.816 61.2439Z" fill="white"/>
<path d="M30.2352 64.3579L27.0988 64.4572L29.2324 62.157L32.3688 62.0609L30.2352 64.3579Z" fill="white"/>
<path d="M31.6512 67.472L28.5148 67.5714L30.6516 65.2743L33.7849 65.175L31.6512 67.472Z" fill="white"/>
<path d="M33.0672 70.5891L29.9308 70.6852L32.0677 68.3882L35.2041 68.2889L33.0672 70.5891Z" fill="white"/>
<path d="M34.4864 73.7032L31.35 73.8026L33.4836 71.5023L36.6201 71.403L34.4864 73.7032Z" fill="white"/>
<path d="M35.9027 76.8171L32.7662 76.9164L34.8999 74.6162L38.0363 74.5168L35.9027 76.8171Z" fill="white"/>
<path d="M43.1332 77.397L31.6992 82.6446L31.1417 81.4368L42.5789 76.1892L43.1332 77.397Z" fill="url(#paint2_radial_494_1594)"/>
<path d="M89.7791 90.2438L97.1251 93.6141L103.007 80.7993L95.661 77.429L89.7791 90.2438Z" fill="url(#paint3_linear_494_1594)"/>
<path d="M95.2158 77.5188L103.267 81.1806L116.623 51.7066C117.244 50.3418 116.642 48.7304 115.274 48.1089L112.17 46.696C110.805 46.0745 109.194 46.6768 108.572 48.0448L95.2158 77.5188Z" fill="url(#paint4_linear_494_1594)"/>
<path d="M111.728 51.8989L114.864 51.9982L112.73 49.7012L109.594 49.6019L111.728 51.8989Z" fill="white"/>
<path d="M110.312 55.0161L113.448 55.1122L111.311 52.8151L108.175 52.7158L110.312 55.0161Z" fill="white"/>
<path d="M108.896 58.13L112.029 58.2293L109.895 55.929L106.759 55.8297L108.896 58.13Z" fill="white"/>
<path d="M107.476 61.244L110.613 61.3433L108.479 59.043L105.343 58.9437L107.476 61.244Z" fill="white"/>
<path d="M106.06 64.358L109.197 64.4573L107.063 62.1571L103.927 62.0609L106.06 64.358Z" fill="white"/>
<path d="M104.644 67.4721L107.781 67.5714L105.644 65.2744L102.507 65.175L104.644 67.4721Z" fill="white"/>
<path d="M103.228 70.5892L106.361 70.6853L104.228 68.3883L101.091 68.2889L103.228 70.5892Z" fill="white"/>
<path d="M101.809 73.7032L104.945 73.8026L102.812 71.5023L99.6754 71.403L101.809 73.7032Z" fill="white"/>
<path d="M100.393 76.8171L103.529 76.9164L101.396 74.6162L98.2593 74.5168L100.393 76.8171Z" fill="white"/>
<path d="M93.1622 77.397L104.596 82.6446L105.15 81.4368L93.7165 76.1892L93.1622 77.397Z" fill="url(#paint5_radial_494_1594)"/>
<path d="M115.066 95.3057C115.066 95.3057 108.854 110.072 85.1785 120.663C80.2832 122.851 74.6415 124.86 68.1476 126.529C61.7018 124.876 56.0921 122.877 51.2225 120.711C27.4607 110.116 21.2327 95.3057 21.2327 95.3057C39.3079 88.3441 52.898 80.777 52.898 80.777L52.9012 80.7513L54.5319 70.8006L55.3328 65.9118L68.1476 72.7197L80.9624 65.9118L83.4004 80.7738C83.4004 80.7738 86.0627 82.2571 90.6055 84.5189C96.3177 87.3606 104.993 91.4293 115.066 95.3057Z" fill="url(#paint6_radial_494_1594)"/>
<path d="M90.6055 84.5221C86.4823 96.0266 79.415 105.317 71.0565 110.193C67.148 112.471 62.8967 113.685 58.7831 115.002C63.2651 112.359 67.0583 107.71 70.1819 102.399C73.3087 97.0934 75.7756 91.2178 78.268 85.2653C76.2081 87.3061 73.6932 88.3825 71.1911 88.2992C68.689 88.2127 66.3439 86.848 64.3544 84.6695C68.234 86.6622 72.6872 85.8997 76.0286 82.4493C71.9503 84.3747 67.3947 84.1537 63.4157 81.831C59.7218 79.6781 56.5502 75.7343 54.535 70.8006L55.336 65.9118L68.1508 72.7197L80.9655 65.9118L83.4036 80.7738C83.3972 80.7802 86.0626 82.2603 90.6055 84.5221Z" fill="url(#paint7_radial_494_1594)"/>
<path d="M85.1785 120.666C80.2832 122.854 74.6415 124.863 68.1476 126.532C61.7018 124.879 56.0921 122.88 51.2225 120.714C41.3935 116.332 34.56 111.222 29.9307 106.743C23.3695 100.4 21.2327 95.3089 21.2327 95.3089C39.026 88.453 52.4751 81.0173 52.8884 80.7866C52.8916 80.7866 52.8948 80.7802 52.898 80.7802L52.9012 80.7545L53.0614 80.7802C53.0614 80.7802 53.3017 81.5074 53.8015 82.7729C56.4061 89.4045 66.0556 110.866 85.1785 120.666Z" fill="#170B3F"/>
<path d="M115.066 95.3057C115.066 95.3057 106.018 116.812 68.1475 126.532C67.7566 126.433 67.3722 126.33 66.9877 126.228C61.0257 124.636 55.7972 122.749 51.2223 120.711L51.2159 120.701C70.3837 110.917 80.0524 89.4141 82.657 82.7728C83.1568 81.5042 83.3971 80.7801 83.3971 80.7801C83.3971 80.7801 96.9872 88.3441 115.066 95.3057Z" fill="#250F59"/>
<path opacity="0.7" d="M28.9888 98.2178C27.906 100.467 28.3128 103.671 29.4373 105.875C29.5911 106.179 29.7545 106.467 29.9307 106.74C23.3695 100.396 21.2327 95.3057 21.2327 95.3057C39.026 88.4497 52.4751 81.014 52.8884 80.7833C45.8595 85.5152 38.9812 90.4873 31.9522 95.2224C30.8438 95.9656 29.684 96.773 28.9888 98.2178Z" fill="white"/>
<path opacity="0.7" d="M61.0064 120.948C61.0737 121.944 61.8426 122.739 62.6083 123.383C63.9474 124.504 65.4211 125.462 66.9877 126.228C61.0257 124.636 55.7972 122.749 51.2223 120.711L51.2159 120.701C70.3837 110.917 80.0524 89.4141 82.657 82.7728C83.1568 81.5042 83.3971 80.7801 83.3971 80.7801C81.7696 95.0398 74.2057 108.627 63.1145 117.738C62.0861 118.584 60.9199 119.619 61.0064 120.948Z" fill="white"/>
<path d="M58.453 77.7174C58.453 77.7174 62.448 80.857 68.2307 80.857C74.0134 80.857 77.8418 77.7174 77.8418 77.7174L74.6541 73.2386L60.8622 73.559L58.453 77.7174Z" fill="url(#paint8_radial_494_1594)"/>
<path d="M47.8521 52.1872C46.9999 47.9807 46.9486 43.5917 47.7047 39.366C60.6316 37.9468 73.8565 37.7417 86.8026 38.9399C88.4237 43.0599 89.0804 47.7533 88.5774 52.1936C75.4519 55.7529 61.0449 55.4646 47.8521 52.1872Z" fill="url(#paint9_radial_494_1594)"/>
<path d="M85.9665 42.7203C86.1234 42.8421 86.0978 43.1208 85.9665 43.2746C85.8351 43.4284 85.6397 43.4924 85.4539 43.5533C85.2681 43.6142 85.0726 43.6911 84.9573 43.8577C84.7683 44.1268 84.8612 44.5176 84.7555 44.838C84.6401 45.1872 84.2941 45.3986 83.9513 45.4403C83.6085 45.4819 83.2882 45.3634 82.8941 45.2961C79.479 44.6938 75.8139 46.1771 73.6162 49.0476C75.3558 49.6467 77.3934 49.9831 79.0753 49.211C80.376 48.6119 81.4717 47.6476 82.2726 46.4206C82.6026 46.1867 83.003 46.0746 83.4003 46.0458C83.6502 46.0298 83.9001 46.0426 84.1468 46.0169C84.3934 45.9913 84.6465 45.924 84.8452 45.7606C85.1944 45.4755 85.3065 44.9533 85.2745 44.4824C85.2617 44.2966 85.2328 44.0883 85.3353 43.9345C85.4731 43.7263 85.7646 43.7391 85.9633 43.6046C86.1042 43.5084 86.1939 43.3387 86.1971 43.1592C86.1971 42.9927 86.101 42.8229 85.9665 42.7203Z" fill="url(#paint10_radial_494_1594)"/>
<path d="M50.3286 42.7203C50.1716 42.8421 50.1972 43.1208 50.3286 43.2746C50.4599 43.4284 50.6553 43.4924 50.8412 43.5533C51.027 43.6142 51.2224 43.6911 51.3377 43.8577C51.5267 44.1268 51.4338 44.5176 51.5396 44.838C51.6549 45.1872 52.0009 45.3986 52.3437 45.4403C52.6865 45.4819 53.0069 45.3634 53.4009 45.2961C56.8161 44.6938 60.4811 46.1771 62.6788 49.0476C60.9392 49.6467 58.9017 49.9831 57.2197 49.211C55.919 48.6119 54.8234 47.6476 54.0224 46.4206C53.6924 46.1867 53.292 46.0746 52.8947 46.0458C52.6448 46.0298 52.3949 46.0426 52.1483 46.0169C51.9016 45.9913 51.6485 45.924 51.4499 45.7606C51.1007 45.4755 50.9885 44.9533 51.0206 44.4824C51.0334 44.2966 51.0622 44.0883 50.9597 43.9345C50.8219 43.7263 50.5304 43.7391 50.3318 43.6046C50.1908 43.5084 50.1011 43.3387 50.0979 43.1592C50.0979 42.9927 50.1908 42.8229 50.3286 42.7203Z" fill="url(#paint11_radial_494_1594)"/>
<path d="M87.7414 43.8159C87.7414 43.8159 86.005 40.3271 82.7597 39.6351C82.2022 39.5165 81.6768 39.4877 81.1674 39.5358C77.496 39.8818 74.8818 44.0946 69.2657 44.6008C68.9069 44.6328 68.5353 44.6521 68.1508 44.6521C60.9169 44.6521 58.402 38.5971 53.5388 39.6383C50.2934 40.3303 48.557 43.8191 48.557 43.8191C48.557 43.8191 50.2582 24.4207 68.1508 24.4207C68.468 24.4207 68.7755 24.4271 69.0799 24.4367C70.8003 24.5072 72.3637 24.7571 73.7829 25.1544C86.4119 28.6848 87.7414 43.8159 87.7414 43.8159Z" fill="url(#paint12_radial_494_1594)"/>
<path d="M87.1679 40.6795C87.3601 39.068 87.1166 37.5142 86.2933 36.0533C85.7454 35.0826 85.0566 34.224 84.2781 33.4583C82.2085 29.9695 78.9376 26.596 73.7796 25.1512C72.3604 24.7539 70.797 24.504 69.0766 24.4335C70.4926 25.3754 71.7036 26.6729 72.6135 28.1787C70.3549 27.916 68.061 27.9928 65.8248 28.4125C60.3433 29.4441 55.2654 32.4043 51.2128 36.5051C54.0096 35.057 57.3575 35.2813 60.2856 36.3865C63.217 37.4886 65.7704 39.4012 68.3301 41.2914C69.9352 39.6351 71.8958 38.4017 74.0039 37.652C73.2606 40.4744 71.5562 43.0182 69.2624 44.5976C74.8817 44.0914 77.4927 39.8786 81.1641 39.5326C81.6735 39.4845 82.1989 39.5133 82.7564 39.6319C86.0017 40.3239 87.7381 43.8127 87.7381 43.8127C87.7381 43.8127 87.6292 42.5568 87.1679 40.6795Z" fill="url(#paint13_radial_494_1594)"/>
<path d="M87.7413 50.1818C87.7381 50.1946 87.7381 50.2074 87.7349 50.2234C85.0022 77.599 70.797 78.6274 68.4711 78.6114C68.2597 78.6082 68.1475 78.5986 68.1475 78.5986C68.1475 78.5986 51.5235 80.0659 48.5537 50.1818C48.5537 50.1818 48.605 50.2971 48.7427 50.4893C48.7459 50.499 48.7523 50.5054 48.7587 50.5118C49.3771 51.3543 51.6164 53.5457 58.3506 53.8564C62.8838 54.0647 64.4537 51.6106 66.4624 50.6047C66.975 50.3452 67.5196 50.1818 68.1475 50.1818C68.234 50.1818 68.3205 50.185 68.4038 50.1914C71.2936 50.3996 72.4116 54.1095 77.9444 53.8564C85.6621 53.504 87.4754 50.6784 87.7125 50.2395V50.2363C87.7317 50.201 87.7413 50.1818 87.7413 50.1818Z" fill="url(#paint14_radial_494_1594)"/>
<path d="M87.594 50.2234C84.8612 77.6022 70.656 78.6274 68.3301 78.6114C68.6345 73.604 68.5832 68.5774 68.1731 63.5796C68.0642 62.2373 67.9489 60.7764 68.6249 59.6358C69.288 58.5113 70.6176 57.893 71.0212 56.6404C71.4762 55.2244 70.5535 53.7635 69.6821 52.6005C69.1791 51.9342 68.5928 51.0756 68.2629 50.1945C71.1526 50.4028 72.2707 54.1127 77.8035 53.8596C85.5212 53.5072 87.3345 50.6815 87.5715 50.2426V50.2394C87.5779 50.233 87.5844 50.2266 87.594 50.2234Z" fill="url(#paint15_radial_494_1594)"/>
<path opacity="0.7" d="M67.4684 56.3105C67.4524 56.8327 67.4268 57.3901 67.1641 57.8002C66.8693 58.2519 66.3663 58.3897 65.905 58.4986C65.6135 58.5659 65.3187 58.6364 65.024 58.5819C64.7325 58.5306 64.4377 58.3352 64.316 58.002C64.1334 57.5119 64.3704 56.9512 64.6043 56.4963C65.2258 55.2629 65.8505 54.0326 66.4721 52.7992C66.5874 52.5718 66.7252 52.277 66.8853 52.0079C67.1224 51.6074 67.6414 51.8093 67.651 52.3059C67.6702 53.6226 67.5037 55.0386 67.4684 56.3105Z" fill="white"/>
<path opacity="0.7" d="M66.4624 50.6046C65.1841 51.5113 64.3159 53.1099 62.9384 53.898C61.4999 54.7246 59.5937 55.077 57.9374 55.0161C56.0312 54.9424 54.0064 54.542 52.2476 53.7987C50.7771 53.1804 49.6078 51.8477 48.7588 50.5117C49.3771 51.3543 51.6165 53.5456 58.3507 53.8564C62.8839 54.0646 64.4537 51.6106 66.4624 50.6046Z" fill="white"/>
<path d="M91.3488 56.1918C89.8206 66.575 77.842 77.7174 77.842 77.7174L76.2369 76.0163C76.2369 76.0163 88.7666 62.0257 87.4819 44.6521C86.2068 27.3521 68.1444 38.3376 68.1444 38.3376C68.1444 38.3376 50.0851 27.3489 48.8101 44.6489C47.5286 62.0225 60.055 76.0131 60.055 76.0131L58.45 77.7142C58.45 77.7142 46.4714 66.5718 44.9432 56.1886C44.7926 55.1474 44.6997 54.087 44.6645 53.0201C44.6357 52.2673 44.6389 51.508 44.6645 50.7519C44.9656 41.8713 48.6211 32.8785 51.4659 29.0276C54.8394 24.456 67.7375 20.823 68.138 20.7108C68.1444 20.7076 68.1476 20.7076 68.1476 20.7076C68.1476 20.7076 68.1508 20.7076 68.1572 20.7108C68.5577 20.823 81.4525 24.4592 84.8292 29.0276C87.421 32.5389 90.692 40.3271 91.4769 48.4004C91.7268 51.0114 91.7204 53.6545 91.3488 56.1918Z" fill="url(#paint16_radial_494_1594)"/>
<path d="M91.4769 48.4003C90.4613 43.9985 88.2604 40.0099 85.3258 36.5178C83.3972 34.224 80.1102 33.4583 77.134 33.8299C74.1609 34.2016 71.268 35.64 68.5801 36.9599C69.2529 35.3965 70.3581 34.0638 71.2584 32.6221C72.165 31.1805 72.8923 29.5145 72.6776 27.8262C72.5046 26.4614 70.9764 21.9602 68.1348 20.7076H68.1572C68.5577 20.8197 81.4525 24.4559 84.8292 29.0244C87.421 32.5388 90.692 40.327 91.4769 48.4003Z" fill="url(#paint17_radial_494_1594)"/>
<path d="M76.8199 76.6345C76.8199 76.6345 92.5661 63.9255 88.366 43.3129C88.366 43.3129 91.0443 61.3112 76.2368 76.013L76.8199 76.6345Z" fill="url(#paint18_radial_494_1594)"/>
<path d="M59.4752 76.6345C59.4752 76.6345 43.729 63.9255 47.9291 43.3129C47.9291 43.3129 45.2508 61.3112 60.0583 76.013L59.4752 76.6345Z" fill="url(#paint19_radial_494_1594)"/>
<path d="M48.5537 41.4708C48.5537 41.4708 50.4247 29.7197 59.0138 27.2528C59.0138 27.2528 51.4466 30.7737 48.5537 41.4708Z" fill="url(#paint20_radial_494_1594)"/>
<path opacity="0.7" d="M68.1381 20.7108C67.7697 20.8614 56.9412 25.3114 53.6382 29.3416C50.2743 33.4423 46.3113 38.7797 44.6678 53.0233V50.7519C44.9658 41.8713 48.6212 32.8785 51.4661 29.0276C54.8396 24.456 67.7377 20.823 68.1381 20.7108Z" fill="white"/>
<defs>
<linearGradient id="paint0_linear_494_1594" x1="34.0664" y1="86.3403" x2="45.7371" y2="84.7022" gradientUnits="userSpaceOnUse">
<stop stop-color="#4816B5"/>
<stop offset="1" stop-color="#1D0056"/>
</linearGradient>
<linearGradient id="paint1_linear_494_1594" x1="25.7209" y1="65.2626" x2="33.903" y2="61.5064" gradientUnits="userSpaceOnUse">
<stop stop-color="#4816B5"/>
<stop offset="1" stop-color="#1D0056"/>
</linearGradient>
<radialGradient id="paint2_radial_494_1594" cx="0" cy="0" r="1" gradientUnits="userSpaceOnUse" gradientTransform="translate(37.1384 79.4175) rotate(-7.98993) scale(4.72337 4.72338)">
<stop stop-color="#4816B5"/>
<stop offset="1" stop-color="#1D0056"/>
</radialGradient>
<linearGradient id="paint3_linear_494_1594" x1="102.229" y1="86.3404" x2="90.5581" y2="84.7022" gradientUnits="userSpaceOnUse">
<stop stop-color="#1D0056"/>
<stop offset="1" stop-color="#4816B5"/>
</linearGradient>
<linearGradient id="paint4_linear_494_1594" x1="110.574" y1="65.2625" x2="102.392" y2="61.5064" gradientUnits="userSpaceOnUse">
<stop stop-color="#1D0056"/>
<stop offset="1" stop-color="#4816B5"/>
</linearGradient>
<radialGradient id="paint5_radial_494_1594" cx="0" cy="0" r="1" gradientUnits="userSpaceOnUse" gradientTransform="translate(99.1567 79.4175) rotate(-172.01) scale(4.72338)">
<stop stop-color="#4816B5"/>
<stop offset="1" stop-color="#1D0056"/>
</radialGradient>
<radialGradient id="paint6_radial_494_1594" cx="0" cy="0" r="1" gradientUnits="userSpaceOnUse" gradientTransform="translate(44.2951 84.389) scale(53.6373 76.8515)">
<stop stop-color="#4816B5"/>
<stop offset="1" stop-color="#1D0056"/>
</radialGradient>
<radialGradient id="paint7_radial_494_1594" cx="0" cy="0" r="1" gradientUnits="userSpaceOnUse" gradientTransform="translate(72.5687 90.4606) scale(17.5893 25.2019)">
<stop stop-color="#0F0033"/>
<stop offset="1" stop-color="#060019"/>
</radialGradient>
<radialGradient id="paint8_radial_494_1594" cx="0" cy="0" r="1" gradientUnits="userSpaceOnUse" gradientTransform="translate(63.2186 75.5583) scale(10.8849 10.8849)">
<stop stop-color="#1D0056"/>
<stop offset="1" stop-color="#07001E"/>
</radialGradient>
<radialGradient id="paint9_radial_494_1594" cx="0" cy="0" r="1" gradientUnits="userSpaceOnUse" gradientTransform="translate(57.3909 43.2135) scale(23.1939 24.9388)">
<stop stop-color="#0F0033"/>
<stop offset="1" stop-color="#060019"/>
</radialGradient>
<radialGradient id="paint10_radial_494_1594" cx="0" cy="0" r="1" gradientUnits="userSpaceOnUse" gradientTransform="translate(78.5521 47.2536) scale(5.43152)">
<stop stop-color="#FFAD4A"/>
<stop offset="1" stop-color="#EA6C18"/>
</radialGradient>
<radialGradient id="paint11_radial_494_1594" cx="0" cy="0" r="1" gradientUnits="userSpaceOnUse" gradientTransform="translate(57.7694 47.3524) scale(4.65026)">
<stop stop-color="#FFAD4A"/>
<stop offset="1" stop-color="#EA6C18"/>
</radialGradient>
<radialGradient id="paint12_radial_494_1594" cx="0" cy="0" r="1" gradientUnits="userSpaceOnUse" gradientTransform="translate(57.1534 28.5608) scale(23.4432 23.4432)">
<stop stop-color="#4816B5"/>
<stop offset="1" stop-color="#1D0056"/>
</radialGradient>
<radialGradient id="paint13_radial_494_1594" cx="0" cy="0" r="1" gradientUnits="userSpaceOnUse" gradientTransform="translate(69.4771 34.5188) scale(14.5164 15.6084)">
<stop stop-color="#1D0056"/>
<stop offset="1" stop-color="#0F0035"/>
</radialGradient>
<radialGradient id="paint14_radial_494_1594" cx="0" cy="0" r="1" gradientUnits="userSpaceOnUse" gradientTransform="translate(51.8512 56.7149) scale(41.3424 41.3424)">
<stop stop-color="#4816B5"/>
<stop offset="1" stop-color="#1D0056"/>
</radialGradient>
<radialGradient id="paint15_radial_494_1594" cx="0" cy="0" r="1" gradientUnits="userSpaceOnUse" gradientTransform="translate(68.7544 57.7993) scale(20.2835 21.8094)">
<stop stop-color="#0F0033"/>
<stop offset="1" stop-color="#060019"/>
</radialGradient>
<radialGradient id="paint16_radial_494_1594" cx="0" cy="0" r="1" gradientUnits="userSpaceOnUse" gradientTransform="translate(54.6595 28.3489) scale(43.7597 43.7598)">
<stop stop-color="#4816B5"/>
<stop offset="1" stop-color="#1D0056"/>
</radialGradient>
<radialGradient id="paint17_radial_494_1594" cx="0" cy="0" r="1" gradientUnits="userSpaceOnUse" gradientTransform="translate(73.258 26.3777) scale(19.3875 19.3875)">
<stop stop-color="#0F0033"/>
<stop offset="1" stop-color="#060019"/>
</radialGradient>
<radialGradient id="paint18_radial_494_1594" cx="0" cy="0" r="1" gradientUnits="userSpaceOnUse" gradientTransform="translate(82.6586 59.975) rotate(180) scale(11.8598 12.7521)">
<stop stop-color="#0F0033"/>
<stop offset="1" stop-color="#060019"/>
</radialGradient>
<radialGradient id="paint19_radial_494_1594" cx="0" cy="0" r="1" gradientUnits="userSpaceOnUse" gradientTransform="translate(53.6362 59.975) scale(11.8598 12.752)">
<stop stop-color="#0F0033"/>
<stop offset="1" stop-color="#060019"/>
</radialGradient>
<radialGradient id="paint20_radial_494_1594" cx="0" cy="0" r="1" gradientUnits="userSpaceOnUse" gradientTransform="translate(53.7849 34.362) scale(5.96112 6.40957)">
<stop stop-color="#0F0033"/>
<stop offset="1" stop-color="#060019"/>
</radialGradient>
</defs>
</svg>
