<svg width="238" height="277" viewBox="0 0 238 277" fill="none" xmlns="http://www.w3.org/2000/svg">
<g clip-path="url(#clip0_487_444)">
<path d="M79.2113 214.189L69.7829 219.075C69.7829 219.075 16.534 245.619 10.6624 248.213C6.88512 249.881 3.60759 248.816 1.74836 247.846C0.712191 247.309 0.116943 246.795 0.116943 246.795L66.9757 213.674L75.7207 209.14L76.4115 208.78L79.2113 214.189Z" fill="#939393"/>
<path d="M76.1028 208.626L79.1892 214.534L100.78 203.202C101.779 202.68 102.169 201.439 101.647 200.439L100.456 198.161C99.9347 197.162 98.6928 196.772 97.6934 197.294L76.1028 208.626Z" fill="#170B3F"/>
<path d="M97.7817 201.042L99.6042 202.555L99.3984 200.196L97.5833 198.69L97.7817 201.042Z" fill="#F16316"/>
<path d="M95.496 202.239L97.3185 203.753L97.1127 201.394L95.2976 199.88L95.496 202.239Z" fill="#F16316"/>
<path d="M93.2107 203.437L95.0332 204.944L94.8275 202.592L93.0123 201.078L93.2107 203.437Z" fill="#F16316"/>
<path d="M90.9324 204.628L92.7476 206.142L92.5418 203.783L90.7267 202.276L90.9324 204.628Z" fill="#F16316"/>
<path d="M88.647 205.826L90.4622 207.332L90.2564 204.981L88.4413 203.467L88.647 205.826Z" fill="#F16316"/>
<path d="M86.3615 207.016L88.1767 208.53L87.9709 206.178L86.1558 204.665L86.3615 207.016Z" fill="#F16316"/>
<path d="M84.0762 208.214L85.8914 209.728L85.6856 207.369L83.8705 205.863L84.0762 208.214Z" fill="#F16316"/>
<path d="M81.7907 209.412L83.6059 210.918L83.4074 208.567L81.585 207.053L81.7907 209.412Z" fill="#F16316"/>
<path d="M79.5052 210.603L81.3203 212.116L81.1219 209.757L79.2994 208.251L79.5052 210.603Z" fill="#F16316"/>
<path d="M74.9475 207.596L79.313 216.011L80.2002 215.551L75.8347 207.136L74.9475 207.596Z" fill="#170B3F"/>
<path d="M175.323 163.082L174.871 163.534L182.369 171.032L182.821 170.58L175.323 163.082Z" fill="#E4E4E4"/>
<path d="M177.559 167.447L177.107 167.899L188.929 179.72L189.381 179.268L177.559 167.447Z" fill="#E4E4E4"/>
<path d="M208.231 113.29L169.727 151.795L197.688 179.756L236.192 141.252L208.231 113.29Z" stroke="#F16316" stroke-width="0.734873" stroke-miterlimit="10"/>
<path d="M197.688 180.2L169.285 151.798L208.233 112.849L236.636 141.252L197.688 180.2ZM170.167 151.798L197.688 179.319L235.754 141.252L208.233 113.731L170.167 151.798Z" stroke="white" stroke-width="0.734873" stroke-miterlimit="10"/>
<path d="M208.22 113.737L205.113 116.844L232.637 144.369L235.745 141.262L208.22 113.737Z" fill="#F16316"/>
<path d="M208.409 117.854C208.872 117.854 209.247 117.479 209.247 117.016C209.247 116.553 208.872 116.178 208.409 116.178C207.947 116.178 207.572 116.553 207.572 117.016C207.572 117.479 207.947 117.854 208.409 117.854Z" fill="#E4E4E4"/>
<path d="M207.601 117.825C207.153 117.376 207.153 116.649 207.601 116.208C208.049 115.76 208.777 115.76 209.225 116.208C209.673 116.656 209.673 117.384 209.225 117.832C208.769 118.273 208.042 118.273 207.601 117.825ZM208.777 116.649C208.571 116.443 208.24 116.443 208.034 116.649C207.829 116.854 207.829 117.185 208.034 117.391C208.24 117.597 208.571 117.597 208.777 117.391C208.982 117.185 208.982 116.847 208.777 116.649Z" fill="#E4E4E4"/>
<path d="M210.636 120.081C211.099 120.081 211.474 119.705 211.474 119.243C211.474 118.78 211.099 118.405 210.636 118.405C210.173 118.405 209.798 118.78 209.798 119.243C209.798 119.705 210.173 120.081 210.636 120.081Z" fill="#E4E4E4"/>
<path d="M209.82 120.051C209.372 119.603 209.372 118.875 209.82 118.434C210.268 117.986 210.996 117.986 211.444 118.434C211.892 118.883 211.892 119.61 211.444 120.059C210.996 120.499 210.268 120.499 209.82 120.051ZM211.003 118.875C210.797 118.67 210.467 118.67 210.261 118.875C210.055 119.081 210.055 119.412 210.261 119.618C210.467 119.823 210.797 119.823 211.003 119.618C211.209 119.412 211.209 119.074 211.003 118.875Z" fill="#E4E4E4"/>
<path d="M212.863 122.307C213.325 122.307 213.7 121.932 213.7 121.469C213.7 121.007 213.325 120.631 212.863 120.631C212.4 120.631 212.025 121.007 212.025 121.469C212.025 121.932 212.4 122.307 212.863 122.307Z" fill="#E4E4E4"/>
<path d="M212.047 122.278C211.599 121.829 211.599 121.102 212.047 120.661C212.495 120.213 213.223 120.213 213.671 120.661C214.119 121.109 214.119 121.837 213.671 122.285C213.223 122.726 212.495 122.726 212.047 122.278ZM213.23 121.094C213.024 120.889 212.693 120.889 212.488 121.094C212.282 121.3 212.282 121.631 212.488 121.837C212.693 122.042 213.024 122.042 213.23 121.837C213.436 121.631 213.436 121.3 213.23 121.094Z" fill="#E4E4E4"/>
<path d="M181.822 142.421L175.062 149.182L200.399 174.519L207.159 167.758L181.822 142.421Z" fill="white"/>
<path d="M173.759 150.483L173.307 150.935L178.94 156.568L179.392 156.116L173.759 150.483Z" fill="#E4E4E4"/>
<path d="M180.801 157.523L180.349 157.975L194.358 171.984L194.81 171.532L180.801 157.523Z" fill="#E4E4E4"/>
<path d="M192.054 168.777L191.602 169.229L197.11 174.737L197.562 174.285L192.054 168.777Z" fill="#E4E4E4"/>
<path d="M205.515 119.002L203.852 120.664L229.054 145.866L230.717 144.203L205.515 119.002Z" fill="white"/>
<path d="M229.059 146.308L203.412 120.661L205.514 118.559L231.161 144.206L229.059 146.308ZM204.294 120.661L229.059 145.426L230.287 144.199L205.521 119.434L204.294 120.661Z" fill="white"/>
<path d="M220.711 154.208C220.351 154.568 219.756 154.568 219.396 154.208L195.512 130.325C195.152 129.964 195.152 129.369 195.512 129.009L201.994 122.528C202.354 122.167 202.949 122.167 203.309 122.528L227.193 146.411C227.553 146.771 227.553 147.366 227.193 147.726L220.711 154.208Z" fill="white"/>
<path d="M219.175 154.428L195.292 130.545C194.807 130.06 194.807 129.274 195.292 128.789L201.773 122.307C202.258 121.822 203.045 121.822 203.53 122.307L227.413 146.19C227.898 146.676 227.898 147.462 227.413 147.947L220.931 154.428C220.446 154.913 219.66 154.913 219.175 154.428ZM203.096 122.748C202.854 122.506 202.457 122.506 202.214 122.748L195.733 129.23C195.49 129.472 195.49 129.869 195.733 130.111L219.616 153.995C219.859 154.237 220.255 154.237 220.498 153.995L226.979 147.513C227.222 147.271 227.222 146.874 226.979 146.631L203.096 122.748Z" fill="white"/>
<path d="M206.844 161.461C206.484 161.821 205.97 161.909 205.705 161.645L188.465 144.405C188.2 144.14 188.289 143.633 188.649 143.266L195.13 136.784C195.49 136.424 196.005 136.336 196.269 136.6L213.509 153.841C213.774 154.105 213.686 154.612 213.326 154.98L206.844 161.461Z" fill="white"/>
<path d="M217.345 115.488L216.892 115.94L220.358 119.406L220.81 118.954L217.345 115.488Z" fill="#E4E4E4"/>
<path d="M218.064 118.241L217.612 118.693L228.743 129.824L229.195 129.371L218.064 118.241Z" fill="#E4E4E4"/>
<path d="M213.201 139.834L212.032 135.476C212.01 135.388 211.959 135.307 211.9 135.241C211.694 135.035 211.364 135.035 211.158 135.241L207.968 138.43C207.763 138.636 207.763 138.967 207.968 139.173C208.035 139.239 208.115 139.283 208.204 139.305L212.561 140.473C212.745 140.525 212.936 140.473 213.068 140.341C213.201 140.201 213.252 140.018 213.201 139.834Z" fill="#F16316"/>
<path d="M179.828 148.589L178.108 150.309L199.179 171.38L200.899 169.66L179.828 148.589Z" fill="#F16316"/>
<path d="M199.179 171.823L177.67 150.313L179.83 148.153L201.34 169.662L199.179 171.823ZM178.544 150.306L199.179 170.941L200.458 169.662L179.823 149.027L178.544 150.306Z" fill="white"/>
<path d="M179.821 148.59L178.101 150.31L196.844 169.053L198.564 167.333L179.821 148.59Z" fill="#F16316"/>
<path d="M196.85 169.493L177.662 150.306L179.823 148.145L199.01 167.333L196.85 169.493ZM178.544 150.306L196.85 168.611L198.128 167.333L179.823 149.027L178.544 150.306Z" fill="white"/>
<path d="M182.699 145.712L180.979 147.432L202.05 168.503L203.77 166.783L182.699 145.712Z" fill="white"/>
<path d="M202.053 168.942L180.543 147.432L182.703 145.272L204.213 166.781L202.053 168.942ZM181.425 147.432L202.06 168.067L203.339 166.789L182.703 146.154L181.425 147.432Z" fill="#F16316"/>
<path d="M182.696 145.712L180.976 147.432L189.617 156.073L191.337 154.353L182.696 145.712Z" fill="white"/>
<path d="M189.626 156.515L180.543 147.432L182.703 145.272L191.787 154.355L189.626 156.515ZM181.425 147.432L189.626 155.633L190.905 154.355L182.703 146.154L181.425 147.432Z" fill="#F16316"/>
<path d="M44.0256 168.229C45.0839 168.817 45.466 170.169 44.8781 171.228L31.8561 194.619C31.2682 195.677 29.9161 196.059 28.8579 195.471L5.46686 182.449C4.40864 181.861 4.02651 180.509 4.61441 179.451L17.6364 156.06C18.2243 155.002 19.5764 154.619 20.6346 155.207L44.0256 168.229Z" fill="#F16316"/>
<path d="M45.5172 171.58L32.4952 194.971C31.7089 196.389 29.9158 196.897 28.4975 196.11L5.10653 183.088C3.68822 182.302 3.18116 180.509 3.96747 179.091L16.9894 155.7C17.7757 154.281 19.5688 153.774 20.9871 154.56L44.3781 167.582C45.7964 168.369 46.3109 170.162 45.5172 171.58ZM5.2535 179.811C4.85667 180.516 5.11388 181.413 5.81935 181.81L29.2104 194.832C29.9158 195.228 30.8124 194.971 31.2092 194.266L44.2312 170.875C44.628 170.169 44.3708 169.273 43.6653 168.876L20.2743 155.854C19.5688 155.457 18.6723 155.714 18.2755 156.42L5.2535 179.811Z" fill="white"/>
<path d="M20.2298 158.777L8.2948 180.215L26.6769 190.448L38.6119 169.01L20.2298 158.777Z" fill="white"/>
<path d="M39.6165 168.736L26.962 191.459L7.29675 180.509L19.9513 157.787L39.6165 168.736ZM26.3961 189.46L37.6176 169.302L20.5171 159.778L9.29561 179.936L26.3961 189.46Z" fill="#E4E4E4"/>
<path d="M26.4548 171.566L28.0421 175.233L19.6719 175.46L27.5938 188.291L31.0257 182.126L34.9646 175.042L37.3456 170.765L26.4548 171.566Z" fill="#F16316"/>
<path d="M38.6537 169.934L27.6232 189.739L18.3785 174.762L26.9398 174.527L25.3745 170.904L38.6537 169.934ZM27.5571 186.836L36.0375 171.595L27.5351 172.22L29.1444 175.938L20.9653 176.159L27.5571 186.836Z" fill="#F16316"/>
<path d="M21.2665 170.272C22.4841 170.272 23.4711 169.285 23.4711 168.068C23.4711 166.85 22.4841 165.863 21.2665 165.863C20.0489 165.863 19.0619 166.85 19.0619 168.068C19.0619 169.285 20.0489 170.272 21.2665 170.272Z" stroke="#F16316" stroke-width="0.734873" stroke-miterlimit="10"/>
<path d="M23.8313 169.501C23.0449 170.912 21.2519 171.426 19.8336 170.632C18.4152 169.846 17.9008 168.053 18.6871 166.635C19.4735 165.216 21.2666 164.709 22.6849 165.496C24.1105 166.289 24.6176 168.082 23.8313 169.501ZM19.9732 167.355C19.5763 168.06 19.8409 168.957 20.5464 169.354C21.2519 169.751 22.1484 169.493 22.5452 168.788C22.9421 168.082 22.6849 167.186 21.972 166.789C21.2666 166.392 20.37 166.649 19.9732 167.355Z" stroke="#F16316" stroke-width="0.734873" stroke-miterlimit="10"/>
<path d="M122.694 60.2691L86.3616 48.5993C84.4951 47.9967 83.4589 45.9905 84.0615 44.1166L90.4402 24.2603C91.0428 22.3937 93.049 21.3576 94.9229 21.9602L131.255 33.6299C133.122 34.2325 134.158 36.2387 133.555 38.1127L127.176 57.9689C126.567 59.8355 124.56 60.8717 122.694 60.2691ZM94.4673 23.3564C93.3723 23.0037 92.1892 23.6136 91.8364 24.7086L85.4577 44.5649C85.105 45.6598 85.7076 46.843 86.8099 47.1957L123.142 58.8655C124.237 59.2182 125.42 58.6083 125.773 57.5133L132.152 37.6571C132.504 36.5621 131.902 35.3789 130.799 35.0262L94.4673 23.3564Z" stroke="white" stroke-width="0.734873" stroke-miterlimit="10"/>
<path d="M113.861 46.3361C111.333 45.5277 109.936 42.8087 110.752 40.2807C111.568 37.7528 114.279 36.3565 116.807 37.1722C117.991 37.5543 118.975 38.3701 119.571 39.4797L119.931 40.1558L119.247 40.4938C118.417 40.898 117.807 41.5961 117.528 42.4706C117.248 43.3378 117.337 44.2637 117.77 45.0794L118.13 45.7555L117.439 46.0936C116.315 46.6227 115.044 46.7182 113.861 46.3361ZM116.352 38.5685C114.595 38.0026 112.707 38.9727 112.141 40.729C111.575 42.4853 112.545 44.374 114.301 44.9398C114.897 45.1309 115.529 45.1456 116.131 44.9913C115.808 44.0286 115.801 42.9924 116.117 42.0077C116.433 41.0229 117.043 40.1852 117.873 39.5899C117.476 39.1123 116.954 38.7595 116.352 38.5685Z" stroke="white" stroke-width="0.734873" stroke-miterlimit="10"/>
<path d="M122.789 39.7811C121.746 39.443 120.665 39.5606 119.747 40.0089C118.784 40.4792 118.005 41.3243 117.652 42.4193C117.3 43.5216 117.439 44.6533 117.946 45.6013C118.431 46.4978 119.24 47.218 120.283 47.556C122.429 48.2468 124.729 47.0637 125.42 44.9178C126.111 42.772 124.935 40.4719 122.789 39.7811Z" fill="white"/>
<path d="M120.07 48.2541C118.887 47.872 117.91 47.0563 117.307 45.9466C116.675 44.7781 116.55 43.448 116.954 42.1914C117.358 40.9421 118.233 39.928 119.423 39.3474C120.548 38.7963 121.826 38.7007 123.01 39.0829C125.538 39.8986 126.934 42.6103 126.118 45.1382C125.317 47.6662 122.598 49.0625 120.07 48.2541ZM122.569 40.4791C121.746 40.2146 120.864 40.2807 120.077 40.6629C119.247 41.067 118.637 41.7725 118.358 42.6397C118.079 43.5068 118.167 44.4328 118.6 45.2485C119.012 46.0201 119.695 46.5859 120.518 46.8505C122.275 47.4163 124.163 46.4463 124.729 44.69C125.295 42.9336 124.325 41.045 122.569 40.4791Z" fill="white"/>
<path d="M99.0309 38.9799C98.8839 39.4429 98.3915 39.6927 97.9359 39.5458L92.2553 37.7233C91.7997 37.5763 91.5425 37.0839 91.6895 36.6283L92.7551 33.2993C92.902 32.8364 93.3944 32.5865 93.85 32.7335L99.5306 34.556C99.9862 34.7029 100.243 35.1953 100.096 35.6509L99.0309 38.9799Z" fill="white"/>
<path d="M97.7083 40.2439L92.0277 38.4214C91.1826 38.1495 90.7196 37.2456 90.9915 36.4005L92.0571 33.0715C92.329 32.2264 93.2329 31.7635 94.078 32.0354L99.7586 33.8579C100.604 34.1298 101.067 35.0337 100.795 35.8788L99.7292 39.2077C99.4573 40.0528 98.5534 40.5158 97.7083 40.2439ZM93.6297 33.4316C93.5563 33.4096 93.4828 33.4463 93.4534 33.5198L92.3878 36.8488C92.3658 36.9223 92.4025 36.9958 92.476 37.0252L98.1566 38.8476C98.23 38.8697 98.3035 38.8329 98.3329 38.7595L99.3985 35.4305C99.4205 35.357 99.3838 35.2835 99.3103 35.2541L93.6297 33.4316Z" fill="white"/>
<path d="M107.46 32.6452C107.393 32.851 107.166 32.9686 106.96 32.9024L94.8418 29.0076C94.6361 28.9415 94.5185 28.721 94.5846 28.5079L95.0696 26.994C95.1358 26.7883 95.3562 26.6707 95.5693 26.7368L107.687 30.6317C107.893 30.6978 108.011 30.9183 107.945 31.1314L107.46 32.6452Z" fill="white"/>
<path d="M106.732 33.6006L94.6142 29.7058C94.019 29.5147 93.6956 28.8754 93.8867 28.2801L94.3717 26.7663C94.5628 26.1711 95.2021 25.8477 95.7973 26.0388L107.915 29.9336C108.511 30.1247 108.834 30.764 108.643 31.3593L108.158 32.8731C107.967 33.461 107.328 33.7917 106.732 33.6006ZM95.3858 28.4124L106.857 32.0941L107.136 31.227L95.6651 27.5453L95.3858 28.4124Z" fill="white"/>
<path d="M122.855 54.2361C122.789 54.4419 122.561 54.5594 122.341 54.486L90.0064 44.0948C89.7933 44.0287 89.6684 43.8009 89.7345 43.5951L90.2196 42.0813C90.2857 41.8755 90.5135 41.758 90.734 41.8314L123.068 52.2225C123.281 52.2887 123.406 52.5165 123.34 52.7223L122.855 54.2361Z" fill="#F16316"/>
<path d="M122.121 55.1839L89.7861 44.7928C89.1835 44.6018 88.8528 43.9624 89.0439 43.3672L89.5289 41.8533C89.7199 41.2581 90.3666 40.9347 90.9692 41.1258L123.304 51.5169C123.906 51.708 124.237 52.3473 124.046 52.9426L123.561 54.4564C123.37 55.0517 122.723 55.375 122.121 55.1839ZM90.543 43.4995L122.26 53.6921L122.539 52.825L90.8223 42.6323L90.543 43.4995Z" fill="white"/>
<path d="M151.376 270.325C151.376 273.698 137.252 276.432 119.82 276.432C102.397 276.432 88.2649 273.698 88.2649 270.325C88.2649 266.952 102.389 264.219 119.82 264.219C137.244 264.219 151.376 266.952 151.376 270.325Z" fill="white"/>
<path d="M154.977 22.0191C154.977 22.0191 139.816 7.66705 134.151 5.73433C134.151 5.73433 139.302 -2.81959 149.509 2.4421C159.717 7.71114 160.033 9.59977 165.162 10.3052C170.292 11.0034 175.142 14.9129 172.599 19.1605C170.064 23.4007 168.043 25.7449 168.043 25.7449L154.977 22.0191Z" fill="#170B3F"/>
<path d="M148.892 63.1057L155.653 19.6968C155.653 19.6968 164.993 18.9178 169.248 23.7018L170.887 66.9271C170.879 66.9271 153.999 73.2102 148.892 63.1057Z" fill="#0B0623" fill-opacity="0.98"/>
<path d="M123.568 250.638L121.173 254.349L98.6267 267.65C98.6267 267.65 105.505 272.75 117.814 269.039C130.131 265.328 138.126 265.791 138.126 265.791L135.407 255.275L123.568 250.638Z" fill="#170B3F"/>
<path d="M117.814 217.238C117.814 217.238 122.135 244.605 121.172 254.349C121.172 254.349 126.611 259.92 135.407 255.275L141.007 213.218L117.814 217.238Z" fill="#0B0623" fill-opacity="0.98"/>
<path d="M89.3452 195.589C89.3452 195.589 96.0105 204.4 94.1954 208.368C92.3802 212.336 82.577 215.379 80.7619 213.99C78.9467 212.601 79.1892 207.854 79.1892 207.854L82.6799 196.978L89.3452 195.589Z" fill="#493022"/>
<path d="M86.5747 196.985C86.5747 196.985 90.1976 200.953 85.8251 206.781C85.8251 206.781 89.8743 205.135 90.6753 206.781C90.6753 206.781 85.3989 210.801 78.8953 210.286C72.3916 209.772 82.9444 197.61 82.9444 197.61L86.5747 196.985Z" fill="#664230"/>
<path d="M61.1995 127.892C61.1995 127.892 68.5923 142.259 69.7975 152.393C71.0394 162.843 74.1553 180.127 81.0337 180.281C87.9121 180.436 95.5842 178.584 94.7905 169.92C93.9895 161.263 83.1134 135.505 83.1134 135.505L61.1995 127.892Z" fill="#250F59"/>
<path opacity="0.2" d="M62.243 130.023L88.963 150.321L83.1061 135.505L62.243 130.023Z" fill="black"/>
<path d="M119.887 153.378C120.526 166.679 119.887 178.429 117.006 189.254C114.125 200.079 106.321 208.118 112.06 217.091C117.807 226.057 142.072 222.5 149.37 212.3C156.667 202.092 152.295 183.574 152.346 175.806C152.544 146.198 160.503 131.375 168.337 109.829C176.171 88.2825 177.934 64.0097 165.941 56.8961C153.948 49.7825 144.387 57.822 142.293 65.3986C140.191 72.9751 141.683 102.715 135.165 112.644C127.493 124.321 119.887 153.378 119.887 153.378Z" fill="#250F59"/>
<path opacity="0.2" d="M150.318 102.759C146.797 101.451 141.749 104.281 137.391 107.646C136.774 109.594 136.046 111.299 135.172 112.629C127.492 124.321 119.894 153.37 119.894 153.37C120.122 158.088 120.173 162.608 120.041 166.965C122.944 172.844 139.14 157.618 139.14 157.618L136.789 137.416L150.648 132.669C150.648 132.669 157.777 105.545 150.318 102.759Z" fill="black"/>
<path d="M115.999 140.334C115.999 140.334 116.8 152.613 118.174 161.476C119.548 170.338 137.641 153.319 137.641 153.319L135.297 133.117L149.156 128.37C149.156 128.37 156.285 101.246 148.826 98.4605C141.359 95.6754 126.985 111.571 126.985 111.571L115.999 140.334Z" fill="#250F59"/>
<path d="M112.067 142.744L120.585 143.64C120.585 143.64 135.407 134.881 131.034 109.829L124.744 110.241L112.067 142.744Z" fill="#0B0623" fill-opacity="0.98"/>
<path d="M65.9983 106.669L71.9654 112.732C71.9654 112.732 63.4336 123.769 57.0402 127.26C57.0402 127.26 83.5985 143.053 112.067 142.744C112.067 142.744 125.596 125.394 125.964 111.784C126.015 109.88 125.641 106.096 122.929 104.766C120.21 103.436 117.491 107.389 112.692 105.412C107.893 103.436 92.2185 85.6589 92.2185 85.6589L80.5414 102.407L75.581 96.9686L65.9983 106.669Z" fill="#250F59"/>
<path opacity="0.2" d="M106.041 100.158L89.5509 109.021C92.3508 111.086 95.9149 113.026 99.3247 110.116C102.066 108.837 108.173 106.258 111.612 104.817C110.149 103.884 108.18 102.179 106.041 100.158Z" fill="black"/>
<path d="M79.1892 178.349C79.1892 178.349 85.5091 172.47 91.5057 176.026L89.9845 196.904C89.9845 196.904 85.7443 199.608 82.1507 198.602L79.1892 178.349Z" fill="#170B3F"/>
<path d="M80.5488 102.399C80.5488 102.399 81.6731 109.469 71.9655 112.732L96.8776 117.832L80.5488 102.399Z" fill="#0B0623" fill-opacity="0.98"/>
<path d="M83.9585 139.437L62.8015 122.792C60.9276 124.313 59.0096 125.651 57.2753 126.474C57.2753 126.474 68.3204 133.933 83.9585 139.437Z" fill="#0B0623" fill-opacity="0.98"/>
<path d="M92.2259 85.6515L88.7352 90.6633C90.7708 94.0878 96.8703 102.274 108.863 102.708C102.397 97.1964 92.2259 85.6515 92.2259 85.6515Z" fill="#0B0623" fill-opacity="0.98"/>
<path d="M92.2257 85.6516C93.6808 82.3594 100.861 82.7048 113.765 73.9451C126.662 65.1854 135.943 69.1023 137.009 77.3476C138.074 85.5928 132.46 90.9133 122.752 94.5289C116.058 97.0201 108.753 100.849 104.594 101.26C100.434 101.679 89.5582 91.6923 92.2257 85.6516Z" fill="#250F59"/>
<path d="M93.8206 101.959C93.8206 101.959 105.409 92.3685 110.01 87.4228C114.61 82.4771 120.291 73.056 127.963 76.9141C135.642 80.7722 132.284 89.6641 127.963 92.3685C123.642 95.0728 98.2959 108.22 98.2959 108.22L93.8206 101.959Z" fill="#170B3F"/>
<path d="M95.3417 103.12L98.9426 106.441C98.9426 106.441 98.2592 110.387 94.842 110.77C91.4249 111.159 85.906 109.3 83.9071 102.186L86.8686 101.268C86.8686 101.268 86.707 97.3875 86.0235 95.3005C85.3475 93.2134 82.9444 88.7674 86.0235 87.8195L95.3417 103.12Z" fill="#493022"/>
<path d="M98.9425 106.449C98.9425 106.449 97.267 109.462 94.3863 108.462C91.5056 107.455 90.4033 97.8066 88.8674 95.2419C87.3315 92.6772 84.3921 88.8264 87.1919 86.8129L91.8143 94.0808L95.7458 100.577C95.7385 100.57 98.6192 103.201 98.9425 106.449Z" fill="#664230"/>
<path opacity="0.2" d="M87.3096 101.275C87.3096 101.275 89.9846 101.635 90.183 101.885C90.3887 102.127 89.1395 103.781 86.5968 103.634C86.5968 103.634 89.6759 104.413 90.5137 102.399C91.3514 100.386 87.3096 101.275 87.3096 101.275Z" fill="black"/>
<path opacity="0.2" d="M79.8286 101.613L75.5884 96.9688L65.991 106.676L70.9293 111.696C76.0881 109.131 78.7778 104.09 79.8286 101.613Z" fill="black"/>
<path opacity="0.7" d="M76.6613 210.926L1.74836 247.846C0.712191 247.309 0.116943 246.795 0.116943 246.795L66.9757 213.674L75.7207 209.14L76.6613 210.926Z" fill="white"/>
<path d="M67.4754 110.902C67.4754 110.902 71.4584 110.622 74.8241 107.573C78.1899 104.523 78.7704 100.672 78.7704 100.672L74.5522 99.7463L66.6891 107.213L67.4754 110.902Z" fill="url(#paint0_radial_487_444)"/>
<path d="M47.8322 101.62C45.1131 99.6216 42.7689 97.0863 40.9832 94.2276C47.766 86.5776 55.3646 79.486 63.5364 73.3499C66.6523 74.8931 69.5109 77.2814 71.5612 80.1327C65.7925 89.1349 57.2459 96.5718 47.8322 101.62Z" fill="#0B0623"/>
<path d="M64.6167 79.1187C62.3092 80.5664 60.957 83.3662 61.1922 86.2028C62.5223 85.637 63.8891 84.7551 64.455 83.4177C64.8959 82.3815 65.0282 81.2424 64.8445 80.1034" fill="#F16316"/>
<path d="M47.5676 94.5582C49.2358 92.405 52.1606 91.3321 54.9531 91.8465C54.255 93.1105 53.2482 94.3818 51.8593 94.8227C50.7864 95.1608 49.64 95.1755 48.523 94.8815" fill="#F16316"/>
<path d="M66.6596 75.7019C66.6596 75.7019 63.8083 74.5849 61.5523 75.893C61.1628 76.1208 60.8468 76.378 60.5749 76.672C58.6201 78.8104 59.3182 82.6465 56.3126 85.902C56.1215 86.1077 55.9158 86.3135 55.688 86.5193C51.4698 90.3332 46.8107 88.136 44.5326 91.3033C43.0041 93.4197 43.8345 96.3666 43.8345 96.3666C43.8345 96.3666 34.5898 84.1677 45.0176 74.7319C45.2013 74.5629 45.3851 74.4012 45.5688 74.2542C46.6049 73.3871 47.6485 72.711 48.6846 72.1892C57.8999 67.5889 66.6596 75.7019 66.6596 75.7019Z" fill="url(#paint1_radial_487_444)"/>
<path d="M64.668 74.1728C63.9258 73.1293 62.9705 72.3577 61.7138 71.9388C60.8834 71.6596 60.031 71.5273 59.1712 71.4906C56.1288 70.5499 52.4397 70.3074 48.6698 72.1887C47.6337 72.7031 46.5902 73.3865 45.554 74.2537C46.8768 74.0553 48.2657 74.1728 49.5884 74.5697C48.1334 75.6059 46.84 76.8625 45.7597 78.2881C43.1142 81.7788 41.7106 86.188 41.5195 90.7148C42.3867 88.3926 44.4517 86.7612 46.7445 85.8573C49.0373 84.9534 51.5285 84.7183 54.0197 84.4684C54.0785 82.6606 54.5709 80.9043 55.4086 79.3537C56.4668 81.3893 56.8122 83.7703 56.3125 85.9014C59.3182 82.6459 58.62 78.8099 60.5748 76.6714C60.8467 76.3775 61.17 76.1129 61.5522 75.8924C63.8082 74.5844 66.6595 75.7014 66.6595 75.7014C66.6595 75.7014 65.9247 75.0253 64.668 74.1728Z" fill="url(#paint2_radial_487_444)"/>
<path d="M70.0181 79.4052C70.0254 79.4125 70.0327 79.4198 70.0327 79.4345C82.8857 96.8216 75.1475 104.92 73.7879 106.14C73.663 106.25 73.5895 106.302 73.5895 106.302C73.5895 106.302 64.6755 115.928 47.1855 100.084C47.1855 100.084 47.2737 100.121 47.4574 100.165C47.4648 100.173 47.4721 100.173 47.4795 100.173C48.2879 100.334 50.7423 100.43 54.8356 97.0642C57.584 94.7934 57.2092 92.5373 57.8485 90.8912C58.0102 90.4723 58.238 90.0902 58.6055 89.7522C58.6569 89.7081 58.7084 89.664 58.7598 89.6199C60.5529 88.2163 63.1617 89.7889 66.2481 86.7245C70.5619 82.4475 70.1209 79.8461 70.0327 79.4639C70.018 79.4272 70.0181 79.4052 70.0181 79.4052Z" fill="#250F59"/>
<path d="M69.9518 79.5078C82.8047 96.9023 75.0665 104.993 73.707 106.213C71.2452 103.134 68.5629 100.231 65.6822 97.5416C64.9106 96.8141 64.0728 96.0278 63.867 95.0063C63.6613 93.9995 64.1095 92.9413 63.6833 91.9933C63.1983 90.9277 61.8976 90.5677 60.7732 90.3472C60.1265 90.2223 59.3329 90.0312 58.6788 89.6932C60.4719 88.2895 63.0807 89.8622 66.1672 86.7978C70.4735 82.5208 70.04 79.9193 69.9518 79.5372C69.9444 79.5225 69.9518 79.5152 69.9518 79.5078Z" fill="#0B0623"/>
<path opacity="0.7" d="M61.4346 93.6763C61.6991 93.9849 61.9784 94.3303 62.0445 94.7051C62.1107 95.124 61.8902 95.4694 61.6771 95.778C61.5448 95.9691 61.4052 96.1675 61.2068 96.2924C61.0084 96.4174 60.7365 96.4541 60.4866 96.3292C60.1192 96.1381 59.9648 95.6899 59.862 95.3004C59.5754 94.2568 59.2888 93.206 59.0022 92.1625C58.9507 91.9714 58.8699 91.7215 58.8258 91.4864C58.7523 91.1263 59.1638 90.972 59.4284 91.2586C60.1339 92.0008 60.7879 92.912 61.4346 93.6763Z" fill="white"/>
<path opacity="0.7" d="M57.8411 90.8839C57.5766 92.0891 57.9146 93.478 57.5251 94.6612C57.1209 95.9031 56.2023 97.1156 55.2029 97.9534C54.0565 98.9161 52.6602 99.7538 51.2419 100.246C50.0588 100.665 48.6772 100.503 47.472 100.173C48.2804 100.334 50.7349 100.43 54.8281 97.0642C57.5839 94.7861 57.2018 92.53 57.8411 90.8839Z" fill="white"/>
<path d="M75.287 81.0073C79.8726 87.8636 78.7703 100.672 78.7703 100.672L76.9404 100.526C76.9404 100.526 76.8596 85.7619 66.9462 76.3188C57.0768 66.9124 52.3516 82.8445 52.3516 82.8445C52.3516 82.8445 36.0301 85.975 44.415 96.7262C52.8366 107.522 67.512 109.065 67.512 109.065L67.4753 110.902C67.4753 110.902 54.615 110.733 48.251 105.486C47.6117 104.957 47.0017 104.391 46.4138 103.788C46.0023 103.369 45.5981 102.921 45.216 102.466C40.7038 97.1377 38.0877 89.9654 37.7129 86.2249C37.2646 81.7789 42.8644 72.8575 43.0407 72.5856C43.0407 72.5783 43.0481 72.5783 43.0481 72.5783C43.0481 72.5783 43.0481 72.5783 43.0554 72.5709C43.3494 72.424 52.7778 67.7428 57.1577 68.6247C60.5234 69.3008 66.5346 72.1153 71.2525 76.407C72.7737 77.7885 74.1626 79.3318 75.287 81.0073Z" fill="#3A1B9B"/>
<path d="M71.2526 76.3994C68.3352 74.3711 64.9548 73.21 61.398 72.725C59.0684 72.409 56.7463 73.695 55.2104 75.4808C53.6745 77.2665 52.7485 79.6255 51.8814 81.8154C51.4478 80.5514 51.389 79.1919 51.1539 77.8765C50.9187 76.5611 50.4631 75.2015 49.449 74.3344C48.6259 73.6289 45.3631 71.8138 43.0482 72.5854L43.0629 72.5707C43.3569 72.4237 52.7853 67.7426 57.1651 68.6244C60.5235 69.3005 66.5348 72.1077 71.2526 76.3994Z" fill="#0B0623"/>
<path d="M77.6092 100.584C77.6092 100.584 80.0784 84.8726 66.7551 75.0768C66.7551 75.0768 77.8076 84.1525 76.9405 100.525L77.6092 100.584Z" fill="url(#paint3_radial_487_444)"/>
<path d="M67.5048 109.733C67.5048 109.733 51.6242 110.637 43.2025 96.41C43.2025 96.41 51.1391 108.308 67.5195 109.065L67.5048 109.733Z" fill="url(#paint4_radial_487_444)"/>
<path d="M42.5925 95.0065C42.5925 95.0065 37.4852 87.1727 41.1889 81.2056C41.1816 81.2056 38.6316 87.2462 42.5925 95.0065Z" fill="url(#paint5_radial_487_444)"/>
<path opacity="0.7" d="M43.0482 72.5781C42.9159 72.8647 38.9549 81.1688 39.1534 85.2547C39.3591 89.4214 39.8662 94.617 46.4213 103.781L45.2234 102.458C40.7113 97.1302 38.0951 89.9579 37.7204 86.2174C37.2721 81.7787 42.8718 72.8574 43.0482 72.5781Z" fill="white"/>
<path d="M106.541 180.289C106.541 180.289 190.236 154.891 203.412 53.6846" stroke="white" stroke-width="0.734873" stroke-miterlimit="10"/>
<path d="M104.719 183.272C105.948 183.272 106.945 182.275 106.945 181.046C106.945 179.816 105.948 178.819 104.719 178.819C103.489 178.819 102.492 179.816 102.492 181.046C102.492 182.275 103.489 183.272 104.719 183.272Z" stroke="white" stroke-width="0.734873" stroke-miterlimit="10"/>
<path d="M167.624 140.018C168.854 140.018 169.85 139.021 169.85 137.791C169.85 136.561 168.854 135.564 167.624 135.564C166.394 135.564 165.397 136.561 165.397 137.791C165.397 139.021 166.394 140.018 167.624 140.018Z" fill="white"/>
<path d="M200.899 71.0791C202.129 71.0791 203.126 70.0821 203.126 68.8524C203.126 67.6226 202.129 66.6257 200.899 66.6257C199.669 66.6257 198.672 67.6226 198.672 68.8524C198.672 70.0821 199.669 71.0791 200.899 71.0791Z" fill="white"/>
<path d="M184.901 70.7777C189.621 70.7777 193.447 66.9513 193.447 62.2311C193.447 57.511 189.621 53.6846 184.901 53.6846C180.181 53.6846 176.354 57.511 176.354 62.2311C176.354 66.9513 180.181 70.7777 184.901 70.7777Z" stroke="white" stroke-width="0.734873" stroke-miterlimit="20" stroke-dasharray="2.94 2.94"/>
<path d="M51.2567 162.527C55.9768 162.527 59.8032 158.7 59.8032 153.98C59.8032 149.26 55.9768 145.434 51.2567 145.434C46.5365 145.434 42.7101 149.26 42.7101 153.98C42.7101 158.7 46.5365 162.527 51.2567 162.527Z" stroke="white" stroke-width="0.734873" stroke-miterlimit="20" stroke-dasharray="2.94 2.94"/>
<path d="M62.4268 177.952C65.3408 177.952 67.7032 175.589 67.7032 172.675C67.7032 169.761 65.3408 167.399 62.4268 167.399C59.5127 167.399 57.1504 169.761 57.1504 172.675C57.1504 175.589 59.5127 177.952 62.4268 177.952Z" stroke="white" stroke-width="0.734873" stroke-miterlimit="20" stroke-dasharray="2.94 2.94"/>
<path d="M202.964 103.414C205.878 103.414 208.24 101.051 208.24 98.1372C208.24 95.2232 205.878 92.8608 202.964 92.8608C200.05 92.8608 197.688 95.2232 197.688 98.1372C197.688 101.051 200.05 103.414 202.964 103.414Z" stroke="white" stroke-width="0.734873" stroke-miterlimit="10"/>
</g>
<defs>
<radialGradient id="paint0_radial_487_444" cx="0" cy="0" r="1" gradientUnits="userSpaceOnUse" gradientTransform="translate(69.1137 107.134) rotate(-42.1588) scale(8.55539)">
<stop stop-color="#1D0056"/>
<stop offset="1" stop-color="#07001E"/>
</radialGradient>
<radialGradient id="paint1_radial_487_444" cx="0" cy="0" r="1" gradientUnits="userSpaceOnUse" gradientTransform="translate(40.7865 82.9515) rotate(-42.1588) scale(18.4259)">
<stop stop-color="#4816B5"/>
<stop offset="1" stop-color="#1D0056"/>
</radialGradient>
<radialGradient id="paint2_radial_487_444" cx="0" cy="0" r="1" gradientUnits="userSpaceOnUse" gradientTransform="translate(51.1115 79.9176) rotate(-42.1645) scale(11.4095 12.2674)">
<stop stop-color="#1D0056"/>
<stop offset="1" stop-color="#0F0035"/>
</radialGradient>
<radialGradient id="paint3_radial_487_444" cx="0" cy="0" r="1" gradientUnits="userSpaceOnUse" gradientTransform="translate(72.2349 87.8171) rotate(137.836) scale(9.32154 10.0224)">
<stop stop-color="#0F0033"/>
<stop offset="1" stop-color="#060019"/>
</radialGradient>
<radialGradient id="paint4_radial_487_444" cx="0" cy="0" r="1" gradientUnits="userSpaceOnUse" gradientTransform="translate(55.313 103.105) rotate(-42.1645) scale(9.32154 10.0224)">
<stop stop-color="#0F0033"/>
<stop offset="1" stop-color="#060019"/>
</radialGradient>
<radialGradient id="paint5_radial_487_444" cx="0" cy="0" r="1" gradientUnits="userSpaceOnUse" gradientTransform="translate(41.8868 88.1053) rotate(-42.1644) scale(4.68529 5.03758)">
<stop stop-color="#0F0033"/>
<stop offset="1" stop-color="#060019"/>
</radialGradient>
<clipPath id="clip0_487_444">
<rect width="237.041" height="275.71" fill="white" transform="translate(0.116943 0.729614)"/>
</clipPath>
</defs>
</svg>
