<svg width="430" height="509" viewBox="0 0 430 509" fill="none" xmlns="http://www.w3.org/2000/svg">
<circle opacity="0.97" cx="219.367" cy="264.18" r="157.17" fill="#D9D9D9"/>
<path opacity="0.88" d="M230.557 124.532C294.169 128.433 312.659 172.202 312.659 221.316C312.659 295.666 361.634 290.283 353.843 355.793C346.053 421.303 267.637 453.84 186.975 382.056C119.902 322.366 89.7769 360.477 54.8438 325.955C19.9106 291.433 16.095 240.778 61.9956 209.347C89.2438 190.688 97.4353 208.152 129.112 172.202C161.938 134.949 186.095 121.805 230.557 124.532Z" fill="#F07E19"/>
<g clip-path="url(#clip0_658_970)">
<path d="M151.487 118.515L158.806 103.11C158.806 103.11 201.183 17.4466 206.188 8.42815C209.399 2.63226 214.628 0.814399 217.957 0.247795C219.799 -0.0709202 221.062 0.0117096 221.062 0.0117096L167.647 107.301L160.86 121.584L160.329 122.717L151.487 118.515Z" fill="#939393"/>
<path d="M160.872 122.61L151.18 118.054L134.548 153.514C133.769 155.155 134.477 157.114 136.118 157.893L139.848 159.652C141.489 160.431 143.449 159.723 144.228 158.082L160.872 122.61Z" fill="#170B3F"/>
<path d="M140.474 153.361L136.685 153.196L139.235 156.017L143.024 156.182L140.474 153.361Z" fill="#F16316"/>
<path d="M142.245 149.619L138.444 149.453L140.994 152.263L144.795 152.44L142.245 149.619Z" fill="#F16316"/>
<path d="M144.003 145.865L140.214 145.7L142.764 148.521L146.553 148.686L144.003 145.865Z" fill="#F16316"/>
<path d="M145.774 142.123L141.973 141.958L144.523 144.767L148.312 144.944L145.774 142.123Z" fill="#F16316"/>
<path d="M147.533 138.37L143.744 138.204L146.293 141.026L150.083 141.191L147.533 138.37Z" fill="#F16316"/>
<path d="M149.304 134.627L145.503 134.462L148.053 137.272L151.842 137.449L149.304 134.627Z" fill="#F16316"/>
<path d="M151.062 130.886L147.273 130.708L149.811 133.53L153.612 133.695L151.062 130.886Z" fill="#F16316"/>
<path d="M152.821 127.131L149.032 126.966L151.582 129.776L155.371 129.953L152.821 127.131Z" fill="#F16316"/>
<path d="M154.592 123.39L150.791 123.212L153.341 126.034L157.142 126.199L154.592 123.39Z" fill="#F16316"/>
<path d="M163.344 122.792L149.589 116.259L148.901 117.71L162.656 124.242L163.344 122.792Z" fill="#170B3F"/>
<path opacity="0.7" d="M157.921 120.214L217.957 0.247795C219.799 -0.0709202 221.062 0.0117096 221.062 0.0117096L167.647 107.301L160.86 121.584L157.921 120.214Z" fill="white"/>
<path d="M175.615 90.5738L161.745 100.501C161.745 100.501 83.1525 154.883 74.4056 160.349C68.7867 163.866 63.3214 162.922 60.146 161.801C58.3754 161.187 57.313 160.502 57.313 160.502L156.044 92.5569L168.91 83.3495L169.926 82.6177L175.615 90.5738Z" fill="#939393"/>
<path d="M169.394 82.4406L175.662 91.1286L207.404 68.1693C208.88 67.1069 209.21 65.053 208.148 63.5774L205.728 60.225C204.666 58.7495 202.612 58.419 201.136 59.4813L169.394 82.4406Z" fill="#170B3F"/>
<path d="M202.14 65.4306L205.374 67.4255L204.512 63.719L201.278 61.7358L202.14 65.4306Z" fill="#F16316"/>
<path d="M198.775 67.8501L202.01 69.845L201.148 66.1385L197.913 64.1554L198.775 67.8501Z" fill="#F16316"/>
<path d="M195.423 70.2817L198.657 72.2648L197.796 68.5701L194.561 66.5752L195.423 70.2817Z" fill="#F16316"/>
<path d="M192.059 72.7019L195.293 74.685L194.431 70.9903L191.197 69.0071L192.059 72.7019Z" fill="#F16316"/>
<path d="M188.694 75.1216L191.941 77.1165L191.079 73.4099L187.833 71.4268L188.694 75.1216Z" fill="#F16316"/>
<path d="M185.342 77.5413L188.576 79.5362L187.715 75.8297L184.48 73.8466L185.342 77.5413Z" fill="#F16316"/>
<path d="M181.978 79.9729L185.212 81.956L184.35 78.2613L181.116 76.2664L181.978 79.9729Z" fill="#F16316"/>
<path d="M178.625 82.3922L181.86 84.3753L180.998 80.6806L177.752 78.6974L178.625 82.3922Z" fill="#F16316"/>
<path d="M175.261 84.8127L178.496 86.8076L177.634 83.1011L174.4 81.118L175.261 84.8127Z" fill="#F16316"/>
<path d="M167.317 81.0815L176.182 93.463L177.488 92.5284L168.622 80.1469L167.317 81.0815Z" fill="#170B3F"/>
<path opacity="0.7" d="M170.811 85.9695L60.146 161.8C58.3754 161.186 57.313 160.502 57.313 160.502L156.044 92.5563L168.91 83.349L170.811 85.9695Z" fill="white"/>
<path d="M329.071 121.265C331.046 121.265 332.648 119.663 332.648 117.688C332.648 115.713 331.046 114.111 329.071 114.111C327.095 114.111 325.494 115.713 325.494 117.688C325.494 119.663 327.095 121.265 329.071 121.265Z" stroke="white" stroke-width="1.18043" stroke-miterlimit="10"/>
<path d="M81.0159 278.687C82.9913 278.687 84.5926 277.086 84.5926 275.11C84.5926 273.135 82.9913 271.534 81.0159 271.534C79.0405 271.534 77.4392 273.135 77.4392 275.11C77.4392 277.086 79.0405 278.687 81.0159 278.687Z" fill="white"/>
<path d="M282.881 249.176C284.856 249.176 286.457 247.574 286.457 245.599C286.457 243.624 284.856 242.022 282.881 242.022C280.905 242.022 279.304 243.624 279.304 245.599C279.304 247.574 280.905 249.176 282.881 249.176Z" fill="white"/>
<path d="M311.329 184.926C318.911 184.926 325.057 178.779 325.057 171.197C325.057 163.615 318.911 157.469 311.329 157.469C303.747 157.469 297.6 163.615 297.6 171.197C297.6 178.779 303.747 184.926 311.329 184.926Z" stroke="white" stroke-width="1.18043" stroke-miterlimit="20" stroke-dasharray="4.72 4.72"/>
<path d="M114.387 242.353C123.598 242.353 131.066 234.885 131.066 225.673C131.066 216.462 123.598 208.994 114.387 208.994C105.175 208.994 97.7072 216.462 97.7072 225.673C97.7072 234.885 105.175 242.353 114.387 242.353Z" stroke="white" stroke-width="1.18043" stroke-miterlimit="20" stroke-dasharray="4.72 4.72"/>
<path d="M147.462 245.847C153.147 245.847 157.755 241.238 157.755 235.554C157.755 229.869 153.147 225.26 147.462 225.26C141.777 225.26 137.169 229.869 137.169 235.554C137.169 241.238 141.777 245.847 147.462 245.847Z" stroke="white" stroke-width="1.18043" stroke-miterlimit="20" stroke-dasharray="4.72 4.72"/>
<path d="M280.295 173.617C284.976 173.617 288.771 169.822 288.771 165.141C288.771 160.46 284.976 156.666 280.295 156.666C275.615 156.666 271.82 160.46 271.82 165.141C271.82 169.822 275.615 173.617 280.295 173.617Z" stroke="white" stroke-width="1.18043" stroke-miterlimit="10"/>
<path d="M186.676 474C213.509 474 235.262 466.178 235.262 456.53C235.262 446.881 213.509 439.059 186.676 439.059C159.842 439.059 138.09 446.881 138.09 456.53C138.09 466.178 159.842 474 186.676 474Z" fill="white"/>
<path d="M322.283 383.614C322.283 391.689 304.069 398.24 281.606 398.24C259.142 398.24 240.928 391.689 240.928 383.614C240.928 375.54 259.142 368.989 281.606 368.989C304.069 368.989 322.283 375.54 322.283 383.614Z" fill="white"/>
<path d="M195.6 74.5436L249.664 89.4405V116.272L195.6 90.0544V74.5436Z" fill="#170B3F"/>
<path d="M270.203 362.673L285.595 359.25C285.595 359.25 299.158 379.943 297.47 384.688C295.771 389.434 260.334 389.941 260.157 387.746C259.992 385.538 267.96 374.124 267.96 374.124L270.203 362.673Z" fill="#170B3F"/>
<path d="M200.629 418.272L215.219 432.012L229.466 456.258C229.466 456.258 202.163 458.973 191.988 462.196C181.813 465.418 151.452 465.584 143.319 456.093L194.538 433.37L200.629 418.272Z" fill="#170B3F"/>
<path d="M255.153 215.439C255.153 215.439 259.473 249.022 256.427 262.751C256.427 262.751 277.038 277.246 271.431 297.089C265.835 316.932 242.18 323.802 232.512 318.962C222.844 314.135 215.219 286.914 215.219 286.914L255.153 215.439Z" fill="#250F59"/>
<path opacity="0.2" d="M257.254 239.401L236.289 249.199L215.207 286.925C215.207 286.925 221.569 309.542 230.021 317.18L257.254 239.401Z" fill="black"/>
<path d="M243.797 316.849C243.797 316.849 247.94 303.617 266.083 299.379C266.083 299.379 276.258 316.165 285.584 359.239L270.191 362.662L243.797 316.849Z" fill="#0B0623" fill-opacity="0.98"/>
<path d="M264.053 206.645C264.383 227.184 255.4 248.762 240.137 267.33C224.874 285.898 221.062 304.467 218.772 314.394C216.482 324.31 211.901 339.325 196.131 341.862C180.361 344.412 148.312 346.69 142.197 327.615C136.095 308.539 151.605 258.418 195.104 228.4L197.654 214.365L264.053 206.645Z" fill="#250F59"/>
<path opacity="0.2" d="M259.048 234.774C262.424 225.437 264.194 215.935 264.041 206.645L197.642 214.376L195.092 228.412C190.819 231.363 186.829 234.515 183.087 237.796C197.654 243.356 222.36 247.003 259.048 234.774Z" fill="black"/>
<path d="M151.251 338.404L194.514 433.369C194.514 433.369 201.632 435.742 215.207 432.012C210.792 404.543 211.311 343.551 187.396 334.662C174.01 329.693 151.251 338.404 151.251 338.404Z" fill="#0B0623" fill-opacity="0.98"/>
<path d="M136.862 131.665C136.862 131.665 137.641 117.984 150.709 119.235C150.709 119.235 152.668 128.36 158.877 127.026C158.877 127.026 162.961 134.061 151.015 138.807L136.862 131.665Z" fill="#664230"/>
<path d="M124.066 173.723L136.862 131.665C136.862 131.665 145.172 127.675 150.602 134.037L153.659 168.635L124.066 173.723Z" fill="#170B3F"/>
<path d="M206.849 89.4411C206.849 89.4411 238.355 91.4006 247.255 89.4411C256.156 87.4816 265.068 92.0617 265.823 108.34C266.591 124.618 236.336 127.675 236.336 127.675L206.849 89.4411Z" fill="#250F59"/>
<path opacity="0.2" d="M246.677 125.632C239.524 112.376 230.057 99.4739 217.627 89.9715C211.453 89.7236 206.849 89.4403 206.849 89.4403L236.336 127.674C236.336 127.674 241.034 127.202 246.677 125.632Z" fill="black"/>
<path d="M167.388 96.1334L176.206 109.791L157.885 149.465C157.885 149.465 176.536 173.888 199.602 188.809C199.602 188.809 229.702 183.768 258.953 177.618C258.953 177.618 248.436 107.749 203.332 87.7406L194.514 74.508L167.388 96.1334Z" fill="#250F59"/>
<path opacity="0.2" d="M200.475 83.4556L195.73 76.3259L186.192 81.142L167.388 96.1334L176.205 109.779L175.674 110.948C186.947 103.747 200.475 83.4556 200.475 83.4556Z" fill="black"/>
<path d="M183.147 106.403C192.342 96.7826 206.85 92.0137 216.801 102.897C230.635 118.042 224.698 145.747 201.172 150.492C177.646 155.249 183.147 106.403 183.147 106.403Z" fill="#0B0623" fill-opacity="0.98"/>
<path opacity="0.2" d="M188.553 103.653C181.022 107.749 174.104 118.42 166.502 130.814L157.885 149.477C157.885 149.477 169.182 164.232 185.035 177.819C185.295 177.477 185.555 177.123 185.814 176.827C192.448 169.178 216.73 143.162 215.384 122.729C214.038 102.295 198.457 98.2583 188.553 103.653Z" fill="black"/>
<path d="M202.234 196.611L178.071 225.614C178.071 225.614 208.089 256.907 281.606 219.252L262.259 190.945L202.234 196.611Z" fill="#250F59"/>
<path d="M152.632 138.44C167.777 122.315 180.538 105.033 192.165 101.162C202.86 97.6086 217.509 104.325 215.219 124.676C212.929 145.026 184.433 166.333 176.548 172.695C168.663 179.058 158.487 199.149 139.412 193.813C120.336 188.466 120.584 165.92 131.774 158.282C142.965 150.657 147.439 143.976 152.632 138.44Z" fill="#250F59"/>
<path d="M199.601 188.809V203.482C199.601 203.482 227.672 208.31 263.026 194.074L258.953 177.619L199.601 188.809Z" fill="#0B0623" fill-opacity="0.98"/>
<path d="M164.413 102.295C164.413 102.295 171.047 104.88 178.802 102.531C186.558 100.182 190.418 94.4218 190.418 94.4218L184.315 89.7119L165.948 95.7321L164.413 102.295Z" fill="url(#paint0_radial_658_970)"/>
<path d="M139.825 72.348C136.968 67.0597 135.127 61.1812 134.418 55.2082C151.18 48.0548 168.84 42.4124 186.688 38.7649C190.536 43.6401 193.322 49.6602 194.443 55.822C178.295 65.9383 158.853 71.3919 139.825 72.348Z" fill="#0B0623"/>
<path d="M184.031 48.8932C179.203 49.4716 174.895 52.9421 173.112 57.6874C175.686 57.7818 178.554 57.4159 180.502 55.6924C182.001 54.3586 183.087 52.6233 183.654 50.652" fill="#F16316"/>
<path d="M144.782 60.7683C149.114 58.5727 154.639 59.0802 158.747 62.0313C156.657 63.5423 154.06 64.8171 151.499 64.463C149.504 64.1915 147.651 63.3416 146.081 62.0195" fill="#F16316"/>
<path d="M189.934 44.9387C189.934 44.9387 186.192 40.9607 181.553 41.3502C180.762 41.4211 180.042 41.5981 179.381 41.8578C174.6 43.8055 172.806 50.5222 165.475 53.485C165.003 53.6739 164.519 53.851 164 54.0044C154.297 56.9437 148.465 49.8375 142.363 53.2135C138.29 55.4563 137.381 60.8391 137.381 60.8391C137.381 60.8391 131.786 34.126 155.784 26.8664C156.209 26.7366 156.622 26.6185 157.035 26.5123C159.373 25.9103 161.568 25.6152 163.634 25.5679C182.013 25.1784 189.934 44.9387 189.934 44.9387Z" fill="url(#paint1_radial_658_970)"/>
<path d="M187.892 40.9614C187.49 38.7186 186.534 36.7355 184.834 35.1065C183.713 34.0323 182.426 33.1588 181.081 32.4505C176.89 28.6142 171.13 25.4152 163.634 25.5687C161.568 25.6159 159.372 25.911 157.035 26.513C159.313 27.2094 161.462 28.4489 163.303 30.1015C160.163 30.6681 157.118 31.6951 154.297 33.1706C147.368 36.7827 141.749 42.8147 137.983 49.9563C141.147 46.8753 145.727 45.8248 150.106 46.1081C154.486 46.4032 158.688 47.9259 162.89 49.4251C164.366 46.5566 166.502 44.1013 169.028 42.2363C169.17 46.3205 167.919 50.4284 165.487 53.4739C172.818 50.5111 174.612 43.8062 179.393 41.8467C180.054 41.5752 180.774 41.3982 181.564 41.3391C186.204 40.9496 189.946 44.9276 189.946 44.9276C189.946 44.9276 189.273 43.2987 187.892 40.9614Z" fill="url(#paint2_radial_658_970)"/>
<path d="M192.519 53.4733C192.519 53.4969 192.531 53.5087 192.531 53.5323C199.979 91.3649 181.34 98.5065 178.212 99.4273C177.929 99.5099 177.775 99.5453 177.775 99.5453C177.775 99.5453 156.067 108.257 139.966 69.3854C139.966 69.3854 140.084 69.5153 140.344 69.7159C140.356 69.7277 140.368 69.7277 140.379 69.7395C141.548 70.6131 145.443 72.6434 154.604 70.3298C160.765 68.7716 161.875 64.8408 164.165 62.6806C164.743 62.1258 165.416 61.689 166.254 61.4293C166.372 61.3939 166.49 61.3585 166.597 61.3349C170.563 60.4378 173.561 64.9588 180.88 62.3737C191.091 58.7734 192.377 54.2405 192.519 53.5559C192.507 53.5087 192.519 53.4733 192.519 53.4733Z" fill="#250F59"/>
<path d="M192.342 53.5912C199.79 91.4238 181.151 98.5654 178.023 99.4861C176.406 92.6515 174.293 85.923 171.708 79.3835C171.012 77.6247 170.268 75.7124 170.716 73.9063C171.153 72.1357 172.676 70.7664 172.711 68.9131C172.747 66.8356 170.917 65.242 169.276 64.038C168.332 63.3415 167.199 62.4326 166.396 61.382C170.351 60.4849 173.361 65.0059 180.679 62.4208C190.89 58.8205 192.177 54.2876 192.318 53.603C192.318 53.6148 192.33 53.603 192.342 53.5912Z" fill="#0B0623"/>
<path opacity="0.7" d="M167.812 69.9165C168.001 70.6247 168.202 71.3802 168.013 72.0413C167.801 72.7613 167.187 73.1509 166.608 73.4932C166.242 73.7057 165.877 73.9181 165.463 73.9654C165.05 74.0126 164.578 73.8709 164.283 73.4814C163.834 72.903 163.929 72.0531 164.059 71.3448C164.389 69.4443 164.731 67.532 165.062 65.6315C165.121 65.2774 165.192 64.8289 165.298 64.4039C165.452 63.7665 166.231 63.8255 166.443 64.4865C166.998 66.2336 167.34 68.2049 167.812 69.9165Z" fill="white"/>
<path opacity="0.7" d="M164.153 62.6804C162.807 64.4156 162.288 66.9182 160.765 68.5235C159.172 70.2115 156.764 71.4628 154.509 72.053C151.924 72.7258 149.044 73.0091 146.376 72.7258C144.157 72.4898 142.044 71.1795 140.368 69.7276C141.536 70.6011 145.432 72.6314 154.592 70.3178C160.754 68.7714 161.863 64.8406 164.153 62.6804Z" fill="white"/>
<path d="M199.791 60.0712C201.951 74.614 190.406 94.4216 190.406 94.4216L187.561 92.7926C187.561 92.7926 198.693 68.9362 189.922 46.1539C181.187 23.4662 161.427 45.5283 161.427 45.5283C161.427 45.5283 132.742 38.1271 138.054 61.8536C143.39 85.6746 165.865 99.3557 165.865 99.3557L164.401 102.283C164.401 102.283 143.815 92.2024 137.547 78.899C136.921 77.5651 136.366 76.184 135.882 74.7557C135.54 73.7641 135.233 72.7371 134.962 71.7102C131.751 59.6816 133.014 46.1303 135.269 39.8151C137.936 32.3076 153.766 22.2031 154.25 21.8962C154.262 21.8844 154.262 21.8844 154.262 21.8844C154.262 21.8844 154.262 21.8844 154.273 21.8844C154.852 21.8726 173.632 21.5185 180.007 26.2756C184.905 29.9349 192.46 39.0478 196.781 49.5654C198.197 52.965 199.271 56.5181 199.791 60.0712Z" fill="#3A1B9B"/>
<path d="M196.804 49.566C193.652 44.077 189.084 39.615 183.725 36.1209C180.207 33.8309 175.485 34.1378 171.649 35.8376C167.812 37.5492 164.519 40.6419 161.45 43.5104C161.721 41.1377 162.654 38.9067 163.28 36.6049C163.905 34.303 164.212 31.7769 163.232 29.5931C162.442 27.8343 158.57 22.4162 154.249 21.885L154.273 21.8732C154.851 21.8614 173.632 21.5072 180.006 26.2643C184.929 29.9355 192.472 39.0602 196.804 49.566Z" fill="#0B0623"/>
<path d="M188.6 93.3828C188.6 93.3828 204.559 69.9514 190.571 44.0056C190.571 44.0056 201.467 67.0593 187.573 92.7926L188.6 93.3828Z" fill="url(#paint3_radial_658_970)"/>
<path d="M165.334 100.43C165.334 100.43 139.058 89.7706 136.319 60.4252C136.319 60.4252 140.037 85.6509 165.865 99.3675L165.334 100.43Z" fill="url(#paint4_radial_658_970)"/>
<path d="M136.425 57.6982C136.425 57.6982 134.171 41.184 144.688 34.3848C144.688 34.373 135.953 42.1756 136.425 57.6982Z" fill="url(#paint5_radial_658_970)"/>
<path opacity="0.7" d="M154.262 21.8966C153.825 22.2507 141.112 32.6149 138.315 39.3551C135.47 46.2252 132.318 54.9839 135.895 74.7561L134.974 71.7106C131.775 59.682 133.026 46.1308 135.281 39.8155C137.949 32.3198 153.778 22.2153 154.262 21.8966Z" fill="white"/>
<path d="M79.3514 272.95C79.3514 272.95 108.732 306.002 208.762 275.878C308.791 245.753 434.412 161.353 332.73 119.141" stroke="white" stroke-width="1.18043" stroke-miterlimit="10"/>
</g>
<defs>
<radialGradient id="paint0_radial_658_970" cx="0" cy="0" r="1" gradientUnits="userSpaceOnUse" gradientTransform="translate(169.92 97.4581) rotate(-16.8348) scale(15.2528 15.2528)">
<stop stop-color="#1D0056"/>
<stop offset="1" stop-color="#07001E"/>
</radialGradient>
<radialGradient id="paint1_radial_658_970" cx="0" cy="0" r="1" gradientUnits="userSpaceOnUse" gradientTransform="translate(142.712 36.8856) rotate(-16.8348) scale(32.8505 32.8505)">
<stop stop-color="#4816B5"/>
<stop offset="1" stop-color="#1D0056"/>
</radialGradient>
<radialGradient id="paint2_radial_658_970" cx="0" cy="0" r="1" gradientUnits="userSpaceOnUse" gradientTransform="translate(161.659 39.8743) rotate(-16.8369) scale(20.3421 21.8731)">
<stop stop-color="#1D0056"/>
<stop offset="1" stop-color="#0F0035"/>
</radialGradient>
<radialGradient id="paint3_radial_658_970" cx="0" cy="0" r="1" gradientUnits="userSpaceOnUse" gradientTransform="translate(189.662 68.6583) rotate(163.163) scale(16.6194 17.8703)">
<stop stop-color="#0F0033"/>
<stop offset="1" stop-color="#060019"/>
</radialGradient>
<radialGradient id="paint4_radial_658_970" cx="0" cy="0" r="1" gradientUnits="userSpaceOnUse" gradientTransform="translate(150.742 80.4479) rotate(-16.8369) scale(16.6194 17.8703)">
<stop stop-color="#0F0033"/>
<stop offset="1" stop-color="#060019"/>
</radialGradient>
<radialGradient id="paint5_radial_658_970" cx="0" cy="0" r="1" gradientUnits="userSpaceOnUse" gradientTransform="translate(140.549 46.0316) rotate(-16.8369) scale(8.35347 8.98221)">
<stop stop-color="#0F0033"/>
<stop offset="1" stop-color="#060019"/>
</radialGradient>
<clipPath id="clip0_658_970">
<rect width="313.675" height="474" fill="white" transform="translate(57.313)"/>
</clipPath>
</defs>
</svg>
