<svg width="187" height="282" viewBox="0 0 187 282" fill="none" xmlns="http://www.w3.org/2000/svg">
<g clip-path="url(#clip0_487_232)">
<path d="M56.3468 70.6327L60.696 61.4782C60.696 61.4782 85.8795 10.5712 88.8538 5.21181C90.7619 1.7675 93.8694 0.687206 95.8476 0.350491C96.942 0.161089 97.6926 0.210193 97.6926 0.210193L65.9502 63.9685L61.9166 72.4565L61.601 73.13L56.3468 70.6327Z" fill="#939393"/>
<path d="M61.9235 73.0668L56.1643 70.359L46.2803 91.4317C45.8173 92.4068 46.2382 93.5713 47.2133 94.0343L49.43 95.0795C50.4051 95.5425 51.5696 95.1216 52.0325 94.1465L61.9235 73.0668Z" fill="#170B3F"/>
<path d="M49.8018 91.3403L47.55 91.2421L49.0653 92.9186L51.317 93.0168L49.8018 91.3403Z" fill="#F16316"/>
<path d="M50.854 89.1168L48.5952 89.0186L50.1104 90.6881L52.3692 90.7933L50.854 89.1168Z" fill="#F16316"/>
<path d="M51.8994 86.8858L49.6476 86.7876L51.1628 88.4642L53.4146 88.5624L51.8994 86.8858Z" fill="#F16316"/>
<path d="M52.9514 84.6623L50.6926 84.5641L52.2078 86.2336L54.4596 86.3389L52.9514 84.6623Z" fill="#F16316"/>
<path d="M53.9967 82.4317L51.7449 82.3335L53.2601 84.0101L55.5119 84.1083L53.9967 82.4317Z" fill="#F16316"/>
<path d="M55.0491 80.2077L52.7903 80.1095L54.3055 81.779L56.5573 81.8843L55.0491 80.2077Z" fill="#F16316"/>
<path d="M56.0942 77.9841L53.8424 77.8789L55.3506 79.5555L57.6094 79.6537L56.0942 77.9841Z" fill="#F16316"/>
<path d="M57.1394 75.7532L54.8876 75.655L56.4028 77.3246L58.6546 77.4298L57.1394 75.7532Z" fill="#F16316"/>
<path d="M58.1917 73.5295L55.9329 73.4243L57.4481 75.1009L59.7069 75.1991L58.1917 73.5295Z" fill="#F16316"/>
<path d="M63.3928 73.1746L55.2186 69.2925L54.8094 70.1543L62.9835 74.0364L63.3928 73.1746Z" fill="#170B3F"/>
<path opacity="0.7" d="M60.1698 71.6428L95.8475 0.350491C96.9418 0.161089 97.6924 0.210193 97.6924 0.210193L65.9501 63.9685L61.9165 72.4565L60.1698 71.6428Z" fill="white"/>
<path d="M70.6852 54.0281L62.4427 59.9276C62.4427 59.9276 15.7375 92.2452 10.5395 95.4931C7.20043 97.5835 3.95254 97.0223 2.06553 96.3559C1.0133 95.9912 0.381958 95.5843 0.381958 95.5843L59.0545 55.2066L66.7007 49.735L67.304 49.3L70.6852 54.0281Z" fill="#939393"/>
<path d="M66.9883 49.1949L70.7132 54.3578L89.5762 40.7139C90.4531 40.0825 90.6495 38.8619 90.0182 37.9851L88.5801 35.9929C87.9488 35.116 86.7282 34.9196 85.8513 35.5509L66.9883 49.1949Z" fill="#170B3F"/>
<path d="M86.4478 39.0863L88.3698 40.2718L87.8577 38.0691L85.9357 36.8906L86.4478 39.0863Z" fill="#F16316"/>
<path d="M84.4484 40.5243L86.3704 41.7098L85.8584 39.5071L83.9363 38.3286L84.4484 40.5243Z" fill="#F16316"/>
<path d="M82.4562 41.9692L84.3783 43.1477L83.8662 40.952L81.9441 39.7665L82.4562 41.9692Z" fill="#F16316"/>
<path d="M80.4569 43.4075L82.379 44.586L81.8669 42.3903L79.9448 41.2118L80.4569 43.4075Z" fill="#F16316"/>
<path d="M78.4576 44.8454L80.3867 46.031L79.8747 43.8283L77.9456 42.6498L78.4576 44.8454Z" fill="#F16316"/>
<path d="M76.4656 46.2834L78.3877 47.4689L77.8756 45.2663L75.9535 44.0878L76.4656 46.2834Z" fill="#F16316"/>
<path d="M74.4662 47.7284L76.3883 48.9069L75.8762 46.7113L73.9541 45.5258L74.4662 47.7284Z" fill="#F16316"/>
<path d="M72.4739 49.1664L74.396 50.3449L73.8839 48.1492L71.9548 46.9707L72.4739 49.1664Z" fill="#F16316"/>
<path d="M70.4747 50.6047L72.3968 51.7902L71.8847 49.5876L69.9626 48.4091L70.4747 50.6047Z" fill="#F16316"/>
<path d="M65.7539 48.3872L71.0223 55.7451L71.7981 55.1897L66.5296 47.8318L65.7539 48.3872Z" fill="#170B3F"/>
<path opacity="0.7" d="M67.8301 51.2922L2.06553 96.3558C1.0133 95.9911 0.381958 95.5842 0.381958 95.5842L59.0545 55.2065L66.7007 49.7349L67.8301 51.2922Z" fill="white"/>
<path d="M161.879 72.2668C163.053 72.2668 164.004 71.3151 164.004 70.1413C164.004 68.9674 163.053 68.0157 161.879 68.0157C160.705 68.0157 159.753 68.9674 159.753 70.1413C159.753 71.3151 160.705 72.2668 161.879 72.2668Z" stroke="white" stroke-width="0.701489" stroke-miterlimit="10"/>
<path d="M14.4678 165.818C15.6417 165.818 16.5933 164.866 16.5933 163.692C16.5933 162.518 15.6417 161.567 14.4678 161.567C13.2939 161.567 12.3423 162.518 12.3423 163.692C12.3423 164.866 13.2939 165.818 14.4678 165.818Z" fill="white"/>
<path d="M134.429 148.28C135.603 148.28 136.555 147.328 136.555 146.155C136.555 144.981 135.603 144.029 134.429 144.029C133.256 144.029 132.304 144.981 132.304 146.155C132.304 147.328 133.256 148.28 134.429 148.28Z" fill="white"/>
<path d="M151.335 110.098C155.841 110.098 159.494 106.446 159.494 101.94C159.494 97.4342 155.841 93.7816 151.335 93.7816C146.83 93.7816 143.177 97.4342 143.177 101.94C143.177 106.446 146.83 110.098 151.335 110.098Z" stroke="white" stroke-width="0.701489" stroke-miterlimit="20" stroke-dasharray="2.81 2.81"/>
<path d="M34.299 144.226C39.7733 144.226 44.211 139.788 44.211 134.314C44.211 128.839 39.7733 124.402 34.299 124.402C28.8247 124.402 24.387 128.839 24.387 134.314C24.387 139.788 28.8247 144.226 34.299 144.226Z" stroke="white" stroke-width="0.701489" stroke-miterlimit="20" stroke-dasharray="2.81 2.81"/>
<path d="M53.9546 146.302C57.3329 146.302 60.0716 143.563 60.0716 140.185C60.0716 136.807 57.3329 134.068 53.9546 134.068C50.5763 134.068 47.8376 136.807 47.8376 140.185C47.8376 143.563 50.5763 146.302 53.9546 146.302Z" stroke="white" stroke-width="0.701489" stroke-miterlimit="20" stroke-dasharray="2.81 2.81"/>
<path d="M132.893 103.378C135.675 103.378 137.93 101.123 137.93 98.3413C137.93 95.5596 135.675 93.3046 132.893 93.3046C130.112 93.3046 127.857 95.5596 127.857 98.3413C127.857 101.123 130.112 103.378 132.893 103.378Z" stroke="white" stroke-width="0.701489" stroke-miterlimit="10"/>
<path d="M77.2582 281.886C93.2044 281.886 106.131 277.238 106.131 271.504C106.131 265.77 93.2044 261.122 77.2582 261.122C61.3119 261.122 48.3849 265.77 48.3849 271.504C48.3849 277.238 61.3119 281.886 77.2582 281.886Z" fill="white"/>
<path d="M157.845 228.173C157.845 232.971 147.021 236.864 133.672 236.864C120.323 236.864 109.499 232.971 109.499 228.173C109.499 223.374 120.323 219.481 133.672 219.481C147.021 219.481 157.845 223.374 157.845 228.173Z" fill="white"/>
<path d="M82.5614 44.5022L114.69 53.355V69.2998L82.5614 53.7198V44.5022Z" fill="#170B3F"/>
<path d="M126.896 215.728L136.043 213.694C136.043 213.694 144.103 225.991 143.1 228.811C142.09 231.631 121.031 231.933 120.926 230.628C120.828 229.316 125.563 222.533 125.563 222.533L126.896 215.728Z" fill="#170B3F"/>
<path d="M85.5497 248.769L94.2201 256.934L102.687 271.343C102.687 271.343 86.4617 272.956 80.4148 274.871C74.368 276.786 56.3257 276.884 51.4924 271.245L81.93 257.741L85.5497 248.769Z" fill="#170B3F"/>
<path d="M117.952 128.232C117.952 128.232 120.519 148.189 118.709 156.347C118.709 156.347 130.957 164.962 127.625 176.754C124.3 188.546 110.242 192.628 104.497 189.752C98.7518 186.883 94.2202 170.707 94.2202 170.707L117.952 128.232Z" fill="#250F59"/>
<path opacity="0.2" d="M119.2 142.472L106.742 148.294L94.2131 170.714C94.2131 170.714 97.9942 184.154 103.017 188.693L119.2 142.472Z" fill="black"/>
<path d="M111.203 188.497C111.203 188.497 113.665 180.633 124.447 178.115C124.447 178.115 130.494 188.09 136.036 213.687L126.889 215.721L111.203 188.497Z" fill="#0B0623" fill-opacity="0.98"/>
<path d="M123.241 123.006C123.437 135.212 118.099 148.035 109.029 159.069C99.9583 170.104 97.6925 181.138 96.3316 187.038C94.9707 192.93 92.249 201.853 82.8771 203.361C73.5052 204.876 54.4598 206.23 50.826 194.894C47.1993 183.558 56.4169 153.773 82.2668 135.934L83.782 127.593L123.241 123.006Z" fill="#250F59"/>
<path opacity="0.2" d="M120.266 139.722C122.273 134.173 123.325 128.526 123.234 123.006L83.775 127.6L82.2598 135.941C79.7204 137.695 77.3493 139.568 75.1256 141.518C83.782 144.822 98.4641 146.99 120.266 139.722Z" fill="black"/>
<path d="M56.2064 201.306L81.916 257.741C81.916 257.741 86.146 259.151 94.2131 256.934C91.5895 240.61 91.8982 204.364 77.686 199.082C69.7311 196.129 56.2064 201.306 56.2064 201.306Z" fill="#0B0623" fill-opacity="0.98"/>
<path d="M47.6554 78.4472C47.6554 78.4472 48.1184 70.3169 55.8839 71.0605C55.8839 71.0605 57.0483 76.483 60.7382 75.6903C60.7382 75.6903 63.1653 79.8712 56.0662 82.6912L47.6554 78.4472Z" fill="#664230"/>
<path d="M40.0511 103.441L47.6553 78.4471C47.6553 78.4471 52.5938 76.0761 55.8206 79.8571L57.6375 100.418L40.0511 103.441Z" fill="#170B3F"/>
<path d="M89.2467 53.3549C89.2467 53.3549 107.969 54.5193 113.259 53.3549C118.548 52.1904 123.844 54.9122 124.293 64.5857C124.749 74.2592 106.77 76.0761 106.77 76.0761L89.2467 53.3549Z" fill="#250F59"/>
<path opacity="0.2" d="M112.915 74.8621C108.664 66.9844 103.038 59.3172 95.6513 53.6702C91.9825 53.5229 89.2467 53.3545 89.2467 53.3545L106.77 76.0757C106.77 76.0757 109.562 75.7951 112.915 74.8621Z" fill="black"/>
<path d="M65.7959 57.3321L71.036 65.4483L60.1489 89.0254C60.1489 89.0254 71.2325 103.539 84.9395 112.406C84.9395 112.406 102.828 109.411 120.21 105.756C120.21 105.756 113.96 64.2348 87.1562 52.3445L81.9161 44.4808L65.7959 57.3321Z" fill="#250F59"/>
<path opacity="0.2" d="M85.4585 49.7983L82.6385 45.5613L76.9705 48.4234L65.7958 57.3323L71.0359 65.4415L70.7202 66.1359C77.4194 61.8569 85.4585 49.7983 85.4585 49.7983Z" fill="black"/>
<path d="M75.1606 63.4353C80.6252 57.7181 89.2465 54.8841 95.1601 61.3518C103.382 70.3519 99.853 86.8159 85.8724 89.6359C71.8917 92.4629 75.1606 63.4353 75.1606 63.4353Z" fill="#0B0623" fill-opacity="0.98"/>
<path opacity="0.2" d="M78.3736 61.8005C73.8981 64.2347 69.7874 70.5762 65.2698 77.9418L60.1489 89.0323C60.1489 89.0323 66.8622 97.8009 76.2832 105.875C76.4375 105.672 76.5918 105.461 76.7462 105.286C80.6885 100.74 95.1182 85.2794 94.3185 73.1366C93.5188 60.9938 84.2591 58.5947 78.3736 61.8005Z" fill="black"/>
<path d="M86.5038 117.043L72.1443 134.279C72.1443 134.279 89.9831 152.875 133.672 130.497L122.174 113.676L86.5038 117.043Z" fill="#250F59"/>
<path d="M57.0272 82.4733C66.0273 72.891 73.6104 62.6212 80.52 60.3203C86.8755 58.2088 95.581 62.2003 94.2201 74.294C92.8592 86.3876 75.9253 99.0495 71.2393 102.831C66.5534 106.612 60.5066 118.551 49.1705 115.38C37.8344 112.202 37.9817 98.804 44.6319 94.2654C51.282 89.7337 53.9406 85.7633 57.0272 82.4733Z" fill="#250F59"/>
<path d="M84.9395 112.406V121.126C84.9395 121.126 101.621 123.995 122.63 115.535L120.21 105.756L84.9395 112.406Z" fill="#0B0623" fill-opacity="0.98"/>
<path d="M64.0282 60.9935C64.0282 60.9935 67.9706 62.5298 72.5793 61.1338C77.1881 59.7378 79.482 56.3146 79.482 56.3146L75.8553 53.5156L64.9401 57.0932L64.0282 60.9935Z" fill="url(#paint0_radial_487_232)"/>
<path d="M49.4162 43.1971C47.7186 40.0544 46.6243 36.561 46.2034 33.0115C56.1645 28.7605 66.6588 25.4073 77.2653 23.2397C79.5522 26.1369 81.2077 29.7145 81.8741 33.3763C72.2777 39.388 60.7242 42.6289 49.4162 43.1971Z" fill="#0B0623"/>
<path d="M75.6869 29.2584C72.8178 29.6022 70.2574 31.6645 69.1981 34.4845C70.7274 34.5406 72.432 34.3232 73.5894 33.299C74.4803 32.5063 75.1257 31.4751 75.4624 30.3036" fill="#F16316"/>
<path d="M52.3624 36.3154C54.9369 35.0106 58.2199 35.3122 60.661 37.066C59.4194 37.9639 57.8761 38.7215 56.3539 38.511C55.1684 38.3497 54.067 37.8446 53.1341 37.0589" fill="#F16316"/>
<path d="M79.1944 26.9086C79.1944 26.9086 76.9706 24.5446 74.2138 24.7761C73.7438 24.8182 73.3159 24.9234 72.9231 25.0777C70.082 26.2352 69.0158 30.2267 64.6595 31.9874C64.3789 32.0996 64.0913 32.2049 63.7827 32.296C58.0164 34.0428 54.5511 29.8198 50.9244 31.826C48.5042 33.1589 47.9641 36.3577 47.9641 36.3577C47.9641 36.3577 44.639 20.483 58.9003 16.1688C59.1528 16.0917 59.3984 16.0215 59.6439 15.9584C61.0328 15.6006 62.3376 15.4252 63.5652 15.3972C74.4874 15.1657 79.1944 26.9086 79.1944 26.9086Z" fill="url(#paint1_radial_487_232)"/>
<path d="M77.9807 24.5447C77.7422 23.2119 77.174 22.0334 76.1639 21.0653C75.4975 20.427 74.7328 19.9079 73.9331 19.487C71.4429 17.2072 68.0196 15.3061 63.5651 15.3973C62.3375 15.4254 61.0328 15.6007 59.6438 15.9585C60.9977 16.3724 62.2744 17.1089 63.3687 18.091C61.5028 18.4277 59.6929 19.038 58.0164 19.9149C53.8986 22.0615 50.5595 25.6461 48.3218 29.8901C50.2018 28.0592 52.9235 27.4349 55.5261 27.6032C58.1286 27.7786 60.6259 28.6835 63.1232 29.5744C64.0001 27.8698 65.2698 26.4107 66.7709 25.3023C66.8551 27.7295 66.1115 30.1707 64.6665 31.9805C69.0227 30.2198 70.089 26.2353 72.93 25.0708C73.3228 24.9095 73.7508 24.8043 74.2208 24.7692C76.9776 24.5377 79.2013 26.9017 79.2013 26.9017C79.2013 26.9017 78.8015 25.9337 77.9807 24.5447Z" fill="url(#paint2_radial_487_232)"/>
<path d="M80.7307 31.9802C80.7307 31.9943 80.7377 32.0013 80.7377 32.0153C85.1641 54.498 74.0876 58.742 72.2286 59.2892C72.0603 59.3383 71.9691 59.3593 71.9691 59.3593C71.9691 59.3593 59.0687 64.5363 49.5004 41.4363C49.5004 41.4363 49.5705 41.5135 49.7248 41.6327C49.7319 41.6397 49.7389 41.6397 49.7459 41.6467C50.4404 42.1658 52.7553 43.3724 58.1988 41.9975C61.8606 41.0715 62.52 38.7356 63.8809 37.4518C64.2246 37.1221 64.6245 36.8626 65.1225 36.7083C65.1927 36.6872 65.2628 36.6662 65.326 36.6521C67.683 36.119 69.4647 38.8057 73.814 37.2695C79.8819 35.1299 80.6465 32.4362 80.7307 32.0293C80.7236 32.0013 80.7307 31.9802 80.7307 31.9802Z" fill="#250F59"/>
<path d="M80.6254 32.0505C85.0518 54.5333 73.9753 58.7773 72.1163 59.3244C71.1553 55.2628 69.8996 51.2643 68.3634 47.3781C67.9495 46.3329 67.5075 45.1964 67.7741 44.1232C68.0337 43.0709 68.9386 42.2572 68.9596 41.1559C68.9807 39.9212 67.8934 38.9742 66.9183 38.2587C66.3571 37.8448 65.6837 37.3047 65.2067 36.6804C67.5567 36.1472 69.3454 38.8339 73.6947 37.2977C79.7626 35.1581 80.5272 32.4644 80.6114 32.0576C80.6114 32.0646 80.6184 32.0576 80.6254 32.0505Z" fill="#0B0623"/>
<path opacity="0.7" d="M66.0483 41.7521C66.1606 42.173 66.2798 42.6219 66.1676 43.0148C66.0413 43.4427 65.6765 43.6742 65.3328 43.8776C65.1154 44.0039 64.8979 44.1301 64.6524 44.1582C64.4069 44.1862 64.1263 44.1021 63.9509 43.8706C63.6843 43.5268 63.7404 43.0218 63.8176 42.6009C64.014 41.4715 64.2174 40.3351 64.4139 39.2057C64.4489 38.9952 64.491 38.7287 64.5542 38.4761C64.6454 38.0973 65.1083 38.1324 65.2346 38.5252C65.5643 39.5634 65.7677 40.7349 66.0483 41.7521Z" fill="white"/>
<path opacity="0.7" d="M63.8739 37.4519C63.0742 38.4831 62.7655 39.9703 61.8606 40.9243C60.9136 41.9274 59.4826 42.671 58.1427 43.0217C56.6065 43.4216 54.8948 43.5899 53.3095 43.4216C51.9907 43.2813 50.735 42.5026 49.7389 41.6398C50.4334 42.1589 52.7483 43.3655 58.1918 41.9905C61.8536 41.0716 62.513 38.7356 63.8739 37.4519Z" fill="white"/>
<path d="M85.0518 35.9013C86.3355 44.5437 79.475 56.3147 79.475 56.3147L77.7844 55.3466C77.7844 55.3466 84.3994 41.1695 79.1874 27.6308C73.9964 14.1482 62.2534 27.259 62.2534 27.259C62.2534 27.259 45.2073 22.8607 48.364 36.9606C51.5347 51.1166 64.891 59.2469 64.891 59.2469L64.0212 60.9866C64.0212 60.9866 51.7872 54.9959 48.0623 47.0901C47.6905 46.2974 47.3608 45.4767 47.0732 44.6279C46.8698 44.0386 46.6874 43.4283 46.5261 42.818C44.618 35.6698 45.3686 27.6167 46.7084 23.8638C48.2938 19.4023 57.7008 13.3976 57.9884 13.2152C57.9954 13.2082 57.9954 13.2082 57.9954 13.2082C57.9954 13.2082 57.9954 13.2082 58.0024 13.2082C58.3461 13.2011 69.5068 12.9907 73.2949 15.8177C76.2061 17.9923 80.6956 23.4078 83.263 29.6581C84.1048 31.6784 84.7432 33.7898 85.0518 35.9013Z" fill="#3A1B9B"/>
<path d="M83.277 29.6583C81.404 26.3963 78.6892 23.7447 75.5045 21.6683C73.414 20.3074 70.6081 20.4898 68.3282 21.4999C66.0484 22.5171 64.0912 24.355 62.2674 26.0596C62.4287 24.6496 62.9829 23.3238 63.3547 21.9559C63.7265 20.588 63.9088 19.0868 63.3266 17.7891C62.8566 16.7438 60.5557 13.524 57.9883 13.2083L58.0023 13.2013C58.346 13.1943 69.5067 12.9839 73.2948 15.8109C76.22 17.9925 80.7025 23.415 83.277 29.6583Z" fill="#0B0623"/>
<path d="M78.4017 55.6974C78.4017 55.6974 87.8858 41.7729 79.5732 26.3541C79.5732 26.3541 86.0479 40.0542 77.7914 55.3467L78.4017 55.6974Z" fill="url(#paint3_radial_487_232)"/>
<path d="M64.5754 59.8852C64.5754 59.8852 48.9602 53.5507 47.3328 36.1117C47.3328 36.1117 49.5425 51.1025 64.891 59.2538L64.5754 59.8852Z" fill="url(#paint4_radial_487_232)"/>
<path d="M47.3958 34.4913C47.3958 34.4913 46.056 24.6774 52.3062 20.6368C52.3062 20.6298 47.1152 25.2667 47.3958 34.4913Z" fill="url(#paint5_radial_487_232)"/>
<path opacity="0.7" d="M57.9955 13.2155C57.7359 13.4259 50.1809 19.585 48.5183 23.5905C46.8278 27.6731 44.9548 32.8782 47.0803 44.6281L46.5331 42.8183C44.6321 35.6701 45.3757 27.617 46.7155 23.8641C48.3009 19.4096 57.7078 13.4049 57.9955 13.2155Z" fill="white"/>
<path d="M13.4786 162.408C13.4786 162.408 30.9387 182.05 90.3829 164.148C149.827 146.246 224.479 96.0896 164.053 71.0044" stroke="white" stroke-width="0.701489" stroke-miterlimit="10"/>
</g>
<defs>
<radialGradient id="paint0_radial_487_232" cx="0" cy="0" r="1" gradientUnits="userSpaceOnUse" gradientTransform="translate(67.3007 58.1189) rotate(-16.8348) scale(9.06423 9.06423)">
<stop stop-color="#1D0056"/>
<stop offset="1" stop-color="#07001E"/>
</radialGradient>
<radialGradient id="paint1_radial_487_232" cx="0" cy="0" r="1" gradientUnits="userSpaceOnUse" gradientTransform="translate(51.1319 22.1229) rotate(-16.8348) scale(19.522 19.522)">
<stop stop-color="#4816B5"/>
<stop offset="1" stop-color="#1D0056"/>
</radialGradient>
<radialGradient id="paint2_radial_487_232" cx="0" cy="0" r="1" gradientUnits="userSpaceOnUse" gradientTransform="translate(62.3918 23.8987) rotate(-16.8369) scale(12.0886 12.9985)">
<stop stop-color="#1D0056"/>
<stop offset="1" stop-color="#0F0035"/>
</radialGradient>
<radialGradient id="paint3_radial_487_232" cx="0" cy="0" r="1" gradientUnits="userSpaceOnUse" gradientTransform="translate(79.0326 41.0044) rotate(163.163) scale(9.8764 10.6198)">
<stop stop-color="#0F0033"/>
<stop offset="1" stop-color="#060019"/>
</radialGradient>
<radialGradient id="paint4_radial_487_232" cx="0" cy="0" r="1" gradientUnits="userSpaceOnUse" gradientTransform="translate(55.9042 48.0105) rotate(-16.8369) scale(9.87639 10.6198)">
<stop stop-color="#0F0033"/>
<stop offset="1" stop-color="#060019"/>
</radialGradient>
<radialGradient id="paint5_radial_487_232" cx="0" cy="0" r="1" gradientUnits="userSpaceOnUse" gradientTransform="translate(49.8463 27.5582) rotate(-16.8369) scale(4.9642 5.33784)">
<stop stop-color="#0F0033"/>
<stop offset="1" stop-color="#060019"/>
</radialGradient>
<clipPath id="clip0_487_232">
<rect width="186.407" height="281.683" fill="white" transform="translate(0.381958 0.202759)"/>
</clipPath>
</defs>
</svg>
