<svg width="430" height="442" viewBox="0 0 430 442" fill="none" xmlns="http://www.w3.org/2000/svg">
<circle opacity="0.97" cx="219.366" cy="197.513" r="157.17" fill="#D9D9D9"/>
<path opacity="0.88" d="M230.557 57.8649C294.169 61.7664 312.659 105.535 312.659 154.649C312.659 228.999 361.634 223.616 353.843 289.126C346.053 354.635 267.637 387.173 186.975 315.389C119.902 255.699 89.7769 293.81 54.8438 259.288C19.9106 224.766 16.095 174.111 61.9956 142.68C89.2438 124.021 97.4353 141.485 129.112 105.535C161.938 68.2814 186.095 55.1379 230.557 57.8649Z" fill="#F07E19"/>
<g clip-path="url(#clip0_494_1662)">
<path d="M173.219 187.469C180.47 187.469 186.348 181.591 186.348 174.34C186.348 167.089 180.47 161.212 173.219 161.212C165.968 161.212 160.09 167.089 160.09 174.34C160.09 181.591 165.968 187.469 173.219 187.469Z" stroke="white" stroke-width="1.06911" stroke-miterlimit="20" stroke-dasharray="4.12 4.12"/>
<path d="M170.685 137.627C170.685 142.652 166.612 146.714 161.598 146.714C156.573 146.714 152.51 142.641 152.51 137.627C152.51 132.602 156.584 128.539 161.598 128.539C166.612 128.539 170.685 132.602 170.685 137.627Z" stroke="white" stroke-width="1.06911" stroke-miterlimit="20" stroke-dasharray="4.08 4.08"/>
<path d="M272.978 67.7604C272.978 71.5023 269.942 74.5279 266.21 74.5279C262.468 74.5279 259.443 71.4916 259.443 67.7604C259.443 64.0185 262.479 60.9929 266.21 60.9929C269.942 60.9822 272.978 64.0185 272.978 67.7604Z" stroke="white" stroke-width="1.06911" stroke-miterlimit="20" stroke-dasharray="4.25 4.25"/>
<path d="M276.902 96.9792C280.639 96.9792 283.669 93.9493 283.669 90.2117C283.669 86.4741 280.639 83.4442 276.902 83.4442C273.164 83.4442 270.134 86.4741 270.134 90.2117C270.134 93.9493 273.164 96.9792 276.902 96.9792Z" fill="white"/>
<path d="M146.459 165.402C150.197 165.402 153.227 162.373 153.227 158.635C153.227 154.897 150.197 151.867 146.459 151.867C142.722 151.867 139.692 154.897 139.692 158.635C139.692 162.373 142.722 165.402 146.459 165.402Z" stroke="white" stroke-width="1.06911" stroke-miterlimit="10"/>
<path d="M198.594 65.0498L192.628 67.7885L197.405 78.1944L203.371 75.4558L198.594 65.0498Z" fill="#250F59"/>
<path d="M198.963 65.1303L192.42 68.1024L181.569 44.165C181.067 43.0531 181.558 41.7488 182.659 41.2463L185.183 40.1024C186.294 39.5999 187.599 40.0917 188.101 41.1929L198.963 65.1303Z" fill="#170B3F"/>
<path d="M185.546 44.3147L183.001 44.4002L184.733 42.5293L187.278 42.4437L185.546 44.3147Z" fill="#F16316"/>
<path d="M186.7 46.8486L184.156 46.9234L185.888 45.0631L188.432 44.9776L186.7 46.8486Z" fill="#F16316"/>
<path d="M187.855 49.3717L185.3 49.4573L187.032 47.5863L189.587 47.5115L187.855 49.3717Z" fill="#F16316"/>
<path d="M188.999 51.9054L186.455 51.9802L188.187 50.12L190.731 50.0344L188.999 51.9054Z" fill="#F16316"/>
<path d="M190.154 54.4392L187.609 54.5141L189.341 52.6431L191.886 52.5683L190.154 54.4392Z" fill="#F16316"/>
<path d="M191.308 56.9622L188.753 57.0477L190.485 55.1768L193.04 55.1019L191.308 56.9622Z" fill="#F16316"/>
<path d="M192.452 59.4961L189.908 59.5709L191.64 57.7107L194.184 57.6251L192.452 59.4961Z" fill="#F16316"/>
<path d="M193.607 62.03L191.063 62.1048L192.795 60.2339L195.339 60.159L193.607 62.03Z" fill="#F16316"/>
<path d="M194.751 64.5531L192.207 64.6387L193.939 62.7677L196.494 62.6929L194.751 64.5531Z" fill="#F16316"/>
<path d="M200.172 64.039L190.884 68.3031L191.334 69.2844L200.623 65.0203L200.172 64.039Z" fill="#170B3F"/>
<path d="M234.817 75.4578L240.783 78.1964L245.56 67.7905L239.594 65.0518L234.817 75.4578Z" fill="#250F59"/>
<path d="M239.226 65.1303L245.769 68.1024L256.62 44.165C257.123 43.0531 256.631 41.7488 255.53 41.2463L253.007 40.1023C251.895 39.5998 250.591 40.0916 250.088 41.1928L239.226 65.1303Z" fill="#170B3F"/>
<path d="M252.643 44.3147L255.188 44.4002L253.456 42.5292L250.911 42.4437L252.643 44.3147Z" fill="#F16316"/>
<path d="M251.489 46.8485L254.044 46.9234L252.301 45.0631L249.757 44.9776L251.489 46.8485Z" fill="#F16316"/>
<path d="M250.345 49.3717L252.889 49.4572L251.157 47.5863L248.602 47.5115L250.345 49.3717Z" fill="#F16316"/>
<path d="M249.19 51.9054L251.734 51.9802L250.003 50.12L247.458 50.0344L249.19 51.9054Z" fill="#F16316"/>
<path d="M248.035 54.4392L250.59 54.5141L248.848 52.6431L246.303 52.5683L248.035 54.4392Z" fill="#F16316"/>
<path d="M246.891 56.9622L249.436 57.0477L247.704 55.1768L245.149 55.1019L246.891 56.9622Z" fill="#F16316"/>
<path d="M245.737 59.4961L248.281 59.5709L246.549 57.7106L244.005 57.6251L245.737 59.4961Z" fill="#F16316"/>
<path d="M244.582 62.0299L247.137 62.1048L245.395 60.2338L242.85 60.159L244.582 62.0299Z" fill="#F16316"/>
<path d="M243.438 64.5531L245.982 64.6386L244.25 62.7677L241.695 62.6928L243.438 64.5531Z" fill="#F16316"/>
<path d="M237.562 65.0261L246.851 69.2902L247.301 68.3089L238.013 64.0448L237.562 65.0261Z" fill="#170B3F"/>
<path d="M135.03 325.224C135.03 325.224 142.749 332.943 157.77 328.549C172.802 324.155 183.974 322.701 183.974 322.701L181.665 305.991L164.645 307.584C164.645 307.573 144.203 320.969 135.03 325.224Z" fill="#170B3F"/>
<path d="M280.633 292.862L287.368 298.539L315.39 321.771C315.39 321.771 304.217 329.041 293.58 324.786C282.942 320.531 267.707 314.415 267.707 314.415L271.77 298.539L280.633 292.862Z" fill="#170B3F"/>
<path d="M171.391 247.991L164.655 307.584L181.676 305.991C181.676 305.991 184.338 296.946 187.353 287.549C190.367 278.151 195.317 262.542 194.526 252.963L171.391 247.991Z" fill="#0B0623" fill-opacity="0.98"/>
<path d="M254.557 253.487C257.925 269.096 271.224 289.847 271.759 298.528C271.759 298.528 277.97 304.377 287.368 298.528L277.254 247.981L254.557 253.487Z" fill="#0B0623" fill-opacity="0.98"/>
<path d="M188.764 144.598L226.889 150.275C226.889 150.275 215.535 198.16 214.294 212.518C213.054 226.887 216.422 264.124 181.665 257.742C146.908 251.359 167.916 212.615 174.042 198.149C182.916 177.227 188.764 144.598 188.764 144.598Z" fill="#250F59"/>
<path opacity="0.2" d="M221.767 172.801L213.161 167.925C213.161 167.925 197.199 231.73 196.066 239.481C194.933 247.232 182.841 250.536 182.841 250.536C182.841 250.536 195.97 250.044 194.612 255.293C194.238 256.726 181.676 257.752 182.841 257.945C198.995 260.703 209.376 251.113 211.279 240.711C213.642 227.7 214.465 211.075 214.465 211.075C215.395 202.736 218.774 186.432 221.767 172.801Z" fill="black"/>
<path d="M199.947 136.932C199.947 136.932 225.295 195.487 230.972 219.435C236.649 243.373 243.171 267.118 270.166 257.389C296.231 247.991 274.956 210.744 269.097 197.444C263.249 184.144 249.147 145.838 249.147 145.838L199.947 136.932Z" fill="#250F59"/>
<path d="M252.366 154.498C250.43 149.302 249.158 145.838 249.158 145.838L199.958 136.932C199.958 136.932 201.625 140.781 204.191 146.885L188.775 144.587C188.775 144.587 187.545 151.461 185.354 160.912L201.583 165.146C204.79 165.98 208.104 164.216 209.195 161.073L210.275 157.972L213.225 163.029C214.187 164.675 216.144 165.435 217.961 164.889L252.366 154.498Z" fill="#0B0623" fill-opacity="0.55"/>
<path d="M208.051 138.749L212.648 153.396C214.048 157.865 218.56 160.602 223.178 159.768L261.528 152.851L244.101 135.029L208.051 138.749Z" fill="#250F59"/>
<path d="M195.018 136.932L210.05 139.273L207.431 153.749C206.907 156.657 204.052 158.528 201.176 157.844L179.997 152.84L195.018 136.932Z" fill="#250F59"/>
<path d="M190.774 76.1956C190.774 76.1956 175.464 107.36 174.406 119.463C173.336 131.565 179.997 133.03 187.973 129.437C195.948 125.845 207.259 88.0734 207.259 88.0734L190.774 76.1956Z" fill="#250F59"/>
<path opacity="0.2" d="M197.809 88.0307C197.809 88.0307 179.324 123.279 179.986 123.14C180.649 123.012 195.275 122.071 195.275 122.071L197.809 88.0307Z" fill="black"/>
<path d="M249.147 72.9136L245.299 131.437C224.547 135.692 193.286 133.286 193.286 133.286L186.861 130.239L192.228 105.361L188.507 75.0304L208.596 71.0105V61.3244L230.662 58.6623L230.47 65.8788L230.406 68.3698L249.147 72.9136Z" fill="#250F59"/>
<path opacity="0.2" d="M245.298 131.437L247.854 92.5423L244.358 89.5274L227.305 133.586C233.527 133.222 239.782 132.559 245.298 131.437Z" fill="black"/>
<path opacity="0.2" d="M230.662 58.673L230.47 65.8895C222.43 67.7177 212.21 66.1674 208.596 65.5046V61.3351L230.662 58.673Z" fill="black"/>
<path d="M188.497 75.041L192.228 105.361L195.275 73.6832L188.497 75.041Z" fill="#0B0623"/>
<path d="M249.148 72.9134L239.9 70.679C238.072 80.9746 235.719 103.148 246.453 113.839L249.148 72.9134Z" fill="#0B0623"/>
<path d="M193.286 133.286V139.092C193.286 139.092 219.886 144.149 245.78 136.782L245.288 131.415L193.286 133.286Z" fill="#0B0623"/>
<path d="M249.147 72.9028C255.583 72.9028 259.614 82.899 259.903 94.98C260.138 104.559 271.759 130.752 267.632 135.018C263.506 139.273 246.218 137.541 243.823 127.706C241.428 117.859 241.567 100.037 242.358 91.794C243.171 83.5511 243.171 72.9028 249.147 72.9028Z" fill="#250F59"/>
<path d="M208.585 71.0104C208.585 71.0104 221.051 75.6718 230.395 68.3697L216.956 97.4175L208.585 71.0104Z" fill="#0B0623"/>
<path d="M220.303 109.103L213.77 110.033L212.99 90.1903L210.253 78.4301C210.253 78.4301 215.31 79.3602 216.154 82.3644C216.999 85.3686 218.485 88.9715 218.485 88.9715L220.409 88.8539C222.537 88.7256 224.483 90.0192 225.188 92.0185L226.942 96.9899L225.231 98.5294C225.231 98.5294 226.856 108.6 220.303 109.103Z" fill="#493022"/>
<path d="M221.928 110.386C221.928 110.386 182.477 143.806 176.405 126.733C172.631 116.116 213.535 103.896 213.535 103.896L221.928 110.386Z" fill="#170B3F"/>
<path d="M224.344 93.3016C221.874 93.2481 220.217 94.8304 219.886 96.9259L220.891 105.586L220.388 107.906L224.397 107.221L226.29 96.8189L225.317 94.2317L224.344 93.3016Z" fill="#332118"/>
<path d="M227.925 125.845L234.287 124.081L227.081 105.575L224.889 93.697C224.889 93.697 220.623 96.573 221.051 99.6627C221.479 102.752 221.554 106.655 221.554 106.655L216.358 108.536L216.999 117.378L219.191 118.105C219.18 118.116 221.714 128.005 227.925 125.845Z" fill="#493022"/>
<path d="M218.485 88.9716L212.99 90.1904L210.927 81.306C210.927 81.306 213.14 87.5069 215.257 88.3622C217.363 89.2175 218.485 88.9716 218.485 88.9716Z" fill="#332118"/>
<path d="M219.18 118.116C219.18 118.116 219.886 116.17 218.4 116.063C218.143 116.042 219.501 116.309 219.49 115.55C219.49 114.684 220.003 113.957 220.517 113.828C220.527 113.828 219.512 117.175 219.18 118.116Z" fill="#332118"/>
<path d="M242.433 89.5168C242.433 89.5168 246.015 99.4809 245.78 104.687C245.544 109.905 258.78 124.626 258.78 124.626L241.845 119.302C241.845 119.313 240.188 97.4282 242.433 89.5168Z" fill="url(#paint0_radial_494_1662)"/>
<path opacity="0.34" d="M262.522 107.286C262.522 107.286 247.394 92.7777 251.339 94.221C253.681 95.0763 257.262 96.7013 259.903 94.98L262.522 107.286Z" fill="url(#paint1_radial_494_1662)"/>
<path d="M219.159 72.4324L217.94 60.159L230.93 56.075L230.406 68.3805L228.417 70.6684L219.811 74.8058L219.159 72.4324Z" fill="#0B0623"/>
<path d="M208.361 65.1838C208.361 65.1838 212.926 68.776 219.544 68.776C226.151 68.776 230.534 65.1838 230.534 65.1838L226.889 60.0627L211.119 60.4262L208.361 65.1838Z" fill="url(#paint2_radial_494_1662)"/>
<path d="M196.237 35.9969C195.264 31.1859 195.2 26.1718 196.066 21.3394C210.852 19.7144 225.969 19.4792 240.776 20.8583C242.626 25.5731 243.385 30.94 242.808 36.0183C227.797 40.0703 211.322 39.7388 196.237 35.9969Z" fill="#0B0623"/>
<path d="M236.308 28.1176C232.405 27.4227 228.214 29.1225 225.702 32.4047C227.69 33.089 230.021 33.4738 231.946 32.5972C233.432 31.9129 234.682 30.8117 235.602 29.4112" fill="#F16316"/>
<path d="M202.844 28.1176C206.747 27.4227 210.937 29.1225 213.45 32.4047C211.461 33.089 209.131 33.4738 207.206 32.5972C205.72 31.9129 204.469 30.8117 203.55 29.4112" fill="#F16316"/>
<path d="M241.846 26.4285C241.846 26.4285 239.857 22.4407 236.147 21.6496C235.506 21.5106 234.907 21.4785 234.33 21.532C230.128 21.9275 227.145 26.7492 220.72 27.3265C220.314 27.3693 219.886 27.38 219.448 27.38C211.173 27.38 208.297 20.4522 202.737 21.6496C199.028 22.4407 197.039 26.4285 197.039 26.4285C197.039 26.4285 198.985 4.2444 219.437 4.2444C219.8 4.2444 220.153 4.25509 220.495 4.26578C222.463 4.34062 224.248 4.62928 225.873 5.089C240.327 9.11955 241.846 26.4285 241.846 26.4285Z" fill="url(#paint3_radial_494_1662)"/>
<path d="M241.193 22.8362C241.407 20.9974 241.129 19.2119 240.189 17.5441C239.568 16.4323 238.777 15.4487 237.879 14.5827C235.516 10.5949 231.775 6.7354 225.873 5.08896C224.248 4.62925 222.463 4.35128 220.495 4.26575C222.11 5.34555 223.5 6.83162 224.537 8.5422C221.96 8.24285 219.33 8.32838 216.775 8.80948C210.51 9.9855 204.705 13.3746 200.065 18.068C203.261 16.4109 207.089 16.6675 210.435 17.929C213.781 19.1906 216.711 21.3716 219.629 23.5419C221.468 21.6495 223.703 20.2383 226.119 19.383C225.264 22.6117 223.318 25.5197 220.699 27.3265C227.124 26.7492 230.107 21.9275 234.308 21.5319C234.886 21.4785 235.495 21.5105 236.126 21.6495C239.836 22.4407 241.824 26.4285 241.824 26.4285C241.824 26.4285 241.717 24.9852 241.193 22.8362Z" fill="url(#paint4_radial_494_1662)"/>
<path d="M241.846 33.6983C241.846 33.709 241.846 33.7303 241.835 33.741C238.713 65.0447 222.463 66.2207 219.811 66.1993C219.565 66.1993 219.437 66.1886 219.437 66.1886C219.437 66.1886 200.428 67.8671 197.028 33.6983C197.028 33.6983 197.082 33.8266 197.242 34.0511C197.242 34.0618 197.253 34.0725 197.264 34.0725C197.969 35.0347 200.535 37.5364 208.233 37.8999C213.418 38.1351 215.214 35.334 217.513 34.1794C218.101 33.88 218.721 33.6983 219.437 33.6983C219.533 33.6983 219.629 33.6983 219.726 33.709C223.029 33.9442 224.312 38.1885 230.631 37.8999C239.451 37.4936 241.525 34.2649 241.803 33.7624C241.835 33.7197 241.846 33.6983 241.846 33.6983Z" fill="#250F59"/>
<path d="M241.685 33.7518C238.563 65.0555 222.313 66.2315 219.661 66.2101C220.014 60.4904 219.95 54.7385 219.48 49.0188C219.351 47.4792 219.223 45.8114 219.993 44.5071C220.752 43.2242 222.27 42.5186 222.73 41.0753C223.254 39.4609 222.195 37.7824 221.201 36.4567C220.624 35.6976 219.95 34.714 219.576 33.7091C222.879 33.9443 224.162 38.1887 230.481 37.9C239.301 37.4937 241.375 34.265 241.653 33.7625C241.664 33.7625 241.674 33.7518 241.685 33.7518Z" fill="#0B0623"/>
<path opacity="0.7" d="M218.667 40.7118C218.646 41.3105 218.624 41.9519 218.314 42.4117C217.983 42.9248 217.406 43.0852 216.871 43.2135C216.54 43.2883 216.197 43.3739 215.866 43.3097C215.535 43.2456 215.193 43.0211 215.054 42.6469C214.84 42.0909 215.118 41.4495 215.385 40.9256C216.101 39.5144 216.807 38.1031 217.523 36.7026C217.651 36.446 217.812 36.1039 217.994 35.7938C218.272 35.3341 218.86 35.5693 218.87 36.136C218.902 37.6327 218.71 39.2578 218.667 40.7118Z" fill="white"/>
<path opacity="0.7" d="M217.523 34.19C216.058 35.2271 215.064 37.0553 213.493 37.9533C211.846 38.8941 209.665 39.3004 207.773 39.2363C205.592 39.1507 203.272 38.691 201.262 37.8464C199.583 37.1408 198.247 35.612 197.274 34.0831C197.98 35.0453 200.546 37.5471 208.243 37.9106C213.428 38.1458 215.225 35.334 217.523 34.19Z" fill="white"/>
<path d="M245.972 40.5728C244.23 52.4507 230.524 65.1838 230.524 65.1838L228.695 63.238C228.695 63.238 243.021 47.2441 241.557 27.3693C240.103 7.59069 219.448 20.1528 219.448 20.1528C219.448 20.1528 198.792 7.59069 197.338 27.38C195.874 47.2441 210.2 63.2487 210.2 63.2487L208.361 65.1945C208.361 65.1945 194.666 52.4507 192.912 40.5835C192.741 39.3968 192.634 38.178 192.591 36.9592C192.559 36.1039 192.559 35.2273 192.591 34.3613C192.934 24.2047 197.114 13.9198 200.364 9.51509C204.223 4.28713 218.966 0.138969 219.426 -1.52588e-05C219.437 -1.52588e-05 219.437 -1.52588e-05 219.437 -1.52588e-05C219.437 -1.52588e-05 219.437 -1.52588e-05 219.448 -1.52588e-05C219.907 0.128278 234.65 4.28713 238.51 9.51509C241.471 13.5243 245.213 22.43 246.111 31.6671C246.411 34.6499 246.4 37.6755 245.972 40.5728Z" fill="#3A1B9B"/>
<path d="M246.122 31.6671C244.956 26.6315 242.444 22.0771 239.087 18.0786C236.885 15.4593 233.121 14.5826 229.722 15.0103C226.322 15.4379 223.018 17.0737 219.939 18.5918C220.709 16.8064 221.971 15.2776 223.008 13.6311C224.045 11.9847 224.879 10.0817 224.633 8.14658C224.43 6.58568 222.687 1.44325 219.437 0.0106354H219.458C219.918 0.138929 234.661 4.29778 238.52 9.52574C241.482 13.5242 245.224 22.4299 246.122 31.6671Z" fill="#0B0623"/>
<path d="M229.358 63.9543C229.358 63.9543 247.362 49.425 242.562 25.8511C242.562 25.8511 245.619 46.4315 228.695 63.2486L229.358 63.9543Z" fill="url(#paint5_radial_494_1662)"/>
<path d="M209.526 63.9543C209.526 63.9543 191.522 49.425 196.323 25.8511C196.323 25.8511 193.265 46.4315 210.189 63.2486L209.526 63.9543Z" fill="url(#paint6_radial_494_1662)"/>
<path d="M197.039 23.745C197.039 23.745 199.177 10.3062 209.002 7.48378C209.002 7.48378 200.342 11.5143 197.039 23.745Z" fill="url(#paint7_radial_494_1662)"/>
<path opacity="0.7" d="M219.437 -1.52588e-05C219.009 0.171043 206.629 5.26002 202.855 9.8679C199.006 14.5613 194.473 20.6552 192.602 36.9485V34.3506C192.944 24.194 197.124 13.9091 200.374 9.51509C204.234 4.28713 218.977 0.128278 219.437 -1.52588e-05Z" fill="white"/>
<path d="M224.429 81.2739C224.429 81.2739 233.731 102.314 232.769 110.022C231.806 117.731 228.685 137.199 228.685 137.199C228.685 137.199 228.77 151.483 236.297 157.395L261.506 152.84L245.17 136.13L239.889 70.6683L230.384 68.3697L224.429 81.2739Z" fill="#0B0623"/>
<path d="M231.817 117.741C231.817 117.741 272.828 121.622 268.541 139.006C265.836 149.943 226.301 126.145 226.301 126.145L231.817 117.741Z" fill="#170B3F"/>
<path d="M205.464 132.795C205.464 132.795 204.084 124.552 207.024 121.473C207.484 120.992 207.987 120.799 208.521 120.425C208.521 120.425 205.378 126.786 206.843 132.795H205.464Z" fill="#0B0623"/>
<path d="M206.8 140.503L208.714 146.629L209.376 142.973L208.585 140.46L206.8 140.503Z" fill="#0B0623"/>
<path opacity="0.2" d="M226.942 140.235C226.942 140.235 229.583 150.36 230.085 153.215C230.577 156.069 226.888 159.095 226.888 159.095L236.297 157.395C236.297 157.395 230.833 154.84 228.866 140.032L226.942 140.235Z" fill="black"/>
<path opacity="0.2" d="M231.924 102.464C233.613 107.906 232.405 112.888 232.405 112.888L230.406 127.706L229.337 128.347L231.603 108.718C231.71 101.031 223.339 83.6581 223.339 83.6581L224.44 81.2847C224.429 81.274 230.94 99.3099 231.924 102.464Z" fill="black"/>
<path d="M237.58 70.1125L238.328 93.3016C238.328 93.3016 237.045 75.116 239.9 70.6685L237.58 70.1125Z" fill="#170B3F"/>
<path opacity="0.7" d="M208.617 71.096C208.617 71.096 195.767 73.5764 188.497 75.0303C188.497 75.0303 204.298 74.5065 209.109 72.6676L208.617 71.096Z" fill="white"/>
<path opacity="0.7" d="M189.469 82.899C189.469 82.899 176.426 110.097 174.288 120.414C174.288 120.414 174.448 114.181 182.328 95.3542C188.914 79.6275 189.031 80.0551 189.031 80.0551L189.459 82.5034" fill="white"/>
<path opacity="0.7" d="M214.123 105.361C214.123 105.361 180.949 119.174 179.388 120.414C179.388 120.414 190.229 110.91 213.386 104.303L214.54 105.361H214.123Z" fill="white"/>
<path opacity="0.7" d="M210.253 78.4194C210.253 78.4194 213.824 88.0307 213.931 88.9929C214.038 89.9551 216.005 89.5168 216.005 89.5168C216.005 89.5168 213.834 90.8639 214.027 92.2537C214.38 94.8837 214.711 104.805 214.711 104.805L213.738 104.057C213.738 104.057 213.45 92.3713 213.321 90.1155C213.161 87.6672 210.221 79.5847 210.253 78.4194Z" fill="white"/>
<path opacity="0.7" d="M195.841 139.509L184.669 153.877L181.045 153.033L193.286 139.102L195.841 139.509Z" fill="white"/>
<path opacity="0.7" d="M186.166 161.137C186.166 161.137 181.034 185.32 177.795 191.125C174.555 196.931 165.094 221.189 163.768 230.779C162.442 240.369 164.655 247.211 164.655 247.211C164.655 247.211 163.234 233.74 165.928 226.727C168.622 219.713 176.041 196.375 178.875 192.601C181.708 188.827 187.973 163.895 187.406 161.457L186.166 161.137Z" fill="white"/>
<path opacity="0.7" d="M172.139 254.823L165.19 302.751L175.325 256.309L172.139 254.823Z" fill="white"/>
<path d="M137.468 324.273C137.468 324.273 141.295 326.143 143.316 325.555C143.316 325.555 139.435 325.149 140.216 324.187C140.996 323.225 167.542 307.562 167.542 307.562L164.645 307.936L151.965 316.019L137.468 324.273Z" fill="#0B0623"/>
<path d="M236.307 157.395C236.307 157.395 248.517 176.682 252.365 189.49C254.45 196.449 257.829 234.916 261.528 244.816C264.639 253.145 267.974 226.77 270.968 232.318C277.522 244.474 271.823 256.715 271.823 256.715C271.823 256.715 285.016 250.108 281.456 234.082C278.623 221.349 277.319 213.769 273.427 206.702C269.054 198.748 252.365 154.487 252.365 154.487L236.307 157.395Z" fill="#0B0623" fill-opacity="0.98"/>
<path opacity="0.2" d="M234.789 159.811L237.152 159.095C237.152 159.095 251.029 180.477 252.697 190.805C254.365 201.143 258.064 228.309 258.385 230.276C258.705 232.243 261.122 243.619 261.122 243.619C261.122 243.619 257.23 234.638 254.568 219.478C251.895 204.318 248.902 183.609 242.444 173.111C235.987 162.612 234.789 159.811 234.789 159.811Z" fill="black"/>
<path opacity="0.7" d="M192.987 97.4283L192.089 106.184L190.774 112.631L192.987 111.551V97.4283Z" fill="white"/>
<path d="M384.102 96.8938C395.402 139.776 335.297 190.366 247.822 211.161C162.817 231.356 85.4984 210.722 75.5556 166.963C68.2108 134.633 99.6 98.2729 150.853 73.6726" stroke="white" stroke-width="1.06911" stroke-miterlimit="10"/>
<path d="M153.847 75.3405C155.896 75.3405 157.557 73.6796 157.557 71.6307C157.557 69.5818 155.896 67.9209 153.847 67.9209C151.798 67.9209 150.137 69.5818 150.137 71.6307C150.137 73.6796 151.798 75.3405 153.847 75.3405Z" stroke="white" stroke-width="1.06911" stroke-miterlimit="10"/>
<path d="M248.741 214.742C250.79 214.742 252.451 213.081 252.451 211.032C252.451 208.983 250.79 207.322 248.741 207.322C246.692 207.322 245.031 208.983 245.031 211.032C245.031 213.081 246.692 214.742 248.741 214.742Z" fill="white"/>
<path d="M349.986 168.503C352.035 168.503 353.696 166.842 353.696 164.793C353.696 162.744 352.035 161.083 349.986 161.083C347.937 161.083 346.276 162.744 346.276 164.793C346.276 166.842 347.937 168.503 349.986 168.503Z" fill="white"/>
<path d="M383.011 88.4156C382.979 88.2232 382.947 88.0628 382.915 87.9131C382.006 83.0059 381.097 78.0987 380.178 73.1914C380.124 72.9028 380.146 72.6889 380.424 72.4537C381.054 71.8871 380.98 71.0425 380.306 70.5935C379.622 70.1338 378.713 70.2941 378.211 70.957C377.719 71.6091 377.911 72.4324 378.702 72.7424C379.087 72.8921 379.183 73.0952 379.237 73.4159C380.135 78.3125 381.044 83.209 381.952 88.0949C381.974 88.2339 382.006 88.3835 382.049 88.5867C381.461 88.6936 380.894 88.8219 380.327 88.886C380.21 88.8967 380.049 88.7256 379.964 88.608C378.307 86.3522 376.65 84.0857 375.003 81.8192C373.1 79.1998 371.197 76.5912 369.283 73.9719C369.123 73.7581 369.102 73.5763 369.209 73.3304C370.256 70.8715 371.283 68.4018 372.33 65.9428C372.395 65.7932 372.619 65.6114 372.801 65.5794C376.34 64.9058 379.889 64.2536 383.428 63.5908C383.695 63.5373 383.845 63.6015 384.016 63.7726C385.855 65.7076 387.715 67.632 389.554 69.5778C389.682 69.7168 389.768 69.9734 389.714 70.1552C388.153 75.9925 386.571 81.8192 385.01 87.6458C384.925 87.9773 384.764 88.1162 384.39 88.159C383.941 88.2232 383.513 88.3301 383.011 88.4156Z" fill="white"/>
<path d="M386.4 94.6806C386.518 95.3221 386.624 95.8887 386.731 96.4874C384.893 96.8295 383.096 97.161 381.236 97.5031C381.129 96.9151 381.022 96.3377 380.905 95.7284C380.68 95.7604 380.52 95.7818 380.359 95.8032C374.993 96.7975 369.626 97.7917 364.259 98.7753C363.863 98.8502 363.681 98.9785 363.585 99.342C363.264 100.507 362.067 101.277 360.698 101.256C359.458 101.245 358.378 100.411 358.165 99.3099C357.94 98.1339 358.635 97.0113 359.918 96.5195C361.115 96.0491 362.484 96.3698 363.222 97.3C363.318 97.4176 363.403 97.5352 363.5 97.6741C367.862 96.8616 372.224 96.0598 376.586 95.2472C376.586 95.2259 376.596 95.2152 376.596 95.1938C376.457 95.1724 376.329 95.151 376.19 95.1403C367.37 93.9857 361.297 89.7948 358.068 82.4714C357.79 81.8513 357.609 81.1991 357.416 80.5576C357.341 80.3117 357.224 80.2262 356.935 80.2904C356.454 80.3973 355.962 80.4721 355.449 80.5683C355.15 78.954 354.861 77.3931 354.562 75.7787C356.358 75.4473 358.165 75.1159 360.014 74.7737C360.303 76.3453 360.602 77.9276 360.902 79.5527C360.185 79.681 359.469 79.82 358.678 79.9696C359.8 84.0536 362.131 87.3786 365.723 89.9445C369.978 92.9807 374.939 94.3171 380.605 94.0071C380.563 93.7505 380.52 93.5474 380.488 93.3549C380.456 93.1518 380.413 92.9487 380.37 92.7241C382.209 92.382 384.016 92.0506 385.876 91.7085C385.951 92.1254 386.026 92.521 386.111 92.9914C390.89 91.4733 394.707 88.9074 397.583 85.2297C400.608 81.3702 402.501 74.9341 401.474 72.0689C400.854 72.1865 400.213 72.3041 399.561 72.4217C399.261 70.7966 398.962 69.2144 398.673 67.6107C400.491 67.2793 402.287 66.9371 404.115 66.6057C404.404 68.188 404.703 69.7703 405.003 71.406C404.318 71.5343 403.634 71.6626 403.003 71.7802C403.452 80.8998 399.219 87.849 390.334 92.7135C394.75 91.9009 399.176 91.0777 403.613 90.2545C403.859 89.0464 404.618 88.2339 405.997 87.9559C407.376 87.6886 408.659 88.3729 409.087 89.5596C409.493 90.6928 408.873 91.9758 407.643 92.5638C406.392 93.1518 404.864 92.8738 404.126 91.8582C403.901 91.5481 403.677 91.5054 403.292 91.5695C397.893 92.5745 392.494 93.5687 387.095 94.5737C386.87 94.5844 386.678 94.6272 386.4 94.6806Z" fill="white"/>
<path d="M383.503 62.3507C379.75 63.0456 376.008 63.7405 372.245 64.4354C371.946 62.8318 371.657 61.2388 371.358 59.6244C375.11 58.9295 378.841 58.2346 382.615 57.5397C382.904 59.1219 383.203 60.7042 383.503 62.3507Z" fill="white"/>
<path d="M281.337 174.662L275.925 165.546L277.029 164.891L281.859 173.028L286.097 170.512L286.678 171.491L281.337 174.662ZM293.018 161.563C293.589 162.524 293.909 163.458 293.977 164.365C294.046 165.271 293.89 166.094 293.51 166.833C293.13 167.572 292.552 168.173 291.774 168.634C290.997 169.096 290.193 169.316 289.362 169.296C288.531 169.276 287.734 169.018 286.971 168.524C286.208 168.03 285.541 167.302 284.97 166.341C284.4 165.379 284.08 164.445 284.011 163.539C283.943 162.632 284.098 161.81 284.478 161.07C284.858 160.331 285.437 159.731 286.214 159.269C286.992 158.808 287.796 158.587 288.627 158.608C289.458 158.628 290.255 158.885 291.017 159.379C291.78 159.874 292.447 160.601 293.018 161.563ZM291.95 162.197C291.481 161.408 290.954 160.82 290.367 160.434C289.784 160.046 289.185 159.845 288.571 159.832C287.961 159.818 287.379 159.974 286.827 160.302C286.275 160.63 285.858 161.066 285.576 161.611C285.296 162.154 285.186 162.775 285.244 163.475C285.305 164.173 285.57 164.917 286.039 165.706C286.507 166.496 287.033 167.084 287.617 167.472C288.203 167.859 288.802 168.059 289.413 168.074C290.026 168.087 290.609 167.929 291.161 167.602C291.713 167.274 292.129 166.839 292.408 166.295C292.691 165.75 292.801 165.129 292.74 164.431C292.682 163.731 292.418 162.986 291.95 162.197ZM300.091 155.052C299.815 154.811 299.527 154.619 299.226 154.476C298.926 154.329 298.616 154.237 298.296 154.198C297.979 154.157 297.656 154.174 297.327 154.249C296.998 154.324 296.669 154.459 296.339 154.655C295.799 154.975 295.391 155.406 295.115 155.948C294.838 156.489 294.73 157.109 294.792 157.807C294.853 158.505 295.118 159.249 295.586 160.038C296.055 160.828 296.583 161.415 297.169 161.802C297.756 162.188 298.357 162.387 298.974 162.398C299.59 162.409 300.181 162.247 300.744 161.912C301.267 161.602 301.661 161.218 301.926 160.759C302.193 160.296 302.316 159.793 302.295 159.252C302.276 158.705 302.101 158.153 301.77 157.596L302.15 157.466L299.408 159.094L298.827 158.114L302.299 156.053L302.88 157.033C303.326 157.783 303.553 158.531 303.562 159.276C303.574 160.02 303.39 160.711 303.011 161.349C302.633 161.983 302.082 162.515 301.358 162.945C300.55 163.424 299.728 163.655 298.892 163.638C298.058 163.62 297.262 163.362 296.505 162.864C295.751 162.364 295.089 161.634 294.518 160.672C294.09 159.951 293.802 159.246 293.653 158.555C293.505 157.861 293.489 157.204 293.603 156.586C293.718 155.968 293.954 155.407 294.312 154.901C294.671 154.395 295.142 153.969 295.726 153.622C296.207 153.337 296.698 153.143 297.2 153.042C297.703 152.936 298.196 152.918 298.679 152.989C299.164 153.054 299.624 153.204 300.06 153.439C300.495 153.671 300.885 153.983 301.231 154.376L300.091 155.052ZM311.881 150.365C312.452 151.326 312.771 152.26 312.84 153.166C312.909 154.073 312.753 154.896 312.373 155.635C311.993 156.374 311.414 156.974 310.637 157.436C309.86 157.898 309.055 158.118 308.225 158.098C307.394 158.077 306.597 157.82 305.834 157.326C305.071 156.832 304.404 156.104 303.833 155.142C303.262 154.181 302.943 153.247 302.874 152.34C302.806 151.434 302.961 150.611 303.341 149.872C303.721 149.133 304.3 148.532 305.077 148.071C305.855 147.609 306.659 147.389 307.49 147.409C308.32 147.43 309.117 147.687 309.88 148.181C310.643 148.675 311.31 149.403 311.881 150.365ZM310.813 150.999C310.344 150.209 309.816 149.622 309.23 149.235C308.646 148.847 308.048 148.647 307.434 148.634C306.823 148.619 306.242 148.776 305.69 149.103C305.138 149.431 304.721 149.867 304.439 150.412C304.159 150.956 304.048 151.577 304.107 152.277C304.168 152.975 304.433 153.719 304.902 154.508C305.37 155.297 305.896 155.886 306.48 156.274C307.066 156.66 307.665 156.861 308.276 156.875C308.889 156.888 309.472 156.731 310.024 156.403C310.576 156.076 310.992 155.64 311.271 155.097C311.554 154.552 311.664 153.931 311.603 153.233C311.545 152.533 311.281 151.788 310.813 150.999Z" fill="white"/>
<path d="M277.96 144.64C277.96 144.64 326.359 91.8902 296.819 70.4331C285.251 62.0299 302.924 113.187 277.96 144.64Z" fill="white"/>
<path d="M293.612 143.229C293.612 143.229 320.275 129.854 311.947 117.121C308.697 112.129 307.991 134.676 293.612 143.229Z" fill="white"/>
</g>
<defs>
<radialGradient id="paint0_radial_494_1662" cx="0" cy="0" r="1" gradientUnits="userSpaceOnUse" gradientTransform="translate(250.019 107.077) scale(13.8755 13.8755)">
<stop stop-color="#0F0033"/>
<stop offset="1" stop-color="#060019"/>
</radialGradient>
<radialGradient id="paint1_radial_494_1662" cx="0" cy="0" r="1" gradientUnits="userSpaceOnUse" gradientTransform="translate(256.606 100.707) scale(6.25848 6.25848)">
<stop stop-color="#0F0033"/>
<stop offset="1" stop-color="#060019"/>
</radialGradient>
<radialGradient id="paint2_radial_494_1662" cx="0" cy="0" r="1" gradientUnits="userSpaceOnUse" gradientTransform="translate(213.809 62.7191) scale(12.4464 12.4464)">
<stop stop-color="#1D0056"/>
<stop offset="1" stop-color="#07001E"/>
</radialGradient>
<radialGradient id="paint3_radial_494_1662" cx="0" cy="0" r="1" gradientUnits="userSpaceOnUse" gradientTransform="translate(206.874 8.97972) scale(26.8061 26.8061)">
<stop stop-color="#4816B5"/>
<stop offset="1" stop-color="#1D0056"/>
</radialGradient>
<radialGradient id="paint4_radial_494_1662" cx="0" cy="0" r="1" gradientUnits="userSpaceOnUse" gradientTransform="translate(220.966 15.7924) scale(16.5987 17.8474)">
<stop stop-color="#1D0056"/>
<stop offset="1" stop-color="#0F0035"/>
</radialGradient>
<radialGradient id="paint5_radial_494_1662" cx="0" cy="0" r="1" gradientUnits="userSpaceOnUse" gradientTransform="translate(236.038 44.9003) rotate(180) scale(13.5611 14.5813)">
<stop stop-color="#0F0033"/>
<stop offset="1" stop-color="#060019"/>
</radialGradient>
<radialGradient id="paint6_radial_494_1662" cx="0" cy="0" r="1" gradientUnits="userSpaceOnUse" gradientTransform="translate(202.852 44.9003) scale(13.5611 14.5813)">
<stop stop-color="#0F0033"/>
<stop offset="1" stop-color="#060019"/>
</radialGradient>
<radialGradient id="paint7_radial_494_1662" cx="0" cy="0" r="1" gradientUnits="userSpaceOnUse" gradientTransform="translate(203.022 15.6131) scale(6.81621 7.32899)">
<stop stop-color="#0F0033"/>
<stop offset="1" stop-color="#060019"/>
</radialGradient>
<clipPath id="clip0_494_1662">
<rect width="335.22" height="329.896" fill="white" transform="translate(73.9626)"/>
</clipPath>
</defs>
</svg>
