<svg width="136" height="136" viewBox="0 0 136 136" fill="none" xmlns="http://www.w3.org/2000/svg">
<path d="M101.506 102.085C120.121 83.4694 120.121 53.2881 101.506 34.6728C82.8905 16.0576 52.7092 16.0575 34.094 34.6728C15.4787 53.2881 15.4787 83.4694 34.094 102.085C52.7092 120.7 82.8905 120.7 101.506 102.085Z" fill="#FFB600"/>
<path d="M46.1664 90.2439L38.8235 93.6142L32.9415 80.7994L40.2876 77.4291L46.1664 90.2439Z" fill="url(#paint0_linear_494_1527)"/>
<path d="M40.7329 77.5189L32.682 81.1807L19.3258 51.7067C18.7042 50.342 19.3065 48.7305 20.6745 48.109L23.7789 46.6961C25.1437 46.0746 26.7551 46.6769 27.3766 48.0449L40.7329 77.5189Z" fill="url(#paint1_linear_494_1527)"/>
<path d="M24.2211 51.8989L21.0847 51.9982L23.2184 49.7012L26.3548 49.6018L24.2211 51.8989Z" fill="white"/>
<path d="M25.6372 55.016L22.5007 55.1122L24.6376 52.8151L27.7708 52.7158L25.6372 55.016Z" fill="white"/>
<path d="M27.0529 58.1301L23.9165 58.2294L26.0534 55.9292L29.1898 55.8298L27.0529 58.1301Z" fill="white"/>
<path d="M28.469 61.2441L25.3358 61.3434L27.4695 59.0432L30.6059 58.9438L28.469 61.2441Z" fill="white"/>
<path d="M29.8884 64.3581L26.752 64.4574L28.8856 62.1572L32.022 62.0611L29.8884 64.3581Z" fill="white"/>
<path d="M31.3046 67.4721L28.1682 67.5714L30.3051 65.2744L33.4383 65.175L31.3046 67.4721Z" fill="white"/>
<path d="M32.7205 70.5892L29.5841 70.6853L31.721 68.3883L34.8574 68.289L32.7205 70.5892Z" fill="white"/>
<path d="M34.1396 73.7033L31.0032 73.8026L33.1368 71.5024L36.2733 71.403L34.1396 73.7033Z" fill="white"/>
<path d="M35.5557 76.8172L32.4193 76.9165L34.553 74.6163L37.6894 74.517L35.5557 76.8172Z" fill="white"/>
<path d="M42.7865 77.3972L31.3525 82.6448L30.795 81.437L42.2322 76.1894L42.7865 77.3972Z" fill="url(#paint2_radial_494_1527)"/>
<path d="M89.4323 90.2439L96.7783 93.6142L102.66 80.7994L95.3142 77.4291L89.4323 90.2439Z" fill="url(#paint3_linear_494_1527)"/>
<path d="M94.869 77.5189L102.92 81.1807L116.276 51.7067C116.898 50.3419 116.295 48.7304 114.927 48.1089L111.823 46.6961C110.458 46.0746 108.847 46.6769 108.225 48.0448L94.869 77.5189Z" fill="url(#paint4_linear_494_1527)"/>
<path d="M111.381 51.8989L114.517 51.9982L112.383 49.7012L109.247 49.6018L111.381 51.8989Z" fill="white"/>
<path d="M109.965 55.016L113.101 55.1122L110.964 52.8151L107.828 52.7158L109.965 55.016Z" fill="white"/>
<path d="M108.549 58.13L111.682 58.2293L109.548 55.9291L106.412 55.8298L108.549 58.13Z" fill="white"/>
<path d="M107.13 61.2441L110.266 61.3434L108.132 59.0431L104.996 58.9438L107.13 61.2441Z" fill="white"/>
<path d="M105.713 64.3581L108.85 64.4574L106.716 62.1571L103.58 62.061L105.713 64.3581Z" fill="white"/>
<path d="M104.297 67.4721L107.434 67.5714L105.297 65.2743L102.161 65.175L104.297 67.4721Z" fill="white"/>
<path d="M102.881 70.5893L106.015 70.6854L103.881 68.3883L100.745 68.289L102.881 70.5893Z" fill="white"/>
<path d="M101.462 73.7033L104.599 73.8026L102.465 71.5023L99.3286 71.403L101.462 73.7033Z" fill="white"/>
<path d="M100.046 76.8172L103.183 76.9165L101.049 74.6162L97.9125 74.5169L100.046 76.8172Z" fill="white"/>
<path d="M92.8153 77.3972L104.249 82.6448L104.804 81.437L93.3696 76.1894L92.8153 77.3972Z" fill="url(#paint5_radial_494_1527)"/>
<path d="M114.719 95.3058C114.719 95.3058 108.507 110.072 84.8318 120.663C79.9365 122.851 74.2948 124.86 67.8009 126.529C61.3551 124.876 55.7454 122.877 50.8758 120.711C27.114 110.116 20.886 95.3058 20.886 95.3058C38.9612 88.3442 52.5513 80.777 52.5513 80.777L52.5545 80.7514L54.1852 70.8007L54.9861 65.9119L67.8009 72.7197L80.6157 65.9119L83.0537 80.7738C83.0537 80.7738 85.716 82.2571 90.2589 84.5189C95.971 87.3606 104.647 91.4293 114.719 95.3058Z" fill="url(#paint6_radial_494_1527)"/>
<path d="M90.2587 84.5222C86.1355 96.0267 79.0681 105.317 70.7097 110.193C66.8012 112.471 62.5499 113.685 58.4363 115.002C62.9183 112.359 66.7115 107.711 69.8351 102.399C72.9619 97.0935 75.4288 91.2179 77.9212 85.2655C75.8612 87.3062 73.3463 88.3827 70.8443 88.2994C68.3422 88.2129 65.9971 86.8481 64.0076 84.6696C67.8872 86.6623 72.3404 85.8998 75.6818 82.4494C71.6035 84.3748 67.0479 84.1538 63.0689 81.8311C59.375 79.6782 56.2034 75.7345 54.1882 70.8008L54.9892 65.9119L67.8039 72.7198L80.6187 65.9119L83.0568 80.7739C83.0503 80.7803 85.7158 82.2604 90.2587 84.5222Z" fill="url(#paint7_radial_494_1527)"/>
<path d="M84.8318 120.666C79.9365 122.854 74.2948 124.863 67.8009 126.532C61.3551 124.879 55.7454 122.88 50.8758 120.714C41.0469 116.332 34.2134 111.222 29.584 106.743C23.0229 100.4 20.886 95.309 20.886 95.309C38.6793 88.4531 52.1285 81.0173 52.5417 80.7867C52.5449 80.7867 52.5481 80.7803 52.5513 80.7803L52.5545 80.7546L52.7147 80.7803C52.7147 80.7803 52.955 81.5075 53.4548 82.773C56.0594 89.4046 65.7089 110.866 84.8318 120.666Z" fill="#170B3F"/>
<path d="M114.719 95.3058C114.719 95.3058 105.672 116.812 67.8009 126.532C67.4101 126.433 67.0256 126.33 66.6412 126.228C60.6791 124.636 55.4507 122.749 50.8758 120.711L50.8694 120.701C70.0371 110.917 79.7059 89.4142 82.3105 82.7729C82.8102 81.5042 83.0505 80.7802 83.0505 80.7802C83.0505 80.7802 96.6406 88.3441 114.719 95.3058Z" fill="#250F59"/>
<path opacity="0.7" d="M28.6421 98.218C27.5593 100.467 27.9662 103.671 29.0907 105.875C29.2444 106.179 29.4078 106.467 29.584 106.74C23.0229 100.396 20.886 95.3058 20.886 95.3058C38.6793 88.4499 52.1284 81.0141 52.5417 80.7834C45.5128 85.5153 38.6345 90.4874 31.6056 95.2225C30.4971 95.9658 29.3373 96.7731 28.6421 98.218Z" fill="white"/>
<path opacity="0.7" d="M60.6599 120.948C60.7272 121.945 61.496 122.739 62.2617 123.383C63.6009 124.504 65.0746 125.462 66.6412 126.228C60.6791 124.636 55.4507 122.749 50.8758 120.711L50.8694 120.701C70.0371 110.917 79.7059 89.4142 82.3105 82.7729C82.8102 81.5042 83.0505 80.7802 83.0505 80.7802C81.423 95.0399 73.8591 108.627 62.7679 117.738C61.7395 118.584 60.5734 119.619 60.6599 120.948Z" fill="white"/>
<path d="M58.1066 77.7176C58.1066 77.7176 62.1016 80.8572 67.8843 80.8572C73.6669 80.8572 77.4953 77.7176 77.4953 77.7176L74.3077 73.2388L60.5157 73.5592L58.1066 77.7176Z" fill="url(#paint8_radial_494_1527)"/>
<path d="M47.5055 52.1874C46.6533 47.9809 46.6021 43.5919 47.3581 39.3662C60.285 37.9469 73.5099 37.7419 86.456 38.9401C88.0771 43.06 88.7339 47.7535 88.2309 52.1938C75.1053 55.7531 60.6983 55.4648 47.5055 52.1874Z" fill="url(#paint9_radial_494_1527)"/>
<path d="M85.6198 42.7205C85.7768 42.8422 85.7511 43.1209 85.6198 43.2747C85.4884 43.4285 85.293 43.4925 85.1072 43.5534C84.9214 43.6143 84.726 43.6912 84.6106 43.8578C84.4216 44.1269 84.5145 44.5177 84.4088 44.8381C84.2935 45.1873 83.9475 45.3987 83.6047 45.4404C83.2619 45.482 82.9415 45.3635 82.5474 45.2962C79.1323 44.6939 75.4673 46.1772 73.2695 49.0478C75.0091 49.6469 77.0467 49.9832 78.7286 49.2112C80.0293 48.6121 81.125 47.6477 81.9259 46.4207C82.2559 46.1869 82.6564 46.0747 83.0536 46.0459C83.3035 46.0299 83.5534 46.0427 83.8001 46.0171C84.0468 45.9914 84.2999 45.9242 84.4985 45.7608C84.8477 45.4756 84.9598 44.9534 84.9278 44.4825C84.915 44.2967 84.8861 44.0884 84.9887 43.9347C85.1264 43.7264 85.418 43.7392 85.6166 43.6047C85.7575 43.5086 85.8472 43.3388 85.8505 43.1594C85.8505 42.9928 85.7543 42.823 85.6198 42.7205Z" fill="url(#paint10_radial_494_1527)"/>
<path d="M49.9819 42.7205C49.8249 42.8422 49.8505 43.1209 49.9819 43.2747C50.1132 43.4285 50.3087 43.4925 50.4945 43.5534C50.6803 43.6143 50.8757 43.6912 50.9911 43.8578C51.1801 44.1269 51.0872 44.5177 51.1929 44.8381C51.3082 45.1873 51.6542 45.3987 51.997 45.4404C52.3398 45.482 52.6602 45.3635 53.0542 45.2962C56.4694 44.6939 60.1344 46.1772 62.3321 49.0478C60.5925 49.6469 58.555 49.9832 56.873 49.2112C55.5723 48.6121 54.4767 47.6477 53.6758 46.4207C53.3458 46.1869 52.9453 46.0747 52.548 46.0459C52.2982 46.0299 52.0483 46.0427 51.8016 46.0171C51.5549 45.9914 51.3018 45.9242 51.1032 45.7608C50.754 45.4756 50.6418 44.9534 50.6739 44.4825C50.6867 44.2967 50.7155 44.0884 50.613 43.9347C50.4753 43.7264 50.1837 43.7392 49.9851 43.6047C49.8441 43.5086 49.7544 43.3388 49.7512 43.1594C49.7512 42.9928 49.8441 42.823 49.9819 42.7205Z" fill="url(#paint11_radial_494_1527)"/>
<path d="M87.3947 43.8161C87.3947 43.8161 85.6583 40.3273 82.413 39.6353C81.8556 39.5168 81.3302 39.4879 80.8208 39.536C77.1493 39.882 74.5351 44.0948 68.919 44.601C68.5602 44.6331 68.1886 44.6523 67.8041 44.6523C60.5702 44.6523 58.0553 38.5973 53.1921 39.6385C49.9467 40.3305 48.2103 43.8193 48.2103 43.8193C48.2103 43.8193 49.9115 24.4209 67.8041 24.4209C68.1213 24.4209 68.4289 24.4273 68.7332 24.4369C70.4536 24.5074 72.017 24.7573 73.4362 25.1546C86.0652 28.6851 87.3947 43.8161 87.3947 43.8161Z" fill="url(#paint12_radial_494_1527)"/>
<path d="M86.8212 40.6797C87.0134 39.0682 86.7699 37.5144 85.9466 36.0536C85.3987 35.0828 84.7099 34.2242 83.9314 33.4586C81.8619 29.9697 78.5909 26.5962 73.4329 25.1514C72.0137 24.7541 70.4503 24.5042 68.7299 24.4337C70.1459 25.3756 71.3569 26.6731 72.2668 28.1789C70.0082 27.9162 67.7143 27.9931 65.4782 28.4127C59.9966 29.4443 54.9188 32.4045 50.8661 36.5053C53.6629 35.0572 57.0108 35.2815 59.939 36.3867C62.8703 37.4888 65.4237 39.4014 67.9834 41.2916C69.5885 39.6353 71.5492 38.4019 73.6572 37.6522C72.9139 40.4747 71.2096 43.0184 68.9157 44.5978C74.535 44.0916 77.146 39.8788 80.8175 39.5328C81.3268 39.4847 81.8523 39.5135 82.4097 39.6321C85.655 40.3241 87.3914 43.8129 87.3914 43.8129C87.3914 43.8129 87.2825 42.5571 86.8212 40.6797Z" fill="url(#paint13_radial_494_1527)"/>
<path d="M87.3948 50.1819C87.3916 50.1947 87.3916 50.2075 87.3884 50.2235C84.6556 77.5991 70.4504 78.6275 68.1245 78.6115C67.9131 78.6083 67.801 78.5987 67.801 78.5987C67.801 78.5987 51.177 80.066 48.2072 50.1819C48.2072 50.1819 48.2584 50.2972 48.3962 50.4894C48.3994 50.4991 48.4058 50.5055 48.4122 50.5119C49.0305 51.3544 51.2699 53.5458 58.0041 53.8565C62.5373 54.0648 64.1071 51.6107 66.1158 50.6048C66.6284 50.3453 67.173 50.1819 67.801 50.1819C67.8875 50.1819 67.974 50.1851 68.0573 50.1915C70.947 50.3997 72.0651 54.1096 77.5979 53.8565C85.3156 53.5041 87.1289 50.6785 87.366 50.2396V50.2363C87.3852 50.2011 87.3948 50.1819 87.3948 50.1819Z" fill="url(#paint14_radial_494_1527)"/>
<path d="M87.2472 50.2235C84.5144 77.6023 70.3092 78.6275 67.9833 78.6115C68.2877 73.6041 68.2364 68.5775 67.8263 63.5797C67.7174 62.2374 67.6021 60.7765 68.2781 59.636C68.9412 58.5115 70.2708 57.8932 70.6744 56.6405C71.1294 55.2245 70.2067 53.7636 69.3353 52.6006C68.8323 51.9343 68.246 51.0757 67.9161 50.1947C70.8058 50.4029 71.9239 54.1128 77.4567 53.8597C85.1744 53.5073 86.9877 50.6816 87.2247 50.2427V50.2395C87.2311 50.2331 87.2376 50.2267 87.2472 50.2235Z" fill="url(#paint15_radial_494_1527)"/>
<path opacity="0.7" d="M67.1217 56.3106C67.1057 56.8328 67.0801 57.3902 66.8174 57.8003C66.5226 58.252 66.0197 58.3898 65.5583 58.4987C65.2668 58.566 64.9721 58.6365 64.6773 58.582C64.3858 58.5307 64.091 58.3353 63.9693 58.0021C63.7867 57.512 64.0238 56.9513 64.2576 56.4964C64.8791 55.263 65.5039 54.0327 66.1254 52.7993C66.2407 52.5719 66.3785 52.2771 66.5387 52.008C66.7757 51.6075 67.2947 51.8094 67.3043 52.3059C67.3236 53.6227 67.157 55.0387 67.1217 56.3106Z" fill="white"/>
<path opacity="0.7" d="M66.1157 50.6047C64.8375 51.5114 63.9693 53.11 62.5917 53.8981C61.1532 54.7247 59.247 55.0771 57.5907 55.0162C55.6845 54.9426 53.6598 54.5421 51.9009 53.7988C50.4304 53.1805 49.2611 51.8478 48.4121 50.5118C49.0304 51.3544 51.2698 53.5457 58.004 53.8565C62.5372 54.0647 64.107 51.6107 66.1157 50.6047Z" fill="white"/>
<path d="M91.002 56.1919C89.4738 66.5751 77.4952 77.7176 77.4952 77.7176L75.8901 76.0164C75.8901 76.0164 88.4198 62.0259 87.1351 44.6522C85.86 27.3522 67.7976 38.3377 67.7976 38.3377C67.7976 38.3377 49.7383 27.349 48.4633 44.649C47.1818 62.0227 59.7082 76.0132 59.7082 76.0132L58.1032 77.7144C58.1032 77.7144 46.1246 66.5719 44.5964 56.1887C44.4458 55.1475 44.3529 54.0871 44.3177 53.0203C44.2888 52.2674 44.2921 51.5081 44.3177 50.752C44.6188 41.8714 48.2742 32.8786 51.1191 29.0278C54.4926 24.4561 67.3907 20.8231 67.7912 20.711C67.7976 20.7078 67.8008 20.7078 67.8008 20.7078C67.8008 20.7078 67.804 20.7078 67.8104 20.711C68.2109 20.8231 81.1057 24.4593 84.4824 29.0278C87.0742 32.539 90.3452 40.3272 91.1301 48.4005C91.38 51.0115 91.3736 53.6546 91.002 56.1919Z" fill="url(#paint16_radial_494_1527)"/>
<path d="M91.1301 48.4005C90.1145 43.9986 87.9136 40.01 84.979 36.518C83.0504 34.2241 79.7634 33.4584 76.7871 33.8301C73.8141 34.2017 70.9212 35.6402 68.2333 36.9601C68.9061 35.3967 70.0113 34.0639 70.9116 32.6223C71.8182 31.1806 72.5455 29.5147 72.3308 27.8263C72.1578 26.4616 70.6296 21.9604 67.788 20.7077H67.8104C68.2109 20.8199 81.1057 24.4561 84.4824 29.0245C87.0742 32.539 90.3452 40.3272 91.1301 48.4005Z" fill="url(#paint17_radial_494_1527)"/>
<path d="M76.4732 76.6347C76.4732 76.6347 92.2194 63.9256 88.0193 43.313C88.0193 43.313 90.6976 61.3114 75.8901 76.0132L76.4732 76.6347Z" fill="url(#paint18_radial_494_1527)"/>
<path d="M59.1285 76.6347C59.1285 76.6347 43.3823 63.9256 47.5824 43.313C47.5824 43.313 44.9041 61.3114 59.7116 76.0132L59.1285 76.6347Z" fill="url(#paint19_radial_494_1527)"/>
<path d="M48.2072 41.471C48.2072 41.471 50.0781 29.7198 58.6672 27.253C58.6672 27.253 51.1001 30.7739 48.2072 41.471Z" fill="url(#paint20_radial_494_1527)"/>
<path opacity="0.7" d="M67.7916 20.7111C67.4232 20.8616 56.5947 25.3116 53.2916 29.3418C49.9278 33.4426 45.9648 38.7799 44.3213 53.0236V50.7521C44.6192 41.8715 48.2747 32.8787 51.1195 29.0279C54.493 24.4562 67.3911 20.8232 67.7916 20.7111Z" fill="white"/>
<defs>
<linearGradient id="paint0_linear_494_1527" x1="33.7196" y1="86.3404" x2="45.3903" y2="84.7023" gradientUnits="userSpaceOnUse">
<stop stop-color="#4816B5"/>
<stop offset="1" stop-color="#1D0056"/>
</linearGradient>
<linearGradient id="paint1_linear_494_1527" x1="25.3741" y1="65.2627" x2="33.5562" y2="61.5065" gradientUnits="userSpaceOnUse">
<stop stop-color="#4816B5"/>
<stop offset="1" stop-color="#1D0056"/>
</linearGradient>
<radialGradient id="paint2_radial_494_1527" cx="0" cy="0" r="1" gradientUnits="userSpaceOnUse" gradientTransform="translate(36.7917 79.4177) rotate(-7.98993) scale(4.72337 4.72338)">
<stop stop-color="#4816B5"/>
<stop offset="1" stop-color="#1D0056"/>
</radialGradient>
<linearGradient id="paint3_linear_494_1527" x1="101.882" y1="86.3404" x2="90.2113" y2="84.7023" gradientUnits="userSpaceOnUse">
<stop stop-color="#1D0056"/>
<stop offset="1" stop-color="#4816B5"/>
</linearGradient>
<linearGradient id="paint4_linear_494_1527" x1="110.227" y1="65.2626" x2="102.045" y2="61.5064" gradientUnits="userSpaceOnUse">
<stop stop-color="#1D0056"/>
<stop offset="1" stop-color="#4816B5"/>
</linearGradient>
<radialGradient id="paint5_radial_494_1527" cx="0" cy="0" r="1" gradientUnits="userSpaceOnUse" gradientTransform="translate(98.8098 79.4177) rotate(-172.01) scale(4.72338)">
<stop stop-color="#4816B5"/>
<stop offset="1" stop-color="#1D0056"/>
</radialGradient>
<radialGradient id="paint6_radial_494_1527" cx="0" cy="0" r="1" gradientUnits="userSpaceOnUse" gradientTransform="translate(43.9484 84.389) scale(53.6373 76.8515)">
<stop stop-color="#4816B5"/>
<stop offset="1" stop-color="#1D0056"/>
</radialGradient>
<radialGradient id="paint7_radial_494_1527" cx="0" cy="0" r="1" gradientUnits="userSpaceOnUse" gradientTransform="translate(72.2219 90.4608) scale(17.5893 25.2019)">
<stop stop-color="#0F0033"/>
<stop offset="1" stop-color="#060019"/>
</radialGradient>
<radialGradient id="paint8_radial_494_1527" cx="0" cy="0" r="1" gradientUnits="userSpaceOnUse" gradientTransform="translate(62.8721 75.5586) scale(10.8849 10.8849)">
<stop stop-color="#1D0056"/>
<stop offset="1" stop-color="#07001E"/>
</radialGradient>
<radialGradient id="paint9_radial_494_1527" cx="0" cy="0" r="1" gradientUnits="userSpaceOnUse" gradientTransform="translate(57.0443 43.2137) scale(23.1939 24.9388)">
<stop stop-color="#0F0033"/>
<stop offset="1" stop-color="#060019"/>
</radialGradient>
<radialGradient id="paint10_radial_494_1527" cx="0" cy="0" r="1" gradientUnits="userSpaceOnUse" gradientTransform="translate(78.2054 47.2538) scale(5.43152)">
<stop stop-color="#FFAD4A"/>
<stop offset="1" stop-color="#EA6C18"/>
</radialGradient>
<radialGradient id="paint11_radial_494_1527" cx="0" cy="0" r="1" gradientUnits="userSpaceOnUse" gradientTransform="translate(57.4227 47.3525) scale(4.65026)">
<stop stop-color="#FFAD4A"/>
<stop offset="1" stop-color="#EA6C18"/>
</radialGradient>
<radialGradient id="paint12_radial_494_1527" cx="0" cy="0" r="1" gradientUnits="userSpaceOnUse" gradientTransform="translate(56.8067 28.561) scale(23.4432 23.4432)">
<stop stop-color="#4816B5"/>
<stop offset="1" stop-color="#1D0056"/>
</radialGradient>
<radialGradient id="paint13_radial_494_1527" cx="0" cy="0" r="1" gradientUnits="userSpaceOnUse" gradientTransform="translate(69.1304 34.519) scale(14.5164 15.6084)">
<stop stop-color="#1D0056"/>
<stop offset="1" stop-color="#0F0035"/>
</radialGradient>
<radialGradient id="paint14_radial_494_1527" cx="0" cy="0" r="1" gradientUnits="userSpaceOnUse" gradientTransform="translate(51.5046 56.715) scale(41.3424 41.3424)">
<stop stop-color="#4816B5"/>
<stop offset="1" stop-color="#1D0056"/>
</radialGradient>
<radialGradient id="paint15_radial_494_1527" cx="0" cy="0" r="1" gradientUnits="userSpaceOnUse" gradientTransform="translate(68.4076 57.7994) scale(20.2835 21.8094)">
<stop stop-color="#0F0033"/>
<stop offset="1" stop-color="#060019"/>
</radialGradient>
<radialGradient id="paint16_radial_494_1527" cx="0" cy="0" r="1" gradientUnits="userSpaceOnUse" gradientTransform="translate(54.3127 28.349) scale(43.7597 43.7598)">
<stop stop-color="#4816B5"/>
<stop offset="1" stop-color="#1D0056"/>
</radialGradient>
<radialGradient id="paint17_radial_494_1527" cx="0" cy="0" r="1" gradientUnits="userSpaceOnUse" gradientTransform="translate(72.9112 26.3779) scale(19.3875 19.3875)">
<stop stop-color="#0F0033"/>
<stop offset="1" stop-color="#060019"/>
</radialGradient>
<radialGradient id="paint18_radial_494_1527" cx="0" cy="0" r="1" gradientUnits="userSpaceOnUse" gradientTransform="translate(82.3119 59.9752) rotate(180) scale(11.8598 12.7521)">
<stop stop-color="#0F0033"/>
<stop offset="1" stop-color="#060019"/>
</radialGradient>
<radialGradient id="paint19_radial_494_1527" cx="0" cy="0" r="1" gradientUnits="userSpaceOnUse" gradientTransform="translate(53.2895 59.9752) scale(11.8598 12.752)">
<stop stop-color="#0F0033"/>
<stop offset="1" stop-color="#060019"/>
</radialGradient>
<radialGradient id="paint20_radial_494_1527" cx="0" cy="0" r="1" gradientUnits="userSpaceOnUse" gradientTransform="translate(53.4384 34.3622) scale(5.96112 6.40957)">
<stop stop-color="#0F0033"/>
<stop offset="1" stop-color="#060019"/>
</radialGradient>
</defs>
</svg>
